<?xml version="1.0" encoding="UTF-8" standalone="no"?>
<!-- Created with Inkscape (http://www.inkscape.org/) -->

<svg
   xmlns:dc="http://purl.org/dc/elements/1.1/"
   xmlns:cc="http://creativecommons.org/ns#"
   xmlns:rdf="http://www.w3.org/1999/02/22-rdf-syntax-ns#"
   xmlns:svg="http://www.w3.org/2000/svg"
   xmlns="http://www.w3.org/2000/svg"
   xmlns:sodipodi="http://sodipodi.sourceforge.net/DTD/sodipodi-0.dtd"
   xmlns:inkscape="http://www.inkscape.org/namespaces/inkscape"
   id="svg2816"
   version="1.1"
   inkscape:version="0.47 r22583"
   width="220.90587"
   height="440.69025"
   xml:space="preserve"
   sodipodi:docname="02UKPISTA_2010.eps"><metadata
     id="metadata2822"><rdf:RDF><cc:Work
         rdf:about=""><dc:format>image/svg+xml</dc:format><dc:type
           rdf:resource="http://purl.org/dc/dcmitype/StillImage" /><dc:title></dc:title></cc:Work></rdf:RDF></metadata><defs
     id="defs2820"><inkscape:perspective
       sodipodi:type="inkscape:persp3d"
       inkscape:vp_x="0 : 0.5 : 1"
       inkscape:vp_y="0 : 1000 : 0"
       inkscape:vp_z="1 : 0.5 : 1"
       inkscape:persp3d-origin="0.5 : 0.33333333 : 1"
       id="perspective2824" /></defs><sodipodi:namedview
     pagecolor="#ffffff"
     bordercolor="#666666"
     borderopacity="1"
     objecttolerance="10"
     gridtolerance="10"
     guidetolerance="10"
     inkscape:pageopacity="0"
     inkscape:pageshadow="2"
     inkscape:window-width="1680"
     inkscape:window-height="988"
     id="namedview2818"
     showgrid="false"
     inkscape:zoom="2.0246816"
     inkscape:cx="128.46245"
     inkscape:cy="243.0779"
     inkscape:window-x="-8"
     inkscape:window-y="-8"
     inkscape:window-maximized="1"
     inkscape:current-layer="g2826" /><g
     id="g2826"
     inkscape:groupmode="layer"
     inkscape:label="ink_ext_XXXXXX"
     transform="matrix(1.25,0,0,-1.25,-243.41255,723.86234)"><g
       id="g2828"
       transform="matrix(0,0.1,-0.1,0,371.45494,226.53963)"><path
         d="m 1667.11,1177.62 -2.42,0"
         style="fill:none;stroke:#000000;stroke-width:3;stroke-linecap:butt;stroke-linejoin:miter;stroke-miterlimit:10;stroke-opacity:1;stroke-dasharray:none"
         id="path2830" /><path
         d="m 1667.11,1561.64 -2.42,0"
         style="fill:none;stroke:#000000;stroke-width:3;stroke-linecap:butt;stroke-linejoin:miter;stroke-miterlimit:10;stroke-opacity:1;stroke-dasharray:none"
         id="path2832" /><path
         d="m 1667.11,1213.64 0,115.19"
         style="fill:none;stroke:#000000;stroke-width:3;stroke-linecap:butt;stroke-linejoin:miter;stroke-miterlimit:10;stroke-opacity:1;stroke-dasharray:none"
         id="path2834" /><path
         d="m 1667.11,1525.63 0,-115.2"
         style="fill:none;stroke:#000000;stroke-width:3;stroke-linecap:butt;stroke-linejoin:miter;stroke-miterlimit:10;stroke-opacity:1;stroke-dasharray:none"
         id="path2836" /><path
         d="m 1662.3,1213.63 12,0 -7.19,-36.01 -4.81,36.01"
         style="fill:#000000;fill-opacity:1;fill-rule:nonzero;stroke:none"
         id="path2838" /><path
         d="m 1662.3,1213.64 12,0 -7.19,-36.02 -4.81,36.02 z"
         style="fill:none;stroke:#000000;stroke-width:3;stroke-linecap:butt;stroke-linejoin:miter;stroke-miterlimit:4;stroke-opacity:1;stroke-dasharray:none"
         id="path2840" /><path
         d="m 1662.3,1525.63 12,0 -7.19,36.01 -4.81,-36.01"
         style="fill:#000000;fill-opacity:1;fill-rule:nonzero;stroke:none"
         id="path2842" /><path
         d="m 1662.3,1525.63 12,0 -7.19,36.01 -4.81,-36.01 z"
         style="fill:none;stroke:#000000;stroke-width:3;stroke-linecap:butt;stroke-linejoin:miter;stroke-miterlimit:4;stroke-opacity:1;stroke-dasharray:none"
         id="path2844" /><path
         d="m 426.289,822.426 4.801,2.422"
         style="fill:none;stroke:#000000;stroke-width:3;stroke-linecap:butt;stroke-linejoin:miter;stroke-miterlimit:10;stroke-opacity:1;stroke-dasharray:none"
         id="path2846" /><path
         d="m 2022.3,1307.23 0,187.19"
         style="fill:none;stroke:#000000;stroke-width:3;stroke-linecap:butt;stroke-linejoin:miter;stroke-miterlimit:10;stroke-opacity:1;stroke-dasharray:none"
         id="path2848" /><path
         d="m 1667.11,1492.03 95.98,0"
         style="fill:none;stroke:#000000;stroke-width:3;stroke-linecap:butt;stroke-linejoin:miter;stroke-miterlimit:10;stroke-opacity:1;stroke-dasharray:none"
         id="path2850" /><path
         d="m 2022.3,1492.03 -96.01,0"
         style="fill:none;stroke:#000000;stroke-width:3;stroke-linecap:butt;stroke-linejoin:miter;stroke-miterlimit:10;stroke-opacity:1;stroke-dasharray:none"
         id="path2852" /><path
         d="m 1671.02,1493.09 c 0,1.25 -1.02,2.23 -2.23,2.23 -1.21,0 -2.23,-0.98 -2.23,-2.23 0,-1.21 1.02,-2.19 2.23,-2.19 1.21,0 2.23,0.98 2.23,2.19 l 0,0 z"
         style="fill:none;stroke:#000000;stroke-width:3;stroke-linecap:butt;stroke-linejoin:miter;stroke-miterlimit:10;stroke-opacity:1;stroke-dasharray:none"
         id="path2854" /><path
         d="m 2021.02,1493.09 c 0,-1.21 0.97,-2.19 2.18,-2.19 1.25,0 2.23,0.98 2.23,2.19 0,1.25 -0.98,2.23 -2.23,2.23 -1.21,0 -2.18,-0.98 -2.18,-2.23 l 0,0 z"
         style="fill:none;stroke:#000000;stroke-width:3;stroke-linecap:butt;stroke-linejoin:miter;stroke-miterlimit:10;stroke-opacity:1;stroke-dasharray:none"
         id="path2856" /><path
         d="m 3263.09,824.848 -3189.5705,0"
         style="fill:none;stroke:#000000;stroke-width:8;stroke-linecap:butt;stroke-linejoin:miter;stroke-miterlimit:10;stroke-opacity:1;stroke-dasharray:none"
         id="path2858" /><path
         d="m 3263.09,1177.62 -3189.5705,0"
         style="fill:none;stroke:#000000;stroke-width:8;stroke-linecap:butt;stroke-linejoin:miter;stroke-miterlimit:10;stroke-opacity:1;stroke-dasharray:none"
         id="path2860" /><path
         d="m 426.289,1307.23 0,187.19"
         style="fill:none;stroke:#000000;stroke-width:3;stroke-linecap:butt;stroke-linejoin:miter;stroke-miterlimit:10;stroke-opacity:1;stroke-dasharray:none"
         id="path2862" /><path
         d="m 426.289,1492.03 36.012,0"
         style="fill:none;stroke:#000000;stroke-width:3;stroke-linecap:butt;stroke-linejoin:miter;stroke-miterlimit:10;stroke-opacity:1;stroke-dasharray:none"
         id="path2864" /><path
         d="m 37.5,1492.03 -36.01953,0"
         style="fill:none;stroke:#000000;stroke-width:3;stroke-linecap:butt;stroke-linejoin:miter;stroke-miterlimit:10;stroke-opacity:1;stroke-dasharray:none"
         id="path2866" /><path
         d="m 426.289,1492.03 -14.379,0"
         style="fill:none;stroke:#000000;stroke-width:3;stroke-linecap:butt;stroke-linejoin:miter;stroke-miterlimit:10;stroke-opacity:1;stroke-dasharray:none"
         id="path2868" /><path
         d="m 430.512,1493.09 c 0,1.25 -1.024,2.23 -2.231,2.23 -1.25,0 -2.23,-0.98 -2.23,-2.23 0,-1.21 0.98,-2.19 2.23,-2.19 1.207,0 2.231,0.98 2.231,2.19 l 0,0 z"
         style="fill:none;stroke:#000000;stroke-width:3;stroke-linecap:butt;stroke-linejoin:miter;stroke-miterlimit:10;stroke-opacity:1;stroke-dasharray:none"
         id="path2870" /><path
         d="m 37.5,1496.84 0,-9.61 36.0195,4.8 -36.0195,4.81"
         style="fill:#000000;fill-opacity:1;fill-rule:nonzero;stroke:none"
         id="path2872" /><path
         d="m 37.5,1496.84 0,-9.61 36.0195,4.8 -36.0195,4.81 z"
         style="fill:none;stroke:#000000;stroke-width:3;stroke-linecap:butt;stroke-linejoin:miter;stroke-miterlimit:4;stroke-opacity:1;stroke-dasharray:none"
         id="path2874" /><path
         d="m 426.289,1139.21 40.82,38.41"
         style="fill:none;stroke:#000000;stroke-width:3;stroke-linecap:butt;stroke-linejoin:miter;stroke-miterlimit:10;stroke-opacity:1;stroke-dasharray:none"
         id="path2876" /><path
         d="m 426.289,1100.82 79.223,76.8"
         style="fill:none;stroke:#000000;stroke-width:3;stroke-linecap:butt;stroke-linejoin:miter;stroke-miterlimit:10;stroke-opacity:1;stroke-dasharray:none"
         id="path2878" /><path
         d="m 426.289,1060.04 120,117.58"
         style="fill:none;stroke:#000000;stroke-width:3;stroke-linecap:butt;stroke-linejoin:miter;stroke-miterlimit:10;stroke-opacity:1;stroke-dasharray:none"
         id="path2880" /><path
         d="m 426.289,1019.21 158.402,158.41"
         style="fill:none;stroke:#000000;stroke-width:3;stroke-linecap:butt;stroke-linejoin:miter;stroke-miterlimit:10;stroke-opacity:1;stroke-dasharray:none"
         id="path2882" /><path
         d="M 426.289,980.816 625.512,1177.62"
         style="fill:none;stroke:#000000;stroke-width:3;stroke-linecap:butt;stroke-linejoin:miter;stroke-miterlimit:10;stroke-opacity:1;stroke-dasharray:none"
         id="path2884" /><path
         d="M 426.289,940.035 663.91,1177.62"
         style="fill:none;stroke:#000000;stroke-width:3;stroke-linecap:butt;stroke-linejoin:miter;stroke-miterlimit:10;stroke-opacity:1;stroke-dasharray:none"
         id="path2886" /><path
         d="M 426.289,901.637 704.691,1177.62"
         style="fill:none;stroke:#000000;stroke-width:3;stroke-linecap:butt;stroke-linejoin:miter;stroke-miterlimit:10;stroke-opacity:1;stroke-dasharray:none"
         id="path2888" /><path
         d="M 426.289,860.816 556.91,990.387"
         style="fill:none;stroke:#000000;stroke-width:3;stroke-linecap:butt;stroke-linejoin:miter;stroke-miterlimit:10;stroke-opacity:1;stroke-dasharray:none"
         id="path2890" /><path
         d="m 614.57,1047.78 130.942,129.84"
         style="fill:none;stroke:#000000;stroke-width:3;stroke-linecap:butt;stroke-linejoin:miter;stroke-miterlimit:10;stroke-opacity:1;stroke-dasharray:none"
         id="path2892" /><path
         d="m 431.09,824.848 138.211,138.16"
         style="fill:none;stroke:#000000;stroke-width:3;stroke-linecap:butt;stroke-linejoin:miter;stroke-miterlimit:10;stroke-opacity:1;stroke-dasharray:none"
         id="path2894" /><path
         d="M 648.281,1044.03 781.48,1175.24"
         style="fill:none;stroke:#000000;stroke-width:3;stroke-linecap:butt;stroke-linejoin:miter;stroke-miterlimit:10;stroke-opacity:1;stroke-dasharray:none"
         id="path2896" /><path
         d="M 469.488,824.848 601.02,956.328"
         style="fill:none;stroke:#000000;stroke-width:3;stroke-linecap:butt;stroke-linejoin:miter;stroke-miterlimit:10;stroke-opacity:1;stroke-dasharray:none"
         id="path2898" /><path
         d="m 662.27,1017.58 119.21,119.26"
         style="fill:none;stroke:#000000;stroke-width:3;stroke-linecap:butt;stroke-linejoin:miter;stroke-miterlimit:10;stroke-opacity:1;stroke-dasharray:none"
         id="path2900" /><path
         d="M 510.309,824.848 780.16,1094.69"
         style="fill:none;stroke:#000000;stroke-width:3;stroke-linecap:butt;stroke-linejoin:miter;stroke-miterlimit:10;stroke-opacity:1;stroke-dasharray:none"
         id="path2902" /><path
         d="M 548.711,824.848 781.48,1057.62"
         style="fill:none;stroke:#000000;stroke-width:3;stroke-linecap:butt;stroke-linejoin:miter;stroke-miterlimit:10;stroke-opacity:1;stroke-dasharray:none"
         id="path2904" /><path
         d="M 589.488,824.848 781.48,1016.84"
         style="fill:none;stroke:#000000;stroke-width:3;stroke-linecap:butt;stroke-linejoin:miter;stroke-miterlimit:10;stroke-opacity:1;stroke-dasharray:none"
         id="path2906" /><path
         d="M 627.891,824.848 781.48,976.016"
         style="fill:none;stroke:#000000;stroke-width:3;stroke-linecap:butt;stroke-linejoin:miter;stroke-miterlimit:10;stroke-opacity:1;stroke-dasharray:none"
         id="path2908" /><path
         d="M 668.711,824.848 781.48,937.617"
         style="fill:none;stroke:#000000;stroke-width:3;stroke-linecap:butt;stroke-linejoin:miter;stroke-miterlimit:10;stroke-opacity:1;stroke-dasharray:none"
         id="path2910" /><path
         d="m 709.488,824.848 71.992,71.988"
         style="fill:none;stroke:#000000;stroke-width:3;stroke-linecap:butt;stroke-linejoin:miter;stroke-miterlimit:10;stroke-opacity:1;stroke-dasharray:none"
         id="path2912" /><path
         d="m 747.891,824.848 33.589,33.59"
         style="fill:none;stroke:#000000;stroke-width:3;stroke-linecap:butt;stroke-linejoin:miter;stroke-miterlimit:10;stroke-opacity:1;stroke-dasharray:none"
         id="path2914" /><path
         d="m 426.289,1219.21 0,275.21"
         style="fill:none;stroke:#000000;stroke-width:3;stroke-linecap:butt;stroke-linejoin:miter;stroke-miterlimit:10;stroke-opacity:1;stroke-dasharray:none"
         id="path2916" /><path
         d="m 781.48,1307.23 0,187.19"
         style="fill:none;stroke:#000000;stroke-width:3;stroke-linecap:butt;stroke-linejoin:miter;stroke-miterlimit:10;stroke-opacity:1;stroke-dasharray:none"
         id="path2918" /><path
         d="m 426.289,1492.03 96.012,0"
         style="fill:none;stroke:#000000;stroke-width:3;stroke-linecap:butt;stroke-linejoin:miter;stroke-miterlimit:10;stroke-opacity:1;stroke-dasharray:none"
         id="path2920" /><path
         d="m 781.48,1492.03 -95.968,0"
         style="fill:none;stroke:#000000;stroke-width:3;stroke-linecap:butt;stroke-linejoin:miter;stroke-miterlimit:10;stroke-opacity:1;stroke-dasharray:none"
         id="path2922" /><path
         d="m 430.512,1493.09 c 0,1.25 -1.024,2.23 -2.231,2.23 -1.25,0 -2.23,-0.98 -2.23,-2.23 0,-1.21 0.98,-2.19 2.23,-2.19 1.207,0 2.231,0.98 2.231,2.19 l 0,0 z"
         style="fill:none;stroke:#000000;stroke-width:3;stroke-linecap:butt;stroke-linejoin:miter;stroke-miterlimit:10;stroke-opacity:1;stroke-dasharray:none"
         id="path2924" /><path
         d="m 780.512,1493.09 c 0,-1.21 0.968,-2.19 2.187,-2.19 1.25,0 2.223,0.98 2.223,2.19 0,1.25 -0.973,2.23 -2.223,2.23 -1.219,0 -2.187,-0.98 -2.187,-2.23 l 0,0 z"
         style="fill:none;stroke:#000000;stroke-width:3;stroke-linecap:butt;stroke-linejoin:miter;stroke-miterlimit:10;stroke-opacity:1;stroke-dasharray:none"
         id="path2926" /><path
         d="m 73.5195,824.848 0,352.772"
         style="fill:none;stroke:#000000;stroke-width:8;stroke-linecap:butt;stroke-linejoin:miter;stroke-miterlimit:10;stroke-opacity:1;stroke-dasharray:none"
         id="path2928" /><path
         d="m 426.289,1177.62 0,-352.772"
         style="fill:none;stroke:#000000;stroke-width:3;stroke-linecap:butt;stroke-linejoin:miter;stroke-miterlimit:10;stroke-opacity:1;stroke-dasharray:none"
         id="path2930" /><path
         d="m 781.48,1307.23 0,187.19"
         style="fill:none;stroke:#000000;stroke-width:3;stroke-linecap:butt;stroke-linejoin:miter;stroke-miterlimit:10;stroke-opacity:1;stroke-dasharray:none"
         id="path2932" /><path
         d="m 1311.91,1307.23 0,187.19"
         style="fill:none;stroke:#000000;stroke-width:3;stroke-linecap:butt;stroke-linejoin:miter;stroke-miterlimit:10;stroke-opacity:1;stroke-dasharray:none"
         id="path2934" /><path
         d="m 781.48,1492.03 184.809,0"
         style="fill:none;stroke:#000000;stroke-width:3;stroke-linecap:butt;stroke-linejoin:miter;stroke-miterlimit:10;stroke-opacity:1;stroke-dasharray:none"
         id="path2936" /><path
         d="m 1311.91,1492.03 -184.8,0"
         style="fill:none;stroke:#000000;stroke-width:3;stroke-linecap:butt;stroke-linejoin:miter;stroke-miterlimit:10;stroke-opacity:1;stroke-dasharray:none"
         id="path2938" /><path
         d="m 784.922,1493.09 c 0,1.25 -0.973,2.23 -2.223,2.23 -1.219,0 -2.187,-0.98 -2.187,-2.23 0,-1.21 0.968,-2.19 2.187,-2.19 1.25,0 2.223,0.98 2.223,2.19 l 0,0 z"
         style="fill:none;stroke:#000000;stroke-width:3;stroke-linecap:butt;stroke-linejoin:miter;stroke-miterlimit:10;stroke-opacity:1;stroke-dasharray:none"
         id="path2940" /><path
         d="m 1312.15,1493.09 c 0,-1.21 0.98,-2.19 2.19,-2.19 1.25,0 2.22,0.98 2.22,2.19 0,1.25 -0.97,2.23 -2.22,2.23 -1.21,0 -2.19,-0.98 -2.19,-2.23 l 0,0 z"
         style="fill:none;stroke:#000000;stroke-width:3;stroke-linecap:butt;stroke-linejoin:miter;stroke-miterlimit:10;stroke-opacity:1;stroke-dasharray:none"
         id="path2942" /><path
         d="m 781.48,1219.21 0,85.64"
         style="fill:none;stroke:#000000;stroke-width:3;stroke-linecap:butt;stroke-linejoin:miter;stroke-miterlimit:10;stroke-opacity:1;stroke-dasharray:none"
         id="path2944" /><path
         d="m 1311.91,1307.23 0,187.19"
         style="fill:none;stroke:#000000;stroke-width:3;stroke-linecap:butt;stroke-linejoin:miter;stroke-miterlimit:10;stroke-opacity:1;stroke-dasharray:none"
         id="path2946" /><path
         d="m 1311.91,1492.03 98.4,0"
         style="fill:none;stroke:#000000;stroke-width:3;stroke-linecap:butt;stroke-linejoin:miter;stroke-miterlimit:10;stroke-opacity:1;stroke-dasharray:none"
         id="path2948" /><path
         d="m 1667.11,1492.03 -96.02,0"
         style="fill:none;stroke:#000000;stroke-width:3;stroke-linecap:butt;stroke-linejoin:miter;stroke-miterlimit:10;stroke-opacity:1;stroke-dasharray:none"
         id="path2950" /><path
         d="m 1316.56,1493.09 c 0,1.25 -0.97,2.23 -2.22,2.23 -1.21,0 -2.19,-0.98 -2.19,-2.23 0,-1.21 0.98,-2.19 2.19,-2.19 1.25,0 2.22,0.98 2.22,2.19 l 0,0 z"
         style="fill:none;stroke:#000000;stroke-width:3;stroke-linecap:butt;stroke-linejoin:miter;stroke-miterlimit:10;stroke-opacity:1;stroke-dasharray:none"
         id="path2952" /><path
         d="m 1666.56,1493.09 c 0,-1.21 1.02,-2.19 2.23,-2.19 1.21,0 2.23,0.98 2.23,2.19 0,1.25 -1.02,2.23 -2.23,2.23 -1.21,0 -2.23,-0.98 -2.23,-2.23 l 0,0 z"
         style="fill:none;stroke:#000000;stroke-width:3;stroke-linecap:butt;stroke-linejoin:miter;stroke-miterlimit:10;stroke-opacity:1;stroke-dasharray:none"
         id="path2954" /><path
         d="m 1311.91,1214.21 0,93.02"
         style="fill:none;stroke:#000000;stroke-width:3;stroke-linecap:butt;stroke-linejoin:miter;stroke-miterlimit:10;stroke-opacity:1;stroke-dasharray:none"
         id="path2956" /><path
         d="m 781.48,1177.62 0,-352.772"
         style="fill:none;stroke:#000000;stroke-width:3;stroke-linecap:butt;stroke-linejoin:miter;stroke-miterlimit:10;stroke-opacity:1;stroke-dasharray:none"
         id="path2958" /><path
         d="m 1311.91,1177.62 0,-352.772"
         style="fill:none;stroke:#000000;stroke-width:8;stroke-linecap:butt;stroke-linejoin:miter;stroke-miterlimit:10;stroke-opacity:1;stroke-dasharray:none"
         id="path2960" /><path
         d="m 1667.11,1177.62 0,-352.772"
         style="fill:none;stroke:#000000;stroke-width:8;stroke-linecap:butt;stroke-linejoin:miter;stroke-miterlimit:10;stroke-opacity:1;stroke-dasharray:none"
         id="path2962" /><path
         d="m 1566.29,1561.64 201.602,0 0,201.609 -201.602,0 0,-201.609 z"
         style="fill:none;stroke:#000000;stroke-width:8;stroke-linecap:butt;stroke-linejoin:miter;stroke-miterlimit:10;stroke-opacity:1;stroke-dasharray:none"
         id="path2964" /><path
         d="m 426.289,824.848 355.191,0 0,352.77 -355.191,0 0,-352.77 z"
         style="fill:none;stroke:#000000;stroke-width:8;stroke-linecap:butt;stroke-linejoin:miter;stroke-miterlimit:10;stroke-opacity:1;stroke-dasharray:none"
         id="path2966" /><path
         d="m 3431.09,827.227 79.22,0"
         style="fill:none;stroke:#000000;stroke-width:3;stroke-linecap:butt;stroke-linejoin:miter;stroke-miterlimit:10;stroke-opacity:1;stroke-dasharray:none"
         id="path2968" /><path
         d="m 3507.89,827.227 0,-53.012"
         style="fill:none;stroke:#000000;stroke-width:3;stroke-linecap:butt;stroke-linejoin:miter;stroke-miterlimit:10;stroke-opacity:1;stroke-dasharray:none"
         id="path2970" /><path
         d="m 3508.59,825.707 c 1.21,0 2.19,0.969 2.19,2.18 0,1.211 -0.98,2.23 -2.19,2.23 -1.25,0 -2.22,-1.019 -2.22,-2.23 0,-1.211 0.97,-2.18 2.22,-2.18 l 0,0 z"
         style="fill:none;stroke:#000000;stroke-width:3;stroke-linecap:butt;stroke-linejoin:miter;stroke-miterlimit:10;stroke-opacity:1;stroke-dasharray:none"
         id="path2972" /><path
         d="m 2907.89,1307.23 0,187.19"
         style="fill:none;stroke:#000000;stroke-width:3;stroke-linecap:butt;stroke-linejoin:miter;stroke-miterlimit:10;stroke-opacity:1;stroke-dasharray:none"
         id="path2974" /><path
         d="m 2907.89,1492.03 -35.98,0"
         style="fill:none;stroke:#000000;stroke-width:3;stroke-linecap:butt;stroke-linejoin:miter;stroke-miterlimit:10;stroke-opacity:1;stroke-dasharray:none"
         id="path2976" /><path
         d="m 3296.72,1492.03 35.98,0"
         style="fill:none;stroke:#000000;stroke-width:3;stroke-linecap:butt;stroke-linejoin:miter;stroke-miterlimit:10;stroke-opacity:1;stroke-dasharray:none"
         id="path2978" /><path
         d="m 2907.89,1492.03 14.41,0"
         style="fill:none;stroke:#000000;stroke-width:3;stroke-linecap:butt;stroke-linejoin:miter;stroke-miterlimit:10;stroke-opacity:1;stroke-dasharray:none"
         id="path2980" /><path
         d="m 3263.09,1492.03 -14.38,0"
         style="fill:none;stroke:#000000;stroke-width:3;stroke-linecap:butt;stroke-linejoin:miter;stroke-miterlimit:10;stroke-opacity:1;stroke-dasharray:none"
         id="path2982" /><path
         d="m 2907.07,1493.09 c 0,-1.21 1.02,-2.19 2.23,-2.19 1.21,0 2.22,0.98 2.22,2.19 0,1.25 -1.01,2.23 -2.22,2.23 -1.21,0 -2.23,-0.98 -2.23,-2.23 l 0,0 z"
         style="fill:none;stroke:#000000;stroke-width:3;stroke-linecap:butt;stroke-linejoin:miter;stroke-miterlimit:10;stroke-opacity:1;stroke-dasharray:none"
         id="path2984" /><path
         d="m 3296.72,1496.84 0,-9.61 -33.63,4.8 33.63,4.81"
         style="fill:#000000;fill-opacity:1;fill-rule:nonzero;stroke:none"
         id="path2986" /><path
         d="m 3296.72,1496.84 0,-9.61 -33.63,4.8 33.63,4.81 z"
         style="fill:none;stroke:#000000;stroke-width:3;stroke-linecap:butt;stroke-linejoin:miter;stroke-miterlimit:4;stroke-opacity:1;stroke-dasharray:none"
         id="path2988" /><path
         d="m 2022.3,1307.23 0,187.19"
         style="fill:none;stroke:#000000;stroke-width:3;stroke-linecap:butt;stroke-linejoin:miter;stroke-miterlimit:10;stroke-opacity:1;stroke-dasharray:none"
         id="path2990" /><path
         d="m 2552.7,1307.23 0,187.19"
         style="fill:none;stroke:#000000;stroke-width:3;stroke-linecap:butt;stroke-linejoin:miter;stroke-miterlimit:10;stroke-opacity:1;stroke-dasharray:none"
         id="path2992" /><path
         d="m 2022.3,1492.03 184.81,0"
         style="fill:none;stroke:#000000;stroke-width:3;stroke-linecap:butt;stroke-linejoin:miter;stroke-miterlimit:10;stroke-opacity:1;stroke-dasharray:none"
         id="path2994" /><path
         d="m 2552.7,1492.03 -184.81,0"
         style="fill:none;stroke:#000000;stroke-width:3;stroke-linecap:butt;stroke-linejoin:miter;stroke-miterlimit:10;stroke-opacity:1;stroke-dasharray:none"
         id="path2996" /><path
         d="m 2025.43,1493.09 c 0,1.25 -0.98,2.23 -2.23,2.23 -1.21,0 -2.18,-0.98 -2.18,-2.23 0,-1.21 0.97,-2.19 2.18,-2.19 1.25,0 2.23,0.98 2.23,2.19 l 0,0 z"
         style="fill:none;stroke:#000000;stroke-width:3;stroke-linecap:butt;stroke-linejoin:miter;stroke-miterlimit:10;stroke-opacity:1;stroke-dasharray:none"
         id="path2998" /><path
         d="m 2552.66,1493.09 c 0,-1.21 0.97,-2.19 2.22,-2.19 1.21,0 2.19,0.98 2.19,2.19 0,1.25 -0.98,2.23 -2.19,2.23 -1.25,0 -2.22,-0.98 -2.22,-2.23 l 0,0 z"
         style="fill:none;stroke:#000000;stroke-width:3;stroke-linecap:butt;stroke-linejoin:miter;stroke-miterlimit:10;stroke-opacity:1;stroke-dasharray:none"
         id="path3000" /><path
         d="m 2022.3,1214.21 0,90.64"
         style="fill:none;stroke:#000000;stroke-width:3;stroke-linecap:butt;stroke-linejoin:miter;stroke-miterlimit:10;stroke-opacity:1;stroke-dasharray:none"
         id="path3002" /><path
         d="m 2552.7,1307.23 0,187.19"
         style="fill:none;stroke:#000000;stroke-width:3;stroke-linecap:butt;stroke-linejoin:miter;stroke-miterlimit:10;stroke-opacity:1;stroke-dasharray:none"
         id="path3004" /><path
         d="m 2907.89,1307.23 0,187.19"
         style="fill:none;stroke:#000000;stroke-width:3;stroke-linecap:butt;stroke-linejoin:miter;stroke-miterlimit:10;stroke-opacity:1;stroke-dasharray:none"
         id="path3006" /><path
         d="m 2552.7,1492.03 96.01,0"
         style="fill:none;stroke:#000000;stroke-width:3;stroke-linecap:butt;stroke-linejoin:miter;stroke-miterlimit:10;stroke-opacity:1;stroke-dasharray:none"
         id="path3008" /><path
         d="m 2907.89,1492.03 -95.98,0"
         style="fill:none;stroke:#000000;stroke-width:3;stroke-linecap:butt;stroke-linejoin:miter;stroke-miterlimit:10;stroke-opacity:1;stroke-dasharray:none"
         id="path3010" /><path
         d="m 2557.07,1493.09 c 0,1.25 -0.98,2.23 -2.19,2.23 -1.25,0 -2.22,-0.98 -2.22,-2.23 0,-1.21 0.97,-2.19 2.22,-2.19 1.21,0 2.19,0.98 2.19,2.19 l 0,0 z"
         style="fill:none;stroke:#000000;stroke-width:3;stroke-linecap:butt;stroke-linejoin:miter;stroke-miterlimit:10;stroke-opacity:1;stroke-dasharray:none"
         id="path3012" /><path
         d="m 2907.07,1493.09 c 0,-1.21 1.02,-2.19 2.23,-2.19 1.21,0 2.22,0.98 2.22,2.19 0,1.25 -1.01,2.23 -2.22,2.23 -1.21,0 -2.23,-0.98 -2.23,-2.23 l 0,0 z"
         style="fill:none;stroke:#000000;stroke-width:3;stroke-linecap:butt;stroke-linejoin:miter;stroke-miterlimit:10;stroke-opacity:1;stroke-dasharray:none"
         id="path3014" /><path
         d="m 2552.7,1209.21 0,98.02"
         style="fill:none;stroke:#000000;stroke-width:3;stroke-linecap:butt;stroke-linejoin:miter;stroke-miterlimit:10;stroke-opacity:1;stroke-dasharray:none"
         id="path3016" /><path
         d="m 2907.89,1214.21 0,93.02"
         style="fill:none;stroke:#000000;stroke-width:3;stroke-linecap:butt;stroke-linejoin:miter;stroke-miterlimit:10;stroke-opacity:1;stroke-dasharray:none"
         id="path3018" /><path
         d="m 2022.3,1177.62 0,-352.772"
         style="fill:none;stroke:#000000;stroke-width:8;stroke-linecap:butt;stroke-linejoin:miter;stroke-miterlimit:10;stroke-opacity:1;stroke-dasharray:none"
         id="path3020" /><path
         d="m 2552.7,1158.44 21.6,19.18"
         style="fill:none;stroke:#000000;stroke-width:3;stroke-linecap:butt;stroke-linejoin:miter;stroke-miterlimit:10;stroke-opacity:1;stroke-dasharray:none"
         id="path3022" /><path
         d="m 2552.7,1117.62 62.42,60"
         style="fill:none;stroke:#000000;stroke-width:3;stroke-linecap:butt;stroke-linejoin:miter;stroke-miterlimit:10;stroke-opacity:1;stroke-dasharray:none"
         id="path3024" /><path
         d="m 2552.7,1079.21 100.82,98.41"
         style="fill:none;stroke:#000000;stroke-width:3;stroke-linecap:butt;stroke-linejoin:miter;stroke-miterlimit:10;stroke-opacity:1;stroke-dasharray:none"
         id="path3026" /><path
         d="m 2552.7,1038.44 141.6,139.18"
         style="fill:none;stroke:#000000;stroke-width:3;stroke-linecap:butt;stroke-linejoin:miter;stroke-miterlimit:10;stroke-opacity:1;stroke-dasharray:none"
         id="path3028" /><path
         d="m 2552.7,997.617 180,180.003"
         style="fill:none;stroke:#000000;stroke-width:3;stroke-linecap:butt;stroke-linejoin:miter;stroke-miterlimit:10;stroke-opacity:1;stroke-dasharray:none"
         id="path3030" /><path
         d="m 2552.7,959.215 220.82,218.405"
         style="fill:none;stroke:#000000;stroke-width:3;stroke-linecap:butt;stroke-linejoin:miter;stroke-miterlimit:10;stroke-opacity:1;stroke-dasharray:none"
         id="path3032" /><path
         d="m 2552.7,918.438 261.6,259.182"
         style="fill:none;stroke:#000000;stroke-width:3;stroke-linecap:butt;stroke-linejoin:miter;stroke-miterlimit:10;stroke-opacity:1;stroke-dasharray:none"
         id="path3034" /><path
         d="m 2552.7,880.035 117.77,116.801"
         style="fill:none;stroke:#000000;stroke-width:3;stroke-linecap:butt;stroke-linejoin:miter;stroke-miterlimit:10;stroke-opacity:1;stroke-dasharray:none"
         id="path3036" /><path
         d="m 2730.7,1056.6 122,121.02"
         style="fill:none;stroke:#000000;stroke-width:3;stroke-linecap:butt;stroke-linejoin:miter;stroke-miterlimit:10;stroke-opacity:1;stroke-dasharray:none"
         id="path3038" /><path
         d="m 2552.7,839.215 126.13,124.262"
         style="fill:none;stroke:#000000;stroke-width:3;stroke-linecap:butt;stroke-linejoin:miter;stroke-miterlimit:10;stroke-opacity:1;stroke-dasharray:none"
         id="path3040" /><path
         d="m 2754.3,1040.51 139.22,137.11"
         style="fill:none;stroke:#000000;stroke-width:3;stroke-linecap:butt;stroke-linejoin:miter;stroke-miterlimit:10;stroke-opacity:1;stroke-dasharray:none"
         id="path3042" /><path
         d="m 2579.1,824.848 119.18,119.179"
         style="fill:none;stroke:#000000;stroke-width:3;stroke-linecap:butt;stroke-linejoin:miter;stroke-miterlimit:10;stroke-opacity:1;stroke-dasharray:none"
         id="path3044" /><path
         d="m 2774.8,1022.54 133.09,131.1"
         style="fill:none;stroke:#000000;stroke-width:3;stroke-linecap:butt;stroke-linejoin:miter;stroke-miterlimit:10;stroke-opacity:1;stroke-dasharray:none"
         id="path3046" /><path
         d="m 2617.5,824.848 290.39,290.392"
         style="fill:none;stroke:#000000;stroke-width:3;stroke-linecap:butt;stroke-linejoin:miter;stroke-miterlimit:10;stroke-opacity:1;stroke-dasharray:none"
         id="path3048" /><path
         d="m 2658.28,824.848 249.61,249.572"
         style="fill:none;stroke:#000000;stroke-width:3;stroke-linecap:butt;stroke-linejoin:miter;stroke-miterlimit:10;stroke-opacity:1;stroke-dasharray:none"
         id="path3050" /><path
         d="m 2696.72,824.848 211.17,208.792"
         style="fill:none;stroke:#000000;stroke-width:3;stroke-linecap:butt;stroke-linejoin:miter;stroke-miterlimit:10;stroke-opacity:1;stroke-dasharray:none"
         id="path3052" /><path
         d="m 2737.5,824.848 170.39,170.39"
         style="fill:none;stroke:#000000;stroke-width:3;stroke-linecap:butt;stroke-linejoin:miter;stroke-miterlimit:10;stroke-opacity:1;stroke-dasharray:none"
         id="path3054" /><path
         d="m 2778.28,824.848 129.61,129.57"
         style="fill:none;stroke:#000000;stroke-width:3;stroke-linecap:butt;stroke-linejoin:miter;stroke-miterlimit:10;stroke-opacity:1;stroke-dasharray:none"
         id="path3056" /><path
         d="m 2816.72,824.848 91.17,91.168"
         style="fill:none;stroke:#000000;stroke-width:3;stroke-linecap:butt;stroke-linejoin:miter;stroke-miterlimit:10;stroke-opacity:1;stroke-dasharray:none"
         id="path3058" /><path
         d="m 2857.5,824.848 50.39,50.39"
         style="fill:none;stroke:#000000;stroke-width:3;stroke-linecap:butt;stroke-linejoin:miter;stroke-miterlimit:10;stroke-opacity:1;stroke-dasharray:none"
         id="path3060" /><path
         d="m 2895.9,824.848 11.99,11.988"
         style="fill:none;stroke:#000000;stroke-width:3;stroke-linecap:butt;stroke-linejoin:miter;stroke-miterlimit:10;stroke-opacity:1;stroke-dasharray:none"
         id="path3062" /><path
         d="m 3263.09,824.848 0,352.772"
         style="fill:none;stroke:#000000;stroke-width:8;stroke-linecap:butt;stroke-linejoin:miter;stroke-miterlimit:10;stroke-opacity:1;stroke-dasharray:none"
         id="path3064" /><path
         d="m 2907.89,1177.62 0,-352.772"
         style="fill:none;stroke:#000000;stroke-width:3;stroke-linecap:butt;stroke-linejoin:miter;stroke-miterlimit:10;stroke-opacity:1;stroke-dasharray:none"
         id="path3066" /><path
         d="m 2552.7,1177.62 0,-352.772"
         style="fill:none;stroke:#000000;stroke-width:3;stroke-linecap:butt;stroke-linejoin:miter;stroke-miterlimit:10;stroke-opacity:1;stroke-dasharray:none"
         id="path3068" /><path
         d="m 3431.09,1180.04 79.22,0"
         style="fill:none;stroke:#000000;stroke-width:3;stroke-linecap:butt;stroke-linejoin:miter;stroke-miterlimit:10;stroke-opacity:1;stroke-dasharray:none"
         id="path3070" /><path
         d="m 3508.59,1184.3 c -1.25,0 -2.22,-0.98 -2.22,-2.23 0,-1.21 0.97,-2.18 2.22,-2.18 1.21,0 2.19,0.97 2.19,2.18 0,1.25 -0.98,2.23 -2.19,2.23 l 0,0 z"
         style="fill:none;stroke:#000000;stroke-width:3;stroke-linecap:butt;stroke-linejoin:miter;stroke-miterlimit:10;stroke-opacity:1;stroke-dasharray:none"
         id="path3072" /><path
         d="m 3419.1,1180.04 91.21,0"
         style="fill:none;stroke:#000000;stroke-width:3;stroke-linecap:butt;stroke-linejoin:miter;stroke-miterlimit:10;stroke-opacity:1;stroke-dasharray:none"
         id="path3074" /><path
         d="m 3419.1,827.227 91.21,0"
         style="fill:none;stroke:#000000;stroke-width:3;stroke-linecap:butt;stroke-linejoin:miter;stroke-miterlimit:10;stroke-opacity:1;stroke-dasharray:none"
         id="path3076" /><path
         d="m 3507.89,1180.04 0,35.98"
         style="fill:none;stroke:#000000;stroke-width:3;stroke-linecap:butt;stroke-linejoin:miter;stroke-miterlimit:10;stroke-opacity:1;stroke-dasharray:none"
         id="path3078" /><path
         d="m 3507.89,827.227 0,-36.02"
         style="fill:none;stroke:#000000;stroke-width:3;stroke-linecap:butt;stroke-linejoin:miter;stroke-miterlimit:10;stroke-opacity:1;stroke-dasharray:none"
         id="path3080" /><path
         d="m 3507.89,1180.04 0,-14.41"
         style="fill:none;stroke:#000000;stroke-width:3;stroke-linecap:butt;stroke-linejoin:miter;stroke-miterlimit:10;stroke-opacity:1;stroke-dasharray:none"
         id="path3082" /><path
         d="m 3507.89,827.227 0,14.41"
         style="fill:none;stroke:#000000;stroke-width:3;stroke-linecap:butt;stroke-linejoin:miter;stroke-miterlimit:10;stroke-opacity:1;stroke-dasharray:none"
         id="path3084" /><path
         d="m 3508.59,1184.3 c -1.25,0 -2.22,-0.98 -2.22,-2.23 0,-1.21 0.97,-2.18 2.22,-2.18 1.21,0 2.19,0.97 2.19,2.18 0,1.25 -0.98,2.23 -2.19,2.23 l 0,0 z"
         style="fill:none;stroke:#000000;stroke-width:3;stroke-linecap:butt;stroke-linejoin:miter;stroke-miterlimit:10;stroke-opacity:1;stroke-dasharray:none"
         id="path3086" /><path
         d="m 3508.59,825.707 c 1.21,0 2.19,0.969 2.19,2.18 0,1.211 -0.98,2.23 -2.19,2.23 -1.25,0 -2.22,-1.019 -2.22,-2.23 0,-1.211 0.97,-2.18 2.22,-2.18 l 0,0 z"
         style="fill:none;stroke:#000000;stroke-width:3;stroke-linecap:butt;stroke-linejoin:miter;stroke-miterlimit:10;stroke-opacity:1;stroke-dasharray:none"
         id="path3088" /><path
         d="m 2552.7,824.848 355.191,0 0,352.77 -355.191,0 0,-352.77 z"
         style="fill:none;stroke:#000000;stroke-width:8;stroke-linecap:butt;stroke-linejoin:miter;stroke-miterlimit:10;stroke-opacity:1;stroke-dasharray:none"
         id="path3090" /><g
         id="g3092"
         transform="scale(10,10)"><text
           transform="matrix(1,0,0,-1,164.476,164.423)"
           id="text3094"><tspan
             style="font-size:7px;font-variant:normal;writing-mode:lr-tb;fill:#000000;fill-opacity:1;fill-rule:nonzero;stroke:none;font-family:f-0;-inkscape-font-specification:f-0-0"
             x="0"
             y="0"
             id="tspan3096">A</tspan></text>
<text
           transform="matrix(1,0,0,-1,179.8108,146.923)"
           id="text3098"><tspan
             style="font-size:6px;font-variant:normal;writing-mode:lr-tb;fill:#000000;fill-opacity:1;fill-rule:nonzero;stroke:none;font-family:f-0;-inkscape-font-specification:f-0-0"
             x="0 3.336 5.0040002 43.001999 46.338001 48.006001 88.000076 91.336082 93.004082 115.16226 118.49826 120.16626 123.50226 125.17026 126.83826 130.17426 131.84225 135.17825 136.84625"
             y="0"
             sodipodi:role="line"
             id="tspan3100">2 m3 m2 m1.5 to 2 m</tspan></text>
<text
           transform="matrix(1,0,0,-1,163.8956,134.423)"
           id="text3102"><tspan
             style="font-size:7px;font-variant:normal;writing-mode:lr-tb;fill:#000000;fill-opacity:1;fill-rule:nonzero;stroke:none;font-family:f-0;-inkscape-font-specification:f-0-0"
             x="0"
             y="0"
             id="tspan3104">M</tspan></text>
<text
           transform="matrix(1,0,0,-1,143.8108,146.923)"
           id="text3106"><tspan
             style="font-size:6px;font-variant:normal;writing-mode:lr-tb;fill:#000000;fill-opacity:1;fill-rule:nonzero;stroke:none;font-family:f-0;-inkscape-font-specification:f-0-0"
             x="0 3.336 5.0040002 -45 -41.664001 -39.995998 -89 -85.664001 -83.996002 -133.34019 -130.0042 -128.33034 -125.0004 -123.32634 -121.65834 -118.32234 -116.65434 -113.31834 -111.65034"
             y="0"
             sodipodi:role="line"
             id="tspan3108">2 m3 m2 m1.5 to 2 m</tspan></text>
<text
           transform="matrix(1,0,0,-1,59.3647,97.923)"
           id="text3110"><tspan
             style="font-size:7px;font-variant:normal;writing-mode:lr-tb;fill:#000000;fill-opacity:1;fill-rule:nonzero;stroke:none;font-family:f-0;-inkscape-font-specification:f-0-0"
             x="0 239.11099 210.76221"
             y="0"
             sodipodi:role="line"
             id="tspan3112">LRL</tspan><tspan
             style="font-size:7px;font-variant:normal;writing-mode:lr-tb;fill:#000000;fill-opacity:1;fill-rule:nonzero;stroke:none;font-family:f-0;-inkscape-font-specification:f-0-0"
             x="-18.191799 16.64027 69.390312 228.9752 194.64 140.724 105.2537"
             y="26.5"
             sodipodi:role="line"
             id="tspan3114">ESGESGC</tspan></text>
<text
           transform="matrix(0,1,1,0,352.477,87.0855)"
           id="text3116"><tspan
             style="font-size:6px;font-variant:normal;writing-mode:lr-tb;fill:#000000;fill-opacity:1;fill-rule:nonzero;stroke:none;font-family:f-0;-inkscape-font-specification:f-0-0"
             x="0 3.336 5.0040002 8.3400002 10.008 11.676 15.012 16.68 20.016001 21.684"
             y="0"
             sodipodi:role="line"
             id="tspan3118">1.5 to 2 m</tspan></text>
<text
           transform="matrix(1,0,0,-1,98.8102,53.4227)"
           id="text3120"><tspan
             style="font-size:6px;font-variant:normal;writing-mode:lr-tb;fill:#000000;fill-opacity:1;fill-rule:nonzero;stroke:none;font-family:f-0;-inkscape-font-specification:f-0-0"
             x="0 4.0019999 9.0061321 12.672132 16.008133 19.344131 20.676132 24.012133 25.680132 27.348131 30.684132 32.682133 34.350132 37.686131 39.018131 42.354134 45.354134 47.022133 49.02013 50.352131 53.352131 56.682076 58.014076 59.682076 63.019444 66.355446 69.691444 73.027443 75.025444 78.355583 80.02964 83.359589 86.359589 107.98965 112.98765 117.99764 122.99564 124.32393 127.65993 128.99193 133.98993 137.32593 142.32393 143.99193 147.32793 148.99593 153.99393"
             y="0"
             sodipodi:role="line"
             id="tspan3122">A Table for electrical apparatussM Minimum 1 mm</tspan><tspan
             style="font-size:6px;font-variant:normal;writing-mode:lr-tb;fill:#000000;fill-opacity:1;fill-rule:nonzero;stroke:none;font-family:f-0;-inkscape-font-specification:f-0-0"
             x="0 4.3319998 9.3359404 13.66794 17.003941 20.339939 22.00794 24.005939 27.34194 29.009939 30.34194 31.668081 35.004082 38.34008 40.007919 107.99272 111.32872 118.00063 121.33662 124.67262 127.67262 129.34062 131.00862 134.34462 136.01262 141.01062 142.67862 146.01462 147.68262 149.35062 152.68663 154.01862 157.01862 158.68663 162.02263"
             y="9"
             sodipodi:role="line"
             id="tspan3124">C Centre lineeeL Last 2 m of pistee</tspan><tspan
             style="font-size:6px;font-variant:normal;writing-mode:lr-tb;fill:#000000;fill-opacity:1;fill-rule:nonzero;stroke:none;font-family:f-0;-inkscape-font-specification:f-0-0"
             x="0 4.6680002 9.6719398 14.345995 17.67594 19.673941 23.009939 26.34594 29.68194 31.679939 35.015942 36.683941 38.015942 39.347939 42.678082 46.01408 49.01408 50.682243 107.99551 111.99751 117.00163 121.00363 124.33964 127.67564 129.34363 132.67964 134.34764 136.01564 139.35164 140.68364 143.68364 145.35164 148.68764 150.35564 152.35364 154.35164 157.68764 161.02364 163.02164 164.68964 166.02164 167.35364 172.34891 173.68089 175.34891 177.34689"
             y="18"
             sodipodi:role="line"
             id="tspan3126">G On-guard linesssE End of piste (rear limit))</tspan><tspan
             style="font-size:6px;font-variant:normal;writing-mode:lr-tb;fill:#000000;fill-opacity:1;fill-rule:nonzero;stroke:none;font-family:f-0;-inkscape-font-specification:f-0-0"
             x="0 4.3319998 9.3359404 13.66794 17.003941 20.339939 22.00794 25.343941 28.67408 31.67408 34.67408 36.348137 38.346134 41.676079 44.676079 46.350136 49.68008 53.016079 56.016079 57.34808 60.683495 64.019493 65.687492 69.023491 70.691498 72.359497 75.695496 77.027496 80.027496 81.695496 85.031494 87.029495 107.99332 111.99532 116.99944 121.00145 122.66945 126.00545 128.00345 129.67145 131.33945 134.67545 136.34344 138.01144 141.34744 143.01544 148.01344 149.68144 152.68144 154.01344 157.34944 160.68544 164.02145 165.35344 167.02145 170.35745 172.35545 175.69145 179.02745"
             y="27"
             sodipodi:role="line"
             id="tspan3128">R Run back (extension of piste))S Start of 2 m signal areaa</tspan><tspan
             style="font-size:6px;font-variant:normal;writing-mode:lr-tb;fill:#000000;fill-opacity:1;fill-rule:nonzero;stroke:none;font-family:f-0;-inkscape-font-specification:f-0-0"
             x="-59.591801 -55.9258 -52.589802 -50.591801 -48.923801 -47.255798 -43.9198 -42.587799 -41.255798 -39.587799 -36.251801 -32.915798 -29.5798 -27.9118 -24.5758 -21.239799 -17.903799 -14.5678 -12.8998 -11.2318 -7.8958001 -4.5598001 -2.8917999 0.1082 3.439122 6.7751217 10.111122 13.447122 16.447123 18.115122 19.447123 22.447123 25.783121 27.451122 30.451122 33.787121 35.785122 37.453121 40.789124 43.789124 47.125122 48.793121 53.791122 57.127121 60.127121 61.79512 63.460583 66.460587 69.796585 72.796585 76.132584 78.130585 79.798584 81.466583 84.802582 88.13858 89.80658 94.13858 97.474586 100.81059 102.14259 105.47858 107.14658 110.48258 112.15058 113.81858 115.48658 118.82259 122.15858 123.82346 125.15546 128.49146 131.82745 135.15759 136.83165 140.16161 141.83565 145.1656 148.5016 151.8376 153.5056 156.8416 158.8396 162.1756 165.5116 168.8476 170.51559 173.85159 175.51959 178.85559 180.52361 182.1916 183.86076 187.19678 190.53278 192.20078 195.53677 196.86877 199.86877 201.53677 204.87277 206.54077"
             y="45.159801"
             sodipodi:role="line"
             id="tspan3130">For foil and épée the conductive surface must cover the whole of the length and breadth of the piste, </tspan><tspan
             style="font-size:6px;font-variant:normal;writing-mode:lr-tb;fill:#000000;fill-opacity:1;fill-rule:nonzero;stroke:none;font-family:f-0;-inkscape-font-specification:f-0-0"
             x="-59.591801 -58.2598 -54.923801 -51.923801 -50.591801 -47.261658 -43.925659 -42.593658 -39.25766 -35.921658 -34.253658 -32.921658 -31.25366 -28.25366 -26.585659 -23.249659 -20.249659 -18.581659 -15.24566 -11.909659 -8.9096594 -7.5776596 -4.2475185 -0.91151875 2.0898485 3.7578485 5.7558484 7.7538486 11.089849 14.425848 16.093849 19.429848 22.765848 25.765848 28.765848 30.763849 32.431847 34.429848 37.429848 39.097847 40.76585 42.433849 46.435848 48.433849 50.101849 51.433849 54.433849 55.76585 59.101849 60.769848 62.440193 64.108192 67.444191 70.78019 73.78019 75.448189 77.116196 82.114189 83.782188 87.118195 90.454193"
             y="52.159801"
             sodipodi:role="line"
             id="tspan3132">including its extensions (run back) (cf. Article t.13s, m.57)</tspan></text>
<text
           transform="matrix(1,0,0,-1,30.97582,97.9227)"
           id="text3134"><tspan
             style="font-size:7px;font-variant:normal;writing-mode:lr-tb;fill:#000000;fill-opacity:1;fill-rule:nonzero;stroke:none;font-family:f-0;-inkscape-font-specification:f-0-0"
             x="0"
             y="0"
             id="tspan3136">R</tspan></text>
</g></g></g></svg>