<?xml version="1.0" encoding="UTF-8" standalone="no"?>
<!-- Created with Inkscape (http://www.inkscape.org/) -->

<svg
   xmlns:dc="http://purl.org/dc/elements/1.1/"
   xmlns:cc="http://creativecommons.org/ns#"
   xmlns:rdf="http://www.w3.org/1999/02/22-rdf-syntax-ns#"
   xmlns:svg="http://www.w3.org/2000/svg"
   xmlns="http://www.w3.org/2000/svg"
   xmlns:sodipodi="http://sodipodi.sourceforge.net/DTD/sodipodi-0.dtd"
   xmlns:inkscape="http://www.inkscape.org/namespaces/inkscape"
   id="svg2816"
   version="1.1"
   inkscape:version="0.47 r22583"
   width="743.75"
   height="1052.5"
   xml:space="preserve"
   sodipodi:docname="02UKPISTA.eps"><metadata
     id="metadata2822"><rdf:RDF><cc:Work
         rdf:about=""><dc:format>image/svg+xml</dc:format><dc:type
           rdf:resource="http://purl.org/dc/dcmitype/StillImage" /><dc:title></dc:title></cc:Work></rdf:RDF></metadata><defs
     id="defs2820"><inkscape:perspective
       sodipodi:type="inkscape:persp3d"
       inkscape:vp_x="0 : 0.5 : 1"
       inkscape:vp_y="0 : 1000 : 0"
       inkscape:vp_z="1 : 0.5 : 1"
       inkscape:persp3d-origin="0.5 : 0.33333333 : 1"
       id="perspective2824" /></defs><sodipodi:namedview
     pagecolor="#ffffff"
     bordercolor="#666666"
     borderopacity="1"
     objecttolerance="10"
     gridtolerance="10"
     guidetolerance="10"
     inkscape:pageopacity="0"
     inkscape:pageshadow="2"
     inkscape:window-width="1680"
     inkscape:window-height="988"
     id="namedview2818"
     showgrid="false"
     inkscape:zoom="2.04"
     inkscape:cx="371.875"
     inkscape:cy="526.25"
     inkscape:window-x="-8"
     inkscape:window-y="-8"
     inkscape:window-maximized="1"
     inkscape:current-layer="g2826" /><g
     id="g2826"
     inkscape:groupmode="layer"
     inkscape:label="ink_ext_XXXXXX"
     transform="matrix(1.25,0,0,-1.25,0,1052.5)"><g
       id="g2828"
       transform="scale(0.1,0.1)"><path
         d="m 2819,4653.4 -2.4,0"
         style="fill:none;stroke:#000000;stroke-opacity:1;stroke-width:3;stroke-linecap:butt;stroke-linejoin:miter;stroke-miterlimit:10;stroke-dasharray:none"
         id="path2830" /><path
         d="m 2819,5037.4 -2.4,0"
         style="fill:none;stroke:#000000;stroke-opacity:1;stroke-width:3;stroke-linecap:butt;stroke-linejoin:miter;stroke-miterlimit:10;stroke-dasharray:none"
         id="path2832" /><path
         d="m 2819,4689.4 0,115.2"
         style="fill:none;stroke:#000000;stroke-opacity:1;stroke-width:3;stroke-linecap:butt;stroke-linejoin:miter;stroke-miterlimit:10;stroke-dasharray:none"
         id="path2834" /><path
         d="m 2819,5001.4 0,-115.2"
         style="fill:none;stroke:#000000;stroke-opacity:1;stroke-width:3;stroke-linecap:butt;stroke-linejoin:miter;stroke-miterlimit:10;stroke-dasharray:none"
         id="path2836" /><path
         d="m 2814.2,4689.4 12,0 -7.2,-36 -4.8,36"
         style="fill:#000000;fill-opacity:1;fill-rule:nonzero;stroke:none"
         id="path2838" /><path
         d="m 2814.2,4689.4 12,0 -7.2,-36 -4.8,36 z"
         style="fill:none;stroke:#000000;stroke-opacity:1;stroke-width:3;stroke-linecap:butt;stroke-linejoin:miter;stroke-miterlimit:4;stroke-dasharray:none"
         id="path2840" /><path
         d="m 2814.2,5001.4 12,0 -7.2,36 -4.8,-36"
         style="fill:#000000;fill-opacity:1;fill-rule:nonzero;stroke:none"
         id="path2842" /><path
         d="m 2814.2,5001.4 12,0 -7.2,36 -4.8,-36 z"
         style="fill:none;stroke:#000000;stroke-opacity:1;stroke-width:3;stroke-linecap:butt;stroke-linejoin:miter;stroke-miterlimit:4;stroke-dasharray:none"
         id="path2844" /><path
         d="m 2819,4653.4 0,0"
         style="fill:none;stroke:#000000;stroke-opacity:1;stroke-width:3;stroke-linecap:butt;stroke-linejoin:miter;stroke-miterlimit:10;stroke-dasharray:none"
         id="path2846" /><path
         d="m 2819,5037.4 0,0 z"
         style="fill:none;stroke:#000000;stroke-opacity:1;stroke-width:3;stroke-linecap:butt;stroke-linejoin:miter;stroke-miterlimit:10;stroke-dasharray:none"
         id="path2848" /><path
         d="m 1578.2,4298.2 4.8,2.4"
         style="fill:none;stroke:#000000;stroke-opacity:1;stroke-width:3;stroke-linecap:butt;stroke-linejoin:miter;stroke-miterlimit:10;stroke-dasharray:none"
         id="path2850" /><path
         d="m 3174.2,4783 0,187.2"
         style="fill:none;stroke:#000000;stroke-opacity:1;stroke-width:3;stroke-linecap:butt;stroke-linejoin:miter;stroke-miterlimit:10;stroke-dasharray:none"
         id="path2852" /><path
         d="m 2819,4967.8 96,0"
         style="fill:none;stroke:#000000;stroke-opacity:1;stroke-width:3;stroke-linecap:butt;stroke-linejoin:miter;stroke-miterlimit:10;stroke-dasharray:none"
         id="path2854" /><path
         d="m 3174.2,4967.8 -96,0"
         style="fill:none;stroke:#000000;stroke-opacity:1;stroke-width:3;stroke-linecap:butt;stroke-linejoin:miter;stroke-miterlimit:10;stroke-dasharray:none"
         id="path2856" /><path
         d="m 2822.9,4968.88 c 0,1.23 -0.99,2.22 -2.22,2.22 -1.22,0 -2.21,-0.99 -2.21,-2.22 0,-1.22 0.99,-2.21 2.21,-2.21 1.23,0 2.22,0.99 2.22,2.21 l 0,0 z"
         style="fill:none;stroke:#000000;stroke-opacity:1;stroke-width:3;stroke-linecap:butt;stroke-linejoin:miter;stroke-miterlimit:10;stroke-dasharray:none"
         id="path2858" /><path
         d="m 3172.9,4968.88 c 0,-1.22 0.99,-2.21 2.22,-2.21 1.22,0 2.21,0.99 2.21,2.21 0,1.23 -0.99,2.22 -2.21,2.22 -1.23,0 -2.22,-0.99 -2.22,-2.22 l 0,0 z"
         style="fill:none;stroke:#000000;stroke-opacity:1;stroke-width:3;stroke-linecap:butt;stroke-linejoin:miter;stroke-miterlimit:10;stroke-dasharray:none"
         id="path2860" /><path
         d="m 2819,4783 0,0"
         style="fill:none;stroke:#000000;stroke-opacity:1;stroke-width:3;stroke-linecap:butt;stroke-linejoin:miter;stroke-miterlimit:10;stroke-dasharray:none"
         id="path2862" /><path
         d="m 3174.2,4783 0,0"
         style="fill:none;stroke:#000000;stroke-opacity:1;stroke-width:3;stroke-linecap:butt;stroke-linejoin:miter;stroke-miterlimit:10;stroke-dasharray:none"
         id="path2864" /><path
         d="m 3174.2,4967.8 0,0"
         style="fill:none;stroke:#000000;stroke-opacity:1;stroke-width:3;stroke-linecap:butt;stroke-linejoin:miter;stroke-miterlimit:10;stroke-dasharray:none"
         id="path2866" /><path
         d="m 4415,4300.6 -3189.6,0"
         style="fill:none;stroke:#000000;stroke-opacity:1;stroke-width:8;stroke-linecap:butt;stroke-linejoin:miter;stroke-miterlimit:10;stroke-dasharray:none"
         id="path2868" /><path
         d="m 4415,4653.4 -3189.6,0"
         style="fill:none;stroke:#000000;stroke-opacity:1;stroke-width:8;stroke-linecap:butt;stroke-linejoin:miter;stroke-miterlimit:10;stroke-dasharray:none"
         id="path2870" /><path
         d="m 1578.2,4783 0,187.2"
         style="fill:none;stroke:#000000;stroke-opacity:1;stroke-width:3;stroke-linecap:butt;stroke-linejoin:miter;stroke-miterlimit:10;stroke-dasharray:none"
         id="path2872" /><path
         d="m 1578.2,4967.8 36,0"
         style="fill:none;stroke:#000000;stroke-opacity:1;stroke-width:3;stroke-linecap:butt;stroke-linejoin:miter;stroke-miterlimit:10;stroke-dasharray:none"
         id="path2874" /><path
         d="m 1189.4,4967.8 -36,0"
         style="fill:none;stroke:#000000;stroke-opacity:1;stroke-width:3;stroke-linecap:butt;stroke-linejoin:miter;stroke-miterlimit:10;stroke-dasharray:none"
         id="path2876" /><path
         d="m 1578.2,4967.8 -14.4,0"
         style="fill:none;stroke:#000000;stroke-opacity:1;stroke-width:3;stroke-linecap:butt;stroke-linejoin:miter;stroke-miterlimit:10;stroke-dasharray:none"
         id="path2878" /><path
         d="m 1582.39,4968.88 c 0,1.23 -1,2.22 -2.22,2.22 -1.22,0 -2.21,-0.99 -2.21,-2.22 0,-1.22 0.99,-2.21 2.21,-2.21 1.22,0 2.22,0.99 2.22,2.21 l 0,0 z"
         style="fill:none;stroke:#000000;stroke-opacity:1;stroke-width:3;stroke-linecap:butt;stroke-linejoin:miter;stroke-miterlimit:10;stroke-dasharray:none"
         id="path2880" /><path
         d="m 1189.4,4972.6 0,-9.6 36,4.8 -36,4.8"
         style="fill:#000000;fill-opacity:1;fill-rule:nonzero;stroke:none"
         id="path2882" /><path
         d="m 1189.4,4972.6 0,-9.6 36,4.8 -36,4.8 z"
         style="fill:none;stroke:#000000;stroke-opacity:1;stroke-width:3;stroke-linecap:butt;stroke-linejoin:miter;stroke-miterlimit:4;stroke-dasharray:none"
         id="path2884" /><path
         d="m 1578.2,4783 0,0"
         style="fill:none;stroke:#000000;stroke-opacity:1;stroke-width:3;stroke-linecap:butt;stroke-linejoin:miter;stroke-miterlimit:10;stroke-dasharray:none"
         id="path2886" /><path
         d="m 1225.4,4967.8 0,0"
         style="fill:none;stroke:#000000;stroke-opacity:1;stroke-width:3;stroke-linecap:butt;stroke-linejoin:miter;stroke-miterlimit:10;stroke-dasharray:none"
         id="path2888" /><path
         d="m 1578.2,4615 40.8,38.4"
         style="fill:none;stroke:#000000;stroke-opacity:1;stroke-width:3;stroke-linecap:butt;stroke-linejoin:miter;stroke-miterlimit:10;stroke-dasharray:none"
         id="path2890" /><path
         d="m 1578.2,4576.6 79.2,76.8"
         style="fill:none;stroke:#000000;stroke-opacity:1;stroke-width:3;stroke-linecap:butt;stroke-linejoin:miter;stroke-miterlimit:10;stroke-dasharray:none"
         id="path2892" /><path
         d="m 1578.2,4535.8 120,117.6"
         style="fill:none;stroke:#000000;stroke-opacity:1;stroke-width:3;stroke-linecap:butt;stroke-linejoin:miter;stroke-miterlimit:10;stroke-dasharray:none"
         id="path2894" /><path
         d="m 1578.2,4495 158.4,158.4"
         style="fill:none;stroke:#000000;stroke-opacity:1;stroke-width:3;stroke-linecap:butt;stroke-linejoin:miter;stroke-miterlimit:10;stroke-dasharray:none"
         id="path2896" /><path
         d="m 1578.2,4456.6 199.2,196.8"
         style="fill:none;stroke:#000000;stroke-opacity:1;stroke-width:3;stroke-linecap:butt;stroke-linejoin:miter;stroke-miterlimit:10;stroke-dasharray:none"
         id="path2898" /><path
         d="m 1578.2,4415.8 237.6,237.6"
         style="fill:none;stroke:#000000;stroke-opacity:1;stroke-width:3;stroke-linecap:butt;stroke-linejoin:miter;stroke-miterlimit:10;stroke-dasharray:none"
         id="path2900" /><path
         d="m 1578.2,4377.4 278.4,276"
         style="fill:none;stroke:#000000;stroke-opacity:1;stroke-width:3;stroke-linecap:butt;stroke-linejoin:miter;stroke-miterlimit:10;stroke-dasharray:none"
         id="path2902" /><path
         d="m 1578.2,4336.6 130.63,129.57"
         style="fill:none;stroke:#000000;stroke-opacity:1;stroke-width:3;stroke-linecap:butt;stroke-linejoin:miter;stroke-miterlimit:10;stroke-dasharray:none"
         id="path2904" /><path
         d="M 1766.46,4523.54 1897.4,4653.4"
         style="fill:none;stroke:#000000;stroke-opacity:1;stroke-width:3;stroke-linecap:butt;stroke-linejoin:miter;stroke-miterlimit:10;stroke-dasharray:none"
         id="path2906" /><path
         d="m 1583,4300.6 138.2,138.2"
         style="fill:none;stroke:#000000;stroke-opacity:1;stroke-width:3;stroke-linecap:butt;stroke-linejoin:miter;stroke-miterlimit:10;stroke-dasharray:none"
         id="path2908" /><path
         d="M 1800.19,4519.8 1933.4,4651"
         style="fill:none;stroke:#000000;stroke-opacity:1;stroke-width:3;stroke-linecap:butt;stroke-linejoin:miter;stroke-miterlimit:10;stroke-dasharray:none"
         id="path2910" /><path
         d="m 1621.4,4300.6 131.5,131.5"
         style="fill:none;stroke:#000000;stroke-opacity:1;stroke-width:3;stroke-linecap:butt;stroke-linejoin:miter;stroke-miterlimit:10;stroke-dasharray:none"
         id="path2912" /><path
         d="M 1814.15,4493.35 1933.4,4612.6"
         style="fill:none;stroke:#000000;stroke-opacity:1;stroke-width:3;stroke-linecap:butt;stroke-linejoin:miter;stroke-miterlimit:10;stroke-dasharray:none"
         id="path2914" /><path
         d="m 1662.2,4300.6 269.85,269.85"
         style="fill:none;stroke:#000000;stroke-opacity:1;stroke-width:3;stroke-linecap:butt;stroke-linejoin:miter;stroke-miterlimit:10;stroke-dasharray:none"
         id="path2916" /><path
         d="m 1700.6,4300.6 232.8,232.8"
         style="fill:none;stroke:#000000;stroke-opacity:1;stroke-width:3;stroke-linecap:butt;stroke-linejoin:miter;stroke-miterlimit:10;stroke-dasharray:none"
         id="path2918" /><path
         d="m 1741.4,4300.6 192,192"
         style="fill:none;stroke:#000000;stroke-opacity:1;stroke-width:3;stroke-linecap:butt;stroke-linejoin:miter;stroke-miterlimit:10;stroke-dasharray:none"
         id="path2920" /><path
         d="m 1779.8,4300.6 153.6,151.2"
         style="fill:none;stroke:#000000;stroke-opacity:1;stroke-width:3;stroke-linecap:butt;stroke-linejoin:miter;stroke-miterlimit:10;stroke-dasharray:none"
         id="path2922" /><path
         d="m 1820.6,4300.6 112.8,112.8"
         style="fill:none;stroke:#000000;stroke-opacity:1;stroke-width:3;stroke-linecap:butt;stroke-linejoin:miter;stroke-miterlimit:10;stroke-dasharray:none"
         id="path2924" /><path
         d="m 1861.4,4300.6 72,72"
         style="fill:none;stroke:#000000;stroke-opacity:1;stroke-width:3;stroke-linecap:butt;stroke-linejoin:miter;stroke-miterlimit:10;stroke-dasharray:none"
         id="path2926" /><path
         d="m 1899.8,4300.6 33.6,33.6"
         style="fill:none;stroke:#000000;stroke-opacity:1;stroke-width:3;stroke-linecap:butt;stroke-linejoin:miter;stroke-miterlimit:10;stroke-dasharray:none"
         id="path2928" /><path
         d="m 1578.2,4695 0,275.2"
         style="fill:none;stroke:#000000;stroke-opacity:1;stroke-width:3;stroke-linecap:butt;stroke-linejoin:miter;stroke-miterlimit:10;stroke-dasharray:none"
         id="path2930" /><path
         d="m 1933.4,4783 0,187.2"
         style="fill:none;stroke:#000000;stroke-opacity:1;stroke-width:3;stroke-linecap:butt;stroke-linejoin:miter;stroke-miterlimit:10;stroke-dasharray:none"
         id="path2932" /><path
         d="m 1578.2,4967.8 96,0"
         style="fill:none;stroke:#000000;stroke-opacity:1;stroke-width:3;stroke-linecap:butt;stroke-linejoin:miter;stroke-miterlimit:10;stroke-dasharray:none"
         id="path2934" /><path
         d="m 1933.4,4967.8 -96,0"
         style="fill:none;stroke:#000000;stroke-opacity:1;stroke-width:3;stroke-linecap:butt;stroke-linejoin:miter;stroke-miterlimit:10;stroke-dasharray:none"
         id="path2936" /><path
         d="m 1582.39,4968.88 c 0,1.23 -1,2.22 -2.22,2.22 -1.22,0 -2.21,-0.99 -2.21,-2.22 0,-1.22 0.99,-2.21 2.21,-2.21 1.22,0 2.22,0.99 2.22,2.21 l 0,0 z"
         style="fill:none;stroke:#000000;stroke-opacity:1;stroke-width:3;stroke-linecap:butt;stroke-linejoin:miter;stroke-miterlimit:10;stroke-dasharray:none"
         id="path2938" /><path
         d="m 1932.39,4968.88 c 0,-1.22 0.99,-2.21 2.22,-2.21 1.22,0 2.21,0.99 2.21,2.21 0,1.23 -0.99,2.22 -2.21,2.22 -1.23,0 -2.22,-0.99 -2.22,-2.22 l 0,0 z"
         style="fill:none;stroke:#000000;stroke-opacity:1;stroke-width:3;stroke-linecap:butt;stroke-linejoin:miter;stroke-miterlimit:10;stroke-dasharray:none"
         id="path2940" /><path
         d="m 1933.4,4783 0,0"
         style="fill:none;stroke:#000000;stroke-opacity:1;stroke-width:3;stroke-linecap:butt;stroke-linejoin:miter;stroke-miterlimit:10;stroke-dasharray:none"
         id="path2942" /><path
         d="m 1933.4,4967.8 0,0"
         style="fill:none;stroke:#000000;stroke-opacity:1;stroke-width:3;stroke-linecap:butt;stroke-linejoin:miter;stroke-miterlimit:10;stroke-dasharray:none"
         id="path2944" /><path
         d="m 1225.4,4300.6 0,352.8"
         style="fill:none;stroke:#000000;stroke-opacity:1;stroke-width:8;stroke-linecap:butt;stroke-linejoin:miter;stroke-miterlimit:10;stroke-dasharray:none"
         id="path2946" /><path
         d="m 1578.2,4653.4 0,-352.8"
         style="fill:none;stroke:#000000;stroke-opacity:1;stroke-width:3;stroke-linecap:butt;stroke-linejoin:miter;stroke-miterlimit:10;stroke-dasharray:none"
         id="path2948" /><path
         d="m 1933.4,4783 0,187.2"
         style="fill:none;stroke:#000000;stroke-opacity:1;stroke-width:3;stroke-linecap:butt;stroke-linejoin:miter;stroke-miterlimit:10;stroke-dasharray:none"
         id="path2950" /><path
         d="m 2463.8,4783 0,187.2"
         style="fill:none;stroke:#000000;stroke-opacity:1;stroke-width:3;stroke-linecap:butt;stroke-linejoin:miter;stroke-miterlimit:10;stroke-dasharray:none"
         id="path2952" /><path
         d="m 1933.4,4967.8 184.8,0"
         style="fill:none;stroke:#000000;stroke-opacity:1;stroke-width:3;stroke-linecap:butt;stroke-linejoin:miter;stroke-miterlimit:10;stroke-dasharray:none"
         id="path2954" /><path
         d="m 2463.8,4967.8 -184.8,0"
         style="fill:none;stroke:#000000;stroke-opacity:1;stroke-width:3;stroke-linecap:butt;stroke-linejoin:miter;stroke-miterlimit:10;stroke-dasharray:none"
         id="path2956" /><path
         d="m 1936.82,4968.88 c 0,1.23 -0.99,2.22 -2.21,2.22 -1.23,0 -2.22,-0.99 -2.22,-2.22 0,-1.22 0.99,-2.21 2.22,-2.21 1.22,0 2.21,0.99 2.21,2.21 l 0,0 z"
         style="fill:none;stroke:#000000;stroke-opacity:1;stroke-width:3;stroke-linecap:butt;stroke-linejoin:miter;stroke-miterlimit:10;stroke-dasharray:none"
         id="path2958" /><path
         d="m 2464.04,4968.88 c 0,-1.22 0.99,-2.21 2.21,-2.21 1.23,0 2.22,0.99 2.22,2.21 0,1.23 -0.99,2.22 -2.22,2.22 -1.22,0 -2.21,-0.99 -2.21,-2.22 l 0,0 z"
         style="fill:none;stroke:#000000;stroke-opacity:1;stroke-width:3;stroke-linecap:butt;stroke-linejoin:miter;stroke-miterlimit:10;stroke-dasharray:none"
         id="path2960" /><path
         d="m 1933.4,4695 0,85.6"
         style="fill:none;stroke:#000000;stroke-opacity:1;stroke-width:3;stroke-linecap:butt;stroke-linejoin:miter;stroke-miterlimit:10;stroke-dasharray:none"
         id="path2962" /><path
         d="m 2463.8,4783 0,0"
         style="fill:none;stroke:#000000;stroke-opacity:1;stroke-width:3;stroke-linecap:butt;stroke-linejoin:miter;stroke-miterlimit:10;stroke-dasharray:none"
         id="path2964" /><path
         d="m 2463.8,4967.8 0,0"
         style="fill:none;stroke:#000000;stroke-opacity:1;stroke-width:3;stroke-linecap:butt;stroke-linejoin:miter;stroke-miterlimit:10;stroke-dasharray:none"
         id="path2966" /><path
         d="m 2463.8,4783 0,187.2"
         style="fill:none;stroke:#000000;stroke-opacity:1;stroke-width:3;stroke-linecap:butt;stroke-linejoin:miter;stroke-miterlimit:10;stroke-dasharray:none"
         id="path2968" /><path
         d="m 2463.8,4967.8 98.4,0"
         style="fill:none;stroke:#000000;stroke-opacity:1;stroke-width:3;stroke-linecap:butt;stroke-linejoin:miter;stroke-miterlimit:10;stroke-dasharray:none"
         id="path2970" /><path
         d="m 2819,4967.8 -96,0"
         style="fill:none;stroke:#000000;stroke-opacity:1;stroke-width:3;stroke-linecap:butt;stroke-linejoin:miter;stroke-miterlimit:10;stroke-dasharray:none"
         id="path2972" /><path
         d="m 2468.47,4968.88 c 0,1.23 -0.99,2.22 -2.22,2.22 -1.22,0 -2.21,-0.99 -2.21,-2.22 0,-1.22 0.99,-2.21 2.21,-2.21 1.23,0 2.22,0.99 2.22,2.21 l 0,0 z"
         style="fill:none;stroke:#000000;stroke-opacity:1;stroke-width:3;stroke-linecap:butt;stroke-linejoin:miter;stroke-miterlimit:10;stroke-dasharray:none"
         id="path2974" /><path
         d="m 2818.47,4968.88 c 0,-1.22 0.99,-2.21 2.21,-2.21 1.23,0 2.22,0.99 2.22,2.21 0,1.23 -0.99,2.22 -2.22,2.22 -1.22,0 -2.21,-0.99 -2.21,-2.22 l 0,0 z"
         style="fill:none;stroke:#000000;stroke-opacity:1;stroke-width:3;stroke-linecap:butt;stroke-linejoin:miter;stroke-miterlimit:10;stroke-dasharray:none"
         id="path2976" /><path
         d="m 2463.8,4690 0,93"
         style="fill:none;stroke:#000000;stroke-opacity:1;stroke-width:3;stroke-linecap:butt;stroke-linejoin:miter;stroke-miterlimit:10;stroke-dasharray:none"
         id="path2978" /><path
         d="m 2819,4783 0,0"
         style="fill:none;stroke:#000000;stroke-opacity:1;stroke-width:3;stroke-linecap:butt;stroke-linejoin:miter;stroke-miterlimit:10;stroke-dasharray:none"
         id="path2980" /><path
         d="m 2819,4967.8 0,0"
         style="fill:none;stroke:#000000;stroke-opacity:1;stroke-width:3;stroke-linecap:butt;stroke-linejoin:miter;stroke-miterlimit:10;stroke-dasharray:none"
         id="path2982" /><path
         d="m 1933.4,4653.4 0,-352.8"
         style="fill:none;stroke:#000000;stroke-opacity:1;stroke-width:3;stroke-linecap:butt;stroke-linejoin:miter;stroke-miterlimit:10;stroke-dasharray:none"
         id="path2984" /><path
         d="m 2463.8,4653.4 0,-352.8"
         style="fill:none;stroke:#000000;stroke-opacity:1;stroke-width:8;stroke-linecap:butt;stroke-linejoin:miter;stroke-miterlimit:10;stroke-dasharray:none"
         id="path2986" /><path
         d="m 2819,4653.4 0,-352.8"
         style="fill:none;stroke:#000000;stroke-opacity:1;stroke-width:8;stroke-linecap:butt;stroke-linejoin:miter;stroke-miterlimit:10;stroke-dasharray:none"
         id="path2988" /><path
         d="m 2718.2,5037.4 201.602,0 0,201.602 -201.602,0 0,-201.602 z"
         style="fill:none;stroke:#000000;stroke-opacity:1;stroke-width:8;stroke-linecap:butt;stroke-linejoin:miter;stroke-miterlimit:10;stroke-dasharray:none"
         id="path2990" /><path
         d="m 1578.2,4300.6 355.199,0 0,352.797 -355.199,0 0,-352.797 z"
         style="fill:none;stroke:#000000;stroke-opacity:1;stroke-width:8;stroke-linecap:butt;stroke-linejoin:miter;stroke-miterlimit:10;stroke-dasharray:none"
         id="path2992" /><path
         d="m 4583,4303 79.2,0"
         style="fill:none;stroke:#000000;stroke-opacity:1;stroke-width:3;stroke-linecap:butt;stroke-linejoin:miter;stroke-miterlimit:10;stroke-dasharray:none"
         id="path2994" /><path
         d="m 4659.8,4303 0,-53"
         style="fill:none;stroke:#000000;stroke-opacity:1;stroke-width:3;stroke-linecap:butt;stroke-linejoin:miter;stroke-miterlimit:10;stroke-dasharray:none"
         id="path2996" /><path
         d="m 4660.48,4301.46 c 1.23,0 2.22,0.99 2.22,2.21 0,1.22 -0.99,2.21 -2.22,2.21 -1.22,0 -2.21,-0.99 -2.21,-2.21 0,-1.22 0.99,-2.21 2.21,-2.21 l 0,0 z"
         style="fill:none;stroke:#000000;stroke-opacity:1;stroke-width:3;stroke-linecap:butt;stroke-linejoin:miter;stroke-miterlimit:10;stroke-dasharray:none"
         id="path2998" /><path
         d="m 4583,4303 0,0"
         style="fill:none;stroke:#000000;stroke-opacity:1;stroke-width:3;stroke-linecap:butt;stroke-linejoin:miter;stroke-miterlimit:10;stroke-dasharray:none"
         id="path3000" /><path
         d="m 4059.8,4783 0,187.2"
         style="fill:none;stroke:#000000;stroke-opacity:1;stroke-width:3;stroke-linecap:butt;stroke-linejoin:miter;stroke-miterlimit:10;stroke-dasharray:none"
         id="path3002" /><path
         d="m 4059.8,4967.8 -36,0"
         style="fill:none;stroke:#000000;stroke-opacity:1;stroke-width:3;stroke-linecap:butt;stroke-linejoin:miter;stroke-miterlimit:10;stroke-dasharray:none"
         id="path3004" /><path
         d="m 4448.6,4967.8 36,0"
         style="fill:none;stroke:#000000;stroke-opacity:1;stroke-width:3;stroke-linecap:butt;stroke-linejoin:miter;stroke-miterlimit:10;stroke-dasharray:none"
         id="path3006" /><path
         d="m 4059.8,4967.8 14.4,0"
         style="fill:none;stroke:#000000;stroke-opacity:1;stroke-width:3;stroke-linecap:butt;stroke-linejoin:miter;stroke-miterlimit:10;stroke-dasharray:none"
         id="path3008" /><path
         d="m 4415,4967.8 -14.4,0"
         style="fill:none;stroke:#000000;stroke-opacity:1;stroke-width:3;stroke-linecap:butt;stroke-linejoin:miter;stroke-miterlimit:10;stroke-dasharray:none"
         id="path3010" /><path
         d="m 4058.98,4968.88 c 0,-1.22 0.99,-2.21 2.22,-2.21 1.22,0 2.21,0.99 2.21,2.21 0,1.23 -0.99,2.22 -2.21,2.22 -1.23,0 -2.22,-0.99 -2.22,-2.22 l 0,0 z"
         style="fill:none;stroke:#000000;stroke-opacity:1;stroke-width:3;stroke-linecap:butt;stroke-linejoin:miter;stroke-miterlimit:10;stroke-dasharray:none"
         id="path3012" /><path
         d="m 4448.6,4972.6 0,-9.6 -33.6,4.8 33.6,4.8"
         style="fill:#000000;fill-opacity:1;fill-rule:nonzero;stroke:none"
         id="path3014" /><path
         d="m 4448.6,4972.6 0,-9.6 -33.6,4.8 33.6,4.8 z"
         style="fill:none;stroke:#000000;stroke-opacity:1;stroke-width:3;stroke-linecap:butt;stroke-linejoin:miter;stroke-miterlimit:4;stroke-dasharray:none"
         id="path3016" /><path
         d="m 4059.8,4783 0,0"
         style="fill:none;stroke:#000000;stroke-opacity:1;stroke-width:3;stroke-linecap:butt;stroke-linejoin:miter;stroke-miterlimit:10;stroke-dasharray:none"
         id="path3018" /><path
         d="m 4415,4967.8 0,0"
         style="fill:none;stroke:#000000;stroke-opacity:1;stroke-width:3;stroke-linecap:butt;stroke-linejoin:miter;stroke-miterlimit:10;stroke-dasharray:none"
         id="path3020" /><path
         d="m 3174.2,4783 0,187.2"
         style="fill:none;stroke:#000000;stroke-opacity:1;stroke-width:3;stroke-linecap:butt;stroke-linejoin:miter;stroke-miterlimit:10;stroke-dasharray:none"
         id="path3022" /><path
         d="m 3704.6,4783 0,187.2"
         style="fill:none;stroke:#000000;stroke-opacity:1;stroke-width:3;stroke-linecap:butt;stroke-linejoin:miter;stroke-miterlimit:10;stroke-dasharray:none"
         id="path3024" /><path
         d="m 3174.2,4967.8 184.8,0"
         style="fill:none;stroke:#000000;stroke-opacity:1;stroke-width:3;stroke-linecap:butt;stroke-linejoin:miter;stroke-miterlimit:10;stroke-dasharray:none"
         id="path3026" /><path
         d="m 3704.6,4967.8 -184.8,0"
         style="fill:none;stroke:#000000;stroke-opacity:1;stroke-width:3;stroke-linecap:butt;stroke-linejoin:miter;stroke-miterlimit:10;stroke-dasharray:none"
         id="path3028" /><path
         d="m 3177.33,4968.88 c 0,1.23 -0.99,2.22 -2.21,2.22 -1.23,0 -2.22,-0.99 -2.22,-2.22 0,-1.22 0.99,-2.21 2.22,-2.21 1.22,0 2.21,0.99 2.21,2.21 l 0,0 z"
         style="fill:none;stroke:#000000;stroke-opacity:1;stroke-width:3;stroke-linecap:butt;stroke-linejoin:miter;stroke-miterlimit:10;stroke-dasharray:none"
         id="path3030" /><path
         d="m 3704.55,4968.88 c 0,-1.22 0.99,-2.21 2.22,-2.21 1.22,0 2.21,0.99 2.21,2.21 0,1.23 -0.99,2.22 -2.21,2.22 -1.23,0 -2.22,-0.99 -2.22,-2.22 l 0,0 z"
         style="fill:none;stroke:#000000;stroke-opacity:1;stroke-width:3;stroke-linecap:butt;stroke-linejoin:miter;stroke-miterlimit:10;stroke-dasharray:none"
         id="path3032" /><path
         d="m 3174.2,4690 0,90.6"
         style="fill:none;stroke:#000000;stroke-opacity:1;stroke-width:3;stroke-linecap:butt;stroke-linejoin:miter;stroke-miterlimit:10;stroke-dasharray:none"
         id="path3034" /><path
         d="m 3704.6,4783 0,0"
         style="fill:none;stroke:#000000;stroke-opacity:1;stroke-width:3;stroke-linecap:butt;stroke-linejoin:miter;stroke-miterlimit:10;stroke-dasharray:none"
         id="path3036" /><path
         d="m 3704.6,4967.8 0,0"
         style="fill:none;stroke:#000000;stroke-opacity:1;stroke-width:3;stroke-linecap:butt;stroke-linejoin:miter;stroke-miterlimit:10;stroke-dasharray:none"
         id="path3038" /><path
         d="m 3704.6,4783 0,187.2"
         style="fill:none;stroke:#000000;stroke-opacity:1;stroke-width:3;stroke-linecap:butt;stroke-linejoin:miter;stroke-miterlimit:10;stroke-dasharray:none"
         id="path3040" /><path
         d="m 4059.8,4783 0,187.2"
         style="fill:none;stroke:#000000;stroke-opacity:1;stroke-width:3;stroke-linecap:butt;stroke-linejoin:miter;stroke-miterlimit:10;stroke-dasharray:none"
         id="path3042" /><path
         d="m 3704.6,4967.8 96,0"
         style="fill:none;stroke:#000000;stroke-opacity:1;stroke-width:3;stroke-linecap:butt;stroke-linejoin:miter;stroke-miterlimit:10;stroke-dasharray:none"
         id="path3044" /><path
         d="m 4059.8,4967.8 -96,0"
         style="fill:none;stroke:#000000;stroke-opacity:1;stroke-width:3;stroke-linecap:butt;stroke-linejoin:miter;stroke-miterlimit:10;stroke-dasharray:none"
         id="path3046" /><path
         d="m 3708.98,4968.88 c 0,1.23 -0.99,2.22 -2.21,2.22 -1.23,0 -2.22,-0.99 -2.22,-2.22 0,-1.22 0.99,-2.21 2.22,-2.21 1.22,0 2.21,0.99 2.21,2.21 l 0,0 z"
         style="fill:none;stroke:#000000;stroke-opacity:1;stroke-width:3;stroke-linecap:butt;stroke-linejoin:miter;stroke-miterlimit:10;stroke-dasharray:none"
         id="path3048" /><path
         d="m 4058.98,4968.88 c 0,-1.22 0.99,-2.21 2.22,-2.21 1.22,0 2.21,0.99 2.21,2.21 0,1.23 -0.99,2.22 -2.21,2.22 -1.23,0 -2.22,-0.99 -2.22,-2.22 l 0,0 z"
         style="fill:none;stroke:#000000;stroke-opacity:1;stroke-width:3;stroke-linecap:butt;stroke-linejoin:miter;stroke-miterlimit:10;stroke-dasharray:none"
         id="path3050" /><path
         d="m 3704.6,4685 0,98"
         style="fill:none;stroke:#000000;stroke-opacity:1;stroke-width:3;stroke-linecap:butt;stroke-linejoin:miter;stroke-miterlimit:10;stroke-dasharray:none"
         id="path3052" /><path
         d="m 4059.8,4690 0,93"
         style="fill:none;stroke:#000000;stroke-opacity:1;stroke-width:3;stroke-linecap:butt;stroke-linejoin:miter;stroke-miterlimit:10;stroke-dasharray:none"
         id="path3054" /><path
         d="m 4059.8,4967.8 0,0"
         style="fill:none;stroke:#000000;stroke-opacity:1;stroke-width:3;stroke-linecap:butt;stroke-linejoin:miter;stroke-miterlimit:10;stroke-dasharray:none"
         id="path3056" /><path
         d="m 3174.2,4653.4 0,-352.8"
         style="fill:none;stroke:#000000;stroke-opacity:1;stroke-width:8;stroke-linecap:butt;stroke-linejoin:miter;stroke-miterlimit:10;stroke-dasharray:none"
         id="path3058" /><path
         d="m 3704.6,4634.2 21.6,19.2"
         style="fill:none;stroke:#000000;stroke-opacity:1;stroke-width:3;stroke-linecap:butt;stroke-linejoin:miter;stroke-miterlimit:10;stroke-dasharray:none"
         id="path3060" /><path
         d="m 3704.6,4593.4 62.4,60"
         style="fill:none;stroke:#000000;stroke-opacity:1;stroke-width:3;stroke-linecap:butt;stroke-linejoin:miter;stroke-miterlimit:10;stroke-dasharray:none"
         id="path3062" /><path
         d="m 3704.6,4555 100.8,98.4"
         style="fill:none;stroke:#000000;stroke-opacity:1;stroke-width:3;stroke-linecap:butt;stroke-linejoin:miter;stroke-miterlimit:10;stroke-dasharray:none"
         id="path3064" /><path
         d="m 3704.6,4514.2 141.6,139.2"
         style="fill:none;stroke:#000000;stroke-opacity:1;stroke-width:3;stroke-linecap:butt;stroke-linejoin:miter;stroke-miterlimit:10;stroke-dasharray:none"
         id="path3066" /><path
         d="m 3704.6,4473.4 180,180"
         style="fill:none;stroke:#000000;stroke-opacity:1;stroke-width:3;stroke-linecap:butt;stroke-linejoin:miter;stroke-miterlimit:10;stroke-dasharray:none"
         id="path3068" /><path
         d="m 3704.6,4435 220.8,218.4"
         style="fill:none;stroke:#000000;stroke-opacity:1;stroke-width:3;stroke-linecap:butt;stroke-linejoin:miter;stroke-miterlimit:10;stroke-dasharray:none"
         id="path3070" /><path
         d="m 3704.6,4394.2 261.6,259.2"
         style="fill:none;stroke:#000000;stroke-opacity:1;stroke-width:3;stroke-linecap:butt;stroke-linejoin:miter;stroke-miterlimit:10;stroke-dasharray:none"
         id="path3072" /><path
         d="m 3704.6,4355.8 117.76,116.82"
         style="fill:none;stroke:#000000;stroke-opacity:1;stroke-width:3;stroke-linecap:butt;stroke-linejoin:miter;stroke-miterlimit:10;stroke-dasharray:none"
         id="path3074" /><path
         d="M 3882.61,4532.39 4004.6,4653.4"
         style="fill:none;stroke:#000000;stroke-opacity:1;stroke-width:3;stroke-linecap:butt;stroke-linejoin:miter;stroke-miterlimit:10;stroke-dasharray:none"
         id="path3076" /><path
         d="m 3704.6,4315 126.12,124.24"
         style="fill:none;stroke:#000000;stroke-opacity:1;stroke-width:3;stroke-linecap:butt;stroke-linejoin:miter;stroke-miterlimit:10;stroke-dasharray:none"
         id="path3078" /><path
         d="m 3906.2,4516.28 139.2,137.12"
         style="fill:none;stroke:#000000;stroke-opacity:1;stroke-width:3;stroke-linecap:butt;stroke-linejoin:miter;stroke-miterlimit:10;stroke-dasharray:none"
         id="path3080" /><path
         d="m 3731,4300.6 119.2,119.2"
         style="fill:none;stroke:#000000;stroke-opacity:1;stroke-width:3;stroke-linecap:butt;stroke-linejoin:miter;stroke-miterlimit:10;stroke-dasharray:none"
         id="path3082" /><path
         d="m 3926.7,4498.31 133.1,131.09"
         style="fill:none;stroke:#000000;stroke-opacity:1;stroke-width:3;stroke-linecap:butt;stroke-linejoin:miter;stroke-miterlimit:10;stroke-dasharray:none"
         id="path3084" /><path
         d="M 3769.4,4300.6 4059.8,4591"
         style="fill:none;stroke:#000000;stroke-opacity:1;stroke-width:3;stroke-linecap:butt;stroke-linejoin:miter;stroke-miterlimit:10;stroke-dasharray:none"
         id="path3086" /><path
         d="m 3810.2,4300.6 249.6,249.6"
         style="fill:none;stroke:#000000;stroke-opacity:1;stroke-width:3;stroke-linecap:butt;stroke-linejoin:miter;stroke-miterlimit:10;stroke-dasharray:none"
         id="path3088" /><path
         d="m 3848.6,4300.6 211.2,208.8"
         style="fill:none;stroke:#000000;stroke-opacity:1;stroke-width:3;stroke-linecap:butt;stroke-linejoin:miter;stroke-miterlimit:10;stroke-dasharray:none"
         id="path3090" /><path
         d="M 3889.4,4300.6 4059.8,4471"
         style="fill:none;stroke:#000000;stroke-opacity:1;stroke-width:3;stroke-linecap:butt;stroke-linejoin:miter;stroke-miterlimit:10;stroke-dasharray:none"
         id="path3092" /><path
         d="m 3930.2,4300.6 129.6,129.6"
         style="fill:none;stroke:#000000;stroke-opacity:1;stroke-width:3;stroke-linecap:butt;stroke-linejoin:miter;stroke-miterlimit:10;stroke-dasharray:none"
         id="path3094" /><path
         d="m 3968.6,4300.6 91.2,91.2"
         style="fill:none;stroke:#000000;stroke-opacity:1;stroke-width:3;stroke-linecap:butt;stroke-linejoin:miter;stroke-miterlimit:10;stroke-dasharray:none"
         id="path3096" /><path
         d="m 4009.4,4300.6 50.4,50.4"
         style="fill:none;stroke:#000000;stroke-opacity:1;stroke-width:3;stroke-linecap:butt;stroke-linejoin:miter;stroke-miterlimit:10;stroke-dasharray:none"
         id="path3098" /><path
         d="m 4047.8,4300.6 12,12"
         style="fill:none;stroke:#000000;stroke-opacity:1;stroke-width:3;stroke-linecap:butt;stroke-linejoin:miter;stroke-miterlimit:10;stroke-dasharray:none"
         id="path3100" /><path
         d="m 4415,4300.6 0,352.8"
         style="fill:none;stroke:#000000;stroke-opacity:1;stroke-width:8;stroke-linecap:butt;stroke-linejoin:miter;stroke-miterlimit:10;stroke-dasharray:none"
         id="path3102" /><path
         d="m 4059.8,4653.4 0,-352.8"
         style="fill:none;stroke:#000000;stroke-opacity:1;stroke-width:3;stroke-linecap:butt;stroke-linejoin:miter;stroke-miterlimit:10;stroke-dasharray:none"
         id="path3104" /><path
         d="m 3704.6,4653.4 0,-352.8"
         style="fill:none;stroke:#000000;stroke-opacity:1;stroke-width:3;stroke-linecap:butt;stroke-linejoin:miter;stroke-miterlimit:10;stroke-dasharray:none"
         id="path3106" /><path
         d="m 4583,4655.8 79.2,0"
         style="fill:none;stroke:#000000;stroke-opacity:1;stroke-width:3;stroke-linecap:butt;stroke-linejoin:miter;stroke-miterlimit:10;stroke-dasharray:none"
         id="path3108" /><path
         d="m 4660.48,4660.07 c -1.22,0 -2.21,-0.99 -2.21,-2.21 0,-1.22 0.99,-2.21 2.21,-2.21 1.23,0 2.22,0.99 2.22,2.21 0,1.22 -0.99,2.21 -2.22,2.21 l 0,0 z"
         style="fill:none;stroke:#000000;stroke-opacity:1;stroke-width:3;stroke-linecap:butt;stroke-linejoin:miter;stroke-miterlimit:10;stroke-dasharray:none"
         id="path3110" /><path
         d="m 4583,4655.8 0,0"
         style="fill:none;stroke:#000000;stroke-opacity:1;stroke-width:3;stroke-linecap:butt;stroke-linejoin:miter;stroke-miterlimit:10;stroke-dasharray:none"
         id="path3112" /><path
         d="m 4571,4655.8 91.2,0"
         style="fill:none;stroke:#000000;stroke-opacity:1;stroke-width:3;stroke-linecap:butt;stroke-linejoin:miter;stroke-miterlimit:10;stroke-dasharray:none"
         id="path3114" /><path
         d="m 4571,4303 91.2,0"
         style="fill:none;stroke:#000000;stroke-opacity:1;stroke-width:3;stroke-linecap:butt;stroke-linejoin:miter;stroke-miterlimit:10;stroke-dasharray:none"
         id="path3116" /><path
         d="m 4659.8,4655.8 0,36"
         style="fill:none;stroke:#000000;stroke-opacity:1;stroke-width:3;stroke-linecap:butt;stroke-linejoin:miter;stroke-miterlimit:10;stroke-dasharray:none"
         id="path3118" /><path
         d="m 4659.8,4303 0,-36"
         style="fill:none;stroke:#000000;stroke-opacity:1;stroke-width:3;stroke-linecap:butt;stroke-linejoin:miter;stroke-miterlimit:10;stroke-dasharray:none"
         id="path3120" /><path
         d="m 4659.8,4655.8 0,-14.4"
         style="fill:none;stroke:#000000;stroke-opacity:1;stroke-width:3;stroke-linecap:butt;stroke-linejoin:miter;stroke-miterlimit:10;stroke-dasharray:none"
         id="path3122" /><path
         d="m 4659.8,4303 0,14.4"
         style="fill:none;stroke:#000000;stroke-opacity:1;stroke-width:3;stroke-linecap:butt;stroke-linejoin:miter;stroke-miterlimit:10;stroke-dasharray:none"
         id="path3124" /><path
         d="m 4660.48,4660.07 c -1.22,0 -2.21,-0.99 -2.21,-2.21 0,-1.22 0.99,-2.21 2.21,-2.21 1.23,0 2.22,0.99 2.22,2.21 0,1.22 -0.99,2.21 -2.22,2.21 l 0,0 z"
         style="fill:none;stroke:#000000;stroke-opacity:1;stroke-width:3;stroke-linecap:butt;stroke-linejoin:miter;stroke-miterlimit:10;stroke-dasharray:none"
         id="path3126" /><path
         d="m 4660.48,4301.46 c 1.23,0 2.22,0.99 2.22,2.21 0,1.22 -0.99,2.21 -2.22,2.21 -1.22,0 -2.21,-0.99 -2.21,-2.21 0,-1.22 0.99,-2.21 2.21,-2.21 l 0,0 z"
         style="fill:none;stroke:#000000;stroke-opacity:1;stroke-width:3;stroke-linecap:butt;stroke-linejoin:miter;stroke-miterlimit:10;stroke-dasharray:none"
         id="path3128" /><path
         d="m 4568.6,4655.8 0,0"
         style="fill:none;stroke:#000000;stroke-opacity:1;stroke-width:3;stroke-linecap:butt;stroke-linejoin:miter;stroke-miterlimit:10;stroke-dasharray:none"
         id="path3130" /><path
         d="m 4568.6,4303 0,0"
         style="fill:none;stroke:#000000;stroke-opacity:1;stroke-width:3;stroke-linecap:butt;stroke-linejoin:miter;stroke-miterlimit:10;stroke-dasharray:none"
         id="path3132" /><path
         d="m 4659.8,4303 0,0"
         style="fill:none;stroke:#000000;stroke-opacity:1;stroke-width:3;stroke-linecap:butt;stroke-linejoin:miter;stroke-miterlimit:10;stroke-dasharray:none"
         id="path3134" /><path
         d="m 3704.6,4300.6 355.199,0 0,352.797 -355.199,0 0,-352.797 z"
         style="fill:none;stroke:#000000;stroke-opacity:1;stroke-width:8;stroke-linecap:butt;stroke-linejoin:miter;stroke-miterlimit:10;stroke-dasharray:none"
         id="path3136" /><g
         id="g3138"
         transform="scale(10,10)"><text
           transform="matrix(1,0,0,-1,279.666,512)"
           id="text3140"><tspan
             style="fill:#000000;fill-opacity:1;fill-rule:nonzero;stroke:none;font-family:Helvetica;font-variant:normal;font-weight:300;font-size:7;writing-mode:lr;-inkscape-font-specification:Helvetica-Light"
             x="0"
             y="0"
             id="tspan3142">A</tspan></text>
<text
           transform="matrix(1,0,0,-1,295.0008,494.5)"
           id="text3144"><tspan
             style="fill:#000000;fill-opacity:1;fill-rule:nonzero;stroke:none;font-family:Helvetica;font-variant:normal;font-weight:300;font-size:6;writing-mode:lr;-inkscape-font-specification:Helvetica-Light"
             x="0 3.336 5.004 43.00002 46.33602 48.00402 88.00002 91.33602 93.00402 115.16292 118.49892 120.16692 123.50292 125.17092 126.83892 130.17492 131.84292 135.17892 136.84692"
             y="0"
             sodipodi:role="line"
             id="tspan3146">2 m3 m2 m1.5 to 2 m</tspan></text>
<text
           transform="matrix(1,0,0,-1,279.0856,482)"
           id="text3148"><tspan
             style="fill:#000000;fill-opacity:1;fill-rule:nonzero;stroke:none;font-family:Helvetica;font-variant:normal;font-weight:300;font-size:7;writing-mode:lr;-inkscape-font-specification:Helvetica-Light"
             x="0"
             y="0"
             id="tspan3150">M</tspan></text>
<text
           transform="matrix(1,0,0,-1,259.0008,494.5)"
           id="text3152"><tspan
             style="fill:#000000;fill-opacity:1;fill-rule:nonzero;stroke:none;font-family:Helvetica;font-variant:normal;font-weight:300;font-size:6;writing-mode:lr;-inkscape-font-specification:Helvetica-Light"
             x="0 3.336 5.004 -45 -41.664 -39.996 -89 -85.664 -83.996 -133.3371 -130.0011 -128.3331 -124.9971 -123.3291 -121.6611 -118.3251 -116.6571 -113.3211 -111.6531"
             y="0"
             sodipodi:role="line"
             id="tspan3154">2 m3 m2 m1.5 to 2 m</tspan></text>
<text
           transform="matrix(1,0,0,-1,174.5547,445.5)"
           id="text3156"><tspan
             style="fill:#000000;fill-opacity:1;fill-rule:nonzero;stroke:none;font-family:Helvetica;font-variant:normal;font-weight:300;font-size:7;writing-mode:lr;-inkscape-font-specification:Helvetica-Light"
             x="0 239.111 210.7598"
             y="0"
             sodipodi:role="line"
             id="tspan3158">LRL</tspan><tspan
             style="fill:#000000;fill-opacity:1;fill-rule:nonzero;stroke:none;font-family:Helvetica;font-variant:normal;font-weight:300;font-size:7;writing-mode:lr;-inkscape-font-specification:Helvetica-Light"
             x="-18.1922 16.64099 69.38984 228.9748 194.6412 140.7236 105.2525"
             y="26.5"
             sodipodi:role="line"
             id="tspan3160">ESGESGC</tspan></text>
<text
           transform="matrix(0,1,1,0,467.667,434.663)"
           id="text3162"><tspan
             style="fill:#000000;fill-opacity:1;fill-rule:nonzero;stroke:none;font-family:Helvetica;font-variant:normal;font-weight:300;font-size:6;writing-mode:lr;-inkscape-font-specification:Helvetica-Light"
             x="0 3.336 5.004 8.34 10.008 11.676 15.012 16.68 20.016 21.684"
             y="0"
             sodipodi:role="line"
             id="tspan3164">1.5 to 2 m</tspan></text>
<text
           transform="matrix(1,0,0,-1,214,401)"
           id="text3166"><tspan
             style="fill:#000000;fill-opacity:1;fill-rule:nonzero;stroke:none;font-family:Helvetica;font-variant:normal;font-weight:300;font-size:6;writing-mode:lr;-inkscape-font-specification:Helvetica-Light"
             x="0 4.002 9.006 12.672 16.008 19.344 20.676 24.012 25.68 27.348 30.684 32.682 34.35 37.686 39.018 42.354 45.354 47.022 49.02 50.352 53.352 56.688 58.02 59.688 63.024 66.36 69.696 73.032 75.03 78.366 80.034 83.37 86.37 108 112.998 118.002 123 124.332 127.668 129 133.998 137.334 142.332 144 147.336 149.004 154.002"
             y="0"
             sodipodi:role="line"
             id="tspan3168">A Table for electrical apparatussM Minimum 1 mm</tspan><tspan
             style="fill:#000000;fill-opacity:1;fill-rule:nonzero;stroke:none;font-family:Helvetica;font-variant:normal;font-weight:300;font-size:6;writing-mode:lr;-inkscape-font-specification:Helvetica-Light"
             x="0 4.332 9.336 13.668 17.004 20.34 22.008 24.006 27.342 29.01 30.342 31.674 35.01 38.346 40.014 108 111.336 118.008 121.344 124.68 127.68 129.348 131.016 134.352 136.02 141.018 142.686 146.022 147.69 149.358 152.694 154.026 157.026 158.694 162.03"
             y="9"
             sodipodi:role="line"
             id="tspan3170">C Centre lineeeL Last 2 m of pistee</tspan><tspan
             style="fill:#000000;fill-opacity:1;fill-rule:nonzero;stroke:none;font-family:Helvetica;font-variant:normal;font-weight:300;font-size:6;writing-mode:lr;-inkscape-font-specification:Helvetica-Light"
             x="0 4.668 9.672 14.34 17.676 19.674 23.01 26.346 29.682 31.68 35.016 36.684 38.016 39.348 42.684 46.02 49.02 50.688 108 112.002 117.006 121.008 124.344 127.68 129.348 132.684 134.352 136.02 139.356 140.688 143.688 145.356 148.692 150.36 152.358 154.356 157.692 161.028 163.026 164.694 166.026 167.358 172.356 173.688 175.356 177.354"
             y="18"
             sodipodi:role="line"
             id="tspan3172">G On-guard linesssE End of piste (rear limit))</tspan><tspan
             style="fill:#000000;fill-opacity:1;fill-rule:nonzero;stroke:none;font-family:Helvetica;font-variant:normal;font-weight:300;font-size:6;writing-mode:lr;-inkscape-font-specification:Helvetica-Light"
             x="0 4.332 9.336 13.668 17.004 20.34 22.008 25.344 28.68 31.68 34.68 36.348 38.346 41.682 44.682 46.35 49.686 53.022 56.022 57.354 60.69 64.026 65.694 69.03 70.698 72.366 75.702 77.034 80.034 81.702 85.038 87.036 108 112.002 117.006 121.008 122.676 126.012 128.01 129.678 131.346 134.682 136.35 138.018 141.354 143.022 148.02 149.688 152.688 154.02 157.356 160.692 164.028 165.36 167.028 170.364 172.362 175.698 179.034"
             y="27"
             sodipodi:role="line"
             id="tspan3174">R Run back (extension of piste))S Start of 2 m signal areaa</tspan><tspan
             style="fill:#000000;fill-opacity:1;fill-rule:nonzero;stroke:none;font-family:Helvetica;font-variant:normal;font-weight:300;font-size:6;writing-mode:lr;-inkscape-font-specification:Helvetica-Light"
             x="0"
             y="36"
             id="tspan3176">à</tspan><tspan
             style="fill:#000000;fill-opacity:1;fill-rule:nonzero;stroke:none;font-family:Helvetica;font-variant:normal;font-weight:300;font-size:6;writing-mode:lr;-inkscape-font-specification:Helvetica-Light"
             x="-59.5918 -55.9258 -52.5898 -50.5918 -48.9238 -47.2558 -43.9198 -42.5878 -41.2558 -39.5878 -36.2518 -32.9158 -29.5798 -27.9118 -24.5758 -21.2398 -17.9038 -14.5678 -12.8998 -11.2318 -7.8958 -4.5598 -2.8918 0.1082 3.4442 6.7802 10.1162 13.4522 16.4522 18.1202 19.4522 22.4522 25.7882 27.4562 30.4562 33.7922 35.7902 37.4582 40.7942 43.7942 47.1302 48.7982 53.7962 57.1322 60.1322 61.8002 63.4682 66.4682 69.8042 72.8042 76.1402 78.1382 79.8062 81.4742 84.8102 88.1462 89.8142 94.1462 97.4822 100.8182 102.1502 105.4862 107.1542 110.4902 112.1582 113.8262 115.4942 118.8302 122.1662 123.8342 125.1662 128.5022 131.8382 135.1742 136.8422 140.1782 141.8462 145.1822 148.5182 151.8542 153.5222 156.8582 158.8562 162.1922 165.5282 168.8642 170.5322 173.8682 175.5362 178.8722 180.5402 182.2082 183.8762 187.2122 190.5482 192.2162 195.5522 196.8842 199.8842 201.5522 204.8882 206.5562 208.2242"
             y="45.15977"
             sodipodi:role="line"
             id="tspan3178">For foil and √©p√©e the conductive surface must cover the whole of the length and breadth of the piste,  </tspan><tspan
             style="fill:#000000;fill-opacity:1;fill-rule:nonzero;stroke:none;font-family:Helvetica;font-variant:normal;font-weight:300;font-size:6;writing-mode:lr;-inkscape-font-specification:Helvetica-Light"
             x="-59.5918 -58.2598 -54.9238 -51.9238 -50.5918 -47.2558 -43.9198 -42.5878 -39.2518 -35.9158 -34.2478 -32.9158 -31.2478 -28.2478 -26.5798 -23.2438 -20.2438 -18.5758 -15.2398 -11.9038 -8.9038 -7.5718 -4.2358 -0.8998 2.1002 3.7682 5.7662 7.7642 11.1002 14.4362 16.1042 19.4402 22.7762 25.7762 28.7762 30.7742 32.4422 34.4402 37.4402 39.1082 40.7762 42.4442 46.4462 48.4442 50.1122 51.4442 54.4442 55.7762 59.1122 60.7802 62.4482 64.1162 67.4522 70.7882 73.7882 75.4562 77.1242 82.1222 83.7902 87.1262 90.4622"
             y="52.15977"
             sodipodi:role="line"
             id="tspan3180">including its extensions (run back) (cf. Article t.13s, m.57)</tspan></text>
<text
           transform="matrix(1,0,0,-1,146.16562,445.50003)"
           id="text3182"><tspan
             style="fill:#000000;fill-opacity:1;fill-rule:nonzero;stroke:none;font-family:Helvetica;font-variant:normal;font-weight:300;font-size:7;writing-mode:lr;-inkscape-font-specification:Helvetica-Light"
             x="0"
             y="0"
             id="tspan3184">R</tspan></text>
</g></g></g></svg>