<?xml version="1.0" encoding="UTF-8" standalone="no"?>
<!-- Created with Inkscape (http://www.inkscape.org/) -->

<svg
   xmlns:dc="http://purl.org/dc/elements/1.1/"
   xmlns:cc="http://creativecommons.org/ns#"
   xmlns:rdf="http://www.w3.org/1999/02/22-rdf-syntax-ns#"
   xmlns:svg="http://www.w3.org/2000/svg"
   xmlns="http://www.w3.org/2000/svg"
   xmlns:xlink="http://www.w3.org/1999/xlink"
   xmlns:sodipodi="http://sodipodi.sourceforge.net/DTD/sodipodi-0.dtd"
   xmlns:inkscape="http://www.inkscape.org/namespaces/inkscape"
   id="svg2855"
   version="1.1"
   inkscape:version="0.47 r22583"
   width="1181"
   height="1665"
   sodipodi:docname="03Geste1-ENG.svg">
  <metadata
     id="metadata2861">
    <rdf:RDF>
      <cc:Work
         rdf:about="">
        <dc:format>image/svg+xml</dc:format>
        <dc:type
           rdf:resource="http://purl.org/dc/dcmitype/StillImage" />
        <dc:title></dc:title>
      </cc:Work>
    </rdf:RDF>
  </metadata>
  <defs
     id="defs2859">
    <inkscape:perspective
       sodipodi:type="inkscape:persp3d"
       inkscape:vp_x="0 : 0.5 : 1"
       inkscape:vp_y="0 : 1000 : 0"
       inkscape:vp_z="1 : 0.5 : 1"
       inkscape:persp3d-origin="0.5 : 0.33333333 : 1"
       id="perspective2863" />
    <inkscape:perspective
       id="perspective2897"
       inkscape:persp3d-origin="0.5 : 0.33333333 : 1"
       inkscape:vp_z="1 : 0.5 : 1"
       inkscape:vp_y="0 : 1000 : 0"
       inkscape:vp_x="0 : 0.5 : 1"
       sodipodi:type="inkscape:persp3d" />
  </defs>
  <sodipodi:namedview
     pagecolor="#ffffff"
     bordercolor="#666666"
     borderopacity="1"
     objecttolerance="10"
     gridtolerance="10"
     guidetolerance="10"
     inkscape:pageopacity="0"
     inkscape:pageshadow="2"
     inkscape:window-width="1440"
     inkscape:window-height="848"
     id="namedview2857"
     showgrid="false"
     inkscape:zoom="0.55"
     inkscape:cx="85693.778"
     inkscape:cy="-20032.728"
     inkscape:window-x="-8"
     inkscape:window-y="-8"
     inkscape:window-maximized="1"
     inkscape:current-layer="svg2855" />
  <image
     xlink:href="file:///C:/Users/psmith/Documents/Fencing/BFA/rules/branches/2009/images/03Geste1.tif"
     width="1181"
     height="1665"
     id="image2865"
     x="85211.312"
     y="20480.91"
     sodipodi:insensitive="true" />
  <g
     inkscape:groupmode="layer"
     id="layer3"
     inkscape:label="Layer#1"
     style="display:inline"
     sodipodi:insensitive="true">
    <g
       style="display:inline"
       id="g2828"
       transform="matrix(0.40372125,0,0,-0.41830956,84597.362,22898.272)">
      <path
         d="m 1884.85,5809.8 c 43.97,8.91 92.94,45.21 92.94,78.53 0,50.61 -85.93,91.64 -191.92,91.64 -105.99,0 -191.92,-41.03 -191.92,-91.64 0,-50.61 85.93,-91.64 191.92,-91.64 4.32,0 8.59,0.07 12.84,0.2 17,-20.36 70.94,-60.97 175.45,-70.09 -74.08,32.72 -130.53,74.66 -89.31,83 z"
         style="fill:none;stroke:#000000;stroke-width:5;stroke-linecap:round;stroke-linejoin:round;stroke-miterlimit:4;stroke-opacity:1;stroke-dasharray:none"
         id="path2830" />
      <path
         d="m 2826.37,5809.8 c 43.97,8.91 92.93,45.21 92.93,78.53 0,50.61 -85.93,91.64 -191.92,91.64 -105.99,0 -191.92,-41.03 -191.92,-91.64 0,-50.61 85.93,-91.64 191.92,-91.64 4.32,0 8.6,0.07 12.85,0.2 17,-20.36 70.94,-60.97 175.45,-70.09 -74.09,32.72 -130.54,74.66 -89.31,83 z"
         style="fill:none;stroke:#000000;stroke-width:5;stroke-linecap:round;stroke-linejoin:round;stroke-miterlimit:4;stroke-opacity:1;stroke-dasharray:none"
         id="path2832" />
      <path
         d="m 3767.88,5809.8 c 43.97,8.91 92.93,45.21 92.93,78.53 0,50.61 -85.92,91.64 -191.92,91.64 -105.99,0 -191.91,-41.03 -191.91,-91.64 0,-50.61 85.92,-91.64 191.91,-91.64 4.32,0 8.6,0.07 12.85,0.2 17,-20.36 70.94,-60.97 175.45,-70.09 -74.08,32.72 -130.54,74.66 -89.31,83 z"
         style="fill:none;stroke:#000000;stroke-width:5;stroke-linecap:round;stroke-linejoin:round;stroke-miterlimit:4;stroke-opacity:1;stroke-dasharray:none"
         id="path2834" />
      <path
         d="m 2826.37,5809.8 c 43.97,8.91 92.93,45.21 92.93,78.53 0,50.61 -85.93,91.64 -191.92,91.64 -105.99,0 -191.92,-41.03 -191.92,-91.64 0,-50.61 85.93,-91.64 191.92,-91.64 4.32,0 8.6,0.07 12.85,0.2 17,-20.36 70.94,-60.97 175.45,-70.09 -74.09,32.72 -130.54,74.66 -89.31,83 z"
         style="fill:none;stroke:#000000;stroke-width:5;stroke-linecap:round;stroke-linejoin:round;stroke-miterlimit:4;stroke-opacity:1;stroke-dasharray:none"
         id="path2836" />
      <path
         d="m 1893.19,3607.55 c 43.96,17.54 106.81,75.65 92.93,268.49 -7.16,99.43 -85.93,180.5 -191.92,180.5 -105.99,0 -177.6,-81.85 -191.91,-180.5 -28.96,-199.5 85.92,-294.32 191.91,-294.32 4.32,0 8.6,0.28 12.85,0.41 17,-20.36 70.93,-60.97 175.45,-70.1 -74.09,32.72 -130.54,79.09 -89.31,95.52 z"
         style="fill:none;stroke:#000000;stroke-width:5;stroke-linecap:round;stroke-linejoin:round;stroke-miterlimit:4;stroke-opacity:1;stroke-dasharray:none"
         id="path2838" />
      <path
         d="m 2834.7,3595.04 c 43.97,8.9 92.93,45.21 92.93,78.52 0,50.62 -85.92,91.65 -191.92,91.65 -105.99,0 -191.91,-41.03 -191.91,-91.65 0,-50.61 85.92,-91.64 191.91,-91.64 4.32,0 8.6,0.08 12.85,0.21 17,-20.36 70.94,-60.97 175.45,-70.1 -74.08,32.72 -130.54,74.67 -89.31,83.01 z"
         style="fill:none;stroke:#000000;stroke-width:5;stroke-linecap:round;stroke-linejoin:round;stroke-miterlimit:4;stroke-opacity:1;stroke-dasharray:none"
         id="path2840" />
      <path
         d="m 3795.17,3595.04 c 43.97,8.9 92.93,45.21 92.93,78.52 0,50.62 -85.92,91.65 -191.91,91.65 -105.99,0 -191.92,-41.03 -191.92,-91.65 0,-50.61 85.93,-91.64 191.92,-91.64 4.31,0 8.6,0.08 12.84,0.21 17.01,-20.36 70.94,-60.97 175.45,-70.1 -74.08,32.72 -130.54,74.67 -89.31,83.01 z"
         style="fill:none;stroke:#000000;stroke-width:5;stroke-linecap:round;stroke-linejoin:round;stroke-miterlimit:4;stroke-opacity:1;stroke-dasharray:none"
         id="path2842" />
      <path
         d="m 2834.7,3595.04 c 43.97,8.9 92.93,45.21 92.93,78.52 0,50.62 -85.92,91.65 -191.92,91.65 -105.99,0 -191.91,-41.03 -191.91,-91.65 0,-50.61 85.92,-91.64 191.91,-91.64 4.32,0 8.6,0.08 12.85,0.21 17,-20.36 70.94,-60.97 175.45,-70.1 -74.08,32.72 -130.54,74.67 -89.31,83.01 z"
         style="fill:none;stroke:#000000;stroke-width:5;stroke-linecap:round;stroke-linejoin:round;stroke-miterlimit:4;stroke-opacity:1;stroke-dasharray:none"
         id="path2844" />
      <path
         d="m 2339.18,4701.28 c 43.96,8.9 92.93,45.2 92.93,78.52 0,50.61 -85.93,91.64 -191.92,91.64 -105.99,0 -191.92,-41.03 -191.92,-91.64 0,-50.61 85.93,-91.64 191.92,-91.64 4.32,0 8.6,0.07 12.85,0.21 17,-20.37 70.93,-60.98 175.44,-70.1 -74.08,32.71 -130.53,74.66 -89.3,83.01 z"
         style="fill:none;stroke:#000000;stroke-width:5;stroke-linecap:round;stroke-linejoin:round;stroke-miterlimit:4;stroke-opacity:1;stroke-dasharray:none"
         id="path2846" />
      <path
         d="m 3377,4701.28 c 60.29,8.9 127.42,45.2 127.42,78.52 0,50.61 -117.81,91.64 -263.13,91.64 -145.33,0 -263.14,-41.03 -263.14,-91.64 0,-50.61 117.81,-91.64 263.14,-91.64 5.91,0 8.6,0.07 12.84,0.21 17,-20.37 70.94,-60.98 175.45,-70.1 -74.08,32.71 -109.1,74.66 -52.58,83.01 z"
         style="fill:none;stroke:#000000;stroke-width:5;stroke-linecap:round;stroke-linejoin:round;stroke-miterlimit:4;stroke-opacity:1;stroke-dasharray:none"
         id="path2848" />
      <path
         d="m 2311.22,2544.64 c 43.97,8.9 92.93,45.2 92.93,78.52 0,50.61 -85.92,91.64 -191.92,91.64 -105.98,0 -191.91,-41.03 -191.91,-91.64 0,-50.61 85.93,-91.64 191.91,-91.64 4.32,0 8.61,0.07 12.85,0.21 17.01,-20.37 70.94,-60.98 175.46,-70.1 -74.09,32.72 -130.55,74.66 -89.32,83.01 z"
         style="fill:none;stroke:#000000;stroke-width:5;stroke-linecap:round;stroke-linejoin:round;stroke-miterlimit:4;stroke-opacity:1;stroke-dasharray:none"
         id="path2850" />
      <path
         d="m 3294.68,2544.64 c 60.28,8.9 108.22,35.42 127.41,78.52 64.58,144.98 -117.81,211.64 -263.13,211.64 -145.33,0 -322.63,-76.25 -263.14,-211.64 24.18,-55.02 117.81,-91.64 263.14,-91.64 5.92,0 8.6,0.07 12.84,0.21 17,-20.37 70.94,-60.98 175.46,-70.1 -74.09,32.72 -109.11,74.66 -52.58,83.01 z"
         style="fill:none;stroke:#000000;stroke-width:5;stroke-linecap:round;stroke-linejoin:round;stroke-miterlimit:4;stroke-opacity:1;stroke-dasharray:none"
         id="path2852" />
    </g>
  </g>
  <g
     inkscape:groupmode="layer"
     id="layer4"
     inkscape:label="Layer"
     style="display:inline" />
  <flowRoot
     xml:space="preserve"
     id="flowRoot2974"
     style="font-size:40px;font-style:normal;font-variant:normal;font-weight:normal;font-stretch:normal;text-align:start;line-height:125%;writing-mode:lr-tb;text-anchor:start;fill:#000000;fill-opacity:1;stroke:none;font-family:Times New Roman;-inkscape-font-specification:Times New Roman"><flowRegion
       id="flowRegion2976"><rect
         id="rect2978"
         width="108.45213"
         height="35.27961"
         x="85451.133"
         y="20883.24"
         style="font-size:40px" /></flowRegion><flowPara
       id="flowPara2980">halthalt</flowPara></flowRoot>  <flowRoot
     xml:space="preserve"
     id="flowRoot3006"
     style="font-size:12px;font-style:normal;font-variant:normal;font-weight:normal;font-stretch:normal;text-align:center;line-height:125%;writing-mode:lr-tb;text-anchor:middle;fill:#000000;fill-opacity:1;stroke:none;font-family:Times New Roman;-inkscape-font-specification:Times New Roman"
     transform="matrix(2.8202133,0,0,3.4970737,-155290.93,-50971.018)"><flowRegion
       id="flowRegion3008"><rect
         id="rect3010"
         width="118.18182"
         height="47.272728"
         x="85256.367"
         y="20412.273"
         style="text-align:center;text-anchor:middle" /></flowRegion><flowPara
       id="flowPara3012">On guard</flowPara></flowRoot>  <flowRoot
     xml:space="preserve"
     id="flowRoot3014"
     style="font-size:12px;font-style:normal;font-variant:normal;font-weight:normal;font-stretch:normal;text-align:center;line-height:125%;writing-mode:lr-tb;text-anchor:middle;fill:#000000;fill-opacity:1;stroke:none;font-family:Times New Roman;-inkscape-font-specification:Times New Roman"
     transform="matrix(3.3727012,0,0,3.4970737,-203332.96,-51004.633)"><flowRegion
       id="flowRegion3016"><rect
         id="rect3018"
         width="109.09091"
         height="32.727272"
         x="85643.633"
         y="20421.363"
         style="text-align:center;text-anchor:middle" /></flowRegion><flowPara
       id="flowPara3020">Ready?</flowPara></flowRoot>  <flowRoot
     xml:space="preserve"
     id="flowRoot3022"
     style="font-size:12px;font-style:normal;font-variant:normal;font-weight:normal;font-stretch:normal;text-align:center;line-height:125%;writing-mode:lr-tb;text-anchor:middle;fill:#000000;fill-opacity:1;stroke:none;font-family:Times New Roman;-inkscape-font-specification:Times New Roman"
     transform="matrix(4.0862762,0,0,3.8300169,-265682.22,-57814.866)"><flowRegion
       id="flowRegion3024"><rect
         id="rect3026"
         width="76.36364"
         height="29.09091"
         x="86045.453"
         y="20423.182"
         style="text-align:center;text-anchor:middle" /></flowRegion><flowPara
       id="flowPara3028">Play</flowPara></flowRoot>  <flowRoot
     xml:space="preserve"
     id="flowRoot3030"
     style="fill:black;stroke:none;stroke-opacity:1;stroke-width:1px;stroke-linejoin:miter;stroke-linecap:butt;fill-opacity:1;font-family:Times New Roman;font-style:normal;font-weight:normal;font-size:12;-inkscape-font-specification:Times New Roman;font-stretch:normal;font-variant:normal;text-anchor:middle;text-align:center;writing-mode:lr;line-height:125%"><flowRegion
       id="flowRegion3032"><rect
         id="rect3034"
         width="96.36364"
         height="41.81818"
         x="85456.367"
         y="20877.727"
         style="text-anchor:middle;text-align:center" /></flowRegion><flowPara
       id="flowPara3036"></flowPara></flowRoot>  <flowRoot
     xml:space="preserve"
     id="flowRoot3038"
     style="font-size:12px;font-style:normal;font-variant:normal;font-weight:normal;font-stretch:normal;text-align:start;line-height:125%;writing-mode:lr-tb;text-anchor:start;fill:#000000;fill-opacity:1;stroke:none;font-family:Times New Roman;-inkscape-font-specification:Times New Roman"
     transform="matrix(4.7532567,0,0,4.2300801,-320760.87,-67458.731)"><flowRegion
       id="flowRegion3040"><rect
         id="rect3042"
         width="101.81818"
         height="32.727272"
         x="85460"
         y="20881.363" /></flowRegion><flowPara
       id="flowPara3044">Halt</flowPara></flowRoot>  <flowRoot
     xml:space="preserve"
     id="flowRoot3046"
     style="font-size:12px;font-style:normal;font-variant:normal;font-weight:normal;font-stretch:normal;text-align:start;line-height:125%;writing-mode:lr-tb;text-anchor:start;fill:#000000;fill-opacity:1;stroke:none;font-family:Times New Roman;-inkscape-font-specification:Times New Roman"
     transform="matrix(2.8601787,0,0,4.0029326,-159657.64,-62709.706)"><flowRegion
       id="flowRegion3048"><rect
         id="rect3050"
         width="160"
         height="34.545456"
         x="85827.273"
         y="20879.545" /></flowRegion><flowPara
       id="flowPara3052">Point in line</flowPara></flowRoot>  <flowRoot
     xml:space="preserve"
     id="flowRoot3054"
     style="font-size:12px;font-style:normal;font-variant:normal;font-weight:normal;font-stretch:normal;text-align:start;line-height:125%;writing-mode:lr-tb;text-anchor:start;fill:#000000;fill-opacity:1;stroke:none;font-family:Times New Roman;-inkscape-font-specification:Times New Roman"
     transform="matrix(2.9298918,0,0,2.6422347,-164674.5,-34866.622)"><flowRegion
       id="flowRegion3056"><rect
         id="rect3058"
         width="101.81818"
         height="156.36363"
         x="85274.547"
         y="21228.637" /></flowRegion><flowPara
       id="flowPara3060"
       style="text-align:center;text-anchor:middle">Attack/ </flowPara><flowPara
       id="flowPara3062"
       style="text-align:center;text-anchor:middle">Stop-hit/ </flowPara><flowPara
       id="flowPara3064"
       style="text-align:center;text-anchor:middle">Counter-</flowPara><flowPara
       id="flowPara3066"
       style="text-align:center;text-anchor:middle">attack</flowPara></flowRoot>  <flowRoot
     xml:space="preserve"
     id="flowRoot3068"
     style="fill:black;stroke:none;stroke-opacity:1;stroke-width:1px;stroke-linejoin:miter;stroke-linecap:butt;fill-opacity:1;font-family:Times New Roman;font-style:normal;font-weight:normal;font-size:12;-inkscape-font-specification:Times New Roman;font-stretch:normal;font-variant:normal;text-anchor:middle;text-align:center;writing-mode:lr;line-height:125%"><flowRegion
       id="flowRegion3070"><rect
         id="rect3072"
         width="158.18182"
         height="140"
         x="85192.727"
         y="21219.545" /></flowRegion><flowPara
       id="flowPara3074"></flowPara></flowRoot>  <flowRoot
     xml:space="preserve"
     id="flowRoot3076"
     style="font-size:12px;font-style:normal;font-variant:normal;font-weight:normal;font-stretch:normal;text-align:center;line-height:125%;writing-mode:lr-tb;text-anchor:middle;fill:#000000;fill-opacity:1;stroke:none;font-family:Times New Roman;-inkscape-font-specification:Times New Roman"
     transform="matrix(2.3259322,0,0,3.3306022,-113636.15,-49727.716)"><flowRegion
       id="flowRegion3078"><rect
         id="rect3080"
         width="103.63636"
         height="47.272728"
         x="85650.906"
         y="21337.727" /></flowRegion><flowPara
       id="flowPara3082">Hit against</flowPara></flowRoot>  <flowRoot
     xml:space="preserve"
     id="flowRoot3084"
     style="font-size:12px;font-style:normal;font-variant:normal;font-weight:normal;font-stretch:normal;text-align:center;line-height:125%;writing-mode:lr-tb;text-anchor:middle;fill:#000000;fill-opacity:1;stroke:none;font-family:Times New Roman;-inkscape-font-specification:Times New Roman"
     transform="matrix(2.3232538,0,0,3.9960292,-113919.08,-63943.802)"><flowRegion
       id="flowRegion3086"><rect
         id="rect3088"
         width="103.63636"
         height="36.363636"
         x="86038.18"
         y="21341.363" /></flowRegion><flowPara
       id="flowPara3090">Hit scored</flowPara></flowRoot>  <flowRoot
     xml:space="preserve"
     id="flowRoot3092"
     style="font-size:12px;font-style:normal;font-variant:normal;font-weight:normal;font-stretch:normal;text-align:center;line-height:125%;writing-mode:lr-tb;text-anchor:middle;fill:#000000;fill-opacity:1;stroke:none;font-family:Times New Roman;-inkscape-font-specification:Times New Roman"
     transform="matrix(2.4063219,0,0,3.7762831,-120229.83,-60466.603)"><flowRegion
       id="flowRegion3094"><rect
         id="rect3096"
         width="118.18182"
         height="38.18182"
         x="85432.727"
         y="21779.545" /></flowRegion><flowPara
       id="flowPara3098">Not Valid</flowPara></flowRoot>  <flowRoot
     xml:space="preserve"
     id="flowRoot3100"
     style="font-size:12px;font-style:normal;font-variant:normal;font-weight:normal;font-stretch:normal;text-align:center;line-height:125%;writing-mode:lr-tb;text-anchor:middle;fill:#000000;fill-opacity:1;stroke:none;font-family:Times New Roman;-inkscape-font-specification:Times New Roman"
     transform="matrix(2.8822777,0,0,2.7337437,-161636.94,-37696.971)"><flowRegion
       id="flowRegion3102"><rect
         id="rect3104"
         width="145.45454"
         height="76.36364"
         x="85800"
         y="21739.545" /></flowRegion><flowPara
       id="flowPara3106">Parry /</flowPara><flowPara
       id="flowPara3108"> Counter-time</flowPara></flowRoot>  <flowRoot
     xml:space="preserve"
     id="flowRoot3110"
     style="font-size:12px;font-style:normal;font-variant:normal;font-weight:normal;font-stretch:normal;text-align:center;line-height:125%;writing-mode:lr-tb;text-anchor:middle;fill:#000000;fill-opacity:1;stroke:none;font-family:Times New Roman;-inkscape-font-specification:Times New Roman"
     transform="matrix(1.7989676,0,0,2.5430982,-68270.433,-32008.613)"><flowRegion
       id="flowRegion3112"><rect
         id="rect3114"
         width="194.54546"
         height="52.727272"
         x="85332.727"
         y="20737.727" /></flowRegion><flowPara
       id="flowPara3116"
       style="font-size:9.35054145">For the fencers to adopt</flowPara><flowPara
       id="flowPara3118"
       style="font-size:9.35054145">the on guard position</flowPara></flowRoot>  <flowRoot
     xml:space="preserve"
     id="flowRoot3120"
     style="font-size:12px;font-style:normal;font-variant:normal;font-weight:normal;font-stretch:normal;text-align:center;line-height:125%;writing-mode:lr-tb;text-anchor:middle;fill:#000000;fill-opacity:1;stroke:none;font-family:Times New Roman;-inkscape-font-specification:Times New Roman"
     transform="matrix(1.8920599,0,0,2.8236616,-76568.215,-37816.295)"><flowRegion
       id="flowRegion3122"><rect
         id="rect3124"
         width="158.18182"
         height="49.090908"
         x="85743.633"
         y="20734.092" /></flowRegion><flowPara
       id="flowPara3126"
       style="font-size:8.65279134">To find out if the</flowPara><flowPara
       id="flowPara3128"
       style="font-size:8.65279134">fencers are ready</flowPara></flowRoot>  <flowRoot
     xml:space="preserve"
     id="flowRoot3130"
     style="font-size:28px;font-style:normal;font-variant:normal;font-weight:normal;font-stretch:normal;text-align:center;line-height:125%;writing-mode:lr-tb;text-anchor:middle;fill:#000000;fill-opacity:1;stroke:none;font-family:Times New Roman;-inkscape-font-specification:Times New Roman"
     transform="matrix(2.1899486,0,0,0.80101691,-102599.65,4127.5001)"><flowRegion
       id="flowRegion3132"><rect
         id="rect3134"
         width="140"
         height="63.636364"
         x="86140"
         y="20739.545"
         style="font-size:28px" /></flowRegion><flowPara
       id="flowPara3142" /></flowRoot>  <flowRoot
     xml:space="preserve"
     id="flowRoot3146"
     style="font-size:12px;font-style:normal;font-variant:normal;font-weight:normal;font-stretch:normal;text-align:center;line-height:125%;writing-mode:lr-tb;text-anchor:middle;fill:#000000;fill-opacity:1;stroke:none;font-family:Times New Roman;-inkscape-font-specification:Times New Roman"
     transform="matrix(1.9703287,0,0,2.6132391,-83690.099,-33485.948)"><flowRegion
       id="flowRegion3148"><rect
         id="rect3150"
         width="249.09091"
         height="98.181816"
         x="86101.82"
         y="20746.818" /></flowRegion><flowPara
       id="flowPara3152"
       style="font-size:8.8139601">To start and restart</flowPara><flowPara
       id="flowPara3154"
       style="font-size:8.8139601">the fencing</flowPara></flowRoot>  <flowRoot
     xml:space="preserve"
     id="flowRoot3156"
     style="font-size:12px;font-style:normal;font-variant:normal;font-weight:normal;font-stretch:normal;text-align:center;line-height:125%;writing-mode:lr-tb;text-anchor:middle;fill:#000000;fill-opacity:1;stroke:none;font-family:Times New Roman;-inkscape-font-specification:Times New Roman"
     transform="matrix(1.5846501,0,0,1.8441806,-50094.139,-17901.035)"><flowRegion
       id="flowRegion3158"><rect
         id="rect3160"
         width="236.36363"
         height="89.090912"
         x="85509.094"
         y="21201.363" /></flowRegion><flowPara
       id="flowPara3162"
       style="font-size:11.69934586">To stop the fencing before a</flowPara><flowPara
       id="flowPara3164"
       style="font-size:11.69934586">hit is scored, because of the</flowPara><flowPara
       id="flowPara3166"
       style="font-size:11.69934586">fencer on the Referee’s right</flowPara></flowRoot>  <flowRoot
     xml:space="preserve"
     id="flowRoot3168"
     style="font-size:20px;font-style:normal;font-variant:normal;font-weight:normal;font-stretch:normal;text-align:center;line-height:125%;writing-mode:lr-tb;text-anchor:middle;fill:#000000;fill-opacity:1;stroke:none;font-family:Times New Roman;-inkscape-font-specification:Times New Roman"
     transform="translate(-70,-8)"><flowRegion
       id="flowRegion3170"><rect
         id="rect3172"
         width="292.72726"
         height="112.72727"
         x="85950.906"
         y="21206.818"
         style="font-size:20px" /></flowRegion><flowPara
       id="flowPara3174">Point in line position</flowPara><flowPara
       id="flowPara3176">from the right towards</flowPara><flowPara
       id="flowPara3178">the fencer on the left</flowPara></flowRoot>  <flowRoot
     xml:space="preserve"
     id="flowRoot3180"
     style="font-size:20px;font-style:normal;font-variant:normal;font-weight:normal;font-stretch:normal;text-align:center;line-height:125%;writing-mode:lr-tb;text-anchor:middle;fill:#000000;fill-opacity:1;stroke:none;font-family:Times New Roman;-inkscape-font-specification:Times New Roman"
     transform="translate(-86.909091,3.4545455)"><flowRegion
       id="flowRegion3182"><rect
         id="rect3184"
         width="405.45456"
         height="61.81818"
         x="85309.094"
         y="21641.363"
         style="font-size:20px" /></flowRegion><flowPara
       id="flowPara3186">Attack or stop hit (counter-attack)</flowPara><flowPara
       id="flowPara3188">from the fencer on the Referee’s right</flowPara></flowRoot>  <flowRoot
     xml:space="preserve"
     id="flowRoot3190"
     style="font-size:20px;font-style:normal;font-variant:normal;font-weight:normal;font-stretch:normal;text-align:center;line-height:125%;writing-mode:lr-tb;text-anchor:middle;fill:#000000;fill-opacity:1;stroke:none;font-family:Times New Roman;-inkscape-font-specification:Times New Roman"
     transform="translate(-30,-4)"><flowRegion
       id="flowRegion3192"><rect
         id="rect3194"
         width="263.63635"
         height="60"
         x="85776.367"
         y="21648.637"
         style="font-size:20px" /></flowRegion><flowPara
       id="flowPara3196">A hit is given against the</flowPara><flowPara
       id="flowPara3198">fencer on the Referee’s left</flowPara></flowRoot>  <flowRoot
     xml:space="preserve"
     id="flowRoot3200"
     style="font-size:20px;font-style:normal;font-variant:normal;font-weight:normal;font-stretch:normal;text-align:center;line-height:125%;writing-mode:lr-tb;text-anchor:middle;fill:#000000;fill-opacity:1;stroke:none;font-family:Times New Roman;-inkscape-font-specification:Times New Roman"
     transform="translate(-32,-12)"><flowRegion
       id="flowRegion3202"><rect
         id="rect3204"
         width="240"
         height="125.45454"
         x="86123.633"
         y="21657.727"
         style="font-size:20px" /></flowRegion><flowPara
       id="flowPara3206">One hit scored by the</flowPara><flowPara
       id="flowPara3208">fencer on the Referee’s right</flowPara></flowRoot>  <flowRoot
     xml:space="preserve"
     id="flowRoot3210"
     style="font-size:20px;font-style:normal;font-variant:normal;font-weight:normal;font-stretch:normal;text-align:center;line-height:125%;writing-mode:lr-tb;text-anchor:middle;fill:#000000;fill-opacity:1;stroke:none;font-family:Times New Roman;-inkscape-font-specification:Times New Roman"
     transform="translate(-14,4)"><flowRegion
       id="flowRegion3212"><rect
         id="rect3214"
         width="261.81818"
         height="118.18182"
         x="85480"
         y="22085"
         style="font-size:20px" /></flowRegion><flowPara
       id="flowPara3216">An off-target hit on the</flowPara><flowPara
       id="flowPara3218">fencer on the Referee’s left</flowPara></flowRoot>  <flowRoot
     xml:space="preserve"
     id="flowRoot3220"
     style="font-size:20px;font-style:normal;font-variant:normal;font-weight:normal;font-stretch:normal;text-align:center;line-height:125%;writing-mode:lr-tb;text-anchor:middle;fill:#000000;fill-opacity:1;stroke:none;font-family:Times New Roman;-inkscape-font-specification:Times New Roman"
     transform="translate(-54,-12)"><flowRegion
       id="flowRegion3222"><rect
         id="rect3224"
         width="323.63635"
         height="123.63636"
         x="85900"
         y="22101.363"
         style="font-size:20px" /></flowRegion><flowPara
       id="flowPara3226">A parry or counter-time carried out</flowPara><flowPara
       id="flowPara3228">by the fencer on the Referee’s right</flowPara></flowRoot></svg>
