<?xml version="1.0" encoding="UTF-8" standalone="no"?>
<!-- Created with Inkscape (http://www.inkscape.org/) -->

<svg
   xmlns:dc="http://purl.org/dc/elements/1.1/"
   xmlns:cc="http://creativecommons.org/ns#"
   xmlns:rdf="http://www.w3.org/1999/02/22-rdf-syntax-ns#"
   xmlns:svg="http://www.w3.org/2000/svg"
   xmlns="http://www.w3.org/2000/svg"
   xmlns:sodipodi="http://sodipodi.sourceforge.net/DTD/sodipodi-0.dtd"
   xmlns:inkscape="http://www.inkscape.org/namespaces/inkscape"
   id="svg2816"
   version="1.1"
   inkscape:version="0.47 r22583"
   width="743.75"
   height="1052.5"
   xml:space="preserve"
   sodipodi:docname="08UKFIORE2_2010.svg"><metadata
     id="metadata2822"><rdf:RDF><cc:Work
         rdf:about=""><dc:format>image/svg+xml</dc:format><dc:type
           rdf:resource="http://purl.org/dc/dcmitype/StillImage" /><dc:title /></cc:Work></rdf:RDF></metadata><defs
     id="defs2820"><inkscape:perspective
       sodipodi:type="inkscape:persp3d"
       inkscape:vp_x="0 : 0.5 : 1"
       inkscape:vp_y="0 : 1000 : 0"
       inkscape:vp_z="1 : 0.5 : 1"
       inkscape:persp3d-origin="0.5 : 0.33333333 : 1"
       id="perspective2824" /></defs><sodipodi:namedview
     pagecolor="#ffffff"
     bordercolor="#666666"
     borderopacity="1"
     objecttolerance="10"
     gridtolerance="10"
     guidetolerance="10"
     inkscape:pageopacity="0"
     inkscape:pageshadow="2"
     inkscape:window-width="1440"
     inkscape:window-height="838"
     id="namedview2818"
     showgrid="false"
     inkscape:zoom="1.43"
     inkscape:cx="262.54298"
     inkscape:cy="102.26939"
     inkscape:window-x="-8"
     inkscape:window-y="-8"
     inkscape:window-maximized="1"
     inkscape:current-layer="g3108" /><g
     id="g2826"
     inkscape:groupmode="layer"
     inkscape:label="ink_ext_XXXXXX"
     transform="matrix(1.25,0,0,-1.25,0,1052.5)"><g
       id="g2828"
       transform="scale(0.1,0.1)"><path
         d="m 583.59,552.313 14.422,-50.43"
         style="fill:none;stroke:#000000;stroke-opacity:1;stroke-width:3;stroke-linecap:butt;stroke-linejoin:miter;stroke-miterlimit:10;stroke-dasharray:none"
         id="path2830" /><path
         d="m 529.609,537.902 14.371,-50.39"
         style="fill:none;stroke:#000000;stroke-opacity:1;stroke-width:3;stroke-linecap:butt;stroke-linejoin:miter;stroke-miterlimit:10;stroke-dasharray:none"
         id="path2832" /><path
         d="M 616.02,559.5 500.781,527.121"
         style="fill:none;stroke:#000000;stroke-opacity:1;stroke-width:3;stroke-linecap:butt;stroke-linejoin:miter;stroke-miterlimit:10;stroke-dasharray:none"
         id="path2834" /><path
         d="m 657.27,430.551 c 0,7.351 -5.981,13.359 -13.36,13.359 -3.051,0 -6.058,-1.051 -8.441,-2.969"
         style="fill:none;stroke:#000000;stroke-opacity:1;stroke-width:3;stroke-linecap:butt;stroke-linejoin:miter;stroke-miterlimit:10;stroke-dasharray:none"
         id="path2836" /><path
         d="m 653.359,430.551 c 0,5.199 -4.218,9.461 -9.449,9.461 -1.41,0 -2.82,-0.321 -4.07,-0.942"
         style="fill:none;stroke:#000000;stroke-opacity:1;stroke-width:3;stroke-linecap:butt;stroke-linejoin:miter;stroke-miterlimit:10;stroke-dasharray:none"
         id="path2838" /><path
         d="m 648.398,505.52 -10.82,0 -7.187,-3.637 -3.59,-3.594 -3.602,-3.598 0,-3.589 -3.59,-7.192 0,-7.219 -3.589,-7.191 3.589,-7.187 0,-10.821 3.59,-7.191 3.602,-3.59 3.59,-3.59 3.589,-3.641 14.418,0"
         style="fill:none;stroke:#000000;stroke-opacity:1;stroke-width:3;stroke-linecap:butt;stroke-linejoin:miter;stroke-miterlimit:10;stroke-dasharray:none"
         id="path2840" /><path
         d="m 651.988,437.121 3.602,3.59 3.629,3.59 3.551,7.191 3.64,3.598 0,28.82 -3.64,3.602 0,7.179 -3.551,3.598"
         style="fill:none;stroke:#000000;stroke-opacity:1;stroke-width:3;stroke-linecap:butt;stroke-linejoin:miter;stroke-miterlimit:10;stroke-dasharray:none"
         id="path2842" /><path
         d="m 633.16,438.48 c -1.711,-2.257 -2.609,-5.07 -2.609,-7.929"
         style="fill:none;stroke:#000000;stroke-opacity:1;stroke-width:3;stroke-linecap:butt;stroke-linejoin:miter;stroke-miterlimit:10;stroke-dasharray:none"
         id="path2844" /><path
         d="m 636.559,436.531 c -1.36,-1.679 -2.149,-3.832 -2.149,-5.98"
         style="fill:none;stroke:#000000;stroke-opacity:1;stroke-width:3;stroke-linecap:butt;stroke-linejoin:miter;stroke-miterlimit:10;stroke-dasharray:none"
         id="path2846" /><path
         d="m 551.211,692.699 0,172.821"
         style="fill:none;stroke:#000000;stroke-opacity:1;stroke-width:3;stroke-linecap:butt;stroke-linejoin:miter;stroke-miterlimit:10;stroke-dasharray:none"
         id="path2848" /><path
         d="m 1670.78,800.711 0,64.809"
         style="fill:none;stroke:#000000;stroke-opacity:1;stroke-width:3;stroke-linecap:butt;stroke-linejoin:miter;stroke-miterlimit:10;stroke-dasharray:none"
         id="path2850" /><path
         d="m 551.211,861.883 470.699,0"
         style="fill:none;stroke:#000000;stroke-opacity:1;stroke-width:3;stroke-linecap:butt;stroke-linejoin:miter;stroke-miterlimit:10;stroke-dasharray:none"
         id="path2852" /><path
         d="m 1670.78,861.883 -448.87,0"
         style="fill:none;stroke:#000000;stroke-opacity:1;stroke-width:3;stroke-linecap:butt;stroke-linejoin:miter;stroke-miterlimit:10;stroke-dasharray:none"
         id="path2854" /><path
         d="m 554.301,865.199 c 0,1.641 -1.371,3.012 -3.012,3.012 -1.68,0 -3.008,-1.371 -3.008,-3.012 0,-1.636 1.328,-3.008 3.008,-3.008 1.641,0 3.012,1.372 3.012,3.008 l 0,0 z"
         style="fill:none;stroke:#000000;stroke-opacity:1;stroke-width:3;stroke-linecap:butt;stroke-linejoin:miter;stroke-miterlimit:10;stroke-dasharray:none"
         id="path2856" /><path
         d="m 1668.13,865.199 c 0,-1.636 1.36,-3.008 3,-3.008 1.68,0 3.01,1.372 3.01,3.008 0,1.641 -1.33,3.012 -3.01,3.012 -1.64,0 -3,-1.371 -3,-3.012 l 0,0 z"
         style="fill:none;stroke:#000000;stroke-opacity:1;stroke-width:3;stroke-linecap:butt;stroke-linejoin:miter;stroke-miterlimit:10;stroke-dasharray:none"
         id="path2858" /><path
         d="m 3.98047,199.5 3.59766,3.59"
         style="fill:none;stroke:#000000;stroke-opacity:1;stroke-width:3;stroke-linecap:butt;stroke-linejoin:miter;stroke-miterlimit:10;stroke-dasharray:none"
         id="path2860" /><path
         d="M 3.98047,174.301 36.4102,203.09"
         style="fill:none;stroke:#000000;stroke-opacity:1;stroke-width:3;stroke-linecap:butt;stroke-linejoin:miter;stroke-miterlimit:10;stroke-dasharray:none"
         id="path2862" /><path
         d="M 3.98047,145.52 61.6016,203.09"
         style="fill:none;stroke:#000000;stroke-opacity:1;stroke-width:3;stroke-linecap:butt;stroke-linejoin:miter;stroke-miterlimit:10;stroke-dasharray:none"
         id="path2864" /><path
         d="M 3.98047,116.691 90.3906,203.09"
         style="fill:none;stroke:#000000;stroke-opacity:1;stroke-width:3;stroke-linecap:butt;stroke-linejoin:miter;stroke-miterlimit:10;stroke-dasharray:none"
         id="path2866" /><path
         d="M 3.98047,87.9023 119.219,203.09"
         style="fill:none;stroke:#000000;stroke-opacity:1;stroke-width:3;stroke-linecap:butt;stroke-linejoin:miter;stroke-miterlimit:10;stroke-dasharray:none"
         id="path2868" /><path
         d="M 3.98047,59.1094 148.012,203.09"
         style="fill:none;stroke:#000000;stroke-opacity:1;stroke-width:3;stroke-linecap:butt;stroke-linejoin:miter;stroke-miterlimit:10;stroke-dasharray:none"
         id="path2870" /><path
         d="M 3.98047,30.2813 176.801,203.09"
         style="fill:none;stroke:#000000;stroke-opacity:1;stroke-width:3;stroke-linecap:butt;stroke-linejoin:miter;stroke-miterlimit:10;stroke-dasharray:none"
         id="path2872" /><path
         d="M 3.98047,5.08984 205.59,203.09"
         style="fill:none;stroke:#000000;stroke-opacity:1;stroke-width:3;stroke-linecap:butt;stroke-linejoin:miter;stroke-miterlimit:10;stroke-dasharray:none"
         id="path2874" /><path
         d="M 32.7695,1.49219 234.379,203.09"
         style="fill:none;stroke:#000000;stroke-opacity:1;stroke-width:3;stroke-linecap:butt;stroke-linejoin:miter;stroke-miterlimit:10;stroke-dasharray:none"
         id="path2876" /><path
         d="M 61.6016,1.49219 259.609,203.09"
         style="fill:none;stroke:#000000;stroke-opacity:1;stroke-width:3;stroke-linecap:butt;stroke-linejoin:miter;stroke-miterlimit:10;stroke-dasharray:none"
         id="path2878" /><path
         d="M 86.8008,1.49219 288.398,203.09"
         style="fill:none;stroke:#000000;stroke-opacity:1;stroke-width:3;stroke-linecap:butt;stroke-linejoin:miter;stroke-miterlimit:10;stroke-dasharray:none"
         id="path2880" /><path
         d="M 115.59,1.49219 317.191,203.09"
         style="fill:none;stroke:#000000;stroke-opacity:1;stroke-width:3;stroke-linecap:butt;stroke-linejoin:miter;stroke-miterlimit:10;stroke-dasharray:none"
         id="path2882" /><path
         d="M 144.379,1.49219 346.02,203.09"
         style="fill:none;stroke:#000000;stroke-opacity:1;stroke-width:3;stroke-linecap:butt;stroke-linejoin:miter;stroke-miterlimit:10;stroke-dasharray:none"
         id="path2884" /><path
         d="M 173.199,1.49219 374.801,203.09"
         style="fill:none;stroke:#000000;stroke-opacity:1;stroke-width:3;stroke-linecap:butt;stroke-linejoin:miter;stroke-miterlimit:10;stroke-dasharray:none"
         id="path2886" /><path
         d="M 201.988,1.49219 403.59,203.09"
         style="fill:none;stroke:#000000;stroke-opacity:1;stroke-width:3;stroke-linecap:butt;stroke-linejoin:miter;stroke-miterlimit:10;stroke-dasharray:none"
         id="path2888" /><path
         d="M 230.781,1.49219 432.379,203.09"
         style="fill:none;stroke:#000000;stroke-opacity:1;stroke-width:3;stroke-linecap:butt;stroke-linejoin:miter;stroke-miterlimit:10;stroke-dasharray:none"
         id="path2890" /><path
         d="M 256.02,1.49219 457.578,203.09"
         style="fill:none;stroke:#000000;stroke-opacity:1;stroke-width:3;stroke-linecap:butt;stroke-linejoin:miter;stroke-miterlimit:10;stroke-dasharray:none"
         id="path2892" /><path
         d="M 284.801,1.49219 486.41,203.09"
         style="fill:none;stroke:#000000;stroke-opacity:1;stroke-width:3;stroke-linecap:butt;stroke-linejoin:miter;stroke-miterlimit:10;stroke-dasharray:none"
         id="path2894" /><path
         d="M 313.59,1.49219 515.199,203.09"
         style="fill:none;stroke:#000000;stroke-opacity:1;stroke-width:3;stroke-linecap:butt;stroke-linejoin:miter;stroke-miterlimit:10;stroke-dasharray:none"
         id="path2896" /><path
         d="M 342.379,1.49219 543.98,203.09"
         style="fill:none;stroke:#000000;stroke-opacity:1;stroke-width:3;stroke-linecap:butt;stroke-linejoin:miter;stroke-miterlimit:10;stroke-dasharray:none"
         id="path2898" /><path
         d="M 371.211,1.49219 572.77,203.09"
         style="fill:none;stroke:#000000;stroke-opacity:1;stroke-width:3;stroke-linecap:butt;stroke-linejoin:miter;stroke-miterlimit:10;stroke-dasharray:none"
         id="path2900" /><path
         d="M 400,1.49219 601.602,203.09"
         style="fill:none;stroke:#000000;stroke-opacity:1;stroke-width:3;stroke-linecap:butt;stroke-linejoin:miter;stroke-miterlimit:10;stroke-dasharray:none"
         id="path2902" /><path
         d="M 428.789,1.49219 626.801,203.09"
         style="fill:none;stroke:#000000;stroke-opacity:1;stroke-width:3;stroke-linecap:butt;stroke-linejoin:miter;stroke-miterlimit:10;stroke-dasharray:none"
         id="path2904" /><path
         d="M 453.98,1.49219 655.59,203.09"
         style="fill:none;stroke:#000000;stroke-opacity:1;stroke-width:3;stroke-linecap:butt;stroke-linejoin:miter;stroke-miterlimit:10;stroke-dasharray:none"
         id="path2906" /><path
         d="M 482.77,1.49219 684.379,203.09"
         style="fill:none;stroke:#000000;stroke-opacity:1;stroke-width:3;stroke-linecap:butt;stroke-linejoin:miter;stroke-miterlimit:10;stroke-dasharray:none"
         id="path2908" /><path
         d="m 511.602,1.49219 180,179.99981"
         style="fill:none;stroke:#000000;stroke-opacity:1;stroke-width:3;stroke-linecap:butt;stroke-linejoin:miter;stroke-miterlimit:10;stroke-dasharray:none"
         id="path2910" /><path
         d="M 540.391,1.49219 691.602,152.699"
         style="fill:none;stroke:#000000;stroke-opacity:1;stroke-width:3;stroke-linecap:butt;stroke-linejoin:miter;stroke-miterlimit:10;stroke-dasharray:none"
         id="path2912" /><path
         d="M 569.219,1.49219 691.602,123.91"
         style="fill:none;stroke:#000000;stroke-opacity:1;stroke-width:3;stroke-linecap:butt;stroke-linejoin:miter;stroke-miterlimit:10;stroke-dasharray:none"
         id="path2914" /><path
         d="m 598.012,1.49219 93.59,93.59761"
         style="fill:none;stroke:#000000;stroke-opacity:1;stroke-width:3;stroke-linecap:butt;stroke-linejoin:miter;stroke-miterlimit:10;stroke-dasharray:none"
         id="path2916" /><path
         d="M 626.801,1.49219 691.602,69.8906"
         style="fill:none;stroke:#000000;stroke-opacity:1;stroke-width:3;stroke-linecap:butt;stroke-linejoin:miter;stroke-miterlimit:10;stroke-dasharray:none"
         id="path2918" /><path
         d="M 651.988,1.49219 691.602,41.1016"
         style="fill:none;stroke:#000000;stroke-opacity:1;stroke-width:3;stroke-linecap:butt;stroke-linejoin:miter;stroke-miterlimit:10;stroke-dasharray:none"
         id="path2920" /><path
         d="M 680.781,1.49219 691.602,12.3125"
         style="fill:none;stroke:#000000;stroke-opacity:1;stroke-width:3;stroke-linecap:butt;stroke-linejoin:miter;stroke-miterlimit:10;stroke-dasharray:none"
         id="path2922" /><path
         d="m 482.77,635.09 -107.969,0"
         style="fill:none;stroke:#000000;stroke-opacity:1;stroke-width:3;stroke-linecap:butt;stroke-linejoin:miter;stroke-miterlimit:10;stroke-dasharray:none"
         id="path2924" /><path
         d="m 482.77,480.281 -107.969,0"
         style="fill:none;stroke:#000000;stroke-opacity:1;stroke-width:3;stroke-linecap:butt;stroke-linejoin:miter;stroke-miterlimit:10;stroke-dasharray:none"
         id="path2926" /><path
         d="m 378.398,478.723 0,46.207"
         style="fill:none;stroke:#000000;stroke-opacity:1;stroke-width:3;stroke-linecap:butt;stroke-linejoin:miter;stroke-miterlimit:10;stroke-dasharray:none"
         id="path2928" /><path
         d="m 378.398,608.289 0,26.801"
         style="fill:none;stroke:#000000;stroke-opacity:1;stroke-width:3;stroke-linecap:butt;stroke-linejoin:miter;stroke-miterlimit:10;stroke-dasharray:none"
         id="path2930" /><path
         d="m 378.398,480.281 0,-46.801"
         style="fill:none;stroke:#000000;stroke-opacity:1;stroke-width:3;stroke-linecap:butt;stroke-linejoin:miter;stroke-miterlimit:10;stroke-dasharray:none"
         id="path2932" /><path
         d="m 378.711,640.633 c -1.641,0 -3.012,-1.332 -3.012,-2.973 0,-1.68 1.371,-3 3.012,-3 1.641,0 3.008,1.32 3.008,3 0,1.641 -1.367,2.973 -3.008,2.973 l 0,0 z"
         style="fill:none;stroke:#000000;stroke-opacity:1;stroke-width:3;stroke-linecap:butt;stroke-linejoin:miter;stroke-miterlimit:10;stroke-dasharray:none"
         id="path2934" /><path
         d="m 378.711,478.723 c 1.641,0 3.008,1.328 3.008,3.007 0,1.641 -1.367,2.961 -3.008,2.961 -1.641,0 -3.012,-1.32 -3.012,-2.961 0,-1.679 1.371,-3.007 3.012,-3.007 l 0,0 z"
         style="fill:none;stroke:#000000;stroke-opacity:1;stroke-width:3;stroke-linecap:butt;stroke-linejoin:miter;stroke-miterlimit:10;stroke-dasharray:none"
         id="path2936" /><path
         d="m 374.801,635.09 -104.41,0"
         style="fill:none;stroke:#000000;stroke-opacity:1;stroke-width:3;stroke-linecap:butt;stroke-linejoin:miter;stroke-miterlimit:10;stroke-dasharray:none"
         id="path2938" /><path
         d="m 374.801,203.09 -104.41,0"
         style="fill:none;stroke:#000000;stroke-opacity:1;stroke-width:3;stroke-linecap:butt;stroke-linejoin:miter;stroke-miterlimit:10;stroke-dasharray:none"
         id="path2940" /><path
         d="m 273.98,635.09 0,-169.18"
         style="fill:none;stroke:#000000;stroke-opacity:1;stroke-width:3;stroke-linecap:butt;stroke-linejoin:miter;stroke-miterlimit:10;stroke-dasharray:none"
         id="path2942" /><path
         d="m 273.98,203.09 0,169.223"
         style="fill:none;stroke:#000000;stroke-opacity:1;stroke-width:3;stroke-linecap:butt;stroke-linejoin:miter;stroke-miterlimit:10;stroke-dasharray:none"
         id="path2944" /><path
         d="m 276.25,635.633 c 1.641,0 3.012,1.367 3.012,3.008 0,1.64 -1.371,3.011 -3.012,3.011 -1.641,0 -3.012,-1.371 -3.012,-3.011 0,-1.641 1.371,-3.008 3.012,-3.008 l 0,0 z"
         style="fill:none;stroke:#000000;stroke-opacity:1;stroke-width:3;stroke-linecap:butt;stroke-linejoin:miter;stroke-miterlimit:10;stroke-dasharray:none"
         id="path2946" /><path
         d="m 276.25,206.801 c -1.641,0 -3.012,-1.36 -3.012,-3 0,-1.641 1.371,-3.012 3.012,-3.012 1.641,0 3.012,1.371 3.012,3.012 0,1.64 -1.371,3 -3.012,3 l 0,0 z"
         style="fill:none;stroke:#000000;stroke-opacity:1;stroke-width:3;stroke-linecap:butt;stroke-linejoin:miter;stroke-miterlimit:10;stroke-dasharray:none"
         id="path2948" /><path
         d="m 450.391,480.281 -75.59,0"
         style="fill:none;stroke:#000000;stroke-opacity:1;stroke-width:3;stroke-linecap:butt;stroke-linejoin:miter;stroke-miterlimit:10;stroke-dasharray:none"
         id="path2950" /><path
         d="m 450.391,203.09 -75.59,0"
         style="fill:none;stroke:#000000;stroke-opacity:1;stroke-width:3;stroke-linecap:butt;stroke-linejoin:miter;stroke-miterlimit:10;stroke-dasharray:none"
         id="path2952" /><path
         d="m 378.398,480.281 0,-90"
         style="fill:none;stroke:#000000;stroke-opacity:1;stroke-width:3;stroke-linecap:butt;stroke-linejoin:miter;stroke-miterlimit:10;stroke-dasharray:none"
         id="path2954" /><path
         d="m 378.398,203.09 0,90"
         style="fill:none;stroke:#000000;stroke-opacity:1;stroke-width:3;stroke-linecap:butt;stroke-linejoin:miter;stroke-miterlimit:10;stroke-dasharray:none"
         id="path2956" /><path
         d="m 378.711,478.723 c 1.641,0 3.008,1.328 3.008,3.007 0,1.641 -1.367,2.961 -3.008,2.961 -1.641,0 -3.012,-1.32 -3.012,-2.961 0,-1.679 1.371,-3.007 3.012,-3.007 l 0,0 z"
         style="fill:none;stroke:#000000;stroke-opacity:1;stroke-width:3;stroke-linecap:butt;stroke-linejoin:miter;stroke-miterlimit:10;stroke-dasharray:none"
         id="path2958" /><path
         d="m 378.711,206.801 c -1.641,0 -3.012,-1.36 -3.012,-3 0,-1.641 1.371,-3.012 3.012,-3.012 1.641,0 3.008,1.371 3.008,3.012 0,1.64 -1.367,3 -3.008,3 l 0,0 z"
         style="fill:none;stroke:#000000;stroke-opacity:1;stroke-width:3;stroke-linecap:butt;stroke-linejoin:miter;stroke-miterlimit:10;stroke-dasharray:none"
         id="path2960" /><path
         d="m 530.121,537.191 c 0.348,-1.281 1.52,-2.179 2.891,-2.179 1.636,0 2.968,1.328 2.968,3.008 0,0.269 -0.039,0.543 -0.082,0.82 -0.386,1.281 -1.558,2.14 -2.886,2.14 -1.684,0 -3.012,-1.32 -3.012,-2.96 0,-0.278 0.039,-0.547 0.121,-0.829 l 0,0 z"
         style="fill:none;stroke:#000000;stroke-opacity:1;stroke-width:3;stroke-linecap:butt;stroke-linejoin:miter;stroke-miterlimit:10;stroke-dasharray:none"
         id="path2962" /><path
         d="m 558.398,624.301 0,7.191"
         style="fill:none;stroke:#000000;stroke-opacity:1;stroke-width:3;stroke-linecap:butt;stroke-linejoin:miter;stroke-miterlimit:10;stroke-dasharray:none"
         id="path2964" /><path
         d="m 565.59,624.301 0,7.191"
         style="fill:none;stroke:#000000;stroke-opacity:1;stroke-width:3;stroke-linecap:butt;stroke-linejoin:miter;stroke-miterlimit:10;stroke-dasharray:none"
         id="path2966" /><path
         d="m 589.73,554.191 c -0.351,1.289 -1.57,2.149 -2.89,2.149 -1.641,0 -3.012,-1.328 -3.012,-2.969 0,-0.281 0.043,-0.59 0.121,-0.82 0.391,-1.289 1.563,-2.192 2.891,-2.192 1.64,0 3,1.332 3,3.012 0,0.27 -0.039,0.539 -0.11,0.82 l 0,0 z"
         style="fill:none;stroke:#000000;stroke-opacity:1;stroke-width:3;stroke-linecap:butt;stroke-linejoin:miter;stroke-miterlimit:10;stroke-dasharray:none"
         id="path2968" /><path
         d="m 565.59,480.281 -10.789,-3.59"
         style="fill:none;stroke:#000000;stroke-opacity:1;stroke-width:3;stroke-linecap:butt;stroke-linejoin:miter;stroke-miterlimit:10;stroke-dasharray:none"
         id="path2970" /><path
         d="m 565.59,473.09 -7.192,-3.59"
         style="fill:none;stroke:#000000;stroke-opacity:1;stroke-width:3;stroke-linecap:butt;stroke-linejoin:miter;stroke-miterlimit:10;stroke-dasharray:none"
         id="path2972" /><path
         d="m 565.59,473.09 0,7.191"
         style="fill:none;stroke:#000000;stroke-opacity:1;stroke-width:3;stroke-linecap:butt;stroke-linejoin:miter;stroke-miterlimit:10;stroke-dasharray:none"
         id="path2974" /><path
         d="m 558.398,469.5 -3.597,7.191"
         style="fill:none;stroke:#000000;stroke-opacity:1;stroke-width:3;stroke-linecap:butt;stroke-linejoin:miter;stroke-miterlimit:10;stroke-dasharray:none"
         id="path2976" /><path
         d="m 565.59,624.301 -7.192,0"
         style="fill:none;stroke:#000000;stroke-opacity:1;stroke-width:3;stroke-linecap:butt;stroke-linejoin:miter;stroke-miterlimit:10;stroke-dasharray:none"
         id="path2978" /><path
         d="m 1670.78,732.313 0,3.597"
         style="fill:none;stroke:#000000;stroke-opacity:1;stroke-width:3;stroke-linecap:butt;stroke-linejoin:miter;stroke-miterlimit:10;stroke-dasharray:none"
         id="path2980" /><path
         d="m 1670.78,703.48 28.83,32.43"
         style="fill:none;stroke:#000000;stroke-opacity:1;stroke-width:3;stroke-linecap:butt;stroke-linejoin:miter;stroke-miterlimit:10;stroke-dasharray:none"
         id="path2982" /><path
         d="m 1670.78,678.289 57.62,57.621"
         style="fill:none;stroke:#000000;stroke-opacity:1;stroke-width:3;stroke-linecap:butt;stroke-linejoin:miter;stroke-miterlimit:10;stroke-dasharray:none"
         id="path2984" /><path
         d="m 1670.78,649.5 86.41,86.41"
         style="fill:none;stroke:#000000;stroke-opacity:1;stroke-width:3;stroke-linecap:butt;stroke-linejoin:miter;stroke-miterlimit:10;stroke-dasharray:none"
         id="path2986" /><path
         d="m 1685.2,635.09 100.82,100.82"
         style="fill:none;stroke:#000000;stroke-opacity:1;stroke-width:3;stroke-linecap:butt;stroke-linejoin:miter;stroke-miterlimit:10;stroke-dasharray:none"
         id="path2988" /><path
         d="m 1670.78,591.883 28.83,28.828"
         style="fill:none;stroke:#000000;stroke-opacity:1;stroke-width:3;stroke-linecap:butt;stroke-linejoin:miter;stroke-miterlimit:10;stroke-dasharray:none"
         id="path2990" /><path
         d="m 1713.98,635.09 86.41,86.402"
         style="fill:none;stroke:#000000;stroke-opacity:1;stroke-width:3;stroke-linecap:butt;stroke-linejoin:miter;stroke-miterlimit:10;stroke-dasharray:none"
         id="path2992" /><path
         d="m 1670.78,563.09 54.02,57.621"
         style="fill:none;stroke:#000000;stroke-opacity:1;stroke-width:3;stroke-linecap:butt;stroke-linejoin:miter;stroke-miterlimit:10;stroke-dasharray:none"
         id="path2994" /><path
         d="m 1739.22,635.09 61.17,57.609"
         style="fill:none;stroke:#000000;stroke-opacity:1;stroke-width:3;stroke-linecap:butt;stroke-linejoin:miter;stroke-miterlimit:10;stroke-dasharray:none"
         id="path2996" /><path
         d="m 1670.78,534.301 82.81,86.41"
         style="fill:none;stroke:#000000;stroke-opacity:1;stroke-width:3;stroke-linecap:butt;stroke-linejoin:miter;stroke-miterlimit:10;stroke-dasharray:none"
         id="path2998" /><path
         d="m 1768.01,635.09 32.38,28.82"
         style="fill:none;stroke:#000000;stroke-opacity:1;stroke-width:3;stroke-linecap:butt;stroke-linejoin:miter;stroke-miterlimit:10;stroke-dasharray:none"
         id="path3000" /><path
         d="m 1681.6,519.891 100.78,100.82"
         style="fill:none;stroke:#000000;stroke-opacity:1;stroke-width:3;stroke-linecap:butt;stroke-linejoin:miter;stroke-miterlimit:10;stroke-dasharray:none"
         id="path3002" /><path
         d="m 1796.8,635.09 3.59,3.633"
         style="fill:none;stroke:#000000;stroke-opacity:1;stroke-width:3;stroke-linecap:butt;stroke-linejoin:miter;stroke-miterlimit:10;stroke-dasharray:none"
         id="path3004" /><path
         d="m 1710.39,519.891 90,90"
         style="fill:none;stroke:#000000;stroke-opacity:1;stroke-width:3;stroke-linecap:butt;stroke-linejoin:miter;stroke-miterlimit:10;stroke-dasharray:none"
         id="path3006" /><path
         d="m 1739.22,519.891 61.17,61.211"
         style="fill:none;stroke:#000000;stroke-opacity:1;stroke-width:3;stroke-linecap:butt;stroke-linejoin:miter;stroke-miterlimit:10;stroke-dasharray:none"
         id="path3008" /><path
         d="m 1764.38,519.891 36.01,32.422"
         style="fill:none;stroke:#000000;stroke-opacity:1;stroke-width:3;stroke-linecap:butt;stroke-linejoin:miter;stroke-miterlimit:10;stroke-dasharray:none"
         id="path3010" /><path
         d="m 1793.2,519.891 7.19,3.589"
         style="fill:none;stroke:#000000;stroke-opacity:1;stroke-width:3;stroke-linecap:butt;stroke-linejoin:miter;stroke-miterlimit:10;stroke-dasharray:none"
         id="path3012" /><path
         d="m 1987.58,635.09 0,-14.379"
         style="fill:none;stroke:#000000;stroke-opacity:1;stroke-width:3;stroke-linecap:butt;stroke-linejoin:miter;stroke-miterlimit:10;stroke-dasharray:none"
         id="path3014" /><path
         d="m 2308.01,635.09 0,-14.379"
         style="fill:none;stroke:#000000;stroke-opacity:1;stroke-width:3;stroke-linecap:butt;stroke-linejoin:miter;stroke-miterlimit:10;stroke-dasharray:none"
         id="path3016" /><path
         d="m 2275.59,624.301 0,7.191"
         style="fill:none;stroke:#000000;stroke-opacity:1;stroke-width:3;stroke-linecap:butt;stroke-linejoin:miter;stroke-miterlimit:10;stroke-dasharray:none"
         id="path3018" /><path
         d="m 1991.09,618.441 c 2.5,-25.781 13.6,-49.961 31.49,-68.75"
         style="fill:none;stroke:#000000;stroke-opacity:1;stroke-width:8;stroke-linecap:butt;stroke-linejoin:miter;stroke-miterlimit:10;stroke-dasharray:none"
         id="path3020" /><path
         d="m 2022.58,709.582 c -17.89,-18.75 -28.99,-42.93 -31.49,-68.75"
         style="fill:none;stroke:#000000;stroke-opacity:1;stroke-width:8;stroke-linecap:butt;stroke-linejoin:miter;stroke-miterlimit:10;stroke-dasharray:none"
         id="path3022" /><path
         d="m 1671.13,636.801 c -17.93,0.281 -35.86,0.39 -53.79,0.39 -331.6,0 -661.68,-45.308 -981.012,-134.679"
         style="fill:none;stroke:#000000;stroke-opacity:1;stroke-width:8;stroke-linecap:butt;stroke-linejoin:miter;stroke-miterlimit:10;stroke-dasharray:none"
         id="path3024" /><path
         d="m 1671.13,622.512 c -26.36,0.578 -52.73,0.859 -79.1,0.859 -326.48,0 -651.44,-44.531 -965.858,-132.461"
         style="fill:none;stroke:#000000;stroke-opacity:1;stroke-width:8;stroke-linecap:butt;stroke-linejoin:miter;stroke-miterlimit:10;stroke-dasharray:none"
         id="path3026" /><path
         d="m 641.211,501.883 -7.231,0 -3.589,-3.594 -3.59,-3.598 -3.602,-7.179 0,-3.602 -3.59,-7.219 0,-14.378 3.59,-3.59 0,-7.231 3.602,-3.59 3.59,-3.601 3.589,-3.59 3.598,-3.59 7.223,0"
         style="fill:none;stroke:#000000;stroke-opacity:1;stroke-width:8;stroke-linecap:butt;stroke-linejoin:miter;stroke-miterlimit:10;stroke-dasharray:none"
         id="path3028" /><path
         d="m 651.988,440.711 3.602,0 0,3.59 3.629,7.191 3.551,3.598 0,28.82 -3.551,3.602 0,7.179 -3.629,3.598"
         style="fill:none;stroke:#000000;stroke-opacity:1;stroke-width:8;stroke-linecap:butt;stroke-linejoin:miter;stroke-miterlimit:10;stroke-dasharray:none"
         id="path3030" /><path
         d="m 622.969,490.051 c -5.469,-1.571 -10.938,-3.129 -16.41,-4.649"
         style="fill:none;stroke:#000000;stroke-opacity:1;stroke-width:8;stroke-linecap:butt;stroke-linejoin:miter;stroke-miterlimit:10;stroke-dasharray:none"
         id="path3032" /><path
         d="m 629.219,500.48 c -8.321,-2.347 -16.641,-4.73 -24.918,-7.109"
         style="fill:none;stroke:#000000;stroke-opacity:1;stroke-width:8;stroke-linecap:butt;stroke-linejoin:miter;stroke-miterlimit:10;stroke-dasharray:none"
         id="path3034" /><path
         d="m 1973.2,620.711 -1368.001,3.59"
         style="fill:none;stroke:#000000;stroke-opacity:1;stroke-width:3;stroke-linecap:butt;stroke-linejoin:miter;stroke-miterlimit:10;stroke-dasharray:none"
         id="path3036" /><path
         d="M 1973.2,635.09 605.199,631.492"
         style="fill:none;stroke:#000000;stroke-opacity:1;stroke-width:3;stroke-linecap:butt;stroke-linejoin:miter;stroke-miterlimit:10;stroke-dasharray:none"
         id="path3038" /><path
         d="m 691.602,203.09 -687.62153,0"
         style="fill:none;stroke:#000000;stroke-opacity:1;stroke-width:8;stroke-linecap:butt;stroke-linejoin:miter;stroke-miterlimit:10;stroke-dasharray:none"
         id="path3040" /><path
         d="m 608.789,429.891 64.801,0 18.012,-64.801 -97.223,0 14.41,64.801 z"
         style="fill:none;stroke:#000000;stroke-opacity:1;stroke-width:8;stroke-linecap:butt;stroke-linejoin:miter;stroke-miterlimit:10;stroke-dasharray:none"
         id="path3042" /><path
         d="m 554.801,476.691 0,7.219 -7.223,-3.629 3.633,-14.371 7.187,0 0,3.59"
         style="fill:none;stroke:#000000;stroke-opacity:1;stroke-width:8;stroke-linecap:butt;stroke-linejoin:miter;stroke-miterlimit:10;stroke-dasharray:none"
         id="path3044" /><path
         d="m 558.398,631.492 0,3.598 -7.187,0 0,-14.379 7.187,0 0,3.59"
         style="fill:none;stroke:#000000;stroke-opacity:1;stroke-width:3;stroke-linecap:butt;stroke-linejoin:miter;stroke-miterlimit:10;stroke-dasharray:none"
         id="path3046" /><path
         d="m 565.59,473.09 0,-3.59 36.012,10.781 3.597,3.629"
         style="fill:none;stroke:#000000;stroke-opacity:1;stroke-width:8;stroke-linecap:butt;stroke-linejoin:miter;stroke-miterlimit:10;stroke-dasharray:none"
         id="path3048" /><path
         d="m 601.602,491.102 -3.59,3.589 -36.024,-10.781 3.602,-3.629"
         style="fill:none;stroke:#000000;stroke-opacity:1;stroke-width:8;stroke-linecap:butt;stroke-linejoin:miter;stroke-miterlimit:10;stroke-dasharray:none"
         id="path3050" /><path
         d="m 565.59,624.301 0,-3.59 36.012,0 3.597,3.59"
         style="fill:none;stroke:#000000;stroke-opacity:1;stroke-width:3;stroke-linecap:butt;stroke-linejoin:miter;stroke-miterlimit:10;stroke-dasharray:none"
         id="path3052" /><path
         d="m 605.199,631.492 -3.597,3.598 -36.012,0 0,-3.598 -7.192,0"
         style="fill:none;stroke:#000000;stroke-opacity:1;stroke-width:3;stroke-linecap:butt;stroke-linejoin:miter;stroke-miterlimit:10;stroke-dasharray:none"
         id="path3054" /><path
         d="m 1670.78,519.891 0,216.019"
         style="fill:none;stroke:#000000;stroke-opacity:1;stroke-width:8;stroke-linecap:butt;stroke-linejoin:miter;stroke-miterlimit:10;stroke-dasharray:none"
         id="path3056" /><path
         d="m 1800.39,519.891 0,216.019"
         style="fill:none;stroke:#000000;stroke-opacity:1;stroke-width:8;stroke-linecap:butt;stroke-linejoin:miter;stroke-miterlimit:10;stroke-dasharray:none"
         id="path3058" /><path
         d="m 2020,631.492 255.59,0"
         style="fill:none;stroke:#000000;stroke-opacity:1;stroke-width:8;stroke-linecap:butt;stroke-linejoin:miter;stroke-miterlimit:10;stroke-dasharray:none"
         id="path3060" /><path
         d="m 2020,624.301 255.59,0"
         style="fill:none;stroke:#000000;stroke-opacity:1;stroke-width:8;stroke-linecap:butt;stroke-linejoin:miter;stroke-miterlimit:10;stroke-dasharray:none"
         id="path3062" /><path
         d="m 2052.38,624.301 0,7.191"
         style="fill:none;stroke:#000000;stroke-opacity:1;stroke-width:8;stroke-linecap:butt;stroke-linejoin:miter;stroke-miterlimit:10;stroke-dasharray:none"
         id="path3064" /><path
         d="m 2038.01,624.301 0,7.191"
         style="fill:none;stroke:#000000;stroke-opacity:1;stroke-width:8;stroke-linecap:butt;stroke-linejoin:miter;stroke-miterlimit:10;stroke-dasharray:none"
         id="path3066" /><path
         d="m 1987.58,617.121 -14.38,0 0,21.602 14.38,0"
         style="fill:none;stroke:#000000;stroke-opacity:1;stroke-width:8;stroke-linecap:butt;stroke-linejoin:miter;stroke-miterlimit:10;stroke-dasharray:none"
         id="path3068" /><path
         d="m 1987.58,617.121 0,21.602"
         style="fill:none;stroke:#000000;stroke-opacity:1;stroke-width:8;stroke-linecap:butt;stroke-linejoin:miter;stroke-miterlimit:10;stroke-dasharray:none"
         id="path3070" /><path
         d="m 2020,548.723 0,158.398"
         style="fill:none;stroke:#000000;stroke-opacity:1;stroke-width:8;stroke-linecap:butt;stroke-linejoin:miter;stroke-miterlimit:10;stroke-dasharray:none"
         id="path3072" /><path
         d="m 2084.8,624.301 0,7.191"
         style="fill:none;stroke:#000000;stroke-opacity:1;stroke-width:8;stroke-linecap:butt;stroke-linejoin:miter;stroke-miterlimit:10;stroke-dasharray:none"
         id="path3074" /><path
         d="m 2070.39,624.301 0,7.191"
         style="fill:none;stroke:#000000;stroke-opacity:1;stroke-width:8;stroke-linecap:butt;stroke-linejoin:miter;stroke-miterlimit:10;stroke-dasharray:none"
         id="path3076" /><path
         d="m 2149.61,624.301 0,7.191"
         style="fill:none;stroke:#000000;stroke-opacity:1;stroke-width:8;stroke-linecap:butt;stroke-linejoin:miter;stroke-miterlimit:10;stroke-dasharray:none"
         id="path3078" /><path
         d="m 2131.6,624.301 0,7.191"
         style="fill:none;stroke:#000000;stroke-opacity:1;stroke-width:8;stroke-linecap:butt;stroke-linejoin:miter;stroke-miterlimit:10;stroke-dasharray:none"
         id="path3080" /><path
         d="m 2117.19,624.301 0,7.191"
         style="fill:none;stroke:#000000;stroke-opacity:1;stroke-width:8;stroke-linecap:butt;stroke-linejoin:miter;stroke-miterlimit:10;stroke-dasharray:none"
         id="path3082" /><path
         d="m 2102.77,624.301 0,7.191"
         style="fill:none;stroke:#000000;stroke-opacity:1;stroke-width:8;stroke-linecap:butt;stroke-linejoin:miter;stroke-miterlimit:10;stroke-dasharray:none"
         id="path3084" /><path
         d="m 2246.8,624.301 0,7.191"
         style="fill:none;stroke:#000000;stroke-opacity:1;stroke-width:8;stroke-linecap:butt;stroke-linejoin:miter;stroke-miterlimit:10;stroke-dasharray:none"
         id="path3086" /><path
         d="m 2228.79,624.301 0,7.191"
         style="fill:none;stroke:#000000;stroke-opacity:1;stroke-width:8;stroke-linecap:butt;stroke-linejoin:miter;stroke-miterlimit:10;stroke-dasharray:none"
         id="path3088" /><path
         d="m 2214.38,624.301 0,7.191"
         style="fill:none;stroke:#000000;stroke-opacity:1;stroke-width:8;stroke-linecap:butt;stroke-linejoin:miter;stroke-miterlimit:10;stroke-dasharray:none"
         id="path3090" /><path
         d="m 2196.41,624.301 0,7.191"
         style="fill:none;stroke:#000000;stroke-opacity:1;stroke-width:8;stroke-linecap:butt;stroke-linejoin:miter;stroke-miterlimit:10;stroke-dasharray:none"
         id="path3092" /><path
         d="m 2181.99,624.301 0,7.191"
         style="fill:none;stroke:#000000;stroke-opacity:1;stroke-width:8;stroke-linecap:butt;stroke-linejoin:miter;stroke-miterlimit:10;stroke-dasharray:none"
         id="path3094" /><path
         d="m 2163.98,624.301 0,7.191"
         style="fill:none;stroke:#000000;stroke-opacity:1;stroke-width:8;stroke-linecap:butt;stroke-linejoin:miter;stroke-miterlimit:10;stroke-dasharray:none"
         id="path3096" /><path
         d="m 2261.21,624.301 0,7.191"
         style="fill:none;stroke:#000000;stroke-opacity:1;stroke-width:8;stroke-linecap:butt;stroke-linejoin:miter;stroke-miterlimit:10;stroke-dasharray:none"
         id="path3098" /><path
         d="m 2308.01,620.711 -32.42,3.59"
         style="fill:none;stroke:#000000;stroke-opacity:1;stroke-width:8;stroke-linecap:butt;stroke-linejoin:miter;stroke-miterlimit:10;stroke-dasharray:none"
         id="path3100" /><path
         d="m 2308.01,635.09 -32.42,-3.598"
         style="fill:none;stroke:#000000;stroke-opacity:1;stroke-width:8;stroke-linecap:butt;stroke-linejoin:miter;stroke-miterlimit:10;stroke-dasharray:none"
         id="path3102" /><path
         d="m 1803.83,634.73 167.5,0.629"
         style="fill:none;stroke:#000000;stroke-opacity:1;stroke-width:8;stroke-linecap:butt;stroke-linejoin:miter;stroke-miterlimit:10;stroke-dasharray:none"
         id="path3104" /><path
         d="m 1803.83,621.609 167.5,-0.629"
         style="fill:none;stroke:#000000;stroke-opacity:1;stroke-width:8;stroke-linecap:butt;stroke-linejoin:miter;stroke-miterlimit:10;stroke-dasharray:none"
         id="path3106" /><g
         id="g3108"
         transform="scale(10,10)"><text
   transform="matrix(1,0,0,-1,105.47,85.4141)"
   id="text3110"><tspan
     style="fill:#000000;fill-opacity:1;fill-rule:nonzero;stroke:none;font-family:f-0;font-variant:normal;font-size:5;writing-mode:lr;-inkscape-font-specification:f-0-0"
     x="0 2.78 5.56 6.95 9.45"
     y="0"
     sodipodi:role="line"
     id="tspan3112">70 cm</tspan><tspan
     style="fill:#000000;fill-opacity:1;fill-rule:nonzero;stroke:none;font-family:f-0;font-variant:normal;font-size:5;writing-mode:lr;-inkscape-font-specification:f-0-0"
     x="-80.0855 -77.3055"
     y="45.4098"
     sodipodi:role="line"
     id="tspan3114">h1</tspan><tspan
     style="fill:#000000;fill-opacity:1;fill-rule:nonzero;stroke:none;font-family:f-0;font-variant:normal;font-size:5;writing-mode:lr;-inkscape-font-specification:f-0-0"
     x="-68.2765"
     y="30.92"
     id="tspan3116">f</tspan><tspan
     style="fill:#000000;fill-opacity:1;fill-rule:nonzero;stroke:none;font-family:f-0;font-variant:normal;font-size:5;writing-mode:lr;-inkscape-font-specification:f-0-0"
     x="-70.2765 -67.4965"
     y="52.5864"
     sodipodi:role="line"
     id="tspan3118">h2</tspan></text>

<text
   transform="matrix(0.957755,0.287586,0.287586,-0.957755,49.0512,54.0039)"
   id="text3120"><tspan
     style="fill:#000000;fill-opacity:1;fill-rule:nonzero;stroke:none;font-family:f-0;font-variant:normal;font-size:5.00024087;writing-mode:lr;-inkscape-font-specification:f-0-0"
     x="0 2.78013392 4.17020088 6.67032132"
     y="0"
     sodipodi:role="line"
     id="tspan3122">3 cm</tspan></text>

<text
   transform="matrix(1,0,0,-1,70.0551,26.5039)"
   id="text3124"><tspan
     style="font-size:5px;font-variant:normal;writing-mode:lr-tb;fill:#000000;fill-opacity:1;fill-rule:nonzero;stroke:none;font-family:f-0;-inkscape-font-specification:f-0-0"
     x="0 2.78 5.5599999 8.3400002 9.7299995"
     y="0"
     sodipodi:role="line"
     id="tspan3126">200 g</tspan><tspan
     style="font-size:5px;font-variant:normal;writing-mode:lr-tb;fill:#000000;fill-opacity:1;fill-rule:nonzero;stroke:none;font-family:f-0;-inkscape-font-specification:f-0-0"
     x="23.25 26.305 27.415001 30.195 32.695 33.805 36.584999 37.695 38.805 39.915001 41.305 43.805 45.195 46.860001 48.25 49.915001 51.305 54.084999 55.474998 56.865002 58.255001 61.035 63.814999 65.205002 66.595001 69.375 70.485001 71.595001 72.985001 74.092751 76.592751 77.982758 80.762756 83.542755 84.932755 86.042755 88.822754 91.602753 94.382751 95.772751 98.552757 101.05276 102.44276 105.22276 108.00275 109.39275 112.17275 113.56275 116.34275 119.12276"
     y="-3"
     sodipodi:role="line"
     id="tspan3128">Flexibility (f) of the foil is defined as h1 – h2,</tspan><tspan
     style="font-size:5px;font-variant:normal;writing-mode:lr-tb;fill:#000000;fill-opacity:1;fill-rule:nonzero;stroke:none;font-family:f-0;-inkscape-font-specification:f-0-0"
     x="23.25 27.415001 30.195 32.974998 35.474998 38.255001 39.919998 42.694923 45.474922 46.864922 49.64492 52.424923 53.814922 57.424923 60.204922 62.984921 65.764923 67.154922 68.544922 71.324921 74.103065 75.493065 78.273064 81.05307 84.663063 87.443069 88.547989 91.327988 94.107986 95.497986 98.277985 101.05799 102.44799 105.22799 108.00799 110.78799 112.17799 113.56799 116.34799 119.12799"
     y="3"
     sodipodi:role="line"
     id="tspan3130">measured between the unweighted and the </tspan><tspan
     style="font-size:5px;font-variant:normal;writing-mode:lr-tb;fill:#000000;fill-opacity:1;fill-rule:nonzero;stroke:none;font-family:f-0;-inkscape-font-specification:f-0-0"
     x="23.25 26.860001 29.639999 30.75 33.524921 36.30492 37.694923 40.474922 43.254921 44.64492 47.424923 50.204922 52.704922 53.814922 55.204922 56.314922 59.094921 61.870041 63.265018 66.040039 67.43502 68.82502 70.215019 72.995018 75.77346 77.16346 78.553459 79.66346"
     y="9"
     sodipodi:role="line"
     id="tspan3132">weighted position of the tip</tspan><tspan
     style="font-size:5px;font-variant:normal;writing-mode:lr-tb;fill:#000000;fill-opacity:1;fill-rule:nonzero;stroke:none;font-family:f-0;-inkscape-font-specification:f-0-0"
     x="23.25 27.415001 28.525 31.305 32.415001 36.580002 39.360001 43.525002 44.915001 46.305 49.084999 50.474998 53.255001 54.645 57.145"
     y="16"
     sodipodi:role="line"
     id="tspan3134">Minimum: 5.5 cm </tspan><tspan
     style="font-size:5px;font-variant:normal;writing-mode:lr-tb;fill:#000000;fill-opacity:1;fill-rule:nonzero;stroke:none;font-family:f-0;-inkscape-font-specification:f-0-0"
     sodipodi:role="line"
     id="tspan3148"
     x="0"
     y="0">                 Maximum: 9.5 cm</tspan><tspan
     style="font-size:5px;font-variant:normal;writing-mode:lr-tb;fill:#000000;fill-opacity:1;fill-rule:nonzero;stroke:none;font-family:f-0;-inkscape-font-specification:f-0-0"
     sodipodi:role="line"
     id="tspan3136"
     x="0"
     y="0" /></text>

</g><path
         d="m 696.91,313.289 -59.879,79.762"
         style="fill:none;stroke:#000000;stroke-opacity:1;stroke-width:3;stroke-linecap:butt;stroke-linejoin:miter;stroke-miterlimit:10;stroke-dasharray:none"
         id="path3138" /><g
         id="g3140"
         transform="scale(10,10)"><text
   transform="matrix(1,0,0,-1,99.191,109.661)"
   id="text3142"><tspan
     style="fill:#000000;fill-opacity:1;fill-rule:nonzero;stroke:none;font-family:f-0;font-variant:normal;font-size:6;writing-mode:lr;-inkscape-font-specification:f-0-0"
     x="0 3.666 7.998 12 13.668 17.334 22.002 23.67"
     y="0"
     sodipodi:role="line"
     id="tspan3144">THE FOIL</tspan><tspan
     style="fill:#000000;fill-opacity:1;fill-rule:nonzero;stroke:none;font-family:f-0;font-variant:normal;font-size:6;writing-mode:lr;-inkscape-font-specification:f-0-0"
     x="-71.3422 -67.6762 -64.3402 -61.0042 -59.3362 -57.6682 -54.3322 -52.6642 -49.3282 -47.9962 -46.3282 -41.9962 -38.6602 -37.3282 -33.9922 -30.6562 -28.9882 -27.3202 -23.9842 -22.3162 -20.6482 -18.9802 -15.6442 -12.3082 -10.64137188 -8.97337188 -5.63737188 -4.30537188 -2.97337188 -1.30537188 3.69262812 7.02862812 10.02862812 11.69662812 13.36462812 16.70062812 20.03662812 21.70462812 23.03662812 26.37262812 29.37262812 32.37262812 34.04062812 35.70862812 39.04462812 42.38062812 45.71662812 47.38462812 50.71750312 54.05350312 57.38950312 59.05750312 62.39350312 64.06150312 66.05950312 70.06150312 72.05950312 73.72750312 75.05950312 78.05950312 79.39150312 82.72750312 84.39550312 89.39350312 91.06150312 94.39750312"
     y="9"
     sodipodi:role="line"
     id="tspan3146">The total weight of the foil must be less than 500 g (Article m.6)</tspan></text>

</g></g></g></svg>