<?xml version="1.0" encoding="UTF-8" standalone="no"?>
<!-- Created with Inkscape (http://www.inkscape.org/) -->

<svg
   xmlns:dc="http://purl.org/dc/elements/1.1/"
   xmlns:cc="http://creativecommons.org/ns#"
   xmlns:rdf="http://www.w3.org/1999/02/22-rdf-syntax-ns#"
   xmlns:svg="http://www.w3.org/2000/svg"
   xmlns="http://www.w3.org/2000/svg"
   xmlns:sodipodi="http://sodipodi.sourceforge.net/DTD/sodipodi-0.dtd"
   xmlns:inkscape="http://www.inkscape.org/namespaces/inkscape"
   id="svg2816"
   version="1.1"
   inkscape:version="0.47 r22583"
   width="743.75"
   height="1052.5"
   xml:space="preserve"
   sodipodi:docname="08UKFIORE1_2010.eps"
   inkscape:export-filename="C:\Users\psmith\Documents\Fencing\BFA\rules\branches\2010\images\08UKFIORE1_2010.png"
   inkscape:export-xdpi="200"
   inkscape:export-ydpi="200"><metadata
     id="metadata2822"><rdf:RDF><cc:Work
         rdf:about=""><dc:format>image/svg+xml</dc:format><dc:type
           rdf:resource="http://purl.org/dc/dcmitype/StillImage" /><dc:title></dc:title></cc:Work></rdf:RDF></metadata><defs
     id="defs2820"><inkscape:perspective
       sodipodi:type="inkscape:persp3d"
       inkscape:vp_x="0 : 0.5 : 1"
       inkscape:vp_y="0 : 1000 : 0"
       inkscape:vp_z="1 : 0.5 : 1"
       inkscape:persp3d-origin="0.5 : 0.33333333 : 1"
       id="perspective2824" /></defs><sodipodi:namedview
     pagecolor="#ffffff"
     bordercolor="#666666"
     borderopacity="1"
     objecttolerance="10"
     gridtolerance="10"
     guidetolerance="10"
     inkscape:pageopacity="0"
     inkscape:pageshadow="2"
     inkscape:window-width="1680"
     inkscape:window-height="988"
     id="namedview2818"
     showgrid="false"
     inkscape:zoom="1.9033873"
     inkscape:cx="371.875"
     inkscape:cy="487.53603"
     inkscape:window-x="-8"
     inkscape:window-y="-8"
     inkscape:window-maximized="1"
     inkscape:current-layer="g2828" /><g
     id="g2826"
     inkscape:groupmode="layer"
     inkscape:label="ink_ext_XXXXXX"
     transform="matrix(1.25,0,0,-1.25,0,1052.5)"><g
       id="g2828"
       transform="scale(0.1,0.1)"><path
         d="m 2882.86,4103.09 0,266.4"
         style="fill:none;stroke:#000000;stroke-opacity:1;stroke-width:3;stroke-linecap:butt;stroke-linejoin:miter;stroke-miterlimit:10;stroke-dasharray:none"
         id="path2830" /><path
         d="m 3268.07,4103.09 0,266.4"
         style="fill:none;stroke:#000000;stroke-opacity:1;stroke-width:3;stroke-linecap:butt;stroke-linejoin:miter;stroke-miterlimit:10;stroke-dasharray:none"
         id="path2832" /><path
         d="m 2854.07,4358.69 446.39,0"
         style="fill:none;stroke:#000000;stroke-opacity:1;stroke-width:3;stroke-linecap:butt;stroke-linejoin:miter;stroke-miterlimit:10;stroke-dasharray:none"
         id="path2834" /><path
         d="m 3268.07,4358.69 0,0"
         style="fill:none;stroke:#000000;stroke-opacity:1;stroke-width:3;stroke-linecap:butt;stroke-linejoin:miter;stroke-miterlimit:10;stroke-dasharray:none"
         id="path2836" /><path
         d="m 3124.07,3912.29 0,0"
         style="fill:none;stroke:#000000;stroke-opacity:1;stroke-width:3;stroke-linecap:butt;stroke-linejoin:miter;stroke-miterlimit:10;stroke-dasharray:none"
         id="path2838" /><path
         d="m 2494.07,5543.09 0,154.8"
         style="fill:none;stroke:#000000;stroke-opacity:1;stroke-width:3;stroke-linecap:butt;stroke-linejoin:miter;stroke-miterlimit:10;stroke-dasharray:none"
         id="path2840" /><path
         d="m 3934.07,5543.09 0,154.8"
         style="fill:none;stroke:#000000;stroke-opacity:1;stroke-width:3;stroke-linecap:butt;stroke-linejoin:miter;stroke-miterlimit:10;stroke-dasharray:none"
         id="path2842" /><path
         d="m 2494.07,5694.29 1435.93,0"
         style="fill:none;stroke:#000000;stroke-opacity:1;stroke-width:3;stroke-linecap:butt;stroke-linejoin:miter;stroke-miterlimit:10;stroke-dasharray:none"
         id="path2844" /><path
         d="m 2498.91,5695.3 c 0,1.66 -1.34,3 -3,3 -1.66,0 -3,-1.34 -3,-3 0,-1.65 1.34,-3 3,-3 1.66,0 3,1.35 3,3 l 0,0 z"
         style="fill:none;stroke:#000000;stroke-opacity:1;stroke-width:3;stroke-linecap:butt;stroke-linejoin:miter;stroke-miterlimit:10;stroke-dasharray:none"
         id="path2846" /><path
         d="m 3932.73,5695.3 c 0,-1.65 1.34,-3 3,-3 1.66,0 3,1.35 3,3 0,1.66 -1.34,3 -3,3 -1.66,0 -3,-1.34 -3,-3 l 0,0 z"
         style="fill:none;stroke:#000000;stroke-opacity:1;stroke-width:3;stroke-linecap:butt;stroke-linejoin:miter;stroke-miterlimit:10;stroke-dasharray:none"
         id="path2848" /><path
         d="m 2494.07,5543.09 0,0"
         style="fill:none;stroke:#000000;stroke-opacity:1;stroke-width:3;stroke-linecap:butt;stroke-linejoin:miter;stroke-miterlimit:10;stroke-dasharray:none"
         id="path2850" /><path
         d="m 3934.07,5543.09 0,0"
         style="fill:none;stroke:#000000;stroke-opacity:1;stroke-width:3;stroke-linecap:butt;stroke-linejoin:miter;stroke-miterlimit:10;stroke-dasharray:none"
         id="path2852" /><path
         d="m 3934.07,5694.29 0,0"
         style="fill:none;stroke:#000000;stroke-opacity:1;stroke-width:3;stroke-linecap:butt;stroke-linejoin:miter;stroke-miterlimit:10;stroke-dasharray:none"
         id="path2854" /><path
         d="m 2173.66,5593.49 0,208.8"
         style="fill:none;stroke:#000000;stroke-opacity:1;stroke-width:3;stroke-linecap:butt;stroke-linejoin:miter;stroke-miterlimit:10;stroke-dasharray:none"
         id="path2856" /><path
         d="m 3934.07,5593.49 0,208.8"
         style="fill:none;stroke:#000000;stroke-opacity:1;stroke-width:3;stroke-linecap:butt;stroke-linejoin:miter;stroke-miterlimit:10;stroke-dasharray:none"
         id="path2858" /><path
         d="m 3934.07,5798.69 -1760.74,0"
         style="fill:none;stroke:#000000;stroke-opacity:1;stroke-width:3;stroke-linecap:butt;stroke-linejoin:miter;stroke-miterlimit:10;stroke-dasharray:none"
         id="path2860" /><path
         d="m 2178.95,5801.6 c 0,1.65 -1.35,2.99 -3,2.99 -1.66,0 -3,-1.34 -3,-2.99 0,-1.66 1.34,-3 3,-3 1.65,0 3,1.34 3,3 l 0,0 z"
         style="fill:none;stroke:#000000;stroke-opacity:1;stroke-width:3;stroke-linecap:butt;stroke-linejoin:miter;stroke-miterlimit:10;stroke-dasharray:none"
         id="path2862" /><path
         d="m 3932.73,5801.6 c 0,-1.66 1.34,-3 3,-3 1.66,0 3,1.34 3,3 0,1.65 -1.34,2.99 -3,2.99 -1.66,0 -3,-1.34 -3,-2.99 l 0,0 z"
         style="fill:none;stroke:#000000;stroke-opacity:1;stroke-width:3;stroke-linecap:butt;stroke-linejoin:miter;stroke-miterlimit:10;stroke-dasharray:none"
         id="path2864" /><path
         d="m 2173.66,5593.49 0,0"
         style="fill:none;stroke:#000000;stroke-opacity:1;stroke-width:3;stroke-linecap:butt;stroke-linejoin:miter;stroke-miterlimit:10;stroke-dasharray:none"
         id="path2866" /><path
         d="m 3934.07,5593.49 0,0"
         style="fill:none;stroke:#000000;stroke-opacity:1;stroke-width:3;stroke-linecap:butt;stroke-linejoin:miter;stroke-miterlimit:10;stroke-dasharray:none"
         id="path2868" /><path
         d="m 3934.07,5798.69 0,0"
         style="fill:none;stroke:#000000;stroke-opacity:1;stroke-width:3;stroke-linecap:butt;stroke-linejoin:miter;stroke-miterlimit:10;stroke-dasharray:none"
         id="path2870" /><path
         d="m 2206.07,5503.49 0,90"
         style="fill:none;stroke:#000000;stroke-opacity:1;stroke-width:3;stroke-linecap:butt;stroke-linejoin:miter;stroke-miterlimit:10;stroke-dasharray:none"
         id="path2872" /><path
         d="m 2494.07,5503.49 0,90"
         style="fill:none;stroke:#000000;stroke-opacity:1;stroke-width:3;stroke-linecap:butt;stroke-linejoin:miter;stroke-miterlimit:10;stroke-dasharray:none"
         id="path2874" /><path
         d="m 2494.07,5589.89 -49.07,0"
         style="fill:none;stroke:#000000;stroke-opacity:1;stroke-width:3;stroke-linecap:butt;stroke-linejoin:miter;stroke-miterlimit:10;stroke-dasharray:none"
         id="path2876" /><path
         d="m 2245,5589.89 -35,0"
         style="fill:none;stroke:#000000;stroke-opacity:1;stroke-width:3;stroke-linecap:butt;stroke-linejoin:miter;stroke-miterlimit:10;stroke-dasharray:none"
         id="path2878" /><path
         d="m 2210.94,5592.81 c 0,1.66 -1.34,3 -3,3 -1.65,0 -3,-1.34 -3,-3 0,-1.65 1.35,-2.99 3,-2.99 1.66,0 3,1.34 3,2.99 l 0,0 z"
         style="fill:none;stroke:#000000;stroke-opacity:1;stroke-width:3;stroke-linecap:butt;stroke-linejoin:miter;stroke-miterlimit:10;stroke-dasharray:none"
         id="path2880" /><path
         d="m 2492.91,5592.81 c 0,-1.65 1.34,-2.99 3,-2.99 1.66,0 3,1.34 3,2.99 0,1.66 -1.34,3 -3,3 -1.66,0 -3,-1.34 -3,-3 l 0,0 z"
         style="fill:none;stroke:#000000;stroke-opacity:1;stroke-width:3;stroke-linecap:butt;stroke-linejoin:miter;stroke-miterlimit:10;stroke-dasharray:none"
         id="path2882" /><path
         d="m 2206.07,5503.49 0,0"
         style="fill:none;stroke:#000000;stroke-opacity:1;stroke-width:3;stroke-linecap:butt;stroke-linejoin:miter;stroke-miterlimit:10;stroke-dasharray:none"
         id="path2884" /><path
         d="m 2494.07,5503.49 0,0"
         style="fill:none;stroke:#000000;stroke-opacity:1;stroke-width:3;stroke-linecap:butt;stroke-linejoin:miter;stroke-miterlimit:10;stroke-dasharray:none"
         id="path2886" /><path
         d="m 2494.07,5589.89 0,0"
         style="fill:none;stroke:#000000;stroke-opacity:1;stroke-width:3;stroke-linecap:butt;stroke-linejoin:miter;stroke-miterlimit:10;stroke-dasharray:none"
         id="path2888" /><path
         d="m 2173.66,5543.09 0,154.8"
         style="fill:none;stroke:#000000;stroke-opacity:1;stroke-width:3;stroke-linecap:butt;stroke-linejoin:miter;stroke-miterlimit:10;stroke-dasharray:none"
         id="path2890" /><path
         d="m 2494.07,5543.09 0,154.8"
         style="fill:none;stroke:#000000;stroke-opacity:1;stroke-width:3;stroke-linecap:butt;stroke-linejoin:miter;stroke-miterlimit:10;stroke-dasharray:none"
         id="path2892" /><path
         d="m 2173.66,5694.29 320.41,0"
         style="fill:none;stroke:#000000;stroke-opacity:1;stroke-width:3;stroke-linecap:butt;stroke-linejoin:miter;stroke-miterlimit:10;stroke-dasharray:none"
         id="path2894" /><path
         d="m 2178.95,5695.3 c 0,1.66 -1.35,3 -3,3 -1.66,0 -3,-1.34 -3,-3 0,-1.65 1.34,-3 3,-3 1.65,0 3,1.35 3,3 l 0,0 z"
         style="fill:none;stroke:#000000;stroke-opacity:1;stroke-width:3;stroke-linecap:butt;stroke-linejoin:miter;stroke-miterlimit:10;stroke-dasharray:none"
         id="path2896" /><path
         d="m 2492.91,5695.3 c 0,-1.65 1.34,-3 3,-3 1.66,0 3,1.35 3,3 0,1.66 -1.34,3 -3,3 -1.66,0 -3,-1.34 -3,-3 l 0,0 z"
         style="fill:none;stroke:#000000;stroke-opacity:1;stroke-width:3;stroke-linecap:butt;stroke-linejoin:miter;stroke-miterlimit:10;stroke-dasharray:none"
         id="path2898" /><path
         d="m 2173.66,5543.09 0,0"
         style="fill:none;stroke:#000000;stroke-opacity:1;stroke-width:3;stroke-linecap:butt;stroke-linejoin:miter;stroke-miterlimit:10;stroke-dasharray:none"
         id="path2900" /><path
         d="m 2494.07,5543.09 0,0"
         style="fill:none;stroke:#000000;stroke-opacity:1;stroke-width:3;stroke-linecap:butt;stroke-linejoin:miter;stroke-miterlimit:10;stroke-dasharray:none"
         id="path2902" /><path
         d="m 2494.07,5694.29 0,0"
         style="fill:none;stroke:#000000;stroke-opacity:1;stroke-width:3;stroke-linecap:butt;stroke-linejoin:miter;stroke-miterlimit:10;stroke-dasharray:none"
         id="path2904" /><path
         d="m 2173.66,5543.09 0,-39.6"
         style="fill:none;stroke:#000000;stroke-opacity:1;stroke-width:3;stroke-linecap:butt;stroke-linejoin:miter;stroke-miterlimit:10;stroke-dasharray:none"
         id="path2906" /><path
         d="m 2494.07,5445.89 0,-21.6"
         style="fill:none;stroke:#000000;stroke-opacity:1;stroke-width:3;stroke-linecap:butt;stroke-linejoin:miter;stroke-miterlimit:10;stroke-dasharray:none"
         id="path2908" /><path
         d="m 2494.07,5427.89 0,14.4"
         style="fill:none;stroke:#000000;stroke-opacity:1;stroke-width:3;stroke-linecap:butt;stroke-linejoin:miter;stroke-miterlimit:10;stroke-dasharray:none"
         id="path2910" /><path
         d="m 2887.59,4362.16 c 0,1.66 -1.35,3 -3,3 -1.66,0 -3,-1.34 -3,-3 0,-1.65 1.34,-3 3,-3 1.65,0 3,1.35 3,3 l 0,0 z"
         style="fill:none;stroke:#000000;stroke-opacity:1;stroke-width:3;stroke-linecap:butt;stroke-linejoin:miter;stroke-miterlimit:10;stroke-dasharray:none"
         id="path2912" /><path
         d="m 3675,4049.09 -313.34,0 -234,-140.4"
         style="fill:none;stroke:#000000;stroke-opacity:1;stroke-width:3;stroke-linecap:butt;stroke-linejoin:miter;stroke-miterlimit:10;stroke-dasharray:none"
         id="path2914" /><path
         d="m 3126.04,3912.43 c 0,-1.66 1.34,-3 3,-3 1.65,0 3,1.34 3,3 0,1.66 -1.35,3 -3,3 -1.66,0 -3,-1.34 -3,-3 l 0,0 z"
         style="fill:none;stroke:#000000;stroke-opacity:1;stroke-width:3;stroke-linecap:butt;stroke-linejoin:miter;stroke-miterlimit:10;stroke-dasharray:none"
         id="path2916" /><path
         d="m 3692.86,5401.69 0,-93.6"
         style="fill:none;stroke:#000000;stroke-opacity:1;stroke-width:3;stroke-linecap:butt;stroke-linejoin:miter;stroke-miterlimit:10;stroke-dasharray:none"
         id="path2918" /><path
         d="m 3934.07,5398.09 0,-90"
         style="fill:none;stroke:#000000;stroke-opacity:1;stroke-width:3;stroke-linecap:butt;stroke-linejoin:miter;stroke-miterlimit:10;stroke-dasharray:none"
         id="path2920" /><path
         d="m 3692.86,5311.69 33.81,0"
         style="fill:none;stroke:#000000;stroke-opacity:1;stroke-width:3;stroke-linecap:butt;stroke-linejoin:miter;stroke-miterlimit:10;stroke-dasharray:none"
         id="path2922" /><path
         d="m 3934.07,5311.69 -37.4,0"
         style="fill:none;stroke:#000000;stroke-opacity:1;stroke-width:3;stroke-linecap:butt;stroke-linejoin:miter;stroke-miterlimit:10;stroke-dasharray:none"
         id="path2924" /><path
         d="m 3692.86,5366.69 0,0"
         style="fill:none;stroke:#000000;stroke-opacity:1;stroke-width:3;stroke-linecap:butt;stroke-linejoin:miter;stroke-miterlimit:10;stroke-dasharray:none"
         id="path2926" /><path
         d="m 3934.07,5366.69 0,0"
         style="fill:none;stroke:#000000;stroke-opacity:1;stroke-width:3;stroke-linecap:butt;stroke-linejoin:miter;stroke-miterlimit:10;stroke-dasharray:none"
         id="path2928" /><path
         d="m 3934.07,5276.69 0,0"
         style="fill:none;stroke:#000000;stroke-opacity:1;stroke-width:3;stroke-linecap:butt;stroke-linejoin:miter;stroke-miterlimit:10;stroke-dasharray:none"
         id="path2930" /><path
         d="m 3265.54,4362.16 c 0,-1.65 1.34,-3 3,-3 1.65,0 3,1.35 3,3 0,1.66 -1.35,3 -3,3 -1.66,0 -3,-1.34 -3,-3 l 0,0 z"
         style="fill:none;stroke:#000000;stroke-opacity:1;stroke-width:3;stroke-linecap:butt;stroke-linejoin:miter;stroke-miterlimit:10;stroke-dasharray:none"
         id="path2932" /><path
         d="m 3919.66,5431.49 7.2,0"
         style="fill:none;stroke:#000000;stroke-opacity:1;stroke-width:3;stroke-linecap:butt;stroke-linejoin:miter;stroke-miterlimit:10;stroke-dasharray:none"
         id="path2934" /><path
         d="m 3919.66,5438.69 7.2,0"
         style="fill:none;stroke:#000000;stroke-opacity:1;stroke-width:3;stroke-linecap:butt;stroke-linejoin:miter;stroke-miterlimit:10;stroke-dasharray:none"
         id="path2936" /><path
         d="m 3919.66,5438.69 0,-7.2"
         style="fill:none;stroke:#000000;stroke-opacity:1;stroke-width:3;stroke-linecap:butt;stroke-linejoin:miter;stroke-miterlimit:10;stroke-dasharray:none"
         id="path2938" /><path
         d="m 2464.45,5356.43 c 17.88,18.76 28.96,42.96 31.46,68.75"
         style="fill:none;stroke:#000000;stroke-opacity:1;stroke-width:8;stroke-linecap:butt;stroke-linejoin:miter;stroke-miterlimit:10;stroke-dasharray:none"
         id="path2940" /><path
         d="m 2495.91,5447.56 c -2.5,25.79 -13.58,49.99 -31.46,68.75"
         style="fill:none;stroke:#000000;stroke-opacity:1;stroke-width:8;stroke-linecap:butt;stroke-linejoin:miter;stroke-miterlimit:10;stroke-dasharray:none"
         id="path2942" /><path
         d="m 3268.94,3914.39 c 0,105.91 -86.01,191.86 -191.98,191.86 -105.97,0 -191.97,-85.95 -191.97,-191.86 0,-105.91 86,-191.86 191.97,-191.87 105.97,0 191.98,85.96 191.98,191.87"
         style="fill:none;stroke:#000000;stroke-opacity:1;stroke-width:8;stroke-linecap:butt;stroke-linejoin:miter;stroke-miterlimit:10;stroke-dasharray:none"
         id="path2944" /><path
         d="m 3919.66,5438.69 0,3.6 -36,0 -7.2,-3.6 -1364.39,3.6"
         style="fill:none;stroke:#000000;stroke-opacity:1;stroke-width:8;stroke-linecap:butt;stroke-linejoin:miter;stroke-miterlimit:10;stroke-dasharray:none"
         id="path2946" /><path
         d="m 2512.07,5427.89 1364.39,3.6 7.2,-3.6 36,0 0,3.6"
         style="fill:none;stroke:#000000;stroke-opacity:1;stroke-width:8;stroke-linecap:butt;stroke-linejoin:miter;stroke-miterlimit:10;stroke-dasharray:none"
         id="path2948" /><path
         d="m 2461.66,5431.49 -255.59,0"
         style="fill:none;stroke:#000000;stroke-opacity:1;stroke-width:8;stroke-linecap:butt;stroke-linejoin:miter;stroke-miterlimit:10;stroke-dasharray:none"
         id="path2950" /><path
         d="m 2461.66,5438.69 -255.59,0"
         style="fill:none;stroke:#000000;stroke-opacity:1;stroke-width:8;stroke-linecap:butt;stroke-linejoin:miter;stroke-miterlimit:10;stroke-dasharray:none"
         id="path2952" /><path
         d="m 2173.66,5427.89 32.41,3.6"
         style="fill:none;stroke:#000000;stroke-opacity:1;stroke-width:8;stroke-linecap:butt;stroke-linejoin:miter;stroke-miterlimit:10;stroke-dasharray:none"
         id="path2954" /><path
         d="m 2173.66,5442.29 32.41,-3.6"
         style="fill:none;stroke:#000000;stroke-opacity:1;stroke-width:8;stroke-linecap:butt;stroke-linejoin:miter;stroke-miterlimit:10;stroke-dasharray:none"
         id="path2956" /><path
         d="m 2173.66,5427.89 0,14.4"
         style="fill:none;stroke:#000000;stroke-opacity:1;stroke-width:8;stroke-linecap:butt;stroke-linejoin:miter;stroke-miterlimit:10;stroke-dasharray:none"
         id="path2958" /><path
         d="m 2220.46,5438.69 0,-7.2"
         style="fill:none;stroke:#000000;stroke-opacity:1;stroke-width:8;stroke-linecap:butt;stroke-linejoin:miter;stroke-miterlimit:10;stroke-dasharray:none"
         id="path2960" /><path
         d="m 2206.07,5438.69 0,-7.2"
         style="fill:none;stroke:#000000;stroke-opacity:1;stroke-width:8;stroke-linecap:butt;stroke-linejoin:miter;stroke-miterlimit:10;stroke-dasharray:none"
         id="path2962" /><path
         d="m 2238.46,5438.69 0,-7.2"
         style="fill:none;stroke:#000000;stroke-opacity:1;stroke-width:8;stroke-linecap:butt;stroke-linejoin:miter;stroke-miterlimit:10;stroke-dasharray:none"
         id="path2964" /><path
         d="m 2270.86,5438.69 0,-7.2"
         style="fill:none;stroke:#000000;stroke-opacity:1;stroke-width:8;stroke-linecap:butt;stroke-linejoin:miter;stroke-miterlimit:10;stroke-dasharray:none"
         id="path2966" /><path
         d="m 2252.86,5438.69 0,-7.2"
         style="fill:none;stroke:#000000;stroke-opacity:1;stroke-width:8;stroke-linecap:butt;stroke-linejoin:miter;stroke-miterlimit:10;stroke-dasharray:none"
         id="path2968" /><path
         d="m 2285.27,5438.69 0,-7.2"
         style="fill:none;stroke:#000000;stroke-opacity:1;stroke-width:8;stroke-linecap:butt;stroke-linejoin:miter;stroke-miterlimit:10;stroke-dasharray:none"
         id="path2970" /><path
         d="m 2303.27,5438.69 0,-7.2"
         style="fill:none;stroke:#000000;stroke-opacity:1;stroke-width:8;stroke-linecap:butt;stroke-linejoin:miter;stroke-miterlimit:10;stroke-dasharray:none"
         id="path2972" /><path
         d="m 2335.66,5438.69 0,-7.2"
         style="fill:none;stroke:#000000;stroke-opacity:1;stroke-width:8;stroke-linecap:butt;stroke-linejoin:miter;stroke-miterlimit:10;stroke-dasharray:none"
         id="path2974" /><path
         d="m 2317.66,5438.69 0,-7.2"
         style="fill:none;stroke:#000000;stroke-opacity:1;stroke-width:8;stroke-linecap:butt;stroke-linejoin:miter;stroke-miterlimit:10;stroke-dasharray:none"
         id="path2976" /><path
         d="m 2350.07,5438.69 0,-7.2"
         style="fill:none;stroke:#000000;stroke-opacity:1;stroke-width:8;stroke-linecap:butt;stroke-linejoin:miter;stroke-miterlimit:10;stroke-dasharray:none"
         id="path2978" /><path
         d="m 2382.46,5438.69 0,-7.2"
         style="fill:none;stroke:#000000;stroke-opacity:1;stroke-width:8;stroke-linecap:butt;stroke-linejoin:miter;stroke-miterlimit:10;stroke-dasharray:none"
         id="path2980" /><path
         d="m 2364.46,5438.69 0,-7.2"
         style="fill:none;stroke:#000000;stroke-opacity:1;stroke-width:8;stroke-linecap:butt;stroke-linejoin:miter;stroke-miterlimit:10;stroke-dasharray:none"
         id="path2982" /><path
         d="m 2396.86,5438.69 0,-7.2"
         style="fill:none;stroke:#000000;stroke-opacity:1;stroke-width:8;stroke-linecap:butt;stroke-linejoin:miter;stroke-miterlimit:10;stroke-dasharray:none"
         id="path2984" /><path
         d="m 2429.27,5438.69 0,-7.2"
         style="fill:none;stroke:#000000;stroke-opacity:1;stroke-width:8;stroke-linecap:butt;stroke-linejoin:miter;stroke-miterlimit:10;stroke-dasharray:none"
         id="path2986" /><path
         d="m 2414.86,5438.69 0,-7.2"
         style="fill:none;stroke:#000000;stroke-opacity:1;stroke-width:8;stroke-linecap:butt;stroke-linejoin:miter;stroke-miterlimit:10;stroke-dasharray:none"
         id="path2988" /><path
         d="m 2461.66,5514.29 0,-158.4"
         style="fill:none;stroke:#000000;stroke-opacity:1;stroke-width:8;stroke-linecap:butt;stroke-linejoin:miter;stroke-miterlimit:10;stroke-dasharray:none"
         id="path2990" /><path
         d="m 2447.27,5438.69 0,-7.2"
         style="fill:none;stroke:#000000;stroke-opacity:1;stroke-width:8;stroke-linecap:butt;stroke-linejoin:miter;stroke-miterlimit:10;stroke-dasharray:none"
         id="path2992" /><path
         d="m 2461.66,5435.09 0,-50.4"
         style="fill:none;stroke:#000000;stroke-opacity:1;stroke-width:8;stroke-linecap:butt;stroke-linejoin:miter;stroke-miterlimit:10;stroke-dasharray:none"
         id="path2994" /><path
         d="m 2494.07,5445.89 18,0 0,-21.6 -18,0"
         style="fill:none;stroke:#000000;stroke-opacity:1;stroke-width:8;stroke-linecap:butt;stroke-linejoin:miter;stroke-miterlimit:10;stroke-dasharray:none"
         id="path2996" /><path
         d="m 3059.27,3951.89 0,-79.2"
         style="fill:none;stroke:#000000;stroke-opacity:1;stroke-width:8;stroke-linecap:butt;stroke-linejoin:miter;stroke-miterlimit:10;stroke-dasharray:none"
         id="path2998" /><path
         d="m 3091.66,3951.89 0,-79.2"
         style="fill:none;stroke:#000000;stroke-opacity:1;stroke-width:8;stroke-linecap:butt;stroke-linejoin:miter;stroke-miterlimit:10;stroke-dasharray:none"
         id="path3000" /><path
         d="m 3926.86,5438.69 0,-10.8 7.21,0 0,14.4 -7.21,0 0,-3.6 z"
         style="fill:none;stroke:#000000;stroke-opacity:1;stroke-width:8;stroke-linecap:butt;stroke-linejoin:miter;stroke-miterlimit:10;stroke-dasharray:none"
         id="path3002" /><text
         id="text3006"
         transform="scale(1,-1)"
         x="2932.04"
         y="-5825.8999"
         style="font-size:120px"><tspan
           id="tspan3008"
           sodipodi:role="line"
           y="-5825.8999"
           x="2932.04 2973.6899 3001.49 3026.49 3040.3899 3054.29 3082.0901 3109.8899 3137.6899 3151.5901 3176.5901"
           style="font-size:50px;font-variant:normal;font-weight:300;writing-mode:lr-tb;fill:#000000;fill-opacity:1;fill-rule:nonzero;stroke:none;font-family:Helvetica;-inkscape-font-specification:Helvetica-Light">Max. 110 cm</tspan><tspan
           id="tspan3010"
           sodipodi:role="line"
           y="-5714.2979"
           x="2939.5518 2981.2017 3009.0017 3034.0017 3047.9016 3061.8018 3089.6018 3117.4016 3131.3018 3156.3018 2209.5747 2251.2246 2279.0247 2304.0247 2317.9248 2331.8247 2359.6248 2387.4248 2401.3247 2426.3247"
           style="font-size:50px;font-variant:normal;font-weight:300;writing-mode:lr-tb;fill:#000000;fill-opacity:1;fill-rule:nonzero;stroke:none;font-family:Helvetica;-inkscape-font-specification:Helvetica-Light">Max. 90 cmMax. 20 cm</tspan></text>
<text
         id="text3012"
         transform="scale(1,-1)"
         x="2898.6768"
         y="-4725.8999"
         style="font-size:120px"><tspan
           id="tspan3014"
           sodipodi:role="line"
           y="-4725.8999"
           x="2898.6768 2935.3367 2982.0166 2998.6968 3032.0566 3048.7368 3095.4167 3138.7368 3178.7566 3222.0767"
           style="font-size:60px;font-variant:normal;font-weight:300;writing-mode:lr-tb;fill:#000000;fill-opacity:1;fill-rule:nonzero;stroke:none;font-family:Helvetica;-inkscape-font-specification:Helvetica-Light">FOIL GUARD</tspan><tspan
           id="tspan3016"
           sodipodi:role="line"
           y="-4635.8999"
           x="2915.415 2935.395 2975.415 2995.395 3012.075 3025.395 3055.395 3068.7151 3102.075 3118.7549 3168.7351 3185.415 3218.7749"
           style="font-size:60px;font-variant:normal;font-weight:300;writing-mode:lr-tb;fill:#000000;fill-opacity:1;fill-rule:nonzero;stroke:none;font-family:Helvetica;-inkscape-font-specification:Helvetica-Light">(Article m.9)</tspan></text>
<text
         id="text3018"
         transform="scale(1,-1)"
         x="2891.6885"
         y="-4461.7319"
         style="font-size:120px"><tspan
           id="tspan3020"
           sodipodi:role="line"
           y="-4461.7319"
           x="2891.6885 2933.3384 2944.4385 2972.2383 2983.3384 3024.9883 3052.7883 3094.4385 3108.3384 3122.2383 3150.0383 3163.9385 3191.7383 3205.6384 3230.6384 3272.2883"
           style="font-size:50px;font-variant:normal;font-weight:300;writing-mode:lr-tb;fill:#000000;fill-opacity:1;fill-rule:nonzero;stroke:none;font-family:Helvetica;-inkscape-font-specification:Helvetica-Light">Minimum: 9.5 cmm</tspan><tspan
           id="tspan3022"
           sodipodi:role="line"
           y="-4401.7319"
           x="2891.6885 2933.3384 2961.1384 2986.1384 2997.2383 3038.8884 3066.6885 3108.3384 3122.2383 3136.1384 3163.9385 3191.7383 3205.6384 3230.6384"
           style="font-size:50px;font-variant:normal;font-weight:300;writing-mode:lr-tb;fill:#000000;fill-opacity:1;fill-rule:nonzero;stroke:none;font-family:Helvetica;-inkscape-font-specification:Helvetica-Light">Maximum: 12 cm</tspan><tspan
           id="tspan3024"
           sodipodi:role="line"
           y="-4029.998"
           x="3731.9185 3768.0183 3795.8184 3823.6184 3837.5183 3854.1685 3881.9685 3895.8684 3923.6685 3937.5684 3951.4683 3965.3684 3993.1685 4020.9685 4034.8684 4062.6685 4090.4683 4118.2686 4134.9185"
           style="font-size:50px;font-variant:normal;font-weight:300;writing-mode:lr-tb;fill:#000000;fill-opacity:1;fill-rule:nonzero;stroke:none;font-family:Helvetica;-inkscape-font-specification:Helvetica-Light">Centre of the guard</tspan><tspan
           id="tspan3026"
           sodipodi:role="line"
           y="-5072.498"
           x="3274.9773 3308.3274 3319.4275 3347.2273 3375.0273 3402.8274 3416.7273 3427.8274 3455.6274 3480.6274 3508.4275 3519.5273 3547.3274 3561.2275 3572.3274 3600.1274 3627.9275 3641.8274 3655.7273 3683.5273 3700.1775 3714.0774 3741.8774 3752.9773 3780.7773 3805.7773 3819.6772 3836.3274 3847.4275 3872.4275 3886.3274 3900.2273 3928.0273 3939.1274 3950.2273 3964.1274 3980.7773 4005.7773 4019.6772 4033.5774 4047.4775 4080.8274 4097.4775 4111.3774 4122.4775 4147.4775 4158.5776 4186.3774 4200.2773 4241.9272 4255.8271 4283.6274 4311.4272"
           style="font-size:50px;font-variant:normal;font-weight:300;writing-mode:lr-tb;fill:#000000;fill-opacity:1;fill-rule:nonzero;stroke:none;font-family:Helvetica;-inkscape-font-specification:Helvetica-Light">Blade insulation for electric foil (cf. Article m.13)</tspan><tspan
           id="tspan3028"
           sodipodi:role="line"
           y="-5298.9858"
           x="3743.6104 3771.4104 3799.2104 3813.1104 3838.1104"
           style="font-size:50px;font-variant:normal;font-weight:300;writing-mode:lr-tb;fill:#000000;fill-opacity:1;fill-rule:nonzero;stroke:none;font-family:Helvetica;-inkscape-font-specification:Helvetica-Light">15 cm</tspan></text>
<text
         id="text3030"
         transform="scale(1,-1)"
         x="2707.5305"
         y="-6053.3999"
         style="font-size:120px"><tspan
           id="tspan3032"
           sodipodi:role="line"
           y="-6053.3999"
           x="2707.5305 2750.8503 2767.5305 2817.5105 2857.5305 2900.8503 2940.8704 2957.5503 3004.2305 3047.5503 3087.5703 3104.2505 3150.9304 3187.5903 3204.2705 3240.9304 3284.2505 3324.2705 3340.9504 3377.6104 3424.2905 3440.9705"
           style="font-size:60px;font-variant:normal;font-weight:300;writing-mode:lr-tb;fill:#000000;fill-opacity:1;fill-rule:nonzero;stroke:none;font-family:Helvetica;-inkscape-font-specification:Helvetica-Light">DIMENSIONS OF THE FOIL</tspan><tspan
           id="tspan3034"
           sodipodi:role="line"
           y="-5963.3999"
           x="2835.8823 2855.8623 2895.8823 2915.8623 2932.5425 2945.8623 2975.8623 2989.1824 3022.5425 3052.5425 3069.2224 3119.2024 3135.8823 3169.2424 3202.6023 3252.5823 3269.2625 3302.6223"
           style="font-size:60px;font-variant:normal;font-weight:300;writing-mode:lr-tb;fill:#000000;fill-opacity:1;fill-rule:nonzero;stroke:none;font-family:Helvetica;-inkscape-font-specification:Helvetica-Light">(Articles m.3–m.8)</tspan></text>
<text
         id="text3036"
         transform="scale(1,-1)"
         x="2295.8394"
         y="-5599.998"
         style="font-size:120px"><tspan
           id="tspan3038"
           sodipodi:role="line"
           y="-5599.998"
           x="2295.8394 2337.4895 2365.2893 2390.2893 2404.1895 2418.0894"
           style="font-size:50px;font-variant:normal;font-weight:300;writing-mode:lr-tb;fill:#000000;fill-opacity:1;fill-rule:nonzero;stroke:none;font-family:Helvetica;-inkscape-font-specification:Helvetica-Light">Max.  </tspan><tspan
           id="tspan3040"
           sodipodi:role="line"
           y="-5539.998"
           x="2280.5464 2308.3464 2336.1465 2350.0464 2375.0464"
           style="font-size:50px;font-variant:normal;font-weight:300;writing-mode:lr-tb;fill:#000000;fill-opacity:1;fill-rule:nonzero;stroke:none;font-family:Helvetica;-inkscape-font-specification:Helvetica-Light">18 cm</tspan></text>
<path
         d="m 2173.66,5284.29 0,-50.4"
         style="fill:none;stroke:#000000;stroke-opacity:1;stroke-width:3;stroke-linecap:butt;stroke-linejoin:miter;stroke-miterlimit:10;stroke-dasharray:none"
         id="path3042" /><path
         d="m 2206.07,5284.29 0,-50.4"
         style="fill:none;stroke:#000000;stroke-opacity:1;stroke-width:3;stroke-linecap:butt;stroke-linejoin:miter;stroke-miterlimit:10;stroke-dasharray:none"
         id="path3044" /><path
         d="m 2461.66,5284.29 0,-50.4"
         style="fill:none;stroke:#000000;stroke-opacity:1;stroke-width:3;stroke-linecap:butt;stroke-linejoin:miter;stroke-miterlimit:10;stroke-dasharray:none"
         id="path3046" /><path
         d="m 2494.07,5284.29 0,-50.4"
         style="fill:none;stroke:#000000;stroke-opacity:1;stroke-width:3;stroke-linecap:butt;stroke-linejoin:miter;stroke-miterlimit:10;stroke-dasharray:none"
         id="path3048" /><g
         id="g3050"
         transform="scale(10,10)"><text
           transform="matrix(1,0,0,-1,214.668,517.5)"
           id="text3052"><tspan
             style="fill:#000000;fill-opacity:1;fill-rule:nonzero;stroke:none;font-family:Helvetica;font-variant:normal;font-weight:300;font-size:6;writing-mode:lr;-inkscape-font-specification:Helvetica-Light"
             x="0 4.666794 29.166774 34.0812204"
             y="0"
             sodipodi:role="line"
             id="tspan3054">EDCB</tspan></text>
</g><path
         d="m 3932.5,5284.6 0,-50.4"
         style="fill:none;stroke:#000000;stroke-opacity:1;stroke-width:3;stroke-linecap:butt;stroke-linejoin:miter;stroke-miterlimit:10;stroke-dasharray:none"
         id="path3056" /><g
         id="g3058"
         transform="scale(10,10)"><text
           transform="matrix(1,0,0,-1,391.249,517.25)"
           id="text3060"><tspan
             style="fill:#000000;fill-opacity:1;fill-rule:nonzero;stroke:none;font-family:Helvetica;font-variant:normal;font-weight:300;font-size:6;writing-mode:lr;-inkscape-font-specification:Helvetica-Light"
             x="0"
             y="0"
             id="tspan3062">A</tspan></text>
</g></g></g></svg>