<?xml version="1.0" encoding="UTF-8" standalone="no"?>
<!-- Created with Inkscape (http://www.inkscape.org/) -->

<svg
   xmlns:dc="http://purl.org/dc/elements/1.1/"
   xmlns:cc="http://creativecommons.org/ns#"
   xmlns:rdf="http://www.w3.org/1999/02/22-rdf-syntax-ns#"
   xmlns:svg="http://www.w3.org/2000/svg"
   xmlns="http://www.w3.org/2000/svg"
   xmlns:sodipodi="http://sodipodi.sourceforge.net/DTD/sodipodi-0.dtd"
   xmlns:inkscape="http://www.inkscape.org/namespaces/inkscape"
   id="svg2816"
   version="1.1"
   inkscape:version="0.47 r22583"
   width="743.75"
   height="1052.5"
   xml:space="preserve"
   sodipodi:docname="09UKSPAD2_2010.eps"><metadata
     id="metadata2822"><rdf:RDF><cc:Work
         rdf:about=""><dc:format>image/svg+xml</dc:format><dc:type
           rdf:resource="http://purl.org/dc/dcmitype/StillImage" /><dc:title></dc:title></cc:Work></rdf:RDF></metadata><defs
     id="defs2820"><inkscape:perspective
       sodipodi:type="inkscape:persp3d"
       inkscape:vp_x="0 : 0.5 : 1"
       inkscape:vp_y="0 : 1000 : 0"
       inkscape:vp_z="1 : 0.5 : 1"
       inkscape:persp3d-origin="0.5 : 0.33333333 : 1"
       id="perspective2824" /></defs><sodipodi:namedview
     pagecolor="#ffffff"
     bordercolor="#666666"
     borderopacity="1"
     objecttolerance="10"
     gridtolerance="10"
     guidetolerance="10"
     inkscape:pageopacity="0"
     inkscape:pageshadow="2"
     inkscape:window-width="1440"
     inkscape:window-height="838"
     id="namedview2818"
     showgrid="false"
     inkscape:zoom="1.89"
     inkscape:cx="270.45371"
     inkscape:cy="105.77677"
     inkscape:window-x="-8"
     inkscape:window-y="-8"
     inkscape:window-maximized="1"
     inkscape:current-layer="g2828" /><g
     id="g2826"
     inkscape:groupmode="layer"
     inkscape:label="ink_ext_XXXXXX"
     transform="matrix(1.25,0,0,-1.25,0,1052.5)"><g
       id="g2828"
       transform="scale(0.1,0.1)"><path
         d="m 3494.06,1332.64 c -37.58,0.55 -75.15,0.82 -112.73,0.82 -695.28,0 -1387.31,-95 -2056.84,-282.38"
         style="fill:none;stroke:#000000;stroke-opacity:1;stroke-width:3;stroke-linecap:butt;stroke-linejoin:miter;stroke-miterlimit:10;stroke-dasharray:none"
         id="path2830" /><path
         d="m 3494.06,1302.72 c -55.27,1.17 -110.54,1.8 -165.82,1.8 -684.49,0 -1365.82,-93.44 -2025.04,-277.74"
         style="fill:none;stroke:#000000;stroke-opacity:1;stroke-width:3;stroke-linecap:butt;stroke-linejoin:miter;stroke-miterlimit:10;stroke-dasharray:none"
         id="path2832" /><path
         d="m 1218.4,1160.69 28.79,-105.59"
         style="fill:none;stroke:#000000;stroke-opacity:1;stroke-width:3;stroke-linecap:butt;stroke-linejoin:miter;stroke-miterlimit:10;stroke-dasharray:none"
         id="path2834" /><path
         d="m 1105.59,1129.52 28.82,-105.63"
         style="fill:none;stroke:#000000;stroke-opacity:1;stroke-width:3;stroke-linecap:butt;stroke-linejoin:miter;stroke-miterlimit:10;stroke-dasharray:none"
         id="path2836" /><path
         d="m 1280.82,1172.72 -235.23,-67.23"
         style="fill:none;stroke:#000000;stroke-opacity:1;stroke-width:3;stroke-linecap:butt;stroke-linejoin:miter;stroke-miterlimit:10;stroke-dasharray:none"
         id="path2838" /><path
         d="m 1368.44,900.219 c 0,15.469 -12.58,28.011 -28.05,28.011 -6.41,0 -12.62,-2.23 -17.62,-6.25"
         style="fill:none;stroke:#000000;stroke-opacity:1;stroke-width:3;stroke-linecap:butt;stroke-linejoin:miter;stroke-miterlimit:10;stroke-dasharray:none"
         id="path2840" /><path
         d="m 1360.27,900.219 c 0,10.941 -8.9,19.84 -19.88,19.84 -2.93,0 -5.82,-0.661 -8.48,-1.911"
         style="fill:none;stroke:#000000;stroke-opacity:1;stroke-width:3;stroke-linecap:butt;stroke-linejoin:miter;stroke-miterlimit:10;stroke-dasharray:none"
         id="path2842" /><path
         d="m 1355.2,1059.91 -9.61,2.38 -9.57,0 -9.61,-2.38 -7.19,-4.81 -9.61,-7.18 -7.23,-9.61 -7.18,-12 -2.39,-12.03 -4.8,-14.37 0,-28.793 2.38,-14.41 4.81,-12 7.18,-11.988 4.81,-9.61 9.61,-7.23 9.61,-4.762 9.61,-2.418 9.57,0 9.61,2.418"
         style="fill:none;stroke:#000000;stroke-opacity:1;stroke-width:3;stroke-linecap:butt;stroke-linejoin:miter;stroke-miterlimit:10;stroke-dasharray:none"
         id="path2844" /><path
         d="m 1340.82,1055.1 -9.61,-2.38 -9.61,-2.42 -7.19,-7.19 -7.22,-9.61 -4.81,-9.61 -4.76,-11.99 -4.81,-11.99 0,-28.793 2.39,-12.027 4.8,-11.992 4.8,-9.61 7.19,-9.57 9.61,-7.23 7.19,-2.379 9.61,-2.43 9.61,0"
         style="fill:none;stroke:#000000;stroke-opacity:1;stroke-width:3;stroke-linecap:butt;stroke-linejoin:miter;stroke-miterlimit:10;stroke-dasharray:none"
         id="path2846" /><path
         d="m 1362.38,915.879 7.23,7.23 7.19,9.61 7.18,9.57 4.81,14.418 2.42,11.992 0,28.789 -2.42,14.412 -2.38,11.99 -7.19,11.99 -4.81,9.61"
         style="fill:none;stroke:#000000;stroke-opacity:1;stroke-width:3;stroke-linecap:butt;stroke-linejoin:miter;stroke-miterlimit:10;stroke-dasharray:none"
         id="path2848" /><path
         d="m 1357.62,920.688 7.18,7.23 7.19,7.18 4.81,9.609 4.8,9.57 2.38,12.032 2.43,12 0,11.988 -2.43,11.993 -2.38,11.99 -2.38,12.03 -7.23,9.57 -4.8,7.23"
         style="fill:none;stroke:#000000;stroke-opacity:1;stroke-width:3;stroke-linecap:butt;stroke-linejoin:miter;stroke-miterlimit:10;stroke-dasharray:none"
         id="path2850" /><path
         d="m 1317.89,916.898 c -3.59,-4.839 -5.51,-10.66 -5.51,-16.679"
         style="fill:none;stroke:#000000;stroke-opacity:1;stroke-width:3;stroke-linecap:butt;stroke-linejoin:miter;stroke-miterlimit:10;stroke-dasharray:none"
         id="path2852" /><path
         d="m 1325.04,912.758 c -2.93,-3.551 -4.49,-7.969 -4.49,-12.539"
         style="fill:none;stroke:#000000;stroke-opacity:1;stroke-width:3;stroke-linecap:butt;stroke-linejoin:miter;stroke-miterlimit:10;stroke-dasharray:none"
         id="path2854" /><path
         d="m 1296.56,1024.95 c -11.48,-3.24 -22.97,-6.49 -34.41,-9.77"
         style="fill:none;stroke:#000000;stroke-opacity:1;stroke-width:3;stroke-linecap:butt;stroke-linejoin:miter;stroke-miterlimit:10;stroke-dasharray:none"
         id="path2856" /><path
         d="m 1309.57,1046.9 c -17.42,-4.92 -34.8,-9.92 -52.23,-14.96"
         style="fill:none;stroke:#000000;stroke-opacity:1;stroke-width:3;stroke-linecap:butt;stroke-linejoin:miter;stroke-miterlimit:10;stroke-dasharray:none"
         id="path2858" /><path
         d="m 1143.98,1453.5 0,362.38"
         style="fill:none;stroke:#000000;stroke-opacity:1;stroke-width:3;stroke-linecap:butt;stroke-linejoin:miter;stroke-miterlimit:10;stroke-dasharray:none"
         id="path2860" /><path
         d="m 3493.59,1681.51 0,134.37"
         style="fill:none;stroke:#000000;stroke-opacity:1;stroke-width:3;stroke-linecap:butt;stroke-linejoin:miter;stroke-miterlimit:10;stroke-dasharray:none"
         id="path2862" /><path
         d="m 1143.98,1811.12 946.84,0"
         style="fill:none;stroke:#000000;stroke-opacity:1;stroke-width:3;stroke-linecap:butt;stroke-linejoin:miter;stroke-miterlimit:10;stroke-dasharray:none"
         id="path2864" /><path
         d="m 3493.59,1811.12 -927.77,0"
         style="fill:none;stroke:#000000;stroke-opacity:1;stroke-width:3;stroke-linecap:butt;stroke-linejoin:miter;stroke-miterlimit:10;stroke-dasharray:none"
         id="path2866" /><path
         d="m 1152.5,1811.51 c 0,3.48 -2.81,6.29 -6.29,6.29 -3.48,0 -6.29,-2.81 -6.29,-6.29 0,-3.48 2.81,-6.29 6.29,-6.29 3.48,0 6.29,2.81 6.29,6.29 l 0,0 z"
         style="fill:none;stroke:#000000;stroke-opacity:1;stroke-width:3;stroke-linecap:butt;stroke-linejoin:miter;stroke-miterlimit:10;stroke-dasharray:none"
         id="path2868" /><path
         d="m 3487.77,1811.51 c 0,-3.48 2.82,-6.29 6.29,-6.29 3.48,0 6.29,2.81 6.29,6.29 0,3.48 -2.81,6.29 -6.29,6.29 -3.47,0 -6.29,-2.81 -6.29,-6.29 l 0,0 z"
         style="fill:none;stroke:#000000;stroke-opacity:1;stroke-width:3;stroke-linecap:butt;stroke-linejoin:miter;stroke-miterlimit:10;stroke-dasharray:none"
         id="path2870" /><path
         d="m 3.98047,421.508 2.42969,2.383"
         style="fill:none;stroke:#000000;stroke-opacity:1;stroke-width:3;stroke-linecap:butt;stroke-linejoin:miter;stroke-miterlimit:10;stroke-dasharray:none"
         id="path2872" /><path
         d="m 3.98047,363.891 62.42973,60"
         style="fill:none;stroke:#000000;stroke-opacity:1;stroke-width:3;stroke-linecap:butt;stroke-linejoin:miter;stroke-miterlimit:10;stroke-dasharray:none"
         id="path2874" /><path
         d="m 3.98047,303.891 119.99953,120"
         style="fill:none;stroke:#000000;stroke-opacity:1;stroke-width:3;stroke-linecap:butt;stroke-linejoin:miter;stroke-miterlimit:10;stroke-dasharray:none"
         id="path2876" /><path
         d="m 3.98047,243.891 179.99953,180"
         style="fill:none;stroke:#000000;stroke-opacity:1;stroke-width:3;stroke-linecap:butt;stroke-linejoin:miter;stroke-miterlimit:10;stroke-dasharray:none"
         id="path2878" /><path
         d="M 3.98047,186.309 243.98,423.891"
         style="fill:none;stroke:#000000;stroke-opacity:1;stroke-width:3;stroke-linecap:butt;stroke-linejoin:miter;stroke-miterlimit:10;stroke-dasharray:none"
         id="path2880" /><path
         d="M 3.98047,126.309 303.98,423.891"
         style="fill:none;stroke:#000000;stroke-opacity:1;stroke-width:3;stroke-linecap:butt;stroke-linejoin:miter;stroke-miterlimit:10;stroke-dasharray:none"
         id="path2882" /><path
         d="M 3.98047,66.3086 361.602,423.891"
         style="fill:none;stroke:#000000;stroke-opacity:1;stroke-width:3;stroke-linecap:butt;stroke-linejoin:miter;stroke-miterlimit:10;stroke-dasharray:none"
         id="path2884" /><path
         d="M 3.98047,6.30859 421.602,423.891"
         style="fill:none;stroke:#000000;stroke-opacity:1;stroke-width:3;stroke-linecap:butt;stroke-linejoin:miter;stroke-miterlimit:10;stroke-dasharray:none"
         id="path2886" /><path
         d="M 59.1797,1.50781 481.602,423.891"
         style="fill:none;stroke:#000000;stroke-opacity:1;stroke-width:3;stroke-linecap:butt;stroke-linejoin:miter;stroke-miterlimit:10;stroke-dasharray:none"
         id="path2888" /><path
         d="M 119.18,1.50781 539.219,423.891"
         style="fill:none;stroke:#000000;stroke-opacity:1;stroke-width:3;stroke-linecap:butt;stroke-linejoin:miter;stroke-miterlimit:10;stroke-dasharray:none"
         id="path2890" /><path
         d="M 176.801,1.50781 599.219,423.891"
         style="fill:none;stroke:#000000;stroke-opacity:1;stroke-width:3;stroke-linecap:butt;stroke-linejoin:miter;stroke-miterlimit:10;stroke-dasharray:none"
         id="path2892" /><path
         d="M 236.801,1.50781 659.219,423.891"
         style="fill:none;stroke:#000000;stroke-opacity:1;stroke-width:3;stroke-linecap:butt;stroke-linejoin:miter;stroke-miterlimit:10;stroke-dasharray:none"
         id="path2894" /><path
         d="m 296.801,1.50781 420,422.38319"
         style="fill:none;stroke:#000000;stroke-opacity:1;stroke-width:3;stroke-linecap:butt;stroke-linejoin:miter;stroke-miterlimit:10;stroke-dasharray:none"
         id="path2896" /><path
         d="M 354.41,1.50781 776.801,423.891"
         style="fill:none;stroke:#000000;stroke-opacity:1;stroke-width:3;stroke-linecap:butt;stroke-linejoin:miter;stroke-miterlimit:10;stroke-dasharray:none"
         id="path2898" /><path
         d="M 414.41,1.50781 836.801,423.891"
         style="fill:none;stroke:#000000;stroke-opacity:1;stroke-width:3;stroke-linecap:butt;stroke-linejoin:miter;stroke-miterlimit:10;stroke-dasharray:none"
         id="path2900" /><path
         d="M 474.41,1.50781 896.801,423.891"
         style="fill:none;stroke:#000000;stroke-opacity:1;stroke-width:3;stroke-linecap:butt;stroke-linejoin:miter;stroke-miterlimit:10;stroke-dasharray:none"
         id="path2902" /><path
         d="m 534.41,1.50781 420,422.38319"
         style="fill:none;stroke:#000000;stroke-opacity:1;stroke-width:3;stroke-linecap:butt;stroke-linejoin:miter;stroke-miterlimit:10;stroke-dasharray:none"
         id="path2904" /><path
         d="M 591.988,1.50781 1014.41,423.891"
         style="fill:none;stroke:#000000;stroke-opacity:1;stroke-width:3;stroke-linecap:butt;stroke-linejoin:miter;stroke-miterlimit:10;stroke-dasharray:none"
         id="path2906" /><path
         d="M 651.988,1.50781 1074.41,423.891"
         style="fill:none;stroke:#000000;stroke-opacity:1;stroke-width:3;stroke-linecap:butt;stroke-linejoin:miter;stroke-miterlimit:10;stroke-dasharray:none"
         id="path2908" /><path
         d="M 711.988,1.50781 1131.99,423.891"
         style="fill:none;stroke:#000000;stroke-opacity:1;stroke-width:3;stroke-linecap:butt;stroke-linejoin:miter;stroke-miterlimit:10;stroke-dasharray:none"
         id="path2910" /><path
         d="M 769.609,1.50781 1191.99,423.891"
         style="fill:none;stroke:#000000;stroke-opacity:1;stroke-width:3;stroke-linecap:butt;stroke-linejoin:miter;stroke-miterlimit:10;stroke-dasharray:none"
         id="path2912" /><path
         d="M 829.609,1.50781 1251.99,423.891"
         style="fill:none;stroke:#000000;stroke-opacity:1;stroke-width:3;stroke-linecap:butt;stroke-linejoin:miter;stroke-miterlimit:10;stroke-dasharray:none"
         id="path2914" /><path
         d="M 889.609,1.50781 1311.99,423.891"
         style="fill:none;stroke:#000000;stroke-opacity:1;stroke-width:3;stroke-linecap:butt;stroke-linejoin:miter;stroke-miterlimit:10;stroke-dasharray:none"
         id="path2916" /><path
         d="M 949.609,1.50781 1369.61,423.891"
         style="fill:none;stroke:#000000;stroke-opacity:1;stroke-width:3;stroke-linecap:butt;stroke-linejoin:miter;stroke-miterlimit:10;stroke-dasharray:none"
         id="path2918" /><path
         d="M 1007.19,1.50781 1429.61,423.891"
         style="fill:none;stroke:#000000;stroke-opacity:1;stroke-width:3;stroke-linecap:butt;stroke-linejoin:miter;stroke-miterlimit:10;stroke-dasharray:none"
         id="path2920" /><path
         d="M 1067.19,1.50781 1443.98,380.688"
         style="fill:none;stroke:#000000;stroke-opacity:1;stroke-width:3;stroke-linecap:butt;stroke-linejoin:miter;stroke-miterlimit:10;stroke-dasharray:none"
         id="path2922" /><path
         d="M 1127.19,1.50781 1443.98,320.688"
         style="fill:none;stroke:#000000;stroke-opacity:1;stroke-width:3;stroke-linecap:butt;stroke-linejoin:miter;stroke-miterlimit:10;stroke-dasharray:none"
         id="path2924" /><path
         d="M 1184.8,1.50781 1443.98,260.688"
         style="fill:none;stroke:#000000;stroke-opacity:1;stroke-width:3;stroke-linecap:butt;stroke-linejoin:miter;stroke-miterlimit:10;stroke-dasharray:none"
         id="path2926" /><path
         d="M 1244.8,1.50781 1443.98,203.109"
         style="fill:none;stroke:#000000;stroke-opacity:1;stroke-width:3;stroke-linecap:butt;stroke-linejoin:miter;stroke-miterlimit:10;stroke-dasharray:none"
         id="path2928" /><path
         d="M 1304.8,1.50781 1443.98,143.109"
         style="fill:none;stroke:#000000;stroke-opacity:1;stroke-width:3;stroke-linecap:butt;stroke-linejoin:miter;stroke-miterlimit:10;stroke-dasharray:none"
         id="path2930" /><path
         d="m 1362.38,1.50781 81.6,81.60159"
         style="fill:none;stroke:#000000;stroke-opacity:1;stroke-width:3;stroke-linecap:butt;stroke-linejoin:miter;stroke-miterlimit:10;stroke-dasharray:none"
         id="path2932" /><path
         d="m 1422.38,1.50781 21.6,23.98049"
         style="fill:none;stroke:#000000;stroke-opacity:1;stroke-width:3;stroke-linecap:butt;stroke-linejoin:miter;stroke-miterlimit:10;stroke-dasharray:none"
         id="path2934" /><path
         d="m 940,1007.1 -163.199,0"
         style="fill:none;stroke:#000000;stroke-opacity:1;stroke-width:3;stroke-linecap:butt;stroke-linejoin:miter;stroke-miterlimit:10;stroke-dasharray:none"
         id="path2936" /><path
         d="m 940,423.891 -163.199,0"
         style="fill:none;stroke:#000000;stroke-opacity:1;stroke-width:3;stroke-linecap:butt;stroke-linejoin:miter;stroke-miterlimit:10;stroke-dasharray:none"
         id="path2938" /><path
         d="m 783.98,1007.1 0,-192.002"
         style="fill:none;stroke:#000000;stroke-opacity:1;stroke-width:3;stroke-linecap:butt;stroke-linejoin:miter;stroke-miterlimit:10;stroke-dasharray:none"
         id="path2940" /><path
         d="m 783.98,423.891 0,189.609"
         style="fill:none;stroke:#000000;stroke-opacity:1;stroke-width:3;stroke-linecap:butt;stroke-linejoin:miter;stroke-miterlimit:10;stroke-dasharray:none"
         id="path2942" /><path
         d="m 784.41,1001.2 c 3.481,0 6.289,2.85 6.289,6.29 0,3.47 -2.808,6.29 -6.289,6.29 -3.43,0 -6.281,-2.82 -6.281,-6.29 0,-3.44 2.851,-6.29 6.281,-6.29 l 0,0 z"
         style="fill:none;stroke:#000000;stroke-opacity:1;stroke-width:3;stroke-linecap:butt;stroke-linejoin:miter;stroke-miterlimit:10;stroke-dasharray:none"
         id="path2944" /><path
         d="m 784.41,431.117 c -3.43,0 -6.281,-2.808 -6.281,-6.289 0,-3.48 2.851,-6.289 6.281,-6.289 3.481,0 6.289,2.809 6.289,6.289 0,3.481 -2.808,6.289 -6.289,6.289 l 0,0 z"
         style="fill:none;stroke:#000000;stroke-opacity:1;stroke-width:3;stroke-linecap:butt;stroke-linejoin:miter;stroke-miterlimit:10;stroke-dasharray:none"
         id="path2946" /><path
         d="m 1007.19,1333.5 -230.389,0"
         style="fill:none;stroke:#000000;stroke-opacity:1;stroke-width:3;stroke-linecap:butt;stroke-linejoin:miter;stroke-miterlimit:10;stroke-dasharray:none"
         id="path2948" /><path
         d="m 1004.8,1007.1 -227.999,0"
         style="fill:none;stroke:#000000;stroke-opacity:1;stroke-width:3;stroke-linecap:butt;stroke-linejoin:miter;stroke-miterlimit:10;stroke-dasharray:none"
         id="path2950" /><path
         d="m 783.98,1007.49 0,56.01"
         style="fill:none;stroke:#000000;stroke-opacity:1;stroke-width:3;stroke-linecap:butt;stroke-linejoin:miter;stroke-miterlimit:10;stroke-dasharray:none"
         id="path2952" /><path
         d="m 783.98,1233.5 0,93.4"
         style="fill:none;stroke:#000000;stroke-opacity:1;stroke-width:3;stroke-linecap:butt;stroke-linejoin:miter;stroke-miterlimit:10;stroke-dasharray:none"
         id="path2954" /><path
         d="m 783.98,1007.1 0,-100.791"
         style="fill:none;stroke:#000000;stroke-opacity:1;stroke-width:3;stroke-linecap:butt;stroke-linejoin:miter;stroke-miterlimit:10;stroke-dasharray:none"
         id="path2956" /><path
         d="m 784.41,1340.73 c -3.43,0 -6.281,-2.85 -6.281,-6.29 0,-3.48 2.851,-6.29 6.281,-6.29 3.481,0 6.289,2.81 6.289,6.29 0,3.44 -2.808,6.29 -6.289,6.29 l 0,0 z"
         style="fill:none;stroke:#000000;stroke-opacity:1;stroke-width:3;stroke-linecap:butt;stroke-linejoin:miter;stroke-miterlimit:10;stroke-dasharray:none"
         id="path2958" /><path
         d="m 784.41,1001.2 c 3.481,0 6.289,2.85 6.289,6.29 0,3.47 -2.808,6.29 -6.289,6.29 -3.43,0 -6.281,-2.82 -6.281,-6.29 0,-3.44 2.851,-6.29 6.281,-6.29 l 0,0 z"
         style="fill:none;stroke:#000000;stroke-opacity:1;stroke-width:3;stroke-linecap:butt;stroke-linejoin:miter;stroke-miterlimit:10;stroke-dasharray:none"
         id="path2960" /><path
         d="m 781.602,1335.88 -218.403,0"
         style="fill:none;stroke:#000000;stroke-opacity:1;stroke-width:3;stroke-linecap:butt;stroke-linejoin:miter;stroke-miterlimit:10;stroke-dasharray:none"
         id="path2962" /><path
         d="m 781.602,423.891 -218.403,0"
         style="fill:none;stroke:#000000;stroke-opacity:1;stroke-width:3;stroke-linecap:butt;stroke-linejoin:miter;stroke-miterlimit:10;stroke-dasharray:none"
         id="path2964" /><path
         d="m 568.012,1335.88 0,-355.192"
         style="fill:none;stroke:#000000;stroke-opacity:1;stroke-width:3;stroke-linecap:butt;stroke-linejoin:miter;stroke-miterlimit:10;stroke-dasharray:none"
         id="path2966" /><path
         d="m 568.012,423.891 0,355.199"
         style="fill:none;stroke:#000000;stroke-opacity:1;stroke-width:3;stroke-linecap:butt;stroke-linejoin:miter;stroke-miterlimit:10;stroke-dasharray:none"
         id="path2968" /><path
         d="m 569.609,1330.22 c 3.442,0 6.289,2.81 6.289,6.29 0,3.48 -2.847,6.29 -6.289,6.29 -3.48,0 -6.289,-2.81 -6.289,-6.29 0,-3.48 2.809,-6.29 6.289,-6.29 l 0,0 z"
         style="fill:none;stroke:#000000;stroke-opacity:1;stroke-width:3;stroke-linecap:butt;stroke-linejoin:miter;stroke-miterlimit:10;stroke-dasharray:none"
         id="path2970" /><path
         d="m 569.609,431.117 c -3.48,0 -6.289,-2.808 -6.289,-6.289 0,-3.48 2.809,-6.289 6.289,-6.289 3.442,0 6.289,2.809 6.289,6.289 0,3.481 -2.847,6.289 -6.289,6.289 l 0,0 z"
         style="fill:none;stroke:#000000;stroke-opacity:1;stroke-width:3;stroke-linecap:butt;stroke-linejoin:miter;stroke-miterlimit:10;stroke-dasharray:none"
         id="path2972" /><path
         d="m 1271.21,899.09 136.8,0 33.59,-129.57 -203.98,0 33.59,129.57 z"
         style="fill:none;stroke:#000000;stroke-opacity:1;stroke-width:3;stroke-linecap:butt;stroke-linejoin:miter;stroke-miterlimit:10;stroke-dasharray:none"
         id="path2974" /><path
         d="m 1101.84,1123.78 c 0.78,-2.7 3.24,-4.54 6.05,-4.54 3.48,0 6.29,2.82 6.29,6.29 0,0.59 -0.08,1.14 -0.23,1.72 -0.79,2.7 -3.25,4.53 -6.06,4.53 -3.48,0 -6.29,-2.77 -6.29,-6.25 0,-0.58 0.08,-1.17 0.24,-1.75 l 0,0 z"
         style="fill:none;stroke:#000000;stroke-opacity:1;stroke-width:3;stroke-linecap:butt;stroke-linejoin:miter;stroke-miterlimit:10;stroke-dasharray:none"
         id="path2976" /><path
         d="m 1180,990.297 2.38,-7.188 72.03,21.601 7.19,9.57"
         style="fill:none;stroke:#000000;stroke-opacity:1;stroke-width:3;stroke-linecap:butt;stroke-linejoin:miter;stroke-miterlimit:10;stroke-dasharray:none"
         id="path2978" /><path
         d="m 1256.8,1031.12 -12,4.76 -71.99,-21.6 2.39,-7.18"
         style="fill:none;stroke:#000000;stroke-opacity:1;stroke-width:3;stroke-linecap:butt;stroke-linejoin:miter;stroke-miterlimit:10;stroke-dasharray:none"
         id="path2980" /><path
         d="m 1158.4,1002.29 -2.38,9.61 -14.42,-4.8 9.61,-33.6 14.38,4.809 -2.39,7.179"
         style="fill:none;stroke:#000000;stroke-opacity:1;stroke-width:3;stroke-linecap:butt;stroke-linejoin:miter;stroke-miterlimit:10;stroke-dasharray:none"
         id="path2982" /><path
         d="m 1175.2,1007.1 -16.8,-4.81"
         style="fill:none;stroke:#000000;stroke-opacity:1;stroke-width:3;stroke-linecap:butt;stroke-linejoin:miter;stroke-miterlimit:10;stroke-dasharray:none"
         id="path2984" /><path
         d="m 1180,990.297 -16.8,-4.809"
         style="fill:none;stroke:#000000;stroke-opacity:1;stroke-width:3;stroke-linecap:butt;stroke-linejoin:miter;stroke-miterlimit:10;stroke-dasharray:none"
         id="path2986" /><path
         d="m 1180,990.297 -4.8,16.803"
         style="fill:none;stroke:#000000;stroke-opacity:1;stroke-width:3;stroke-linecap:butt;stroke-linejoin:miter;stroke-miterlimit:10;stroke-dasharray:none"
         id="path2988" /><path
         d="m 1163.2,985.488 -4.8,16.802"
         style="fill:none;stroke:#000000;stroke-opacity:1;stroke-width:3;stroke-linecap:butt;stroke-linejoin:miter;stroke-miterlimit:10;stroke-dasharray:none"
         id="path2990" /><path
         d="m 1226.84,1159.44 c -0.79,2.69 -3.25,4.57 -6.06,4.57 -3.48,0 -6.29,-2.85 -6.29,-6.29 0,-0.59 0.08,-1.17 0.24,-1.76 0.78,-2.69 3.24,-4.53 6.05,-4.53 3.48,0 6.29,2.81 6.29,6.29 0,0.59 -0.08,1.13 -0.23,1.72 l 0,0 z"
         style="fill:none;stroke:#000000;stroke-opacity:1;stroke-width:3;stroke-linecap:butt;stroke-linejoin:miter;stroke-miterlimit:10;stroke-dasharray:none"
         id="path2992" /><path
         d="m 1177.62,1307.1 -16.8,0"
         style="fill:none;stroke:#000000;stroke-opacity:1;stroke-width:8;stroke-linecap:butt;stroke-linejoin:miter;stroke-miterlimit:10;stroke-dasharray:none"
         id="path2994" /><path
         d="m 1177.62,1323.89 -16.8,0"
         style="fill:none;stroke:#000000;stroke-opacity:1;stroke-width:8;stroke-linecap:butt;stroke-linejoin:miter;stroke-miterlimit:10;stroke-dasharray:none"
         id="path2996" /><path
         d="m 1160.82,1307.1 0,16.79"
         style="fill:none;stroke:#000000;stroke-opacity:1;stroke-width:8;stroke-linecap:butt;stroke-linejoin:miter;stroke-miterlimit:10;stroke-dasharray:none"
         id="path2998" /><path
         d="m 1177.62,1307.1 0,16.79"
         style="fill:none;stroke:#000000;stroke-opacity:1;stroke-width:8;stroke-linecap:butt;stroke-linejoin:miter;stroke-miterlimit:10;stroke-dasharray:none"
         id="path3000" /><path
         d="m 3493.59,1537.49 4.81,7.22"
         style="fill:none;stroke:#000000;stroke-opacity:1;stroke-width:3;stroke-linecap:butt;stroke-linejoin:miter;stroke-miterlimit:10;stroke-dasharray:none"
         id="path3002" /><path
         d="m 3493.59,1477.49 64.81,67.22"
         style="fill:none;stroke:#000000;stroke-opacity:1;stroke-width:3;stroke-linecap:butt;stroke-linejoin:miter;stroke-miterlimit:10;stroke-dasharray:none"
         id="path3004" /><path
         d="m 3493.59,1419.91 124.81,124.8"
         style="fill:none;stroke:#000000;stroke-opacity:1;stroke-width:3;stroke-linecap:butt;stroke-linejoin:miter;stroke-miterlimit:10;stroke-dasharray:none"
         id="path3006" /><path
         d="m 3493.59,1359.91 184.81,184.8"
         style="fill:none;stroke:#000000;stroke-opacity:1;stroke-width:3;stroke-linecap:butt;stroke-linejoin:miter;stroke-miterlimit:10;stroke-dasharray:none"
         id="path3008" /><path
         d="m 3493.59,1299.91 0,2.38"
         style="fill:none;stroke:#000000;stroke-opacity:1;stroke-width:3;stroke-linecap:butt;stroke-linejoin:miter;stroke-miterlimit:10;stroke-dasharray:none"
         id="path3010" /><path
         d="m 3524.8,1331.12 211.22,213.59"
         style="fill:none;stroke:#000000;stroke-opacity:1;stroke-width:3;stroke-linecap:butt;stroke-linejoin:miter;stroke-miterlimit:10;stroke-dasharray:none"
         id="path3012" /><path
         d="m 3493.59,1242.29 60,60"
         style="fill:none;stroke:#000000;stroke-opacity:1;stroke-width:3;stroke-linecap:butt;stroke-linejoin:miter;stroke-miterlimit:10;stroke-dasharray:none"
         id="path3014" /><path
         d="M 3582.38,1331.12 3764.8,1513.5"
         style="fill:none;stroke:#000000;stroke-opacity:1;stroke-width:3;stroke-linecap:butt;stroke-linejoin:miter;stroke-miterlimit:10;stroke-dasharray:none"
         id="path3016" /><path
         d="m 3493.59,1182.29 117.62,120"
         style="fill:none;stroke:#000000;stroke-opacity:1;stroke-width:3;stroke-linecap:butt;stroke-linejoin:miter;stroke-miterlimit:10;stroke-dasharray:none"
         id="path3018" /><path
         d="M 3642.38,1331.12 3764.8,1453.5"
         style="fill:none;stroke:#000000;stroke-opacity:1;stroke-width:3;stroke-linecap:butt;stroke-linejoin:miter;stroke-miterlimit:10;stroke-dasharray:none"
         id="path3020" /><path
         d="m 3493.59,1122.29 177.62,180"
         style="fill:none;stroke:#000000;stroke-opacity:1;stroke-width:3;stroke-linecap:butt;stroke-linejoin:miter;stroke-miterlimit:10;stroke-dasharray:none"
         id="path3022" /><path
         d="m 3702.38,1331.12 62.42,64.76"
         style="fill:none;stroke:#000000;stroke-opacity:1;stroke-width:3;stroke-linecap:butt;stroke-linejoin:miter;stroke-miterlimit:10;stroke-dasharray:none"
         id="path3024" /><path
         d="m 3517.62,1088.7 213.59,213.59"
         style="fill:none;stroke:#000000;stroke-opacity:1;stroke-width:3;stroke-linecap:butt;stroke-linejoin:miter;stroke-miterlimit:10;stroke-dasharray:none"
         id="path3026" /><path
         d="m 3760,1331.12 4.8,4.76"
         style="fill:none;stroke:#000000;stroke-opacity:1;stroke-width:3;stroke-linecap:butt;stroke-linejoin:miter;stroke-miterlimit:10;stroke-dasharray:none"
         id="path3028" /><path
         d="m 3577.62,1088.7 187.18,187.18"
         style="fill:none;stroke:#000000;stroke-opacity:1;stroke-width:3;stroke-linecap:butt;stroke-linejoin:miter;stroke-miterlimit:10;stroke-dasharray:none"
         id="path3030" /><path
         d="m 3637.62,1088.7 127.18,127.18"
         style="fill:none;stroke:#000000;stroke-opacity:1;stroke-width:3;stroke-linecap:butt;stroke-linejoin:miter;stroke-miterlimit:10;stroke-dasharray:none"
         id="path3032" /><path
         d="m 3695.2,1088.7 69.6,69.61"
         style="fill:none;stroke:#000000;stroke-opacity:1;stroke-width:3;stroke-linecap:butt;stroke-linejoin:miter;stroke-miterlimit:10;stroke-dasharray:none"
         id="path3034" /><path
         d="m 3755.2,1088.7 9.6,9.61"
         style="fill:none;stroke:#000000;stroke-opacity:1;stroke-width:3;stroke-linecap:butt;stroke-linejoin:miter;stroke-miterlimit:10;stroke-dasharray:none"
         id="path3036" /><path
         d="m 4163.2,1367.1 0,-100.79"
         style="fill:none;stroke:#000000;stroke-opacity:1;stroke-width:3;stroke-linecap:butt;stroke-linejoin:miter;stroke-miterlimit:10;stroke-dasharray:none"
         id="path3038" /><path
         d="m 4129.61,1367.1 0,-100.79"
         style="fill:none;stroke:#000000;stroke-opacity:1;stroke-width:3;stroke-linecap:butt;stroke-linejoin:miter;stroke-miterlimit:10;stroke-dasharray:none"
         id="path3040" /><path
         d="m 4405.59,1328.7 -7.19,-11.99"
         style="fill:none;stroke:#000000;stroke-opacity:1;stroke-width:3;stroke-linecap:butt;stroke-linejoin:miter;stroke-miterlimit:10;stroke-dasharray:none"
         id="path3042" /><path
         d="m 4768.01,1316.71 -7.19,-12"
         style="fill:none;stroke:#000000;stroke-opacity:1;stroke-width:3;stroke-linecap:butt;stroke-linejoin:miter;stroke-miterlimit:10;stroke-dasharray:none"
         id="path3044" /><path
         d="m 4249.65,1468.35 c -52.93,-30.63 -85.51,-87.11 -85.51,-148.21 0,-94.53 76.8,-171.29 171.41,-171.29 6.25,0 12.54,0.36 18.79,1.06"
         style="fill:none;stroke:#000000;stroke-opacity:1;stroke-width:8;stroke-linecap:butt;stroke-linejoin:miter;stroke-miterlimit:10;stroke-dasharray:none"
         id="path3046" /><path
         d="m 1261.6,1307.1 2868.01,-7.19"
         style="fill:none;stroke:#000000;stroke-opacity:1;stroke-width:8;stroke-linecap:butt;stroke-linejoin:miter;stroke-miterlimit:10;stroke-dasharray:none"
         id="path3048" /><path
         d="M 4129.61,1333.5 1261.6,1326.31"
         style="fill:none;stroke:#000000;stroke-opacity:1;stroke-width:8;stroke-linecap:butt;stroke-linejoin:miter;stroke-miterlimit:10;stroke-dasharray:none"
         id="path3050" /><path
         d="m 1443.98,423.891 -1439.99953,0"
         style="fill:none;stroke:#000000;stroke-opacity:1;stroke-width:8;stroke-linecap:butt;stroke-linejoin:miter;stroke-miterlimit:10;stroke-dasharray:none"
         id="path3052" /><path
         d="m 1261.6,1326.31 -7.19,7.19 -76.79,0 0,-9.61"
         style="fill:none;stroke:#000000;stroke-opacity:1;stroke-width:8;stroke-linecap:butt;stroke-linejoin:miter;stroke-miterlimit:10;stroke-dasharray:none"
         id="path3054" /><path
         d="m 1177.62,1307.1 0,-7.19 76.79,0 7.19,7.19"
         style="fill:none;stroke:#000000;stroke-opacity:1;stroke-width:8;stroke-linecap:butt;stroke-linejoin:miter;stroke-miterlimit:10;stroke-dasharray:none"
         id="path3056" /><path
         d="m 1160.82,1323.89 0,9.61 -16.84,0 0,-33.59 16.84,0 0,7.19"
         style="fill:none;stroke:#000000;stroke-opacity:1;stroke-width:8;stroke-linecap:butt;stroke-linejoin:miter;stroke-miterlimit:10;stroke-dasharray:none"
         id="path3058" /><path
         d="m 3764.8,1088.7 0,456.01"
         style="fill:none;stroke:#000000;stroke-opacity:1;stroke-width:8;stroke-linecap:butt;stroke-linejoin:miter;stroke-miterlimit:10;stroke-dasharray:none"
         id="path3060" /><path
         d="m 3493.59,1088.7 0,456.01"
         style="fill:none;stroke:#000000;stroke-opacity:1;stroke-width:8;stroke-linecap:butt;stroke-linejoin:miter;stroke-miterlimit:10;stroke-dasharray:none"
         id="path3062" /><path
         d="m 4398.4,1304.71 369.61,0"
         style="fill:none;stroke:#000000;stroke-opacity:1;stroke-width:8;stroke-linecap:butt;stroke-linejoin:miter;stroke-miterlimit:10;stroke-dasharray:none"
         id="path3064" /><path
         d="m 4398.4,1328.7 369.61,0"
         style="fill:none;stroke:#000000;stroke-opacity:1;stroke-width:8;stroke-linecap:butt;stroke-linejoin:miter;stroke-miterlimit:10;stroke-dasharray:none"
         id="path3066" /><path
         d="m 4398.4,1328.7 -110.39,16.79"
         style="fill:none;stroke:#000000;stroke-opacity:1;stroke-width:8;stroke-linecap:butt;stroke-linejoin:miter;stroke-miterlimit:10;stroke-dasharray:none"
         id="path3068" /><path
         d="m 4249.61,1467.92 103.2,-319.22"
         style="fill:none;stroke:#000000;stroke-opacity:1;stroke-width:8;stroke-linecap:butt;stroke-linejoin:miter;stroke-miterlimit:10;stroke-dasharray:none"
         id="path3070" /><path
         d="m 4129.61,1367.1 0,-100.79 40.78,0"
         style="fill:none;stroke:#000000;stroke-opacity:1;stroke-width:8;stroke-linecap:butt;stroke-linejoin:miter;stroke-miterlimit:10;stroke-dasharray:none"
         id="path3072" /><path
         d="m 4129.61,1367.1 40.78,0"
         style="fill:none;stroke:#000000;stroke-opacity:1;stroke-width:8;stroke-linecap:butt;stroke-linejoin:miter;stroke-miterlimit:10;stroke-dasharray:none"
         id="path3074" /><path
         d="m 4506.41,1328.7 -14.42,-23.99"
         style="fill:none;stroke:#000000;stroke-opacity:1;stroke-width:8;stroke-linecap:butt;stroke-linejoin:miter;stroke-miterlimit:10;stroke-dasharray:none"
         id="path3076" /><path
         d="m 4398.4,1304.71 -91.21,-16.79"
         style="fill:none;stroke:#000000;stroke-opacity:1;stroke-width:8;stroke-linecap:butt;stroke-linejoin:miter;stroke-miterlimit:10;stroke-dasharray:none"
         id="path3078" /><path
         d="m 4398.4,1328.7 0,-23.99"
         style="fill:none;stroke:#000000;stroke-opacity:1;stroke-width:8;stroke-linecap:butt;stroke-linejoin:miter;stroke-miterlimit:10;stroke-dasharray:none"
         id="path3080" /><path
         d="m 4439.22,1328.7 -14.42,-23.99"
         style="fill:none;stroke:#000000;stroke-opacity:1;stroke-width:8;stroke-linecap:butt;stroke-linejoin:miter;stroke-miterlimit:10;stroke-dasharray:none"
         id="path3082" /><path
         d="m 4472.81,1328.7 -14.41,-23.99"
         style="fill:none;stroke:#000000;stroke-opacity:1;stroke-width:8;stroke-linecap:butt;stroke-linejoin:miter;stroke-miterlimit:10;stroke-dasharray:none"
         id="path3084" /><path
         d="m 4540,1328.7 -14.41,-23.99"
         style="fill:none;stroke:#000000;stroke-opacity:1;stroke-width:8;stroke-linecap:butt;stroke-linejoin:miter;stroke-miterlimit:10;stroke-dasharray:none"
         id="path3086" /><path
         d="m 4573.59,1328.7 -14.37,-23.99"
         style="fill:none;stroke:#000000;stroke-opacity:1;stroke-width:8;stroke-linecap:butt;stroke-linejoin:miter;stroke-miterlimit:10;stroke-dasharray:none"
         id="path3088" /><path
         d="m 4640.82,1328.7 -14.41,-23.99"
         style="fill:none;stroke:#000000;stroke-opacity:1;stroke-width:8;stroke-linecap:butt;stroke-linejoin:miter;stroke-miterlimit:10;stroke-dasharray:none"
         id="path3090" /><path
         d="m 4607.19,1328.7 -14.38,-23.99"
         style="fill:none;stroke:#000000;stroke-opacity:1;stroke-width:8;stroke-linecap:butt;stroke-linejoin:miter;stroke-miterlimit:10;stroke-dasharray:none"
         id="path3092" /><path
         d="M 4674.41,1328.7 4660,1304.71"
         style="fill:none;stroke:#000000;stroke-opacity:1;stroke-width:8;stroke-linecap:butt;stroke-linejoin:miter;stroke-miterlimit:10;stroke-dasharray:none"
         id="path3094" /><path
         d="m 4835.2,1299.91 -19.18,-9.61 -48.01,14.41"
         style="fill:none;stroke:#000000;stroke-opacity:1;stroke-width:8;stroke-linecap:butt;stroke-linejoin:miter;stroke-miterlimit:10;stroke-dasharray:none"
         id="path3096" /><path
         d="m 4835.2,1333.5 -19.18,7.19 -48.01,-11.99"
         style="fill:none;stroke:#000000;stroke-opacity:1;stroke-width:8;stroke-linecap:butt;stroke-linejoin:miter;stroke-miterlimit:10;stroke-dasharray:none"
         id="path3098" /><path
         d="m 4741.6,1328.7 -14.41,-23.99"
         style="fill:none;stroke:#000000;stroke-opacity:1;stroke-width:8;stroke-linecap:butt;stroke-linejoin:miter;stroke-miterlimit:10;stroke-dasharray:none"
         id="path3100" /><path
         d="m 4708.01,1328.7 -14.42,-23.99"
         style="fill:none;stroke:#000000;stroke-opacity:1;stroke-width:8;stroke-linecap:butt;stroke-linejoin:miter;stroke-miterlimit:10;stroke-dasharray:none"
         id="path3102" /><path
         d="m 4768.01,1328.7 0,-23.99"
         style="fill:none;stroke:#000000;stroke-opacity:1;stroke-width:8;stroke-linecap:butt;stroke-linejoin:miter;stroke-miterlimit:10;stroke-dasharray:none"
         id="path3104" /><path
         d="m 4835.2,1299.91 0,33.59"
         style="fill:none;stroke:#000000;stroke-opacity:1;stroke-width:8;stroke-linecap:butt;stroke-linejoin:miter;stroke-miterlimit:10;stroke-dasharray:none"
         id="path3106" /><g
         id="g3108"
         transform="scale(10,10)"><text
           transform="matrix(1,0,0,-1,219.857,179.603)"
           id="text3110"><tspan
             style="fill:#000000;fill-opacity:1;fill-rule:nonzero;stroke:none;font-family:f-0;font-variant:normal;font-size:10;writing-mode:lr;-inkscape-font-specification:f-0-0"
             x="0 5.56 11.12 13.9 18.9"
             y="0"
             sodipodi:role="line"
             id="tspan3112">70 cm</tspan><tspan
             style="fill:#000000;fill-opacity:1;fill-rule:nonzero;stroke:none;font-family:f-0;font-variant:normal;font-size:10;writing-mode:lr;-inkscape-font-specification:f-0-0"
             x="-167.919 -162.359"
             y="94.9098"
             sodipodi:role="line"
             id="tspan3114">h1</tspan><tspan
             style="fill:#000000;fill-opacity:1;fill-rule:nonzero;stroke:none;font-family:f-0;font-variant:normal;font-size:10;writing-mode:lr;-inkscape-font-specification:f-0-0"
             x="-142.7768"
             y="68.2532"
             id="tspan3116">f</tspan><tspan
             style="fill:#000000;fill-opacity:1;fill-rule:nonzero;stroke:none;font-family:f-0;font-variant:normal;font-size:10;writing-mode:lr;-inkscape-font-specification:f-0-0"
             x="-147.75219 -142.19219"
             y="111.4098"
             sodipodi:role="line"
             id="tspan3118">h2</tspan></text>
<text
           transform="matrix(0.965772,0.259392,0.259392,-0.965772,99.075,113.507)"
           id="text3120"><tspan
             style="fill:#000000;fill-opacity:1;fill-rule:nonzero;stroke:none;font-family:f-0;font-variant:normal;font-size:10.00029883;writing-mode:lr;-inkscape-font-specification:f-0-0"
             x="0 5.56016615 8.34024922 13.34039864"
             y="0"
             sodipodi:role="line"
             id="tspan3122">3 cm</tspan></text>
<text
           transform="scale(1,-1)"
           id="text3124"
           style="font-size:10px;font-style:normal;font-variant:normal;font-weight:normal;font-stretch:normal;text-align:start;line-height:125%;writing-mode:lr-tb;text-anchor:start;font-family:Sans;-inkscape-font-specification:Sans"
           sodipodi:linespacing="125%"
           x="181.10912"
           y="-71.092987"><tspan
             sodipodi:role="line"
             id="tspan3162"
             x="181.10912"
             y="-71.092987">Flexibility (f) of the épée is defined as h1 – h2,</tspan><tspan
             sodipodi:role="line"
             id="tspan3164"
             x="181.10912"
             y="-58.592987">measured between the unweighted and the </tspan><tspan
             sodipodi:role="line"
             id="tspan3166"
             x="181.10912"
             y="-46.092987">weighted position of the tip</tspan><tspan
             sodipodi:role="line"
             id="tspan3168"
             x="181.10912"
             y="-33.592987">Minimum: 4.5 cm   </tspan><tspan
             sodipodi:role="line"
             id="tspan3170"
             x="181.10912"
             y="-21.092987">Maximum: 7 cm  </tspan></text>
<text
           transform="matrix(1,0,0,-1,200.3567,212.186)"
           id="text3138"><tspan
             style="fill:#000000;fill-opacity:1;fill-rule:nonzero;stroke:none;font-family:f-0;font-variant:normal;font-size:12;writing-mode:lr;-inkscape-font-specification:f-0-0"
             x="0 7.332 15.996 24 27.336 35.34 43.344 51.348"
             y="0"
             sodipodi:role="line"
             id="tspan3140">THE EPEE</tspan></text>
<flowRoot
           xml:space="preserve"
           id="flowRoot3172"
           style="fill:black;stroke:none;stroke-opacity:1;stroke-width:1px;stroke-linejoin:miter;stroke-linecap:butt;fill-opacity:1;font-family:Times New Roman;font-style:normal;font-weight:normal;font-size:12;-inkscape-font-specification:Times New Roman;font-stretch:normal;font-variant:normal;text-anchor:middle;text-align:center;writing-mode:lr;line-height:125%"><flowRegion
             id="flowRegion3174"><rect
               id="rect3176"
               width="42.857143"
               height="22.222221"
               x="332.80423"
               y="997.47357" /></flowRegion><flowPara
             id="flowPara3178"></flowPara></flowRoot></g><path
         d="m 1480.82,698.5 -141.52,135"
         style="fill:none;stroke:#000000;stroke-opacity:1;stroke-width:3;stroke-linecap:butt;stroke-linejoin:miter;stroke-miterlimit:10;stroke-dasharray:none"
         id="path3142" /><flowRoot
         xml:space="preserve"
         id="flowRoot3180"
         style="font-size:12px;font-style:normal;font-variant:normal;font-weight:normal;font-stretch:normal;text-align:center;line-height:125%;writing-mode:lr;text-anchor:middle;fill:#000000;fill-opacity:1;stroke:none;font-family:Sans;-inkscape-font-specification:Sans"
         transform="matrix(8,0,0,-8,0,8420)"><flowRegion
           id="flowRegion3182"><rect
             id="rect3184"
             width="32.275131"
             height="19.047619"
             x="180.42328"
             y="965.19843"
             style="-inkscape-font-specification:Sans;font-family:Sans;font-weight:normal;font-style:normal;font-stretch:normal;font-variant:normal;font-size:12px;text-anchor:middle;text-align:center;writing-mode:lr;line-height:125%" /></flowRegion><flowPara
           id="flowPara3186">200 g</flowPara></flowRoot></g></g></svg>