<?xml version="1.0" encoding="UTF-8" standalone="no"?>
<!-- Created with Inkscape (http://www.inkscape.org/) -->

<svg
   xmlns:dc="http://purl.org/dc/elements/1.1/"
   xmlns:cc="http://creativecommons.org/ns#"
   xmlns:rdf="http://www.w3.org/1999/02/22-rdf-syntax-ns#"
   xmlns:svg="http://www.w3.org/2000/svg"
   xmlns="http://www.w3.org/2000/svg"
   xmlns:sodipodi="http://sodipodi.sourceforge.net/DTD/sodipodi-0.dtd"
   xmlns:inkscape="http://www.inkscape.org/namespaces/inkscape"
   id="svg2816"
   version="1.1"
   inkscape:version="0.47 r22583"
   width="260.46484"
   height="111.81288"
   xml:space="preserve"
   sodipodi:docname="09UKSPADA1_2010.eps"><metadata
     id="metadata2822"><rdf:RDF><cc:Work
         rdf:about=""><dc:format>image/svg+xml</dc:format><dc:type
           rdf:resource="http://purl.org/dc/dcmitype/StillImage" /><dc:title></dc:title></cc:Work></rdf:RDF></metadata><defs
     id="defs2820"><inkscape:perspective
       sodipodi:type="inkscape:persp3d"
       inkscape:vp_x="0 : 0.5 : 1"
       inkscape:vp_y="0 : 1000 : 0"
       inkscape:vp_z="1 : 0.5 : 1"
       inkscape:persp3d-origin="0.5 : 0.33333333 : 1"
       id="perspective2824" /></defs><sodipodi:namedview
     pagecolor="#ffffff"
     bordercolor="#666666"
     borderopacity="1"
     objecttolerance="10"
     gridtolerance="10"
     guidetolerance="10"
     inkscape:pageopacity="0"
     inkscape:pageshadow="2"
     inkscape:window-width="1440"
     inkscape:window-height="838"
     id="namedview2818"
     showgrid="false"
     inkscape:zoom="2.35"
     inkscape:cx="182.11711"
     inkscape:cy="69.715065"
     inkscape:window-x="-8"
     inkscape:window-y="-8"
     inkscape:window-maximized="1"
     inkscape:current-layer="g2826" /><g
     id="g2826"
     inkscape:groupmode="layer"
     inkscape:label="ink_ext_XXXXXX"
     transform="matrix(1.25,0,0,-1.25,-189.75789,568.34781)"><g
       id="g2828"
       transform="scale(0.1,0.1)"><path
         d="m 1907.71,4151.52 0,176.4"
         style="fill:none;stroke:#000000;stroke-width:3;stroke-linecap:butt;stroke-linejoin:miter;stroke-miterlimit:10;stroke-opacity:1;stroke-dasharray:none"
         id="path2830" /><path
         d="m 3574.51,4003.92 0,324"
         style="fill:none;stroke:#000000;stroke-width:3;stroke-linecap:butt;stroke-linejoin:miter;stroke-miterlimit:10;stroke-opacity:1;stroke-dasharray:none"
         id="path2832" /><path
         d="m 1907.71,4324.32 1666.8,2.15"
         style="fill:none;stroke:#000000;stroke-width:3;stroke-linecap:butt;stroke-linejoin:miter;stroke-miterlimit:10;stroke-opacity:1;stroke-dasharray:none"
         id="path2834" /><path
         d="m 1914.29,4327.92 c 0,1.91 -1.55,3.46 -3.47,3.46 -1.91,0 -3.46,-1.55 -3.46,-3.46 0,-1.92 1.55,-3.47 3.46,-3.47 1.92,0 3.47,1.55 3.47,3.47 l 0,0 z"
         style="fill:none;stroke:#000000;stroke-width:3;stroke-linecap:butt;stroke-linejoin:miter;stroke-miterlimit:10;stroke-opacity:1;stroke-dasharray:none"
         id="path2836" /><path
         d="m 3571.23,4327.92 c 0,-1.92 1.55,-3.47 3.47,-3.47 1.91,0 3.46,1.55 3.46,3.47 0,1.91 -1.55,3.46 -3.46,3.46 -1.92,0 -3.47,-1.55 -3.47,-3.46 l 0,0 z"
         style="fill:none;stroke:#000000;stroke-width:3;stroke-linecap:butt;stroke-linejoin:miter;stroke-miterlimit:10;stroke-opacity:1;stroke-dasharray:none"
         id="path2838" /><path
         d="m 1907.71,4151.52 0,0"
         style="fill:none;stroke:#000000;stroke-width:3;stroke-linecap:butt;stroke-linejoin:miter;stroke-miterlimit:10;stroke-opacity:1;stroke-dasharray:none"
         id="path2840" /><path
         d="m 3574.51,4000.32 0,0"
         style="fill:none;stroke:#000000;stroke-width:3;stroke-linecap:butt;stroke-linejoin:miter;stroke-miterlimit:10;stroke-opacity:1;stroke-dasharray:none"
         id="path2842" /><path
         d="m 3574.51,4324.32 0,0"
         style="fill:none;stroke:#000000;stroke-width:3;stroke-linecap:butt;stroke-linejoin:miter;stroke-miterlimit:10;stroke-opacity:1;stroke-dasharray:none"
         id="path2844" /><path
         d="m 1540.51,4212.72 0,241.2"
         style="fill:none;stroke:#000000;stroke-width:3;stroke-linecap:butt;stroke-linejoin:miter;stroke-miterlimit:10;stroke-opacity:1;stroke-dasharray:none"
         id="path2846" /><path
         d="m 3574.51,4212.72 0,241.2"
         style="fill:none;stroke:#000000;stroke-width:3;stroke-linecap:butt;stroke-linejoin:miter;stroke-miterlimit:10;stroke-opacity:1;stroke-dasharray:none"
         id="path2848" /><path
         d="m 3574.51,4450.32 -2033.94,0"
         style="fill:none;stroke:#000000;stroke-width:3;stroke-linecap:butt;stroke-linejoin:miter;stroke-miterlimit:10;stroke-opacity:1;stroke-dasharray:none"
         id="path2850" /><path
         d="m 1544.54,4450.75 c 0,1.91 -1.55,3.46 -3.46,3.46 -1.92,0 -3.47,-1.55 -3.47,-3.46 0,-1.91 1.55,-3.46 3.47,-3.46 1.91,0 3.46,1.55 3.46,3.46 l 0,0 z"
         style="fill:none;stroke:#000000;stroke-width:3;stroke-linecap:butt;stroke-linejoin:miter;stroke-miterlimit:10;stroke-opacity:1;stroke-dasharray:none"
         id="path2852" /><path
         d="m 3571.23,4450.75 c 0,-1.91 1.55,-3.46 3.47,-3.46 1.91,0 3.46,1.55 3.46,3.46 0,1.91 -1.55,3.46 -3.46,3.46 -1.92,0 -3.47,-1.55 -3.47,-3.46 l 0,0 z"
         style="fill:none;stroke:#000000;stroke-width:3;stroke-linecap:butt;stroke-linejoin:miter;stroke-miterlimit:10;stroke-opacity:1;stroke-dasharray:none"
         id="path2854" /><path
         d="m 1540.51,4209.12 0,0"
         style="fill:none;stroke:#000000;stroke-width:3;stroke-linecap:butt;stroke-linejoin:miter;stroke-miterlimit:10;stroke-opacity:1;stroke-dasharray:none"
         id="path2856" /><path
         d="m 3574.51,4209.12 0,0"
         style="fill:none;stroke:#000000;stroke-width:3;stroke-linecap:butt;stroke-linejoin:miter;stroke-miterlimit:10;stroke-opacity:1;stroke-dasharray:none"
         id="path2858" /><path
         d="m 3574.51,4450.32 0,0"
         style="fill:none;stroke:#000000;stroke-width:3;stroke-linecap:butt;stroke-linejoin:miter;stroke-miterlimit:10;stroke-opacity:1;stroke-dasharray:none"
         id="path2860" /><path
         d="m 1540.51,3769.92 0,-43.2"
         style="fill:none;stroke:#000000;stroke-width:3;stroke-linecap:butt;stroke-linejoin:miter;stroke-miterlimit:10;stroke-opacity:1;stroke-dasharray:none"
         id="path2862" /><path
         d="m 1576.51,3769.92 0,-43.2"
         style="fill:none;stroke:#000000;stroke-width:3;stroke-linecap:butt;stroke-linejoin:miter;stroke-miterlimit:10;stroke-opacity:1;stroke-dasharray:none"
         id="path2864" /><path
         d="m 1576.51,3917.52 3.6,-7.2"
         style="fill:none;stroke:#000000;stroke-width:3;stroke-linecap:butt;stroke-linejoin:miter;stroke-miterlimit:10;stroke-opacity:1;stroke-dasharray:none"
         id="path2866" /><path
         d="m 1576.51,3921.12 0,-10.8"
         style="fill:none;stroke:#000000;stroke-width:3;stroke-linecap:butt;stroke-linejoin:miter;stroke-miterlimit:10;stroke-opacity:1;stroke-dasharray:none"
         id="path2868" /><path
         d="m 1803.31,3769.92 0,-43.2"
         style="fill:none;stroke:#000000;stroke-width:3;stroke-linecap:butt;stroke-linejoin:miter;stroke-miterlimit:10;stroke-opacity:1;stroke-dasharray:none"
         id="path2870" /><path
         d="m 1774.51,3921.12 3.6,-3.6"
         style="fill:none;stroke:#000000;stroke-width:3;stroke-linecap:butt;stroke-linejoin:miter;stroke-miterlimit:10;stroke-opacity:1;stroke-dasharray:none"
         id="path2872" /><path
         d="m 1911.31,3942.72 0,-54"
         style="fill:none;stroke:#000000;stroke-width:3;stroke-linecap:butt;stroke-linejoin:miter;stroke-miterlimit:10;stroke-opacity:1;stroke-dasharray:none"
         id="path2874" /><path
         d="m 1929.31,3942.72 0,-54"
         style="fill:none;stroke:#000000;stroke-width:3;stroke-linecap:butt;stroke-linejoin:miter;stroke-miterlimit:10;stroke-opacity:1;stroke-dasharray:none"
         id="path2876" /><path
         d="m 1803.31,4003.92 0,104.4"
         style="fill:none;stroke:#000000;stroke-width:3;stroke-linecap:butt;stroke-linejoin:miter;stroke-miterlimit:10;stroke-opacity:1;stroke-dasharray:none"
         id="path2878" /><path
         d="m 1907.71,4003.92 0,104.4"
         style="fill:none;stroke:#000000;stroke-width:3;stroke-linecap:butt;stroke-linejoin:miter;stroke-miterlimit:10;stroke-opacity:1;stroke-dasharray:none"
         id="path2880" /><path
         d="m 1803.31,4104.72 162,0"
         style="fill:none;stroke:#000000;stroke-width:3;stroke-linecap:butt;stroke-linejoin:miter;stroke-miterlimit:10;stroke-opacity:1;stroke-dasharray:none"
         id="path2882" /><path
         d="m 1809.39,4105.49 c 0,1.91 -1.55,3.46 -3.46,3.46 -1.91,0 -3.47,-1.55 -3.47,-3.46 0,-1.92 1.56,-3.47 3.47,-3.47 1.91,0 3.46,1.55 3.46,3.47 l 0,0 z"
         style="fill:none;stroke:#000000;stroke-width:3;stroke-linecap:butt;stroke-linejoin:miter;stroke-miterlimit:10;stroke-opacity:1;stroke-dasharray:none"
         id="path2884" /><path
         d="m 1907.36,4105.49 c 0,-1.92 1.55,-3.47 3.46,-3.47 1.92,0 3.47,1.55 3.47,3.47 0,1.91 -1.55,3.46 -3.47,3.46 -1.91,0 -3.46,-1.55 -3.46,-3.46 l 0,0 z"
         style="fill:none;stroke:#000000;stroke-width:3;stroke-linecap:butt;stroke-linejoin:miter;stroke-miterlimit:10;stroke-opacity:1;stroke-dasharray:none"
         id="path2886" /><path
         d="m 1803.31,4000.32 0,0"
         style="fill:none;stroke:#000000;stroke-width:3;stroke-linecap:butt;stroke-linejoin:miter;stroke-miterlimit:10;stroke-opacity:1;stroke-dasharray:none"
         id="path2888" /><path
         d="m 1907.71,4000.32 0,0"
         style="fill:none;stroke:#000000;stroke-width:3;stroke-linecap:butt;stroke-linejoin:miter;stroke-miterlimit:10;stroke-opacity:1;stroke-dasharray:none"
         id="path2890" /><path
         d="m 1907.71,4104.72 0,0"
         style="fill:none;stroke:#000000;stroke-width:3;stroke-linecap:butt;stroke-linejoin:miter;stroke-miterlimit:10;stroke-opacity:1;stroke-dasharray:none"
         id="path2892" /><path
         d="m 1576.51,4003.92 0,208.8"
         style="fill:none;stroke:#000000;stroke-width:3;stroke-linecap:butt;stroke-linejoin:miter;stroke-miterlimit:10;stroke-opacity:1;stroke-dasharray:none"
         id="path2894" /><path
         d="m 1907.71,4108.32 0,104.4"
         style="fill:none;stroke:#000000;stroke-width:3;stroke-linecap:butt;stroke-linejoin:miter;stroke-miterlimit:10;stroke-opacity:1;stroke-dasharray:none"
         id="path2896" /><path
         d="m 1576.51,4209.12 43.2,0"
         style="fill:none;stroke:#000000;stroke-width:3;stroke-linecap:butt;stroke-linejoin:miter;stroke-miterlimit:10;stroke-opacity:1;stroke-dasharray:none"
         id="path2898" /><path
         d="m 1907.71,4209.12 -39.6,0"
         style="fill:none;stroke:#000000;stroke-width:3;stroke-linecap:butt;stroke-linejoin:miter;stroke-miterlimit:10;stroke-opacity:1;stroke-dasharray:none"
         id="path2900" /><path
         d="m 1581.52,4209.48 c 0,1.91 -1.56,3.47 -3.47,3.47 -1.91,0 -3.46,-1.56 -3.46,-3.47 0,-1.91 1.55,-3.46 3.46,-3.46 1.91,0 3.47,1.55 3.47,3.46 l 0,0 z"
         style="fill:none;stroke:#000000;stroke-width:3;stroke-linecap:butt;stroke-linejoin:miter;stroke-miterlimit:10;stroke-opacity:1;stroke-dasharray:none"
         id="path2902" /><path
         d="m 1907.36,4209.48 c 0,-1.91 1.55,-3.46 3.46,-3.46 1.92,0 3.47,1.55 3.47,3.46 0,1.91 -1.55,3.47 -3.47,3.47 -1.91,0 -3.46,-1.56 -3.46,-3.47 l 0,0 z"
         style="fill:none;stroke:#000000;stroke-width:3;stroke-linecap:butt;stroke-linejoin:miter;stroke-miterlimit:10;stroke-opacity:1;stroke-dasharray:none"
         id="path2904" /><path
         d="m 1576.51,4000.32 0,0"
         style="fill:none;stroke:#000000;stroke-width:3;stroke-linecap:butt;stroke-linejoin:miter;stroke-miterlimit:10;stroke-opacity:1;stroke-dasharray:none"
         id="path2906" /><path
         d="m 1907.71,4104.72 0,0"
         style="fill:none;stroke:#000000;stroke-width:3;stroke-linecap:butt;stroke-linejoin:miter;stroke-miterlimit:10;stroke-opacity:1;stroke-dasharray:none"
         id="path2908" /><path
         d="m 1907.71,4209.12 0,0"
         style="fill:none;stroke:#000000;stroke-width:3;stroke-linecap:butt;stroke-linejoin:miter;stroke-miterlimit:10;stroke-opacity:1;stroke-dasharray:none"
         id="path2910" /><path
         d="m 1540.51,4155.12 0,172.8"
         style="fill:none;stroke:#000000;stroke-width:3;stroke-linecap:butt;stroke-linejoin:miter;stroke-miterlimit:10;stroke-opacity:1;stroke-dasharray:none"
         id="path2912" /><path
         d="m 1907.71,4151.52 0,176.4"
         style="fill:none;stroke:#000000;stroke-width:3;stroke-linecap:butt;stroke-linejoin:miter;stroke-miterlimit:10;stroke-opacity:1;stroke-dasharray:none"
         id="path2914" /><path
         d="m 1907.71,4324.32 -367.14,0"
         style="fill:none;stroke:#000000;stroke-width:3;stroke-linecap:butt;stroke-linejoin:miter;stroke-miterlimit:10;stroke-opacity:1;stroke-dasharray:none"
         id="path2916" /><path
         d="m 1544.54,4327.92 c 0,1.91 -1.55,3.46 -3.46,3.46 -1.92,0 -3.47,-1.55 -3.47,-3.46 0,-1.92 1.55,-3.47 3.47,-3.47 1.91,0 3.46,1.55 3.46,3.47 l 0,0 z"
         style="fill:none;stroke:#000000;stroke-width:3;stroke-linecap:butt;stroke-linejoin:miter;stroke-miterlimit:10;stroke-opacity:1;stroke-dasharray:none"
         id="path2918" /><path
         d="m 1907.36,4327.92 c 0,-1.92 1.55,-3.47 3.46,-3.47 1.92,0 3.47,1.55 3.47,3.47 0,1.91 -1.55,3.46 -3.47,3.46 -1.91,0 -3.46,-1.55 -3.46,-3.46 l 0,0 z"
         style="fill:none;stroke:#000000;stroke-width:3;stroke-linecap:butt;stroke-linejoin:miter;stroke-miterlimit:10;stroke-opacity:1;stroke-dasharray:none"
         id="path2920" /><path
         d="m 1540.51,4151.52 0,0"
         style="fill:none;stroke:#000000;stroke-width:3;stroke-linecap:butt;stroke-linejoin:miter;stroke-miterlimit:10;stroke-opacity:1;stroke-dasharray:none"
         id="path2922" /><path
         d="m 1907.71,4151.52 0,0"
         style="fill:none;stroke:#000000;stroke-width:3;stroke-linecap:butt;stroke-linejoin:miter;stroke-miterlimit:10;stroke-opacity:1;stroke-dasharray:none"
         id="path2924" /><path
         d="m 1907.71,4324.32 0,0"
         style="fill:none;stroke:#000000;stroke-width:3;stroke-linecap:butt;stroke-linejoin:miter;stroke-miterlimit:10;stroke-opacity:1;stroke-dasharray:none"
         id="path2926" /><path
         d="m 1540.51,4155.12 0,-151.2"
         style="fill:none;stroke:#000000;stroke-width:3;stroke-linecap:butt;stroke-linejoin:miter;stroke-miterlimit:10;stroke-opacity:1;stroke-dasharray:none"
         id="path2928" /><path
         d="m 3552.91,3921.12 10.8,0"
         style="fill:none;stroke:#000000;stroke-width:3;stroke-linecap:butt;stroke-linejoin:miter;stroke-miterlimit:10;stroke-opacity:1;stroke-dasharray:none"
         id="path2930" /><path
         d="m 1806.41,3825.32 c 3.44,-0.38 6.89,-0.57 10.36,-0.57 52.14,0 94.46,42.29 94.46,94.41 0,33.68 -17.96,64.81 -47.12,81.7"
         style="fill:none;stroke:#000000;stroke-width:8;stroke-linecap:butt;stroke-linejoin:miter;stroke-miterlimit:10;stroke-opacity:1;stroke-dasharray:none"
         id="path2932" /><path
         d="m 1976.11,3895.92 1533.6,14.4"
         style="fill:none;stroke:#000000;stroke-width:8;stroke-linecap:butt;stroke-linejoin:miter;stroke-miterlimit:10;stroke-opacity:1;stroke-dasharray:none"
         id="path2934" /><path
         d="m 1976.11,3935.52 1533.6,-14.4"
         style="fill:none;stroke:#000000;stroke-width:8;stroke-linecap:butt;stroke-linejoin:miter;stroke-miterlimit:10;stroke-opacity:1;stroke-dasharray:none"
         id="path2936" /><path
         d="m 1860.91,4000.32 -57.6,-176.4"
         style="fill:none;stroke:#000000;stroke-width:8;stroke-linecap:butt;stroke-linejoin:miter;stroke-miterlimit:10;stroke-opacity:1;stroke-dasharray:none"
         id="path2938" /><path
         d="m 1778.11,3910.32 -201.6,0"
         style="fill:none;stroke:#000000;stroke-width:8;stroke-linecap:butt;stroke-linejoin:miter;stroke-miterlimit:10;stroke-opacity:1;stroke-dasharray:none"
         id="path2940" /><path
         d="m 1778.11,3921.12 -201.6,0"
         style="fill:none;stroke:#000000;stroke-width:8;stroke-linecap:butt;stroke-linejoin:miter;stroke-miterlimit:10;stroke-opacity:1;stroke-dasharray:none"
         id="path2942" /><path
         d="m 1540.51,3906.72 10.8,-3.6 25.2,7.2"
         style="fill:none;stroke:#000000;stroke-width:8;stroke-linecap:butt;stroke-linejoin:miter;stroke-miterlimit:10;stroke-opacity:1;stroke-dasharray:none"
         id="path2944" /><path
         d="m 1540.51,3924.72 10.8,3.6 25.2,-7.2"
         style="fill:none;stroke:#000000;stroke-width:8;stroke-linecap:butt;stroke-linejoin:miter;stroke-miterlimit:10;stroke-opacity:1;stroke-dasharray:none"
         id="path2946" /><path
         d="m 1540.51,3906.72 0,18"
         style="fill:none;stroke:#000000;stroke-width:8;stroke-linecap:butt;stroke-linejoin:miter;stroke-miterlimit:10;stroke-opacity:1;stroke-dasharray:none"
         id="path2948" /><path
         d="m 1608.91,3921.12 7.2,-10.8"
         style="fill:none;stroke:#000000;stroke-width:8;stroke-linecap:butt;stroke-linejoin:miter;stroke-miterlimit:10;stroke-opacity:1;stroke-dasharray:none"
         id="path2950" /><path
         d="m 1590.91,3921.12 7.2,-10.8"
         style="fill:none;stroke:#000000;stroke-width:8;stroke-linecap:butt;stroke-linejoin:miter;stroke-miterlimit:10;stroke-opacity:1;stroke-dasharray:none"
         id="path2952" /><path
         d="m 1626.91,3921.12 7.2,-10.8"
         style="fill:none;stroke:#000000;stroke-width:8;stroke-linecap:butt;stroke-linejoin:miter;stroke-miterlimit:10;stroke-opacity:1;stroke-dasharray:none"
         id="path2954" /><path
         d="m 1702.51,3921.12 7.2,-10.8"
         style="fill:none;stroke:#000000;stroke-width:8;stroke-linecap:butt;stroke-linejoin:miter;stroke-miterlimit:10;stroke-opacity:1;stroke-dasharray:none"
         id="path2956" /><path
         d="m 1666.51,3921.12 7.2,-10.8"
         style="fill:none;stroke:#000000;stroke-width:8;stroke-linecap:butt;stroke-linejoin:miter;stroke-miterlimit:10;stroke-opacity:1;stroke-dasharray:none"
         id="path2958" /><path
         d="m 1644.91,3921.12 10.8,-10.8"
         style="fill:none;stroke:#000000;stroke-width:8;stroke-linecap:butt;stroke-linejoin:miter;stroke-miterlimit:10;stroke-opacity:1;stroke-dasharray:none"
         id="path2960" /><path
         d="m 1684.51,3921.12 7.2,-10.8"
         style="fill:none;stroke:#000000;stroke-width:8;stroke-linecap:butt;stroke-linejoin:miter;stroke-miterlimit:10;stroke-opacity:1;stroke-dasharray:none"
         id="path2962" /><path
         d="m 1720.51,3921.12 7.2,-10.8"
         style="fill:none;stroke:#000000;stroke-width:8;stroke-linecap:butt;stroke-linejoin:miter;stroke-miterlimit:10;stroke-opacity:1;stroke-dasharray:none"
         id="path2964" /><path
         d="m 1756.51,3921.12 7.2,-10.8"
         style="fill:none;stroke:#000000;stroke-width:8;stroke-linecap:butt;stroke-linejoin:miter;stroke-miterlimit:10;stroke-opacity:1;stroke-dasharray:none"
         id="path2966" /><path
         d="m 1738.51,3921.12 7.2,-10.8"
         style="fill:none;stroke:#000000;stroke-width:8;stroke-linecap:butt;stroke-linejoin:miter;stroke-miterlimit:10;stroke-opacity:1;stroke-dasharray:none"
         id="path2968" /><path
         d="m 1778.11,3921.12 61.2,10.8"
         style="fill:none;stroke:#000000;stroke-width:8;stroke-linecap:butt;stroke-linejoin:miter;stroke-miterlimit:10;stroke-opacity:1;stroke-dasharray:none"
         id="path2970" /><path
         d="m 1778.11,3910.32 50.4,-10.8"
         style="fill:none;stroke:#000000;stroke-width:8;stroke-linecap:butt;stroke-linejoin:miter;stroke-miterlimit:10;stroke-opacity:1;stroke-dasharray:none"
         id="path2972" /><path
         d="m 1778.11,3921.12 0,-10.8"
         style="fill:none;stroke:#000000;stroke-width:8;stroke-linecap:butt;stroke-linejoin:miter;stroke-miterlimit:10;stroke-opacity:1;stroke-dasharray:none"
         id="path2974" /><path
         d="m 1929.31,3895.92 46.8,0"
         style="fill:none;stroke:#000000;stroke-width:8;stroke-linecap:butt;stroke-linejoin:miter;stroke-miterlimit:10;stroke-opacity:1;stroke-dasharray:none"
         id="path2976" /><path
         d="m 1929.31,3935.52 46.8,0"
         style="fill:none;stroke:#000000;stroke-width:8;stroke-linecap:butt;stroke-linejoin:miter;stroke-miterlimit:10;stroke-opacity:1;stroke-dasharray:none"
         id="path2978" /><path
         d="m 1929.31,3888.72 -25.2,0"
         style="fill:none;stroke:#000000;stroke-width:8;stroke-linecap:butt;stroke-linejoin:miter;stroke-miterlimit:10;stroke-opacity:1;stroke-dasharray:none"
         id="path2980" /><path
         d="m 1929.31,3942.72 -25.2,0"
         style="fill:none;stroke:#000000;stroke-width:8;stroke-linecap:butt;stroke-linejoin:miter;stroke-miterlimit:10;stroke-opacity:1;stroke-dasharray:none"
         id="path2982" /><path
         d="m 1929.31,3942.72 0,-54"
         style="fill:none;stroke:#000000;stroke-width:8;stroke-linecap:butt;stroke-linejoin:miter;stroke-miterlimit:10;stroke-opacity:1;stroke-dasharray:none"
         id="path2984" /><path
         d="m 3552.91,3921.12 0,3.6 -39.6,0 -3.6,-3.6"
         style="fill:none;stroke:#000000;stroke-width:8;stroke-linecap:butt;stroke-linejoin:miter;stroke-miterlimit:10;stroke-opacity:1;stroke-dasharray:none"
         id="path2986" /><path
         d="m 3509.71,3910.32 3.6,-3.6 39.6,0 0,3.6 10.8,0"
         style="fill:none;stroke:#000000;stroke-width:8;stroke-linecap:butt;stroke-linejoin:miter;stroke-miterlimit:10;stroke-opacity:1;stroke-dasharray:none"
         id="path2988" /><path
         d="m 3552.91,3921.12 0,-10.8"
         style="fill:none;stroke:#000000;stroke-width:8;stroke-linecap:butt;stroke-linejoin:miter;stroke-miterlimit:10;stroke-opacity:1;stroke-dasharray:none"
         id="path2990" /><path
         d="m 3563.71,3921.12 0,-14.4 10.8,0 0,18 -10.8,0 0,-3.6 z"
         style="fill:none;stroke:#000000;stroke-width:8;stroke-linecap:butt;stroke-linejoin:miter;stroke-miterlimit:10;stroke-opacity:1;stroke-dasharray:none"
         id="path2992" /><g
         id="g2994"
         transform="scale(10,10)"><text
           transform="matrix(1,0,0,-1,240.253,449.647)"
           id="text2996"><tspan
             style="font-size:7px;font-variant:normal;font-weight:300;writing-mode:lr-tb;fill:#000000;fill-opacity:1;fill-rule:nonzero;stroke:none;font-family:Helvetica;-inkscape-font-specification:Helvetica-Light"
             x="0 5.8309999 9.7229996 13.223 14.777 20.608 24.5 30.330999 32.277 36.168999 40.061001 43.952999 45.898998 49.398998"
             y="0"
             sodipodi:role="line"
             id="tspan2998">Maximum 110 cm</tspan><tspan
             style="font-size:7px;font-variant:normal;font-weight:300;writing-mode:lr-tb;fill:#000000;fill-opacity:1;fill-rule:nonzero;stroke:none;font-family:Helvetica;-inkscape-font-specification:Helvetica-Light"
             x="1.83711 7.6681099 11.56011 15.06011 16.614111 22.44511 26.337111 32.16811 34.114109 38.006111 41.898109 43.844109 47.344109 -84.974991 -79.14399 -75.251991 -71.751991 -69.805992 -67.859993 -63.967991 -60.075989 -58.12999 -54.62999"
             y="13.1867"
             sodipodi:role="line"
             id="tspan3000">Maximum 90 cmMax. 20 cm</tspan><tspan
             style="font-size:7px;font-variant:normal;font-weight:300;writing-mode:lr-tb;fill:#000000;fill-opacity:1;fill-rule:nonzero;stroke:none;font-family:Helvetica;-inkscape-font-specification:Helvetica-Light"
             x="-74.278488 -68.447487 -64.555489 -61.055489 -59.109489"
             y="26.519899"
             sodipodi:role="line"
             id="tspan3002">Max..</tspan><tspan
             style="font-size:7px;font-variant:normal;font-weight:300;writing-mode:lr-tb;fill:#000000;fill-opacity:1;fill-rule:nonzero;stroke:none;font-family:Helvetica;-inkscape-font-specification:Helvetica-Light"
             x="-76.419899 -72.527901 -68.635902 -66.689903 -63.189899"
             y="35.019901"
             sodipodi:role="line"
             id="tspan3004">18 cm</tspan><tspan
             style="font-size:7px;font-variant:normal;font-weight:300;writing-mode:lr-tb;fill:#000000;fill-opacity:1;fill-rule:nonzero;stroke:none;font-family:Helvetica;-inkscape-font-specification:Helvetica-Light"
             x="-40.362499 -34.531502 -30.6395 -27.1395 -25.193501 -23.247499 -19.355499 -17.4095 -13.5175 -11.5715 -8.0714998 -2.2405"
             y="37.186699"
             sodipodi:role="line"
             id="tspan3006">Max. 5.5 cmm</tspan><tspan
             style="font-size:7px;font-variant:normal;font-weight:300;writing-mode:lr-tb;fill:#000000;fill-opacity:1;fill-rule:nonzero;stroke:none;font-family:Helvetica;-inkscape-font-specification:Helvetica-Light"
             x="-40.362499 -34.531502 -32.977501 -29.085501 -27.1395 -25.193501 -21.3015 -19.355499 -15.8555"
             y="45.686699"
             sodipodi:role="line"
             id="tspan3008">Min. 3 cm</tspan><tspan
             style="font-size:7px;font-variant:normal;font-weight:300;writing-mode:lr-tb;fill:#000000;fill-opacity:1;fill-rule:nonzero;stroke:none;font-family:Helvetica;-inkscape-font-specification:Helvetica-Light"
             x="-89.000397 -84.055862 -63.055862"
             y="84.333603"
             sodipodi:role="line"
             id="tspan3010">EDC</tspan></text>
</g><path
         d="m 1907.71,3769.92 0,-46.8"
         style="fill:none;stroke:#000000;stroke-width:3;stroke-linecap:butt;stroke-linejoin:miter;stroke-miterlimit:10;stroke-opacity:1;stroke-dasharray:none"
         id="path3012" /><g
         id="g3014"
         transform="scale(10,10)"><text
           transform="matrix(1,0,0,-1,189.056,365.313)"
           id="text3016"><tspan
             style="font-size:7px;font-variant:normal;font-weight:300;writing-mode:lr-tb;fill:#000000;fill-opacity:1;fill-rule:nonzero;stroke:none;font-family:Helvetica;-inkscape-font-specification:Helvetica-Light"
             x="0"
             y="0"
             id="tspan3018">B</tspan></text>
</g><path
         d="m 3577.13,3769.92 0,-46.8"
         style="fill:none;stroke:#000000;stroke-width:3;stroke-linecap:butt;stroke-linejoin:miter;stroke-miterlimit:10;stroke-opacity:1;stroke-dasharray:none"
         id="path3020" /><g
         id="g3022"
         transform="scale(10,10)"><text
           transform="matrix(1,0,0,-1,355.499,365.313)"
           id="text3024"><tspan
             style="font-size:7px;font-variant:normal;font-weight:300;writing-mode:lr-tb;fill:#000000;fill-opacity:1;fill-rule:nonzero;stroke:none;font-family:Helvetica;-inkscape-font-specification:Helvetica-Light"
             x="0"
             y="0"
             id="tspan3026">A</tspan><tspan
             style="font-size:7px;font-variant:normal;font-weight:300;writing-mode:lr-tb;fill:#000000;fill-opacity:1;fill-rule:nonzero;stroke:none;font-family:Helvetica;-inkscape-font-specification:Helvetica-Light"
             x="-99.875 -95.206001 -90.537003 -85.867996 -81.198997 -79.252998 -74.198997 -72.252998 -66.421997 -61.752998 -56.699001 -52.029999 -50.084 -44.638 -39.584"
             y="-3"
             sodipodi:role="line"
             id="tspan3028">EPEE DIMENSIONS</tspan><tspan
             style="font-size:7px;font-variant:normal;font-weight:300;writing-mode:lr-tb;fill:#000000;fill-opacity:1;fill-rule:nonzero;stroke:none;font-family:Helvetica;-inkscape-font-specification:Helvetica-Light"
             x="-17.441401"
             y="-6"
             id="tspan3030">ÿ¿¿¿¿¿ÿ¿¿¿¿¿ÿ¿¿¿¿¿ÿ¿¿¿¿¿ÿ¿¿¿¿¿ÿ¿¿¿¿¿ÿ¿¿¿¿¿ÿ¿¿¿¿¿ÿ¿¿¿¿¿ÿ¿¿¿¿¿ÿ¿¿¿¿¿ÿ¿¿¿¿¿ÿ¿¿¿¿¿ÿ¿¿¿¿¿ÿ¿¿¿¿¿ÿ¿¿¿¿¿ÿ¿¿¿¿¿ÿ¿¿¿¿¿ÿ¿¿¿¿¿ÿ¿¿¿¿¿ÿ¿¿¿¿¿ÿ¿¿¿¿¿ÿ¿¿¿¿¿ÿ¿¿¿¿¿ÿ¿¿¿¿¿ÿ¿¿¿¿¿ÿ¿¿¿¿¿ÿ¿¿¿¿¿ÿ¿¿¿¿¿ÿ¿¿¿¿¿ÿ¿¿¿¿¿ÿ¿¿¿¿¿ÿ¿¿¿¿¿ÿ¿¿¿¿¿ÿ¿¿¿¿¿ÿ¿¿¿¿¿</tspan></text>
</g></g></g></svg>