<?xml version="1.0" encoding="UTF-8" standalone="no"?>
<!-- Created with Inkscape (http://www.inkscape.org/) -->

<svg
   xmlns:dc="http://purl.org/dc/elements/1.1/"
   xmlns:cc="http://creativecommons.org/ns#"
   xmlns:rdf="http://www.w3.org/1999/02/22-rdf-syntax-ns#"
   xmlns:svg="http://www.w3.org/2000/svg"
   xmlns="http://www.w3.org/2000/svg"
   xmlns:sodipodi="http://sodipodi.sourceforge.net/DTD/sodipodi-0.dtd"
   xmlns:inkscape="http://www.inkscape.org/namespaces/inkscape"
   id="svg2816"
   version="1.1"
   inkscape:version="0.47 r22583"
   width="743.75"
   height="1052.5"
   xml:space="preserve"
   sodipodi:docname="09UKSPAD2.eps"><metadata
     id="metadata2822"><rdf:RDF><cc:Work
         rdf:about=""><dc:format>image/svg+xml</dc:format><dc:type
           rdf:resource="http://purl.org/dc/dcmitype/StillImage" /><dc:title></dc:title></cc:Work></rdf:RDF></metadata><defs
     id="defs2820"><inkscape:perspective
       sodipodi:type="inkscape:persp3d"
       inkscape:vp_x="0 : 0.5 : 1"
       inkscape:vp_y="0 : 1000 : 0"
       inkscape:vp_z="1 : 0.5 : 1"
       inkscape:persp3d-origin="0.5 : 0.33333333 : 1"
       id="perspective2824" /></defs><sodipodi:namedview
     pagecolor="#ffffff"
     bordercolor="#666666"
     borderopacity="1"
     objecttolerance="10"
     gridtolerance="10"
     guidetolerance="10"
     inkscape:pageopacity="0"
     inkscape:pageshadow="2"
     inkscape:window-width="640"
     inkscape:window-height="483"
     id="namedview2818"
     showgrid="false"
     inkscape:zoom="0.22422803"
     inkscape:cx="371.875"
     inkscape:cy="526.25"
     inkscape:window-x="0"
     inkscape:window-y="0"
     inkscape:window-maximized="0"
     inkscape:current-layer="g2826" /><g
     id="g2826"
     inkscape:groupmode="layer"
     inkscape:label="ink_ext_XXXXXX"
     transform="matrix(1.25,0,0,-1.25,0,1052.5)"><g
       id="g2828"
       transform="scale(0.1,0.1)"><path
         d="m 4048.27,4614.14 c -37.57,0.55 -75.16,0.83 -112.74,0.83 -695.28,0 -1387.3,-95.01 -2056.82,-282.4"
         style="fill:none;stroke:#000000;stroke-opacity:1;stroke-width:3;stroke-linecap:butt;stroke-linejoin:miter;stroke-miterlimit:10;stroke-dasharray:none"
         id="path2830" /><path
         d="m 4048.28,4584.2 c -55.28,1.21 -110.56,1.82 -165.84,1.82 -684.51,0 -1365.81,-93.43 -2025.03,-277.72"
         style="fill:none;stroke:#000000;stroke-opacity:1;stroke-width:3;stroke-linecap:butt;stroke-linejoin:miter;stroke-miterlimit:10;stroke-dasharray:none"
         id="path2832" /><path
         d="m 1772.6,4442.2 28.8,-105.6"
         style="fill:none;stroke:#000000;stroke-opacity:1;stroke-width:3;stroke-linecap:butt;stroke-linejoin:miter;stroke-miterlimit:10;stroke-dasharray:none"
         id="path2834" /><path
         d="m 1659.8,4411 28.8,-105.6"
         style="fill:none;stroke:#000000;stroke-opacity:1;stroke-width:3;stroke-linecap:butt;stroke-linejoin:miter;stroke-miterlimit:10;stroke-dasharray:none"
         id="path2836" /><path
         d="M 1835,4454.2 1599.8,4387"
         style="fill:none;stroke:#000000;stroke-opacity:1;stroke-width:3;stroke-linecap:butt;stroke-linejoin:miter;stroke-miterlimit:10;stroke-dasharray:none"
         id="path2838" /><path
         d="m 1659.8,4406.2 0,0"
         style="fill:none;stroke:#000000;stroke-opacity:1;stroke-width:3;stroke-linecap:butt;stroke-linejoin:miter;stroke-miterlimit:10;stroke-dasharray:none"
         id="path2840" /><path
         d="m 1779.8,4420.6 0,0"
         style="fill:none;stroke:#000000;stroke-opacity:1;stroke-width:3;stroke-linecap:butt;stroke-linejoin:miter;stroke-miterlimit:10;stroke-dasharray:none"
         id="path2842" /><path
         d="m 1922.63,4181.71 c 0,15.47 -12.56,28.02 -28.03,28.02 -6.42,0 -12.64,-2.21 -17.63,-6.24"
         style="fill:none;stroke:#000000;stroke-opacity:1;stroke-width:3;stroke-linecap:butt;stroke-linejoin:miter;stroke-miterlimit:10;stroke-dasharray:none"
         id="path2844" /><path
         d="m 1914.46,4181.71 c 0,10.96 -8.89,19.85 -19.86,19.85 -2.94,0 -5.84,-0.65 -8.5,-1.91"
         style="fill:none;stroke:#000000;stroke-opacity:1;stroke-width:3;stroke-linecap:butt;stroke-linejoin:miter;stroke-miterlimit:10;stroke-dasharray:none"
         id="path2846" /><path
         d="m 1909.4,4341.4 -9.6,2.4 -9.6,0 -9.6,-2.4 -7.2,-4.8 -9.6,-7.2 -7.2,-9.6 -7.2,-12 -2.4,-12 -4.8,-14.4 0,-28.8 2.4,-14.4 4.8,-12 7.2,-12 4.8,-9.6 9.6,-7.2 9.6,-4.8 9.6,-2.4 9.6,0 9.6,2.4"
         style="fill:none;stroke:#000000;stroke-opacity:1;stroke-width:3;stroke-linecap:butt;stroke-linejoin:miter;stroke-miterlimit:10;stroke-dasharray:none"
         id="path2848" /><path
         d="m 1895,4336.6 -9.6,-2.4 -9.6,-2.4 -7.2,-7.2 -7.2,-9.6 -4.8,-9.6 -4.8,-12 -4.8,-12 0,-28.8 2.4,-12 4.8,-12 4.8,-9.6 7.2,-9.6 9.6,-7.2 7.2,-2.4 9.6,-2.4 9.6,0"
         style="fill:none;stroke:#000000;stroke-opacity:1;stroke-width:3;stroke-linecap:butt;stroke-linejoin:miter;stroke-miterlimit:10;stroke-dasharray:none"
         id="path2850" /><path
         d="m 1916.6,4197.4 7.2,7.2 7.2,9.6 7.2,9.6 4.8,14.4 2.4,12 0,28.8 -2.4,14.4 -2.4,12 -7.2,12 -4.8,9.6"
         style="fill:none;stroke:#000000;stroke-opacity:1;stroke-width:3;stroke-linecap:butt;stroke-linejoin:miter;stroke-miterlimit:10;stroke-dasharray:none"
         id="path2852" /><path
         d="m 1911.8,4202.2 7.2,7.2 7.2,7.2 4.8,9.6 4.8,9.6 2.4,12 2.4,12 0,12 -2.4,12 -2.4,12 -2.4,12 -7.2,9.6 -4.8,7.2"
         style="fill:none;stroke:#000000;stroke-opacity:1;stroke-width:3;stroke-linecap:butt;stroke-linejoin:miter;stroke-miterlimit:10;stroke-dasharray:none"
         id="path2854" /><path
         d="m 1872.09,4198.4 c -3.58,-4.83 -5.52,-10.68 -5.52,-16.69"
         style="fill:none;stroke:#000000;stroke-opacity:1;stroke-width:3;stroke-linecap:butt;stroke-linejoin:miter;stroke-miterlimit:10;stroke-dasharray:none"
         id="path2856" /><path
         d="m 1879.22,4194.26 c -2.9,-3.54 -4.48,-7.97 -4.48,-12.55"
         style="fill:none;stroke:#000000;stroke-opacity:1;stroke-width:3;stroke-linecap:butt;stroke-linejoin:miter;stroke-miterlimit:10;stroke-dasharray:none"
         id="path2858" /><path
         d="m 1850.76,4306.44 c -11.49,-3.23 -22.96,-6.47 -34.42,-9.75"
         style="fill:none;stroke:#000000;stroke-opacity:1;stroke-width:3;stroke-linecap:butt;stroke-linejoin:miter;stroke-miterlimit:10;stroke-dasharray:none"
         id="path2860" /><path
         d="m 1863.78,4328.38 c -17.42,-4.92 -34.83,-9.9 -52.23,-14.94"
         style="fill:none;stroke:#000000;stroke-opacity:1;stroke-width:3;stroke-linecap:butt;stroke-linejoin:miter;stroke-miterlimit:10;stroke-dasharray:none"
         id="path2862" /><path
         d="m 1698.2,4735 0,362.4"
         style="fill:none;stroke:#000000;stroke-opacity:1;stroke-width:3;stroke-linecap:butt;stroke-linejoin:miter;stroke-miterlimit:10;stroke-dasharray:none"
         id="path2864" /><path
         d="m 4047.8,4963 0,134.4"
         style="fill:none;stroke:#000000;stroke-opacity:1;stroke-width:3;stroke-linecap:butt;stroke-linejoin:miter;stroke-miterlimit:10;stroke-dasharray:none"
         id="path2866" /><path
         d="m 1698.2,5092.6 946.8,0"
         style="fill:none;stroke:#000000;stroke-opacity:1;stroke-width:3;stroke-linecap:butt;stroke-linejoin:miter;stroke-miterlimit:10;stroke-dasharray:none"
         id="path2868" /><path
         d="m 4047.8,5092.6 -927.8,0"
         style="fill:none;stroke:#000000;stroke-opacity:1;stroke-width:3;stroke-linecap:butt;stroke-linejoin:miter;stroke-miterlimit:10;stroke-dasharray:none"
         id="path2870" /><path
         d="m 1706.71,5093.01 c 0,3.47 -2.82,6.29 -6.29,6.29 -3.47,0 -6.29,-2.82 -6.29,-6.29 0,-3.47 2.82,-6.28 6.29,-6.28 3.47,0 6.29,2.81 6.29,6.28 l 0,0 z"
         style="fill:none;stroke:#000000;stroke-opacity:1;stroke-width:3;stroke-linecap:butt;stroke-linejoin:miter;stroke-miterlimit:10;stroke-dasharray:none"
         id="path2872" /><path
         d="m 4041.98,5093.01 c 0,-3.47 2.82,-6.28 6.29,-6.28 3.47,0 6.29,2.81 6.29,6.28 0,3.47 -2.82,6.29 -6.29,6.29 -3.47,0 -6.29,-2.82 -6.29,-6.29 l 0,0 z"
         style="fill:none;stroke:#000000;stroke-opacity:1;stroke-width:3;stroke-linecap:butt;stroke-linejoin:miter;stroke-miterlimit:10;stroke-dasharray:none"
         id="path2874" /><path
         d="m 1698.2,4732.6 0,0"
         style="fill:none;stroke:#000000;stroke-opacity:1;stroke-width:3;stroke-linecap:butt;stroke-linejoin:miter;stroke-miterlimit:10;stroke-dasharray:none"
         id="path2876" /><path
         d="m 4047.8,4960.6 0,0"
         style="fill:none;stroke:#000000;stroke-opacity:1;stroke-width:3;stroke-linecap:butt;stroke-linejoin:miter;stroke-miterlimit:10;stroke-dasharray:none"
         id="path2878" /><path
         d="m 4047.8,5092.6 0,0"
         style="fill:none;stroke:#000000;stroke-opacity:1;stroke-width:3;stroke-linecap:butt;stroke-linejoin:miter;stroke-miterlimit:10;stroke-dasharray:none"
         id="path2880" /><path
         d="m 558.199,3703 2.403,2.4"
         style="fill:none;stroke:#000000;stroke-opacity:1;stroke-width:3;stroke-linecap:butt;stroke-linejoin:miter;stroke-miterlimit:10;stroke-dasharray:none"
         id="path2882" /><path
         d="m 558.199,3645.4 62.403,60"
         style="fill:none;stroke:#000000;stroke-opacity:1;stroke-width:3;stroke-linecap:butt;stroke-linejoin:miter;stroke-miterlimit:10;stroke-dasharray:none"
         id="path2884" /><path
         d="m 558.199,3585.4 120,120"
         style="fill:none;stroke:#000000;stroke-opacity:1;stroke-width:3;stroke-linecap:butt;stroke-linejoin:miter;stroke-miterlimit:10;stroke-dasharray:none"
         id="path2886" /><path
         d="m 558.199,3525.4 180,180"
         style="fill:none;stroke:#000000;stroke-opacity:1;stroke-width:3;stroke-linecap:butt;stroke-linejoin:miter;stroke-miterlimit:10;stroke-dasharray:none"
         id="path2888" /><path
         d="m 558.199,3467.8 240,237.6"
         style="fill:none;stroke:#000000;stroke-opacity:1;stroke-width:3;stroke-linecap:butt;stroke-linejoin:miter;stroke-miterlimit:10;stroke-dasharray:none"
         id="path2890" /><path
         d="m 558.199,3407.8 300,297.6"
         style="fill:none;stroke:#000000;stroke-opacity:1;stroke-width:3;stroke-linecap:butt;stroke-linejoin:miter;stroke-miterlimit:10;stroke-dasharray:none"
         id="path2892" /><path
         d="m 558.199,3347.8 357.602,357.6"
         style="fill:none;stroke:#000000;stroke-opacity:1;stroke-width:3;stroke-linecap:butt;stroke-linejoin:miter;stroke-miterlimit:10;stroke-dasharray:none"
         id="path2894" /><path
         d="m 558.199,3287.8 417.602,417.6"
         style="fill:none;stroke:#000000;stroke-opacity:1;stroke-width:3;stroke-linecap:butt;stroke-linejoin:miter;stroke-miterlimit:10;stroke-dasharray:none"
         id="path2896" /><path
         d="M 613.398,3283 1035.8,3705.4"
         style="fill:none;stroke:#000000;stroke-opacity:1;stroke-width:3;stroke-linecap:butt;stroke-linejoin:miter;stroke-miterlimit:10;stroke-dasharray:none"
         id="path2898" /><path
         d="M 673.398,3283 1093.4,3705.4"
         style="fill:none;stroke:#000000;stroke-opacity:1;stroke-width:3;stroke-linecap:butt;stroke-linejoin:miter;stroke-miterlimit:10;stroke-dasharray:none"
         id="path2900" /><path
         d="m 731,3283 422.4,422.4"
         style="fill:none;stroke:#000000;stroke-opacity:1;stroke-width:3;stroke-linecap:butt;stroke-linejoin:miter;stroke-miterlimit:10;stroke-dasharray:none"
         id="path2902" /><path
         d="m 791,3283 422.4,422.4"
         style="fill:none;stroke:#000000;stroke-opacity:1;stroke-width:3;stroke-linecap:butt;stroke-linejoin:miter;stroke-miterlimit:10;stroke-dasharray:none"
         id="path2904" /><path
         d="m 851,3283 420,422.4"
         style="fill:none;stroke:#000000;stroke-opacity:1;stroke-width:3;stroke-linecap:butt;stroke-linejoin:miter;stroke-miterlimit:10;stroke-dasharray:none"
         id="path2906" /><path
         d="M 908.602,3283 1331,3705.4"
         style="fill:none;stroke:#000000;stroke-opacity:1;stroke-width:3;stroke-linecap:butt;stroke-linejoin:miter;stroke-miterlimit:10;stroke-dasharray:none"
         id="path2908" /><path
         d="M 968.602,3283 1391,3705.4"
         style="fill:none;stroke:#000000;stroke-opacity:1;stroke-width:3;stroke-linecap:butt;stroke-linejoin:miter;stroke-miterlimit:10;stroke-dasharray:none"
         id="path2910" /><path
         d="M 1028.6,3283 1451,3705.4"
         style="fill:none;stroke:#000000;stroke-opacity:1;stroke-width:3;stroke-linecap:butt;stroke-linejoin:miter;stroke-miterlimit:10;stroke-dasharray:none"
         id="path2912" /><path
         d="m 1088.6,3283 420,422.4"
         style="fill:none;stroke:#000000;stroke-opacity:1;stroke-width:3;stroke-linecap:butt;stroke-linejoin:miter;stroke-miterlimit:10;stroke-dasharray:none"
         id="path2914" /><path
         d="m 1146.2,3283 422.4,422.4"
         style="fill:none;stroke:#000000;stroke-opacity:1;stroke-width:3;stroke-linecap:butt;stroke-linejoin:miter;stroke-miterlimit:10;stroke-dasharray:none"
         id="path2916" /><path
         d="m 1206.2,3283 422.4,422.4"
         style="fill:none;stroke:#000000;stroke-opacity:1;stroke-width:3;stroke-linecap:butt;stroke-linejoin:miter;stroke-miterlimit:10;stroke-dasharray:none"
         id="path2918" /><path
         d="m 1266.2,3283 420,422.4"
         style="fill:none;stroke:#000000;stroke-opacity:1;stroke-width:3;stroke-linecap:butt;stroke-linejoin:miter;stroke-miterlimit:10;stroke-dasharray:none"
         id="path2920" /><path
         d="m 1323.8,3283 422.4,422.4"
         style="fill:none;stroke:#000000;stroke-opacity:1;stroke-width:3;stroke-linecap:butt;stroke-linejoin:miter;stroke-miterlimit:10;stroke-dasharray:none"
         id="path2922" /><path
         d="m 1383.8,3283 422.4,422.4"
         style="fill:none;stroke:#000000;stroke-opacity:1;stroke-width:3;stroke-linecap:butt;stroke-linejoin:miter;stroke-miterlimit:10;stroke-dasharray:none"
         id="path2924" /><path
         d="m 1443.8,3283 422.4,422.4"
         style="fill:none;stroke:#000000;stroke-opacity:1;stroke-width:3;stroke-linecap:butt;stroke-linejoin:miter;stroke-miterlimit:10;stroke-dasharray:none"
         id="path2926" /><path
         d="m 1503.8,3283 420,422.4"
         style="fill:none;stroke:#000000;stroke-opacity:1;stroke-width:3;stroke-linecap:butt;stroke-linejoin:miter;stroke-miterlimit:10;stroke-dasharray:none"
         id="path2928" /><path
         d="m 1561.4,3283 422.4,422.4"
         style="fill:none;stroke:#000000;stroke-opacity:1;stroke-width:3;stroke-linecap:butt;stroke-linejoin:miter;stroke-miterlimit:10;stroke-dasharray:none"
         id="path2930" /><path
         d="m 1621.4,3283 376.8,379.2"
         style="fill:none;stroke:#000000;stroke-opacity:1;stroke-width:3;stroke-linecap:butt;stroke-linejoin:miter;stroke-miterlimit:10;stroke-dasharray:none"
         id="path2932" /><path
         d="m 1681.4,3283 316.8,319.2"
         style="fill:none;stroke:#000000;stroke-opacity:1;stroke-width:3;stroke-linecap:butt;stroke-linejoin:miter;stroke-miterlimit:10;stroke-dasharray:none"
         id="path2934" /><path
         d="m 1739,3283 259.2,259.2"
         style="fill:none;stroke:#000000;stroke-opacity:1;stroke-width:3;stroke-linecap:butt;stroke-linejoin:miter;stroke-miterlimit:10;stroke-dasharray:none"
         id="path2936" /><path
         d="m 1799,3283 199.2,201.6"
         style="fill:none;stroke:#000000;stroke-opacity:1;stroke-width:3;stroke-linecap:butt;stroke-linejoin:miter;stroke-miterlimit:10;stroke-dasharray:none"
         id="path2938" /><path
         d="m 1859,3283 139.2,141.6"
         style="fill:none;stroke:#000000;stroke-opacity:1;stroke-width:3;stroke-linecap:butt;stroke-linejoin:miter;stroke-miterlimit:10;stroke-dasharray:none"
         id="path2940" /><path
         d="m 1916.6,3283 81.6,81.6"
         style="fill:none;stroke:#000000;stroke-opacity:1;stroke-width:3;stroke-linecap:butt;stroke-linejoin:miter;stroke-miterlimit:10;stroke-dasharray:none"
         id="path2942" /><path
         d="m 1976.6,3283 21.6,24"
         style="fill:none;stroke:#000000;stroke-opacity:1;stroke-width:3;stroke-linecap:butt;stroke-linejoin:miter;stroke-miterlimit:10;stroke-dasharray:none"
         id="path2944" /><path
         d="m 1494.2,4288.6 -163.2,0"
         style="fill:none;stroke:#000000;stroke-opacity:1;stroke-width:3;stroke-linecap:butt;stroke-linejoin:miter;stroke-miterlimit:10;stroke-dasharray:none"
         id="path2946" /><path
         d="m 1494.2,3705.4 -163.2,0"
         style="fill:none;stroke:#000000;stroke-opacity:1;stroke-width:3;stroke-linecap:butt;stroke-linejoin:miter;stroke-miterlimit:10;stroke-dasharray:none"
         id="path2948" /><path
         d="m 1338.2,4288.6 0,-192"
         style="fill:none;stroke:#000000;stroke-opacity:1;stroke-width:3;stroke-linecap:butt;stroke-linejoin:miter;stroke-miterlimit:10;stroke-dasharray:none"
         id="path2950" /><path
         d="m 1338.2,3705.4 0,189.6"
         style="fill:none;stroke:#000000;stroke-opacity:1;stroke-width:3;stroke-linecap:butt;stroke-linejoin:miter;stroke-miterlimit:10;stroke-dasharray:none"
         id="path2952" /><path
         d="m 1338.63,4282.71 c 3.47,0 6.29,2.82 6.29,6.29 0,3.46 -2.82,6.28 -6.29,6.28 -3.47,0 -6.29,-2.82 -6.29,-6.28 0,-3.47 2.82,-6.29 6.29,-6.29 l 0,0 z"
         style="fill:none;stroke:#000000;stroke-opacity:1;stroke-width:3;stroke-linecap:butt;stroke-linejoin:miter;stroke-miterlimit:10;stroke-dasharray:none"
         id="path2954" /><path
         d="m 1338.63,3712.61 c -3.47,0 -6.29,-2.82 -6.29,-6.29 0,-3.46 2.82,-6.28 6.29,-6.28 3.47,0 6.29,2.82 6.29,6.28 0,3.47 -2.82,6.29 -6.29,6.29 l 0,0 z"
         style="fill:none;stroke:#000000;stroke-opacity:1;stroke-width:3;stroke-linecap:butt;stroke-linejoin:miter;stroke-miterlimit:10;stroke-dasharray:none"
         id="path2956" /><path
         d="m 1496.6,4288.6 0,0"
         style="fill:none;stroke:#000000;stroke-opacity:1;stroke-width:3;stroke-linecap:butt;stroke-linejoin:miter;stroke-miterlimit:10;stroke-dasharray:none"
         id="path2958" /><path
         d="m 1496.6,3705.4 0,0"
         style="fill:none;stroke:#000000;stroke-opacity:1;stroke-width:3;stroke-linecap:butt;stroke-linejoin:miter;stroke-miterlimit:10;stroke-dasharray:none"
         id="path2960" /><path
         d="m 1338.2,3705.4 0,0"
         style="fill:none;stroke:#000000;stroke-opacity:1;stroke-width:3;stroke-linecap:butt;stroke-linejoin:miter;stroke-miterlimit:10;stroke-dasharray:none"
         id="path2962" /><path
         d="m 1561.4,4615 -230.4,0"
         style="fill:none;stroke:#000000;stroke-opacity:1;stroke-width:3;stroke-linecap:butt;stroke-linejoin:miter;stroke-miterlimit:10;stroke-dasharray:none"
         id="path2964" /><path
         d="m 1559,4288.6 -228,0"
         style="fill:none;stroke:#000000;stroke-opacity:1;stroke-width:3;stroke-linecap:butt;stroke-linejoin:miter;stroke-miterlimit:10;stroke-dasharray:none"
         id="path2966" /><path
         d="m 1338.2,4289 0,56"
         style="fill:none;stroke:#000000;stroke-opacity:1;stroke-width:3;stroke-linecap:butt;stroke-linejoin:miter;stroke-miterlimit:10;stroke-dasharray:none"
         id="path2968" /><path
         d="m 1338.2,4515 0,93.4"
         style="fill:none;stroke:#000000;stroke-opacity:1;stroke-width:3;stroke-linecap:butt;stroke-linejoin:miter;stroke-miterlimit:10;stroke-dasharray:none"
         id="path2970" /><path
         d="m 1338.2,4288.6 0,-100.8"
         style="fill:none;stroke:#000000;stroke-opacity:1;stroke-width:3;stroke-linecap:butt;stroke-linejoin:miter;stroke-miterlimit:10;stroke-dasharray:none"
         id="path2972" /><path
         d="m 1338.63,4622.21 c -3.47,0 -6.29,-2.82 -6.29,-6.29 0,-3.47 2.82,-6.28 6.29,-6.28 3.47,0 6.29,2.81 6.29,6.28 0,3.47 -2.82,6.29 -6.29,6.29 l 0,0 z"
         style="fill:none;stroke:#000000;stroke-opacity:1;stroke-width:3;stroke-linecap:butt;stroke-linejoin:miter;stroke-miterlimit:10;stroke-dasharray:none"
         id="path2974" /><path
         d="m 1338.63,4282.71 c 3.47,0 6.29,2.82 6.29,6.29 0,3.46 -2.82,6.28 -6.29,6.28 -3.47,0 -6.29,-2.82 -6.29,-6.28 0,-3.47 2.82,-6.29 6.29,-6.29 l 0,0 z"
         style="fill:none;stroke:#000000;stroke-opacity:1;stroke-width:3;stroke-linecap:butt;stroke-linejoin:miter;stroke-miterlimit:10;stroke-dasharray:none"
         id="path2976" /><path
         d="m 1563.8,4615 0,0"
         style="fill:none;stroke:#000000;stroke-opacity:1;stroke-width:3;stroke-linecap:butt;stroke-linejoin:miter;stroke-miterlimit:10;stroke-dasharray:none"
         id="path2978" /><path
         d="m 1561.4,4288.6 0,0"
         style="fill:none;stroke:#000000;stroke-opacity:1;stroke-width:3;stroke-linecap:butt;stroke-linejoin:miter;stroke-miterlimit:10;stroke-dasharray:none"
         id="path2980" /><path
         d="m 1338.2,4288.6 0,0"
         style="fill:none;stroke:#000000;stroke-opacity:1;stroke-width:3;stroke-linecap:butt;stroke-linejoin:miter;stroke-miterlimit:10;stroke-dasharray:none"
         id="path2982" /><path
         d="m 1335.8,4617.4 -218.4,0"
         style="fill:none;stroke:#000000;stroke-opacity:1;stroke-width:3;stroke-linecap:butt;stroke-linejoin:miter;stroke-miterlimit:10;stroke-dasharray:none"
         id="path2984" /><path
         d="m 1335.8,3705.4 -218.4,0"
         style="fill:none;stroke:#000000;stroke-opacity:1;stroke-width:3;stroke-linecap:butt;stroke-linejoin:miter;stroke-miterlimit:10;stroke-dasharray:none"
         id="path2986" /><path
         d="m 1122.2,4617.4 0,-355.2"
         style="fill:none;stroke:#000000;stroke-opacity:1;stroke-width:3;stroke-linecap:butt;stroke-linejoin:miter;stroke-miterlimit:10;stroke-dasharray:none"
         id="path2988" /><path
         d="m 1122.2,3705.4 0,355.2"
         style="fill:none;stroke:#000000;stroke-opacity:1;stroke-width:3;stroke-linecap:butt;stroke-linejoin:miter;stroke-miterlimit:10;stroke-dasharray:none"
         id="path2990" /><path
         d="m 1123.79,4611.73 c 3.47,0 6.29,2.82 6.29,6.29 0,3.47 -2.82,6.28 -6.29,6.28 -3.47,0 -6.29,-2.81 -6.29,-6.28 0,-3.47 2.82,-6.29 6.29,-6.29 l 0,0 z"
         style="fill:none;stroke:#000000;stroke-opacity:1;stroke-width:3;stroke-linecap:butt;stroke-linejoin:miter;stroke-miterlimit:10;stroke-dasharray:none"
         id="path2992" /><path
         d="m 1123.79,3712.61 c -3.47,0 -6.29,-2.82 -6.29,-6.29 0,-3.46 2.82,-6.28 6.29,-6.28 3.47,0 6.29,2.82 6.29,6.28 0,3.47 -2.82,6.29 -6.29,6.29 l 0,0 z"
         style="fill:none;stroke:#000000;stroke-opacity:1;stroke-width:3;stroke-linecap:butt;stroke-linejoin:miter;stroke-miterlimit:10;stroke-dasharray:none"
         id="path2994" /><path
         d="m 1338.2,4617.4 0,0"
         style="fill:none;stroke:#000000;stroke-opacity:1;stroke-width:3;stroke-linecap:butt;stroke-linejoin:miter;stroke-miterlimit:10;stroke-dasharray:none"
         id="path2996" /><path
         d="m 1338.2,3705.4 0,0"
         style="fill:none;stroke:#000000;stroke-opacity:1;stroke-width:3;stroke-linecap:butt;stroke-linejoin:miter;stroke-miterlimit:10;stroke-dasharray:none"
         id="path2998" /><path
         d="m 1122.2,3705.4 0,0"
         style="fill:none;stroke:#000000;stroke-opacity:1;stroke-width:3;stroke-linecap:butt;stroke-linejoin:miter;stroke-miterlimit:10;stroke-dasharray:none"
         id="path3000" /><path
         d="m 1825.4,4180.6 136.8,0 33.6,-129.6 -204,0 33.6,129.6 z"
         style="fill:none;stroke:#000000;stroke-opacity:1;stroke-width:3;stroke-linecap:butt;stroke-linejoin:miter;stroke-miterlimit:10;stroke-dasharray:none"
         id="path3002" /><path
         d="m 1656.04,4405.29 c 0.76,-2.7 3.23,-4.56 6.04,-4.56 3.47,0 6.29,2.82 6.29,6.29 0,0.58 -0.08,1.16 -0.24,1.72 -0.77,2.7 -3.24,4.56 -6.05,4.56 -3.47,0 -6.29,-2.81 -6.29,-6.28 0,-0.59 0.09,-1.16 0.25,-1.73 l 0,0 z"
         style="fill:none;stroke:#000000;stroke-opacity:1;stroke-width:3;stroke-linecap:butt;stroke-linejoin:miter;stroke-miterlimit:10;stroke-dasharray:none"
         id="path3004" /><path
         d="m 1734.2,4271.8 2.4,-7.2 72,21.6 7.2,9.6"
         style="fill:none;stroke:#000000;stroke-opacity:1;stroke-width:3;stroke-linecap:butt;stroke-linejoin:miter;stroke-miterlimit:10;stroke-dasharray:none"
         id="path3006" /><path
         d="m 1811,4312.6 -12,4.8 -72,-21.6 2.4,-7.2"
         style="fill:none;stroke:#000000;stroke-opacity:1;stroke-width:3;stroke-linecap:butt;stroke-linejoin:miter;stroke-miterlimit:10;stroke-dasharray:none"
         id="path3008" /><path
         d="m 1712.6,4283.8 -2.4,9.6 -14.4,-4.8 9.6,-33.6 14.4,4.8 -2.4,7.2"
         style="fill:none;stroke:#000000;stroke-opacity:1;stroke-width:3;stroke-linecap:butt;stroke-linejoin:miter;stroke-miterlimit:10;stroke-dasharray:none"
         id="path3010" /><path
         d="m 1729.4,4288.6 -16.8,-4.8"
         style="fill:none;stroke:#000000;stroke-opacity:1;stroke-width:3;stroke-linecap:butt;stroke-linejoin:miter;stroke-miterlimit:10;stroke-dasharray:none"
         id="path3012" /><path
         d="m 1734.2,4271.8 -16.8,-4.8"
         style="fill:none;stroke:#000000;stroke-opacity:1;stroke-width:3;stroke-linecap:butt;stroke-linejoin:miter;stroke-miterlimit:10;stroke-dasharray:none"
         id="path3014" /><path
         d="m 1734.2,4271.8 -4.8,16.8"
         style="fill:none;stroke:#000000;stroke-opacity:1;stroke-width:3;stroke-linecap:butt;stroke-linejoin:miter;stroke-miterlimit:10;stroke-dasharray:none"
         id="path3016" /><path
         d="m 1717.4,4267 -4.8,16.8"
         style="fill:none;stroke:#000000;stroke-opacity:1;stroke-width:3;stroke-linecap:butt;stroke-linejoin:miter;stroke-miterlimit:10;stroke-dasharray:none"
         id="path3018" /><path
         d="m 1781.02,4440.93 c -0.77,2.7 -3.24,4.56 -6.05,4.56 -3.47,0 -6.29,-2.82 -6.29,-6.29 0,-0.58 0.08,-1.16 0.25,-1.72 0.77,-2.7 3.23,-4.56 6.04,-4.56 3.47,0 6.29,2.81 6.29,6.28 0,0.59 -0.08,1.17 -0.24,1.73 l 0,0 z"
         style="fill:none;stroke:#000000;stroke-opacity:1;stroke-width:3;stroke-linecap:butt;stroke-linejoin:miter;stroke-miterlimit:10;stroke-dasharray:none"
         id="path3020" /><path
         d="m 1731.8,4588.6 -16.8,0"
         style="fill:none;stroke:#000000;stroke-opacity:1;stroke-width:8;stroke-linecap:butt;stroke-linejoin:miter;stroke-miterlimit:10;stroke-dasharray:none"
         id="path3022" /><path
         d="m 1731.8,4605.4 -16.8,0"
         style="fill:none;stroke:#000000;stroke-opacity:1;stroke-width:8;stroke-linecap:butt;stroke-linejoin:miter;stroke-miterlimit:10;stroke-dasharray:none"
         id="path3024" /><path
         d="m 1715,4588.6 0,16.8"
         style="fill:none;stroke:#000000;stroke-opacity:1;stroke-width:8;stroke-linecap:butt;stroke-linejoin:miter;stroke-miterlimit:10;stroke-dasharray:none"
         id="path3026" /><path
         d="m 1731.8,4588.6 0,16.8"
         style="fill:none;stroke:#000000;stroke-opacity:1;stroke-width:8;stroke-linecap:butt;stroke-linejoin:miter;stroke-miterlimit:10;stroke-dasharray:none"
         id="path3028" /><path
         d="m 4047.8,4819 4.8,7.2"
         style="fill:none;stroke:#000000;stroke-opacity:1;stroke-width:3;stroke-linecap:butt;stroke-linejoin:miter;stroke-miterlimit:10;stroke-dasharray:none"
         id="path3030" /><path
         d="m 4047.8,4759 64.8,67.2"
         style="fill:none;stroke:#000000;stroke-opacity:1;stroke-width:3;stroke-linecap:butt;stroke-linejoin:miter;stroke-miterlimit:10;stroke-dasharray:none"
         id="path3032" /><path
         d="m 4047.8,4701.4 124.8,124.8"
         style="fill:none;stroke:#000000;stroke-opacity:1;stroke-width:3;stroke-linecap:butt;stroke-linejoin:miter;stroke-miterlimit:10;stroke-dasharray:none"
         id="path3034" /><path
         d="m 4047.8,4641.4 184.8,184.8"
         style="fill:none;stroke:#000000;stroke-opacity:1;stroke-width:3;stroke-linecap:butt;stroke-linejoin:miter;stroke-miterlimit:10;stroke-dasharray:none"
         id="path3036" /><path
         d="m 4047.8,4581.4 0,2.4"
         style="fill:none;stroke:#000000;stroke-opacity:1;stroke-width:3;stroke-linecap:butt;stroke-linejoin:miter;stroke-miterlimit:10;stroke-dasharray:none"
         id="path3038" /><path
         d="m 4079,4612.6 211.2,213.6"
         style="fill:none;stroke:#000000;stroke-opacity:1;stroke-width:3;stroke-linecap:butt;stroke-linejoin:miter;stroke-miterlimit:10;stroke-dasharray:none"
         id="path3040" /><path
         d="m 4047.8,4523.8 60,60"
         style="fill:none;stroke:#000000;stroke-opacity:1;stroke-width:3;stroke-linecap:butt;stroke-linejoin:miter;stroke-miterlimit:10;stroke-dasharray:none"
         id="path3042" /><path
         d="M 4136.6,4612.6 4319,4795"
         style="fill:none;stroke:#000000;stroke-opacity:1;stroke-width:3;stroke-linecap:butt;stroke-linejoin:miter;stroke-miterlimit:10;stroke-dasharray:none"
         id="path3044" /><path
         d="m 4047.8,4463.8 117.6,120"
         style="fill:none;stroke:#000000;stroke-opacity:1;stroke-width:3;stroke-linecap:butt;stroke-linejoin:miter;stroke-miterlimit:10;stroke-dasharray:none"
         id="path3046" /><path
         d="M 4196.6,4612.6 4319,4735"
         style="fill:none;stroke:#000000;stroke-opacity:1;stroke-width:3;stroke-linecap:butt;stroke-linejoin:miter;stroke-miterlimit:10;stroke-dasharray:none"
         id="path3048" /><path
         d="m 4047.8,4403.8 177.6,180"
         style="fill:none;stroke:#000000;stroke-opacity:1;stroke-width:3;stroke-linecap:butt;stroke-linejoin:miter;stroke-miterlimit:10;stroke-dasharray:none"
         id="path3050" /><path
         d="m 4256.6,4612.6 62.4,64.8"
         style="fill:none;stroke:#000000;stroke-opacity:1;stroke-width:3;stroke-linecap:butt;stroke-linejoin:miter;stroke-miterlimit:10;stroke-dasharray:none"
         id="path3052" /><path
         d="m 4071.8,4370.2 213.6,213.6"
         style="fill:none;stroke:#000000;stroke-opacity:1;stroke-width:3;stroke-linecap:butt;stroke-linejoin:miter;stroke-miterlimit:10;stroke-dasharray:none"
         id="path3054" /><path
         d="m 4314.2,4612.6 4.8,4.8"
         style="fill:none;stroke:#000000;stroke-opacity:1;stroke-width:3;stroke-linecap:butt;stroke-linejoin:miter;stroke-miterlimit:10;stroke-dasharray:none"
         id="path3056" /><path
         d="M 4131.8,4370.2 4319,4557.4"
         style="fill:none;stroke:#000000;stroke-opacity:1;stroke-width:3;stroke-linecap:butt;stroke-linejoin:miter;stroke-miterlimit:10;stroke-dasharray:none"
         id="path3058" /><path
         d="M 4191.8,4370.2 4319,4497.4"
         style="fill:none;stroke:#000000;stroke-opacity:1;stroke-width:3;stroke-linecap:butt;stroke-linejoin:miter;stroke-miterlimit:10;stroke-dasharray:none"
         id="path3060" /><path
         d="m 4249.4,4370.2 69.6,69.6"
         style="fill:none;stroke:#000000;stroke-opacity:1;stroke-width:3;stroke-linecap:butt;stroke-linejoin:miter;stroke-miterlimit:10;stroke-dasharray:none"
         id="path3062" /><path
         d="m 4309.4,4370.2 9.6,9.6"
         style="fill:none;stroke:#000000;stroke-opacity:1;stroke-width:3;stroke-linecap:butt;stroke-linejoin:miter;stroke-miterlimit:10;stroke-dasharray:none"
         id="path3064" /><path
         d="m 4717.4,4648.6 0,-100.8"
         style="fill:none;stroke:#000000;stroke-opacity:1;stroke-width:3;stroke-linecap:butt;stroke-linejoin:miter;stroke-miterlimit:10;stroke-dasharray:none"
         id="path3066" /><path
         d="m 4683.8,4648.6 0,-100.8"
         style="fill:none;stroke:#000000;stroke-opacity:1;stroke-width:3;stroke-linecap:butt;stroke-linejoin:miter;stroke-miterlimit:10;stroke-dasharray:none"
         id="path3068" /><path
         d="m 4959.8,4610.2 -7.2,-12"
         style="fill:none;stroke:#000000;stroke-opacity:1;stroke-width:3;stroke-linecap:butt;stroke-linejoin:miter;stroke-miterlimit:10;stroke-dasharray:none"
         id="path3070" /><path
         d="m 5322.2,4598.2 -7.2,-12"
         style="fill:none;stroke:#000000;stroke-opacity:1;stroke-width:3;stroke-linecap:butt;stroke-linejoin:miter;stroke-miterlimit:10;stroke-dasharray:none"
         id="path3072" /><path
         d="m 4803.84,4749.86 c -52.91,-30.63 -85.49,-87.11 -85.49,-148.21 0,-94.55 76.78,-171.29 171.38,-171.29 6.28,0 12.55,0.35 18.79,1.04"
         style="fill:none;stroke:#000000;stroke-opacity:1;stroke-width:8;stroke-linecap:butt;stroke-linejoin:miter;stroke-miterlimit:10;stroke-dasharray:none"
         id="path3074" /><path
         d="m 1815.8,4588.6 2868,-7.2"
         style="fill:none;stroke:#000000;stroke-opacity:1;stroke-width:8;stroke-linecap:butt;stroke-linejoin:miter;stroke-miterlimit:10;stroke-dasharray:none"
         id="path3076" /><path
         d="m 4683.8,4615 -2868,-7.2"
         style="fill:none;stroke:#000000;stroke-opacity:1;stroke-width:8;stroke-linecap:butt;stroke-linejoin:miter;stroke-miterlimit:10;stroke-dasharray:none"
         id="path3078" /><path
         d="m 1998.2,3705.4 -1440.001,0"
         style="fill:none;stroke:#000000;stroke-opacity:1;stroke-width:8;stroke-linecap:butt;stroke-linejoin:miter;stroke-miterlimit:10;stroke-dasharray:none"
         id="path3080" /><path
         d="m 1815.8,4607.8 -7.2,7.2 -76.8,0 0,-9.6"
         style="fill:none;stroke:#000000;stroke-opacity:1;stroke-width:8;stroke-linecap:butt;stroke-linejoin:miter;stroke-miterlimit:10;stroke-dasharray:none"
         id="path3082" /><path
         d="m 1731.8,4588.6 0,-7.2 76.8,0 7.2,7.2"
         style="fill:none;stroke:#000000;stroke-opacity:1;stroke-width:8;stroke-linecap:butt;stroke-linejoin:miter;stroke-miterlimit:10;stroke-dasharray:none"
         id="path3084" /><path
         d="m 1715,4605.4 0,9.6 -16.8,0 0,-33.6 16.8,0 0,7.2"
         style="fill:none;stroke:#000000;stroke-opacity:1;stroke-width:8;stroke-linecap:butt;stroke-linejoin:miter;stroke-miterlimit:10;stroke-dasharray:none"
         id="path3086" /><path
         d="m 4319,4370.2 0,456"
         style="fill:none;stroke:#000000;stroke-opacity:1;stroke-width:8;stroke-linecap:butt;stroke-linejoin:miter;stroke-miterlimit:10;stroke-dasharray:none"
         id="path3088" /><path
         d="m 4047.8,4370.2 0,456"
         style="fill:none;stroke:#000000;stroke-opacity:1;stroke-width:8;stroke-linecap:butt;stroke-linejoin:miter;stroke-miterlimit:10;stroke-dasharray:none"
         id="path3090" /><path
         d="m 4952.6,4586.2 369.6,0"
         style="fill:none;stroke:#000000;stroke-opacity:1;stroke-width:8;stroke-linecap:butt;stroke-linejoin:miter;stroke-miterlimit:10;stroke-dasharray:none"
         id="path3092" /><path
         d="m 4952.6,4610.2 369.6,0"
         style="fill:none;stroke:#000000;stroke-opacity:1;stroke-width:8;stroke-linecap:butt;stroke-linejoin:miter;stroke-miterlimit:10;stroke-dasharray:none"
         id="path3094" /><path
         d="M 4952.6,4610.2 4842.2,4627"
         style="fill:none;stroke:#000000;stroke-opacity:1;stroke-width:8;stroke-linecap:butt;stroke-linejoin:miter;stroke-miterlimit:10;stroke-dasharray:none"
         id="path3096" /><path
         d="M 4803.8,4749.4 4907,4430.2"
         style="fill:none;stroke:#000000;stroke-opacity:1;stroke-width:8;stroke-linecap:butt;stroke-linejoin:miter;stroke-miterlimit:10;stroke-dasharray:none"
         id="path3098" /><path
         d="m 4683.8,4648.6 0,-100.8 40.8,0"
         style="fill:none;stroke:#000000;stroke-opacity:1;stroke-width:8;stroke-linecap:butt;stroke-linejoin:miter;stroke-miterlimit:10;stroke-dasharray:none"
         id="path3100" /><path
         d="m 4683.8,4648.6 40.8,0"
         style="fill:none;stroke:#000000;stroke-opacity:1;stroke-width:8;stroke-linecap:butt;stroke-linejoin:miter;stroke-miterlimit:10;stroke-dasharray:none"
         id="path3102" /><path
         d="m 5060.6,4610.2 -14.4,-24"
         style="fill:none;stroke:#000000;stroke-opacity:1;stroke-width:8;stroke-linecap:butt;stroke-linejoin:miter;stroke-miterlimit:10;stroke-dasharray:none"
         id="path3104" /><path
         d="m 4952.6,4586.2 -91.2,-16.8"
         style="fill:none;stroke:#000000;stroke-opacity:1;stroke-width:8;stroke-linecap:butt;stroke-linejoin:miter;stroke-miterlimit:10;stroke-dasharray:none"
         id="path3106" /><path
         d="m 4952.6,4610.2 0,-24"
         style="fill:none;stroke:#000000;stroke-opacity:1;stroke-width:8;stroke-linecap:butt;stroke-linejoin:miter;stroke-miterlimit:10;stroke-dasharray:none"
         id="path3108" /><path
         d="m 4993.4,4610.2 -14.4,-24"
         style="fill:none;stroke:#000000;stroke-opacity:1;stroke-width:8;stroke-linecap:butt;stroke-linejoin:miter;stroke-miterlimit:10;stroke-dasharray:none"
         id="path3110" /><path
         d="m 5027,4610.2 -14.4,-24"
         style="fill:none;stroke:#000000;stroke-opacity:1;stroke-width:8;stroke-linecap:butt;stroke-linejoin:miter;stroke-miterlimit:10;stroke-dasharray:none"
         id="path3112" /><path
         d="m 5094.2,4610.2 -14.4,-24"
         style="fill:none;stroke:#000000;stroke-opacity:1;stroke-width:8;stroke-linecap:butt;stroke-linejoin:miter;stroke-miterlimit:10;stroke-dasharray:none"
         id="path3114" /><path
         d="m 5127.8,4610.2 -14.4,-24"
         style="fill:none;stroke:#000000;stroke-opacity:1;stroke-width:8;stroke-linecap:butt;stroke-linejoin:miter;stroke-miterlimit:10;stroke-dasharray:none"
         id="path3116" /><path
         d="m 5195,4610.2 -14.4,-24"
         style="fill:none;stroke:#000000;stroke-opacity:1;stroke-width:8;stroke-linecap:butt;stroke-linejoin:miter;stroke-miterlimit:10;stroke-dasharray:none"
         id="path3118" /><path
         d="m 5161.4,4610.2 -14.4,-24"
         style="fill:none;stroke:#000000;stroke-opacity:1;stroke-width:8;stroke-linecap:butt;stroke-linejoin:miter;stroke-miterlimit:10;stroke-dasharray:none"
         id="path3120" /><path
         d="m 5228.6,4610.2 -14.4,-24"
         style="fill:none;stroke:#000000;stroke-opacity:1;stroke-width:8;stroke-linecap:butt;stroke-linejoin:miter;stroke-miterlimit:10;stroke-dasharray:none"
         id="path3122" /><path
         d="m 5389.4,4581.4 -19.2,-9.6 -48,14.4"
         style="fill:none;stroke:#000000;stroke-opacity:1;stroke-width:8;stroke-linecap:butt;stroke-linejoin:miter;stroke-miterlimit:10;stroke-dasharray:none"
         id="path3124" /><path
         d="m 5389.4,4615 -19.2,7.2 -48,-12"
         style="fill:none;stroke:#000000;stroke-opacity:1;stroke-width:8;stroke-linecap:butt;stroke-linejoin:miter;stroke-miterlimit:10;stroke-dasharray:none"
         id="path3126" /><path
         d="m 5295.8,4610.2 -14.4,-24"
         style="fill:none;stroke:#000000;stroke-opacity:1;stroke-width:8;stroke-linecap:butt;stroke-linejoin:miter;stroke-miterlimit:10;stroke-dasharray:none"
         id="path3128" /><path
         d="m 5262.2,4610.2 -14.4,-24"
         style="fill:none;stroke:#000000;stroke-opacity:1;stroke-width:8;stroke-linecap:butt;stroke-linejoin:miter;stroke-miterlimit:10;stroke-dasharray:none"
         id="path3130" /><path
         d="m 5322.2,4610.2 0,-24"
         style="fill:none;stroke:#000000;stroke-opacity:1;stroke-width:8;stroke-linecap:butt;stroke-linejoin:miter;stroke-miterlimit:10;stroke-dasharray:none"
         id="path3132" /><path
         d="m 5389.4,4581.4 0,33.6"
         style="fill:none;stroke:#000000;stroke-opacity:1;stroke-width:8;stroke-linecap:butt;stroke-linejoin:miter;stroke-miterlimit:10;stroke-dasharray:none"
         id="path3134" /><g
         id="g3136"
         transform="scale(10,10)"><text
           transform="matrix(1,0,0,-1,275.277,507.753)"
           id="text3138"><tspan
             style="fill:#000000;fill-opacity:1;fill-rule:nonzero;stroke:none;font-family:Helvetica;font-variant:normal;font-weight:300;font-size:10;writing-mode:lr;-inkscape-font-specification:Helvetica-Light"
             x="0 5.56 11.12 13.9 18.9"
             y="0"
             sodipodi:role="line"
             id="tspan3140">70 cm</tspan><tspan
             style="fill:#000000;fill-opacity:1;fill-rule:nonzero;stroke:none;font-family:Helvetica;font-variant:normal;font-weight:300;font-size:10;writing-mode:lr;-inkscape-font-specification:Helvetica-Light"
             x="-167.919 -162.359"
             y="94.9098"
             sodipodi:role="line"
             id="tspan3142">h1</tspan><tspan
             style="fill:#000000;fill-opacity:1;fill-rule:nonzero;stroke:none;font-family:Helvetica;font-variant:normal;font-weight:300;font-size:10;writing-mode:lr;-inkscape-font-specification:Helvetica-Light"
             x="-142.7768"
             y="68.2532"
             id="tspan3144">f</tspan><tspan
             style="fill:#000000;fill-opacity:1;fill-rule:nonzero;stroke:none;font-family:Helvetica;font-variant:normal;font-weight:300;font-size:10;writing-mode:lr;-inkscape-font-specification:Helvetica-Light"
             x="-147.75219 -142.19219"
             y="111.4098"
             sodipodi:role="line"
             id="tspan3146">h2</tspan></text>
<text
           transform="matrix(0.965772,0.259392,0.259392,-0.965772,154.495,441.657)"
           id="text3148"><tspan
             style="fill:#000000;fill-opacity:1;fill-rule:nonzero;stroke:none;font-family:Helvetica;font-variant:normal;font-weight:300;font-size:10.00029883;writing-mode:lr;-inkscape-font-specification:Helvetica-Light"
             x="0 5.56016615 8.34024922 13.34039864"
             y="0"
             sodipodi:role="line"
             id="tspan3150">3 cm</tspan></text>
<text
           transform="matrix(1,0,0,-1,204.529,384.843)"
           id="text3152"><tspan
             style="fill:#000000;fill-opacity:1;fill-rule:nonzero;stroke:none;font-family:Helvetica;font-variant:normal;font-weight:300;font-size:10;writing-mode:lr;-inkscape-font-specification:Helvetica-Light"
             x="0 5.56 11.12 16.68 19.46"
             y="0"
             sodipodi:role="line"
             id="tspan3154">200 g</tspan><tspan
             style="fill:#000000;fill-opacity:1;fill-rule:nonzero;stroke:none;font-family:Helvetica;font-variant:normal;font-weight:300;font-size:10;writing-mode:lr;-inkscape-font-specification:Helvetica-Light"
             x="71.5832 77.6932 79.9132 85.4732 90.4732 92.6932 98.2532 100.4732 102.6932 104.9132 107.6932 112.6932 115.4732 118.8032 121.5832 124.9132 127.6932 133.2532 136.0332 138.8132 141.5932 147.1532 152.7132 155.4932 161.0532 166.6132 172.1732 177.7332 180.5132 182.7332 187.7332 190.5132 196.0732 201.6332 204.4132 206.6332 212.1932 217.7532 223.3132 226.0932 231.6532 236.6532 239.4332 244.9932 250.5532 253.3332 258.8932 261.6732 267.2332 272.7932 275.5732"
             y="-17"
             sodipodi:role="line"
             id="tspan3156">Flexibility (f) of the √©p√©e is defined as h1 ‚Äì h2,,</tspan><tspan
             style="fill:#000000;fill-opacity:1;fill-rule:nonzero;stroke:none;font-family:Helvetica;font-variant:normal;font-weight:300;font-size:10;writing-mode:lr;-inkscape-font-specification:Helvetica-Light"
             x="71.5832 79.9132 85.4732 91.0332 96.0332 101.5932 104.9232 110.4832 116.0432 118.8232 124.3832 129.9432 132.7232 139.9432 145.5032 151.0632 156.6232 159.4032 162.1832 167.7432 173.3032 176.0832 181.6432 187.2032 194.4232 199.9832 202.2032 207.7632 213.3232 216.1032 221.6632 227.2232 230.0032 235.5632 241.1232 246.6832 249.4632 252.2432 257.8032 263.3632 266.1432"
             y="-5"
             sodipodi:role="line"
             id="tspan3158">measured between the unweighted and the  </tspan><tspan
             style="fill:#000000;fill-opacity:1;fill-rule:nonzero;stroke:none;font-family:Helvetica;font-variant:normal;font-weight:300;font-size:10;writing-mode:lr;-inkscape-font-specification:Helvetica-Light"
             x="71.5832 78.8032 84.3632 86.5832 92.1432 97.7032 100.4832 106.0432 111.6032 114.3832 119.9432 125.5032 130.5032 132.7232 135.5032 137.7232 143.2832 148.8432 151.6232 157.1832 159.9632 162.7432 165.5232 171.0832 176.6432 179.4232 182.2032 184.4232 189.9832"
             y="7"
             sodipodi:role="line"
             id="tspan3160">weighted position of the tipp</tspan><tspan
             style="fill:#000000;fill-opacity:1;fill-rule:nonzero;stroke:none;font-family:Helvetica;font-variant:normal;font-weight:300;font-size:10;writing-mode:lr;-inkscape-font-specification:Helvetica-Light"
             x="71.5832 79.9132 82.1332 87.6932 89.9132 98.2432 103.8032 112.1332 114.9132 117.6932 123.2532 126.0332 131.5932 134.3732 139.3732 147.7032"
             y="23"
             sodipodi:role="line"
             id="tspan3162">Minimum: 4.5 cmm</tspan><tspan
             style="fill:#000000;fill-opacity:1;fill-rule:nonzero;stroke:none;font-family:Helvetica;font-variant:normal;font-weight:300;font-size:10;writing-mode:lr;-inkscape-font-specification:Helvetica-Light"
             x="71.5832 79.9132 85.4732 90.4732 92.6932 101.0232 106.5832 114.9132 117.6932 120.4732 126.0332 128.8132 133.8132 142.1432"
             y="35"
             sodipodi:role="line"
             id="tspan3164">Maximum: 7 cmm</tspan><tspan
             style="fill:#000000;fill-opacity:1;fill-rule:nonzero;stroke:none;font-family:Helvetica;font-variant:normal;font-weight:300;font-size:10;writing-mode:lr;-inkscape-font-specification:Helvetica-Light"
             x="71.5832"
             y="47"
             id="tspan3166">»Î</tspan></text>
<text
           transform="matrix(1,0,0,-1,255.7767,540.336)"
           id="text3168"><tspan
             style="fill:#000000;fill-opacity:1;fill-rule:nonzero;stroke:none;font-family:Helvetica;font-variant:normal;font-weight:300;font-size:12;writing-mode:lr;-inkscape-font-specification:Helvetica-Light"
             x="0 7.332 15.996 24 27.336 35.34 43.344 51.348"
             y="0"
             sodipodi:role="line"
             id="tspan3170">THE EPEE</tspan></text>
</g><path
         d="m 2035,3980 -141.5,135"
         style="fill:none;stroke:#000000;stroke-opacity:1;stroke-width:3;stroke-linecap:butt;stroke-linejoin:miter;stroke-miterlimit:10;stroke-dasharray:none"
         id="path3172" /></g></g></svg>