<?xml version="1.0" encoding="UTF-8" standalone="no"?>
<!-- Created with Inkscape (http://www.inkscape.org/) -->

<svg
   xmlns:dc="http://purl.org/dc/elements/1.1/"
   xmlns:cc="http://creativecommons.org/ns#"
   xmlns:rdf="http://www.w3.org/1999/02/22-rdf-syntax-ns#"
   xmlns:svg="http://www.w3.org/2000/svg"
   xmlns="http://www.w3.org/2000/svg"
   xmlns:sodipodi="http://sodipodi.sourceforge.net/DTD/sodipodi-0.dtd"
   xmlns:inkscape="http://www.inkscape.org/namespaces/inkscape"
   id="svg2816"
   version="1.1"
   inkscape:version="0.47 r22583"
   width="359.47125"
   height="226.57875"
   xml:space="preserve"
   sodipodi:docname="09UKSPAD3_04.eps"><metadata
     id="metadata2822"><rdf:RDF><cc:Work
         rdf:about=""><dc:format>image/svg+xml</dc:format><dc:type
           rdf:resource="http://purl.org/dc/dcmitype/StillImage" /><dc:title></dc:title></cc:Work></rdf:RDF></metadata><defs
     id="defs2820"><inkscape:perspective
       sodipodi:type="inkscape:persp3d"
       inkscape:vp_x="0 : 0.5 : 1"
       inkscape:vp_y="0 : 1000 : 0"
       inkscape:vp_z="1 : 0.5 : 1"
       inkscape:persp3d-origin="0.5 : 0.33333333 : 1"
       id="perspective2824" /><clipPath
       clipPathUnits="userSpaceOnUse"
       id="clipPath3300"><path
         d="m 2732.81,4381.16 c 34.64,4.23 76.01,-4.31 107.9,-14.07 l -0.86,47.26 c -51.96,30 -148.7,17.45 -160.21,-2.49 -11.51,-19.94 25.99,-109.99 77.95,-139.99 l 41.35,22.88 c -24.39,22.74 -52.47,54.3 -66.13,86.41 z"
         id="path3302" /></clipPath></defs><sodipodi:namedview
     pagecolor="#ffffff"
     bordercolor="#666666"
     borderopacity="1"
     objecttolerance="10"
     gridtolerance="10"
     guidetolerance="10"
     inkscape:pageopacity="0"
     inkscape:pageshadow="2"
     inkscape:window-width="1440"
     inkscape:window-height="838"
     id="namedview2818"
     showgrid="false"
     inkscape:zoom="1.5326361"
     inkscape:cx="157.44625"
     inkscape:cy="137.95125"
     inkscape:window-x="-8"
     inkscape:window-y="-8"
     inkscape:window-maximized="1"
     inkscape:current-layer="g2826" /><g
     id="g2826"
     inkscape:groupmode="layer"
     inkscape:label="ink_ext_XXXXXX"
     transform="matrix(1.25,0,0,-1.25,-214.42875,614.8775)"><g
       id="g2828"
       transform="scale(0.1,0.1)"><path
         d="m 2135.86,4289.36 c -0.42,-1.59 -0.64,-3.22 -0.64,-4.85 0,-10.34 8.4,-18.73 18.74,-18.73 10.34,0 18.74,8.39 18.74,18.73 0,1.63 -0.22,3.26 -0.64,4.85"
         style="fill:none;stroke:#000000;stroke-width:3;stroke-linecap:butt;stroke-linejoin:miter;stroke-miterlimit:10;stroke-opacity:1;stroke-dasharray:none"
         id="path2830" /><path
         d="m 2423.22,3215.89 7.2,7.2"
         style="fill:none;stroke:#000000;stroke-width:3;stroke-linecap:butt;stroke-linejoin:miter;stroke-miterlimit:10;stroke-opacity:1;stroke-dasharray:none"
         id="path2832" /><path
         d="m 2423.22,3118.7 104.4,104.39"
         style="fill:none;stroke:#000000;stroke-width:3;stroke-linecap:butt;stroke-linejoin:miter;stroke-miterlimit:10;stroke-opacity:1;stroke-dasharray:none"
         id="path2834" /><path
         d="m 2509.63,3107.89 115.19,115.2"
         style="fill:none;stroke:#000000;stroke-width:3;stroke-linecap:butt;stroke-linejoin:miter;stroke-miterlimit:10;stroke-opacity:1;stroke-dasharray:none"
         id="path2836" /><path
         d="m 2606.82,3107.89 115.2,115.2"
         style="fill:none;stroke:#000000;stroke-width:3;stroke-linecap:butt;stroke-linejoin:miter;stroke-miterlimit:10;stroke-opacity:1;stroke-dasharray:none"
         id="path2838" /><path
         d="m 2707.62,3107.89 115.2,115.2"
         style="fill:none;stroke:#000000;stroke-width:3;stroke-linecap:butt;stroke-linejoin:miter;stroke-miterlimit:10;stroke-opacity:1;stroke-dasharray:none"
         id="path2840" /><path
         d="m 2804.82,3107.89 115.2,115.2"
         style="fill:none;stroke:#000000;stroke-width:3;stroke-linecap:butt;stroke-linejoin:miter;stroke-miterlimit:10;stroke-opacity:1;stroke-dasharray:none"
         id="path2842" /><path
         d="m 2902.02,3107.89 115.2,115.2"
         style="fill:none;stroke:#000000;stroke-width:3;stroke-linecap:butt;stroke-linejoin:miter;stroke-miterlimit:10;stroke-opacity:1;stroke-dasharray:none"
         id="path2844" /><path
         d="m 2999.22,3107.89 115.2,115.2"
         style="fill:none;stroke:#000000;stroke-width:3;stroke-linecap:butt;stroke-linejoin:miter;stroke-miterlimit:10;stroke-opacity:1;stroke-dasharray:none"
         id="path2846" /><path
         d="m 3100.02,3107.89 115.2,115.2"
         style="fill:none;stroke:#000000;stroke-width:3;stroke-linecap:butt;stroke-linejoin:miter;stroke-miterlimit:10;stroke-opacity:1;stroke-dasharray:none"
         id="path2848" /><path
         d="m 3197.22,3107.89 115.2,115.2"
         style="fill:none;stroke:#000000;stroke-width:3;stroke-linecap:butt;stroke-linejoin:miter;stroke-miterlimit:10;stroke-opacity:1;stroke-dasharray:none"
         id="path2850" /><path
         d="m 3294.42,3107.89 115.21,115.2"
         style="fill:none;stroke:#000000;stroke-width:3;stroke-linecap:butt;stroke-linejoin:miter;stroke-miterlimit:10;stroke-opacity:1;stroke-dasharray:none"
         id="path2852" /><path
         d="m 3391.63,3107.89 115.19,115.2"
         style="fill:none;stroke:#000000;stroke-width:3;stroke-linecap:butt;stroke-linejoin:miter;stroke-miterlimit:10;stroke-opacity:1;stroke-dasharray:none"
         id="path2854" /><path
         d="m 3492.42,3107.89 111.6,115.2"
         style="fill:none;stroke:#000000;stroke-width:3;stroke-linecap:butt;stroke-linejoin:miter;stroke-miterlimit:10;stroke-opacity:1;stroke-dasharray:none"
         id="path2856" /><path
         d="m 3589.63,3107.89 115.19,115.2"
         style="fill:none;stroke:#000000;stroke-width:3;stroke-linecap:butt;stroke-linejoin:miter;stroke-miterlimit:10;stroke-opacity:1;stroke-dasharray:none"
         id="path2858" /><path
         d="m 3686.82,3107.89 115.2,115.2"
         style="fill:none;stroke:#000000;stroke-width:3;stroke-linecap:butt;stroke-linejoin:miter;stroke-miterlimit:10;stroke-opacity:1;stroke-dasharray:none"
         id="path2860" /><path
         d="m 3784.02,3107.89 115.2,115.2"
         style="fill:none;stroke:#000000;stroke-width:3;stroke-linecap:butt;stroke-linejoin:miter;stroke-miterlimit:10;stroke-opacity:1;stroke-dasharray:none"
         id="path2862" /><path
         d="m 2423.22,3183.5 39.6,39.59"
         style="fill:none;stroke:#000000;stroke-width:3;stroke-linecap:butt;stroke-linejoin:miter;stroke-miterlimit:10;stroke-opacity:1;stroke-dasharray:none"
         id="path2864" /><path
         d="m 2444.82,3107.89 115.2,115.2"
         style="fill:none;stroke:#000000;stroke-width:3;stroke-linecap:butt;stroke-linejoin:miter;stroke-miterlimit:10;stroke-opacity:1;stroke-dasharray:none"
         id="path2866" /><path
         d="m 2542.02,3107.89 115.2,115.2"
         style="fill:none;stroke:#000000;stroke-width:3;stroke-linecap:butt;stroke-linejoin:miter;stroke-miterlimit:10;stroke-opacity:1;stroke-dasharray:none"
         id="path2868" /><path
         d="m 2639.22,3107.89 115.2,115.2"
         style="fill:none;stroke:#000000;stroke-width:3;stroke-linecap:butt;stroke-linejoin:miter;stroke-miterlimit:10;stroke-opacity:1;stroke-dasharray:none"
         id="path2870" /><path
         d="m 2740.02,3107.89 115.2,115.2"
         style="fill:none;stroke:#000000;stroke-width:3;stroke-linecap:butt;stroke-linejoin:miter;stroke-miterlimit:10;stroke-opacity:1;stroke-dasharray:none"
         id="path2872" /><path
         d="m 2837.22,3107.89 115.2,115.2"
         style="fill:none;stroke:#000000;stroke-width:3;stroke-linecap:butt;stroke-linejoin:miter;stroke-miterlimit:10;stroke-opacity:1;stroke-dasharray:none"
         id="path2874" /><path
         d="m 2934.42,3107.89 115.21,115.2"
         style="fill:none;stroke:#000000;stroke-width:3;stroke-linecap:butt;stroke-linejoin:miter;stroke-miterlimit:10;stroke-opacity:1;stroke-dasharray:none"
         id="path2876" /><path
         d="m 3031.63,3107.89 115.19,115.2"
         style="fill:none;stroke:#000000;stroke-width:3;stroke-linecap:butt;stroke-linejoin:miter;stroke-miterlimit:10;stroke-opacity:1;stroke-dasharray:none"
         id="path2878" /><path
         d="m 3132.42,3107.89 115.2,115.2"
         style="fill:none;stroke:#000000;stroke-width:3;stroke-linecap:butt;stroke-linejoin:miter;stroke-miterlimit:10;stroke-opacity:1;stroke-dasharray:none"
         id="path2880" /><path
         d="m 3229.63,3107.89 115.19,115.2"
         style="fill:none;stroke:#000000;stroke-width:3;stroke-linecap:butt;stroke-linejoin:miter;stroke-miterlimit:10;stroke-opacity:1;stroke-dasharray:none"
         id="path2882" /><path
         d="m 3326.82,3107.89 115.2,115.2"
         style="fill:none;stroke:#000000;stroke-width:3;stroke-linecap:butt;stroke-linejoin:miter;stroke-miterlimit:10;stroke-opacity:1;stroke-dasharray:none"
         id="path2884" /><path
         d="m 3424.02,3107.89 115.2,115.2"
         style="fill:none;stroke:#000000;stroke-width:3;stroke-linecap:butt;stroke-linejoin:miter;stroke-miterlimit:10;stroke-opacity:1;stroke-dasharray:none"
         id="path2886" /><path
         d="m 3524.82,3107.89 115.2,115.2"
         style="fill:none;stroke:#000000;stroke-width:3;stroke-linecap:butt;stroke-linejoin:miter;stroke-miterlimit:10;stroke-opacity:1;stroke-dasharray:none"
         id="path2888" /><path
         d="m 3622.02,3107.89 115.2,115.2"
         style="fill:none;stroke:#000000;stroke-width:3;stroke-linecap:butt;stroke-linejoin:miter;stroke-miterlimit:10;stroke-opacity:1;stroke-dasharray:none"
         id="path2890" /><path
         d="m 3719.22,3107.89 115.2,115.2"
         style="fill:none;stroke:#000000;stroke-width:3;stroke-linecap:butt;stroke-linejoin:miter;stroke-miterlimit:10;stroke-opacity:1;stroke-dasharray:none"
         id="path2892" /><path
         d="m 3816.42,3107.89 115.21,115.2"
         style="fill:none;stroke:#000000;stroke-width:3;stroke-linecap:butt;stroke-linejoin:miter;stroke-miterlimit:10;stroke-opacity:1;stroke-dasharray:none"
         id="path2894" /><path
         d="m 3883.46,3107.89 115.2,115.2"
         style="fill:none;stroke:#000000;stroke-width:3;stroke-linecap:butt;stroke-linejoin:miter;stroke-miterlimit:10;stroke-opacity:1;stroke-dasharray:none"
         id="path2896" /><path
         d="m 3980.66,3107.89 111.6,111.61"
         style="fill:none;stroke:#000000;stroke-width:3;stroke-linecap:butt;stroke-linejoin:miter;stroke-miterlimit:10;stroke-opacity:1;stroke-dasharray:none"
         id="path2898" /><path
         d="m 4081.46,3107.89 10.8,10.81"
         style="fill:none;stroke:#000000;stroke-width:3;stroke-linecap:butt;stroke-linejoin:miter;stroke-miterlimit:10;stroke-opacity:1;stroke-dasharray:none"
         id="path2900" /><path
         d="m 3915.86,3107.89 115.2,115.2"
         style="fill:none;stroke:#000000;stroke-width:3;stroke-linecap:butt;stroke-linejoin:miter;stroke-miterlimit:10;stroke-opacity:1;stroke-dasharray:none"
         id="path2902" /><path
         d="m 4016.66,3107.89 75.6,79.2"
         style="fill:none;stroke:#000000;stroke-width:3;stroke-linecap:butt;stroke-linejoin:miter;stroke-miterlimit:10;stroke-opacity:1;stroke-dasharray:none"
         id="path2904" /><path
         d="m 2544.21,3230.3 1580.4,0"
         style="fill:none;stroke:#000000;stroke-width:3;stroke-linecap:butt;stroke-linejoin:miter;stroke-miterlimit:10;stroke-opacity:1;stroke-dasharray:none"
         id="path2906" /><path
         d="m 3230.8,4468.45 0,421.19"
         style="fill:none;stroke:#000000;stroke-width:3;stroke-linecap:butt;stroke-linejoin:miter;stroke-miterlimit:10;stroke-opacity:1;stroke-dasharray:none"
         id="path2908" /><path
         d="m 3727.61,4468.45 0,421.19"
         style="fill:none;stroke:#000000;stroke-width:3;stroke-linecap:butt;stroke-linejoin:miter;stroke-miterlimit:10;stroke-opacity:1;stroke-dasharray:none"
         id="path2910" /><path
         d="m 3727.61,4886.05 -19.67,0"
         style="fill:none;stroke:#000000;stroke-width:3;stroke-linecap:butt;stroke-linejoin:miter;stroke-miterlimit:10;stroke-opacity:1;stroke-dasharray:none"
         id="path2912" /><path
         d="m 3247.94,4886.05 -15.98,0"
         style="fill:none;stroke:#000000;stroke-width:3;stroke-linecap:butt;stroke-linejoin:miter;stroke-miterlimit:10;stroke-opacity:1;stroke-dasharray:none"
         id="path2914" /><path
         d="m 3237.74,4888.54 c 0,3.18 -2.59,5.77 -5.78,5.77 -3.19,0 -5.78,-2.59 -5.78,-5.77 0,-3.19 2.59,-5.78 5.78,-5.78 3.19,0 5.78,2.59 5.78,5.78 l 0,0 z"
         style="fill:none;stroke:#000000;stroke-width:3;stroke-linecap:butt;stroke-linejoin:miter;stroke-miterlimit:10;stroke-opacity:1;stroke-dasharray:none"
         id="path2916" /><path
         d="m 3725.34,4888.54 c 0,-3.19 2.59,-5.78 5.78,-5.78 3.19,0 5.78,2.59 5.78,5.78 0,3.18 -2.59,5.77 -5.78,5.77 -3.19,0 -5.78,-2.59 -5.78,-5.77 l 0,0 z"
         style="fill:none;stroke:#000000;stroke-width:3;stroke-linecap:butt;stroke-linejoin:miter;stroke-miterlimit:10;stroke-opacity:1;stroke-dasharray:none"
         id="path2918" /><path
         d="m 3230.8,4468.45 0,0"
         style="fill:none;stroke:#000000;stroke-width:3;stroke-linecap:butt;stroke-linejoin:miter;stroke-miterlimit:10;stroke-opacity:1;stroke-dasharray:none"
         id="path2920" /><path
         d="m 3727.61,4468.45 0,0"
         style="fill:none;stroke:#000000;stroke-width:3;stroke-linecap:butt;stroke-linejoin:miter;stroke-miterlimit:10;stroke-opacity:1;stroke-dasharray:none"
         id="path2922" /><path
         d="m 3727.61,4886.05 0,0"
         style="fill:none;stroke:#000000;stroke-width:3;stroke-linecap:butt;stroke-linejoin:miter;stroke-miterlimit:10;stroke-opacity:1;stroke-dasharray:none"
         id="path2924" /><path
         d="m 3806.8,4266.84 -655.19,0"
         style="fill:none;stroke:#000000;stroke-width:3;stroke-linecap:butt;stroke-linejoin:miter;stroke-miterlimit:10;stroke-opacity:1;stroke-dasharray:50, 20;stroke-dashoffset:0"
         id="path2926" /><path
         d="m 2226.41,4410.84 108,-64.79"
         style="fill:none;stroke:#000000;stroke-width:3;stroke-linecap:butt;stroke-linejoin:miter;stroke-miterlimit:10;stroke-opacity:1;stroke-dasharray:none"
         id="path2928" /><path
         d="m 2143.61,4266.84 108,-64.79"
         style="fill:none;stroke:#000000;stroke-width:3;stroke-linecap:butt;stroke-linejoin:miter;stroke-miterlimit:10;stroke-opacity:1;stroke-dasharray:none"
         id="path2930" /><path
         d="m 2334.41,4349.64 -82.8,-144 -46.81,-82.8 -93.59,0"
         style="fill:none;stroke:#000000;stroke-width:3;stroke-linecap:butt;stroke-linejoin:miter;stroke-miterlimit:10;stroke-opacity:1;stroke-dasharray:none"
         id="path2932" /><path
         d="m 2331.81,4344.65 c 2.76,-1.59 6.3,-0.64 7.89,2.12 1.6,2.76 0.65,6.29 -2.11,7.89 -2.76,1.59 -6.3,0.64 -7.89,-2.12 -1.6,-2.76 -0.65,-6.29 2.11,-7.89 l 0,0 z"
         style="fill:none;stroke:#000000;stroke-width:3;stroke-linecap:butt;stroke-linejoin:miter;stroke-miterlimit:10;stroke-opacity:1;stroke-dasharray:none"
         id="path2934" /><path
         d="m 2254.81,4211.36 c -2.76,1.59 -6.3,0.65 -7.9,-2.11 -1.59,-2.77 -0.64,-6.3 2.12,-7.89 2.76,-1.59 6.3,-0.65 7.89,2.11 1.6,2.76 0.65,6.3 -2.11,7.89 l 0,0 z"
         style="fill:none;stroke:#000000;stroke-width:3;stroke-linecap:butt;stroke-linejoin:miter;stroke-miterlimit:10;stroke-opacity:1;stroke-dasharray:none"
         id="path2936" /><path
         d="m 2226.41,4410.84 0,0"
         style="fill:none;stroke:#000000;stroke-width:3;stroke-linecap:butt;stroke-linejoin:miter;stroke-miterlimit:10;stroke-opacity:1;stroke-dasharray:none"
         id="path2938" /><path
         d="m 2143.61,4266.84 0,0"
         style="fill:none;stroke:#000000;stroke-width:3;stroke-linecap:butt;stroke-linejoin:miter;stroke-miterlimit:10;stroke-opacity:1;stroke-dasharray:none"
         id="path2940" /><path
         d="m 2251.61,4205.64 0,0"
         style="fill:none;stroke:#000000;stroke-width:3;stroke-linecap:butt;stroke-linejoin:miter;stroke-miterlimit:10;stroke-opacity:1;stroke-dasharray:none"
         id="path2942" /><path
         d="m 2075.21,4378.45 25.2,28.8"
         style="fill:none;stroke:#000000;stroke-width:3;stroke-linecap:butt;stroke-linejoin:miter;stroke-miterlimit:10;stroke-opacity:1;stroke-dasharray:none"
         id="path2944" /><path
         d="m 2096.8,4367.64 28.81,28.81"
         style="fill:none;stroke:#000000;stroke-width:3;stroke-linecap:butt;stroke-linejoin:miter;stroke-miterlimit:10;stroke-opacity:1;stroke-dasharray:none"
         id="path2946" /><path
         d="m 2111.21,4349.64 43.2,43.2"
         style="fill:none;stroke:#000000;stroke-width:3;stroke-linecap:butt;stroke-linejoin:miter;stroke-miterlimit:10;stroke-opacity:1;stroke-dasharray:none"
         id="path2948" /><path
         d="m 2125.61,4331.64 72,72"
         style="fill:none;stroke:#000000;stroke-width:3;stroke-linecap:butt;stroke-linejoin:miter;stroke-miterlimit:10;stroke-opacity:1;stroke-dasharray:none"
         id="path2950" /><path
         d="m 2132.8,4306.45 97.21,97.19"
         style="fill:none;stroke:#000000;stroke-width:3;stroke-linecap:butt;stroke-linejoin:miter;stroke-miterlimit:10;stroke-opacity:1;stroke-dasharray:none"
         id="path2952" /><path
         d="m 2132.8,4277.64 43.21,39.61"
         style="fill:none;stroke:#000000;stroke-width:3;stroke-linecap:butt;stroke-linejoin:miter;stroke-miterlimit:10;stroke-opacity:1;stroke-dasharray:none"
         id="path2954" /><path
         d="m 2168.8,4274.05 -36,36"
         style="fill:none;stroke:#000000;stroke-width:3;stroke-linecap:butt;stroke-linejoin:miter;stroke-miterlimit:10;stroke-opacity:1;stroke-dasharray:none"
         id="path2956" /><path
         d="m 2172.41,4302.84 -100.8,97.21"
         style="fill:none;stroke:#000000;stroke-width:3;stroke-linecap:butt;stroke-linejoin:miter;stroke-miterlimit:10;stroke-opacity:1;stroke-dasharray:none"
         id="path2958" /><path
         d="m 2179.61,4328.05 -86.4,82.79"
         style="fill:none;stroke:#000000;stroke-width:3;stroke-linecap:butt;stroke-linejoin:miter;stroke-miterlimit:10;stroke-opacity:1;stroke-dasharray:none"
         id="path2960" /><path
         d="m 2190.41,4346.05 -46.8,46.79"
         style="fill:none;stroke:#000000;stroke-width:3;stroke-linecap:butt;stroke-linejoin:miter;stroke-miterlimit:10;stroke-opacity:1;stroke-dasharray:none"
         id="path2962" /><path
         d="m 2204.8,4364.05 -28.79,32.4"
         style="fill:none;stroke:#000000;stroke-width:3;stroke-linecap:butt;stroke-linejoin:miter;stroke-miterlimit:10;stroke-opacity:1;stroke-dasharray:none"
         id="path2964" /><path
         d="m 2226.41,4378.45 -28.8,25.19"
         style="fill:none;stroke:#000000;stroke-width:3;stroke-linecap:butt;stroke-linejoin:miter;stroke-miterlimit:10;stroke-opacity:1;stroke-dasharray:none"
         id="path2966" /><path
         d="m 2230.01,4407.25 0,0"
         style="fill:none;stroke:#000000;stroke-width:3;stroke-linecap:butt;stroke-linejoin:miter;stroke-miterlimit:10;stroke-opacity:1;stroke-dasharray:none"
         id="path2968" /><path
         d="m 3413.22,3230.3 -3.59,0"
         style="fill:none;stroke:#000000;stroke-width:3;stroke-linecap:butt;stroke-linejoin:miter;stroke-miterlimit:10;stroke-opacity:1;stroke-dasharray:none"
         id="path2970" /><path
         d="m 3413.22,3309.5 -3.59,0"
         style="fill:none;stroke:#000000;stroke-width:3;stroke-linecap:butt;stroke-linejoin:miter;stroke-miterlimit:10;stroke-opacity:1;stroke-dasharray:none"
         id="path2972" /><path
         d="m 3413.22,3230.3 0,306 93.6,0"
         style="fill:none;stroke:#000000;stroke-width:3;stroke-linecap:butt;stroke-linejoin:miter;stroke-miterlimit:10;stroke-opacity:1;stroke-dasharray:none"
         id="path2974" /><path
         d="m 3414.91,3238.7 c -3.19,0 -5.78,-2.59 -5.78,-5.77 0,-3.19 2.59,-5.78 5.78,-5.78 3.18,0 5.77,2.59 5.77,5.78 0,3.18 -2.59,5.77 -5.77,5.77 l 0,0 z"
         style="fill:none;stroke:#000000;stroke-width:3;stroke-linecap:butt;stroke-linejoin:miter;stroke-miterlimit:10;stroke-opacity:1;stroke-dasharray:none"
         id="path2976" /><path
         d="m 3414.91,3304.09 c 3.18,0 5.77,2.59 5.77,5.77 0,3.19 -2.59,5.78 -5.77,5.78 -3.19,0 -5.78,-2.59 -5.78,-5.78 0,-3.18 2.59,-5.77 5.78,-5.77 l 0,0 z"
         style="fill:none;stroke:#000000;stroke-width:3;stroke-linecap:butt;stroke-linejoin:miter;stroke-miterlimit:10;stroke-opacity:1;stroke-dasharray:none"
         id="path2978" /><path
         d="m 3413.22,3230.3 0,0"
         style="fill:none;stroke:#000000;stroke-width:3;stroke-linecap:butt;stroke-linejoin:miter;stroke-miterlimit:10;stroke-opacity:1;stroke-dasharray:none"
         id="path2980" /><path
         d="m 3413.22,3309.5 0,0 z"
         style="fill:none;stroke:#000000;stroke-width:3;stroke-linecap:butt;stroke-linejoin:miter;stroke-miterlimit:10;stroke-opacity:1;stroke-dasharray:none"
         id="path2982" /><path
         d="M 3479.21,4266.84 3788.8,3957.25"
         style="fill:none;stroke:#000000;stroke-width:3;stroke-linecap:butt;stroke-linejoin:miter;stroke-miterlimit:10;stroke-opacity:1;stroke-dasharray:none"
         id="path2984" /><path
         d="m 3572.8,4356.84 306,-309.59"
         style="fill:none;stroke:#000000;stroke-width:3;stroke-linecap:butt;stroke-linejoin:miter;stroke-miterlimit:10;stroke-opacity:1;stroke-dasharray:none"
         id="path2986" /><path
         d="m 3785.21,3960.84 93.59,90 64.81,64.8 90,0"
         style="fill:none;stroke:#000000;stroke-width:3;stroke-linecap:butt;stroke-linejoin:miter;stroke-miterlimit:10;stroke-opacity:1;stroke-dasharray:none"
         id="path2988" /><path
         d="m 3791.88,3965.3 c -2.26,2.25 -5.92,2.25 -8.17,0 -2.26,-2.26 -2.26,-5.92 0,-8.17 2.25,-2.25 5.91,-2.25 8.17,0 2.25,2.25 2.25,5.91 0,8.17 l 0,0 z"
         style="fill:none;stroke:#000000;stroke-width:3;stroke-linecap:butt;stroke-linejoin:miter;stroke-miterlimit:10;stroke-opacity:1;stroke-dasharray:none"
         id="path2990" /><path
         d="m 3875.21,4048.59 c 2.26,-2.26 5.92,-2.26 8.17,0 2.26,2.25 2.26,5.91 0,8.16 -2.25,2.25 -5.91,2.25 -8.17,0 -2.25,-2.25 -2.25,-5.91 0,-8.16 l 0,0 z"
         style="fill:none;stroke:#000000;stroke-width:3;stroke-linecap:butt;stroke-linejoin:miter;stroke-miterlimit:10;stroke-opacity:1;stroke-dasharray:none"
         id="path2992" /><path
         d="m 3479.21,4266.84 0,0"
         style="fill:none;stroke:#000000;stroke-width:3;stroke-linecap:butt;stroke-linejoin:miter;stroke-miterlimit:10;stroke-opacity:1;stroke-dasharray:none"
         id="path2994" /><path
         d="m 3569.21,4356.84 0,0"
         style="fill:none;stroke:#000000;stroke-width:3;stroke-linecap:butt;stroke-linejoin:miter;stroke-miterlimit:10;stroke-opacity:1;stroke-dasharray:none"
         id="path2996" /><path
         d="m 3878.8,4050.84 0,0"
         style="fill:none;stroke:#000000;stroke-width:3;stroke-linecap:butt;stroke-linejoin:miter;stroke-miterlimit:10;stroke-opacity:1;stroke-dasharray:none"
         id="path2998" /><path
         d="m 3479.21,4594.45 0,-658.81"
         style="fill:none;stroke:#000000;stroke-width:3;stroke-linecap:butt;stroke-linejoin:miter;stroke-miterlimit:10;stroke-opacity:1;stroke-dasharray:50, 20;stroke-dashoffset:0"
         id="path3000" /><path
         d="m 3730.29,4267.14 c 0,137.69 -111.81,249.44 -249.58,249.44 -137.77,0 -249.58,-111.75 -249.58,-249.44 0,-137.68 111.81,-249.43 249.58,-249.43 137.77,0 249.58,111.75 249.58,249.43"
         style="fill:none;stroke:#000000;stroke-width:8;stroke-linecap:butt;stroke-linejoin:miter;stroke-miterlimit:10;stroke-opacity:1;stroke-dasharray:none"
         id="path3002" /><path
         d="m 2103.17,4408.61 c -3.52,3.51 -8.28,5.48 -13.25,5.48 -10.35,0 -18.74,-8.39 -18.74,-18.72 0,-8.48 5.7,-15.9 13.89,-18.09"
         style="fill:none;stroke:#000000;stroke-width:8;stroke-linecap:butt;stroke-linejoin:miter;stroke-miterlimit:10;stroke-opacity:1;stroke-dasharray:none"
         id="path3004" /><path
         d="m 2222.85,4377.28 c 8.19,2.19 13.89,9.61 13.89,18.09 0,10.33 -8.4,18.72 -18.74,18.72 -4.97,0 -9.73,-1.97 -13.25,-5.48"
         style="fill:none;stroke:#000000;stroke-width:8;stroke-linecap:butt;stroke-linejoin:miter;stroke-miterlimit:10;stroke-opacity:1;stroke-dasharray:none"
         id="path3006" /><path
         d="m 2103.17,4408.61 c 15.52,-8.68 33.01,-13.24 50.79,-13.24 17.78,0 35.27,4.56 50.79,13.24"
         style="fill:none;stroke:#000000;stroke-width:8;stroke-linecap:butt;stroke-linejoin:miter;stroke-miterlimit:10;stroke-opacity:1;stroke-dasharray:none"
         id="path3008" /><path
         d="m 2222.85,4377.28 c -31.08,-18.49 -50.31,-51.78 -50.79,-87.92"
         style="fill:none;stroke:#000000;stroke-width:8;stroke-linecap:butt;stroke-linejoin:miter;stroke-miterlimit:10;stroke-opacity:1;stroke-dasharray:none"
         id="path3010" /><path
         d="m 2135.86,4289.36 c -0.48,36.14 -19.72,69.43 -50.79,87.92"
         style="fill:none;stroke:#000000;stroke-width:8;stroke-linecap:butt;stroke-linejoin:miter;stroke-miterlimit:10;stroke-opacity:1;stroke-dasharray:none"
         id="path3012" /><path
         d="m 2154.41,4263.25 18,18"
         style="fill:none;stroke:#000000;stroke-width:8;stroke-linecap:butt;stroke-linejoin:miter;stroke-miterlimit:10;stroke-opacity:1;stroke-dasharray:none"
         id="path3014" /><path
         d="m 3540.41,4328.05 61.1992,0 0,57.5977 -61.1992,0 0,-57.5977 z"
         style="fill:none;stroke:#000000;stroke-width:8;stroke-linecap:butt;stroke-linejoin:miter;stroke-miterlimit:10;stroke-opacity:1;stroke-dasharray:none"
         id="path3016" /><path
         d="m 2423.17,3223.37 -21.54,-3.93"
         style="fill:none;stroke:#000000;stroke-width:8;stroke-linecap:butt;stroke-linejoin:miter;stroke-miterlimit:10;stroke-opacity:1;stroke-dasharray:none"
         id="path3018" /><path
         d="m 2307.76,3148.82 c 1.19,-0.02 2.38,-0.03 3.57,-0.01 52.14,0.79 93.81,43.72 93.03,95.83 -0.55,36.12 -21.67,68.76 -54.4,84.07"
         style="fill:none;stroke:#000000;stroke-width:8;stroke-linecap:butt;stroke-linejoin:miter;stroke-miterlimit:10;stroke-opacity:1;stroke-dasharray:none"
         id="path3020" /><path
         d="m 2268.05,3242.63 3.72,-7.15"
         style="fill:none;stroke:#000000;stroke-width:3;stroke-linecap:butt;stroke-linejoin:miter;stroke-miterlimit:10;stroke-opacity:1;stroke-dasharray:none"
         id="path3022" /><path
         d="m 2070.3,3225.24 0.21,-14.4"
         style="fill:none;stroke:#000000;stroke-width:3;stroke-linecap:butt;stroke-linejoin:miter;stroke-miterlimit:10;stroke-opacity:1;stroke-dasharray:none"
         id="path3024" /><path
         d="m 4050.08,3255.12 7.26,-3.49"
         style="fill:none;stroke:#000000;stroke-width:3;stroke-linecap:butt;stroke-linejoin:miter;stroke-miterlimit:10;stroke-opacity:1;stroke-dasharray:none"
         id="path3026" /><path
         d="m 4046.65,3244.27 7.2,0.11"
         style="fill:none;stroke:#000000;stroke-width:3;stroke-linecap:butt;stroke-linejoin:miter;stroke-miterlimit:10;stroke-opacity:1;stroke-dasharray:none"
         id="path3028" /><path
         d="m 4057.34,3251.63 -3.49,-7.25"
         style="fill:none;stroke:#000000;stroke-width:3;stroke-linecap:butt;stroke-linejoin:miter;stroke-miterlimit:10;stroke-opacity:1;stroke-dasharray:none"
         id="path3030" /><path
         d="m 4050.08,3255.12 -3.43,-10.85"
         style="fill:none;stroke:#000000;stroke-width:3;stroke-linecap:butt;stroke-linejoin:miter;stroke-miterlimit:10;stroke-opacity:1;stroke-dasharray:none"
         id="path3032" /><path
         d="m 4002.93,3257.04 c -192.58,38.89 -388.68,57.6 -585.14,55.85"
         style="fill:none;stroke:#000000;stroke-width:8;stroke-linecap:butt;stroke-linejoin:miter;stroke-miterlimit:10;stroke-opacity:1;stroke-dasharray:none"
         id="path3034" /><path
         d="m 3417.78,3312.89 c -332.65,-12.7 -664.62,-39.28 -995.05,-79.7"
         style="fill:none;stroke:#000000;stroke-width:8;stroke-linecap:butt;stroke-linejoin:miter;stroke-miterlimit:10;stroke-opacity:1;stroke-dasharray:none"
         id="path3036" /><path
         d="m 3417.6,3325.23 c -332.18,-10.81 -664.08,-29.18 -995.42,-55.09"
         style="fill:none;stroke:#000000;stroke-width:8;stroke-linecap:butt;stroke-linejoin:miter;stroke-miterlimit:10;stroke-opacity:1;stroke-dasharray:none"
         id="path3038" /><path
         d="m 4005.07,3266.4 c -193.69,37.02 -390.28,56.71 -587.47,58.83"
         style="fill:none;stroke:#000000;stroke-width:8;stroke-linecap:butt;stroke-linejoin:miter;stroke-miterlimit:10;stroke-opacity:1;stroke-dasharray:none"
         id="path3040" /><path
         d="M 2271.66,3242.68 2070.3,3225.24"
         style="fill:none;stroke:#000000;stroke-width:8;stroke-linecap:butt;stroke-linejoin:miter;stroke-miterlimit:10;stroke-opacity:1;stroke-dasharray:none"
         id="path3042" /><path
         d="m 2275.47,3228.34 -204.96,-17.5"
         style="fill:none;stroke:#000000;stroke-width:8;stroke-linecap:butt;stroke-linejoin:miter;stroke-miterlimit:10;stroke-opacity:1;stroke-dasharray:none"
         id="path3044" /><path
         d="m 2138.58,3233.47 11.02,-14.23"
         style="fill:none;stroke:#000000;stroke-width:8;stroke-linecap:butt;stroke-linejoin:miter;stroke-miterlimit:10;stroke-opacity:1;stroke-dasharray:none"
         id="path3046" /><path
         d="m 2034.3,3224.7 7.09,7.31 28.91,-6.77"
         style="fill:none;stroke:#000000;stroke-width:8;stroke-linecap:butt;stroke-linejoin:miter;stroke-miterlimit:10;stroke-opacity:1;stroke-dasharray:none"
         id="path3048" /><path
         d="m 2034.57,3206.7 10.86,-3.44 25.08,7.58"
         style="fill:none;stroke:#000000;stroke-width:8;stroke-linecap:butt;stroke-linejoin:miter;stroke-miterlimit:10;stroke-opacity:1;stroke-dasharray:none"
         id="path3050" /><path
         d="m 2034.57,3206.7 -0.27,18"
         style="fill:none;stroke:#000000;stroke-width:8;stroke-linecap:butt;stroke-linejoin:miter;stroke-miterlimit:10;stroke-opacity:1;stroke-dasharray:none"
         id="path3052" /><path
         d="m 2070.4,3218.04 3.66,-3.54"
         style="fill:none;stroke:#000000;stroke-width:8;stroke-linecap:butt;stroke-linejoin:miter;stroke-miterlimit:10;stroke-opacity:1;stroke-dasharray:none"
         id="path3054" /><path
         d="m 2102.64,3229.33 11.01,-14.24"
         style="fill:none;stroke:#000000;stroke-width:8;stroke-linecap:butt;stroke-linejoin:miter;stroke-miterlimit:10;stroke-opacity:1;stroke-dasharray:none"
         id="path3056" /><path
         d="m 2084.64,3229.06 7.41,-14.29"
         style="fill:none;stroke:#000000;stroke-width:8;stroke-linecap:butt;stroke-linejoin:miter;stroke-miterlimit:10;stroke-opacity:1;stroke-dasharray:none"
         id="path3058" /><path
         d="m 2120.64,3229.6 10.96,-10.64"
         style="fill:none;stroke:#000000;stroke-width:8;stroke-linecap:butt;stroke-linejoin:miter;stroke-miterlimit:10;stroke-opacity:1;stroke-dasharray:none"
         id="path3060" /><path
         d="m 2178.18,3234.07 7.36,-10.69"
         style="fill:none;stroke:#000000;stroke-width:8;stroke-linecap:butt;stroke-linejoin:miter;stroke-miterlimit:10;stroke-opacity:1;stroke-dasharray:none"
         id="path3062" /><path
         d="m 2156.58,3233.74 11.01,-14.23"
         style="fill:none;stroke:#000000;stroke-width:8;stroke-linecap:butt;stroke-linejoin:miter;stroke-miterlimit:10;stroke-opacity:1;stroke-dasharray:none"
         id="path3064" /><path
         d="m 2196.12,3237.94 7.42,-14.29"
         style="fill:none;stroke:#000000;stroke-width:8;stroke-linecap:butt;stroke-linejoin:miter;stroke-miterlimit:10;stroke-opacity:1;stroke-dasharray:none"
         id="path3066" /><path
         d="m 2232.11,3238.48 7.37,-10.68"
         style="fill:none;stroke:#000000;stroke-width:8;stroke-linecap:butt;stroke-linejoin:miter;stroke-miterlimit:10;stroke-opacity:1;stroke-dasharray:none"
         id="path3068" /><path
         d="m 2214.12,3238.21 7.42,-14.28"
         style="fill:none;stroke:#000000;stroke-width:8;stroke-linecap:butt;stroke-linejoin:miter;stroke-miterlimit:10;stroke-opacity:1;stroke-dasharray:none"
         id="path3070" /><path
         d="m 2250.06,3242.36 7.42,-14.29"
         style="fill:none;stroke:#000000;stroke-width:8;stroke-linecap:butt;stroke-linejoin:miter;stroke-miterlimit:10;stroke-opacity:1;stroke-dasharray:none"
         id="path3072" /><path
         d="m 2349.6,3326.67 -44.08,-180.69"
         style="fill:none;stroke:#000000;stroke-width:8;stroke-linecap:butt;stroke-linejoin:miter;stroke-miterlimit:10;stroke-opacity:1;stroke-dasharray:none"
         id="path3074" /><path
         d="m 2271.66,3242.68 60.97,15.32"
         style="fill:none;stroke:#000000;stroke-width:8;stroke-linecap:butt;stroke-linejoin:miter;stroke-miterlimit:10;stroke-opacity:1;stroke-dasharray:none"
         id="path3076" /><path
         d="m 2275.47,3228.34 46.85,-2.89"
         style="fill:none;stroke:#000000;stroke-width:8;stroke-linecap:butt;stroke-linejoin:miter;stroke-miterlimit:10;stroke-opacity:1;stroke-dasharray:none"
         id="path3078" /><path
         d="m 2271.66,3242.68 3.81,-14.34"
         style="fill:none;stroke:#000000;stroke-width:8;stroke-linecap:butt;stroke-linejoin:miter;stroke-miterlimit:10;stroke-opacity:1;stroke-dasharray:none"
         id="path3080" /><path
         d="m 2418.75,3277.3 4.42,-53.93"
         style="fill:none;stroke:#000000;stroke-width:8;stroke-linecap:butt;stroke-linejoin:miter;stroke-miterlimit:10;stroke-opacity:1;stroke-dasharray:none"
         id="path3082" /><path
         d="m 2400.75,3277.04 4.47,-57.54"
         style="fill:none;stroke:#000000;stroke-width:8;stroke-linecap:butt;stroke-linejoin:miter;stroke-miterlimit:10;stroke-opacity:1;stroke-dasharray:none"
         id="path3084" /><path
         d="m 2418.75,3277.3 -21.6,-0.32"
         style="fill:none;stroke:#000000;stroke-width:8;stroke-linecap:butt;stroke-linejoin:miter;stroke-miterlimit:10;stroke-opacity:1;stroke-dasharray:none"
         id="path3086" /><path
         d="m 3999.69,3254.36 3.65,-3.54 43.36,-10.15 -0.05,3.6"
         style="fill:none;stroke:#000000;stroke-width:8;stroke-linecap:butt;stroke-linejoin:miter;stroke-miterlimit:10;stroke-opacity:1;stroke-dasharray:none"
         id="path3088" /><path
         d="m 4050.08,3255.12 -0.05,3.6 -39.76,10.2 -7.14,-3.71"
         style="fill:none;stroke:#000000;stroke-width:8;stroke-linecap:butt;stroke-linejoin:miter;stroke-miterlimit:10;stroke-opacity:1;stroke-dasharray:none"
         id="path3090" /><path
         d="m 4053.85,3244.38 0.1,-7.2 10.8,0.16 3.33,18.05 -10.8,-0.16 0.06,-3.6"
         style="fill:none;stroke:#000000;stroke-width:8;stroke-linecap:butt;stroke-linejoin:miter;stroke-miterlimit:10;stroke-opacity:1;stroke-dasharray:none"
         id="path3092" /><path
         d="m 2006.03,4366.67 19.82,50.42 5.39,0 19.33,-50.42 -4.9,0 -5.81,15.83 -22.98,0 -5.95,-15.83 -4.9,0 z m 12.47,19.89 19.75,0 -9.88,26.47 -9.87,-26.47"
         style="fill:#000000;fill-opacity:1;fill-rule:nonzero;stroke:none"
         id="path3094" /><path
         d="m 2607.32,4366.67 0,50.42 18.21,0 c 11.83,0 16.52,-5.11 16.52,-12.67 0,-7.01 -3.99,-10.16 -8.05,-10.86 l 0,-0.14 c 6.93,-1.05 10.37,-5.88 10.37,-12.53 0,-10.51 -6.87,-14.22 -16.46,-14.22 l -20.59,0 z m 4.76,4.06 12.12,0 c 10.5,0 15.41,1.4 15.41,10.16 0,8.33 -5.89,9.87 -14.85,9.87 l -12.68,0 0,-20.03 z m 0,24.09 12.05,0 c 9.94,0 13.16,3.5 13.16,9.6 0,6.3 -3.78,8.61 -14.22,8.61 l -10.99,0 0,-18.21"
         style="fill:#000000;fill-opacity:1;fill-rule:nonzero;stroke:none"
         id="path3096" /><path
         d="m 2106.8,4734.38 c -1.96,8.62 -7.28,11.91 -15.9,11.91 -12.19,0 -17.44,-10.44 -17.44,-22.34 0,-11.28 4.13,-22.63 17.86,-22.63 8.68,0 14.08,5.89 15.97,13.87 l 4.97,0 c -2.24,-9.73 -8.33,-17.93 -21.85,-17.93 -15.55,0 -21.71,12.26 -21.71,26.54 0,19.27 10.08,26.55 23.46,26.55 10.37,0 17.93,-5.53 19.54,-15.97 l -4.9,0"
         style="fill:#000000;fill-opacity:1;fill-rule:nonzero;stroke:none"
         id="path3098" /><path
         d="m 2126.23,4721.49 0,-22.9 -4.76,0 0,50.43 19.75,0 c 11.07,0 17.16,-3.92 17.16,-13.24 0,-6.37 -2.38,-9.73 -8.19,-12.33 5.95,-2.03 6.3,-8.33 6.44,-13.65 0.21,-7.64 0.84,-9.74 2.1,-10.72 l 0,-0.49 -5.25,0 c -1.96,3.43 -1.47,12.89 -2.24,16.74 -1.12,5.46 -5.25,6.16 -10.02,6.16 l -14.99,0 z m 14.86,4.06 c 7.07,0 12.53,2.95 12.53,10.02 0,7.57 -5.88,9.39 -12.26,9.39 l -15.13,0 0,-19.41 14.86,0"
         style="fill:#000000;fill-opacity:1;fill-rule:nonzero;stroke:none"
         id="path3100" /><path
         d="m 2189.52,4750.35 c 15.76,0 23.75,-11.84 23.75,-26.62 0,-14.49 -7.99,-26.47 -23.54,-26.47 -15.54,0 -23.46,11.98 -23.46,26.47 -0.07,14.71 8.19,26.62 23.25,26.62 z m 18.98,-26.62 c 0,14.01 -7.21,22.56 -18.84,22.56 -12.95,0 -18.62,-10.86 -18.62,-22.56 0,-11.9 5.6,-22.41 18.76,-22.41 13.1,0 18.7,10.65 18.7,22.41"
         style="fill:#000000;fill-opacity:1;fill-rule:nonzero;stroke:none"
         id="path3102" /><path
         d="m 2224.64,4713.65 c 0.77,-9.04 6.8,-12.33 14.5,-12.33 9.04,0 12.82,4.91 12.82,10.44 0,15.62 -30.75,5.25 -30.75,25.07 0,7.01 5.81,13.52 17.09,13.52 11.34,0 17.02,-6.87 16.95,-15.06 l -4.55,0 c 0,7.71 -5.96,11 -12.4,11 -9.67,0 -13.17,-5.95 -12.33,-11.14 2.17,-13.02 30.75,-3.64 30.75,-23.18 0,-9.25 -6.79,-14.71 -18.42,-14.71 -10.51,0 -18.28,5.46 -18.28,16.39 l 4.62,0"
         style="fill:#000000;fill-opacity:1;fill-rule:nonzero;stroke:none"
         id="path3104" /><path
         d="m 2267.4,4713.65 c 0.77,-9.04 6.8,-12.33 14.5,-12.33 9.03,0 12.81,4.91 12.81,10.44 0,15.62 -30.74,5.25 -30.74,25.07 0,7.01 5.81,13.52 17.09,13.52 11.34,0 17.02,-6.87 16.95,-15.06 l -4.55,0 c 0,7.71 -5.96,11 -12.4,11 -9.67,0 -13.17,-5.95 -12.33,-11.14 2.17,-13.02 30.75,-3.64 30.75,-23.18 0,-9.25 -6.8,-14.71 -18.42,-14.71 -10.51,0 -18.28,5.46 -18.28,16.39 l 4.62,0"
         style="fill:#000000;fill-opacity:1;fill-rule:nonzero;stroke:none"
         id="path3106" /><path
         d="m 2305.33,4714.63 17.7188,0 0,4.3437 -17.7188,0 0,-4.3437 z"
         style="fill:#000000;fill-opacity:1;fill-rule:nonzero;stroke:none"
         id="path3108" /><path
         d="m 2333.45,4713.65 c 0.77,-9.04 6.8,-12.33 14.5,-12.33 9.03,0 12.82,4.91 12.82,10.44 0,15.62 -30.75,5.25 -30.75,25.07 0,7.01 5.82,13.52 17.09,13.52 11.35,0 17.02,-6.87 16.95,-15.06 l -4.55,0 c 0,7.71 -5.96,11 -12.4,11 -9.66,0 -13.17,-5.95 -12.32,-11.14 2.17,-13.02 30.74,-3.64 30.74,-23.18 0,-9.25 -6.79,-14.71 -18.42,-14.71 -10.5,0 -18.28,5.46 -18.28,16.39 l 4.62,0"
         style="fill:#000000;fill-opacity:1;fill-rule:nonzero;stroke:none"
         id="path3110" /><path
         d="m 2374.25,4698.59 0,50.43 33.55,0 0,-4.06 -28.79,0 0,-18.21 25.99,0 0,-4.07 -25.99,0 0,-20.03 29.49,0 0,-4.06 -34.25,0"
         style="fill:#000000;fill-opacity:1;fill-rule:nonzero;stroke:none"
         id="path3112" /><path
         d="m 2452.8,4734.38 c -1.96,8.62 -7.28,11.91 -15.9,11.91 -12.19,0 -17.44,-10.44 -17.44,-22.34 0,-11.28 4.13,-22.63 17.86,-22.63 8.68,0 14.08,5.89 15.97,13.87 l 4.97,0 c -2.24,-9.73 -8.33,-17.93 -21.85,-17.93 -15.55,0 -21.71,12.26 -21.71,26.54 0,19.27 10.09,26.55 23.46,26.55 10.37,0 17.93,-5.53 19.54,-15.97 l -4.9,0"
         style="fill:#000000;fill-opacity:1;fill-rule:nonzero;stroke:none"
         id="path3114" /><path
         d="m 2462.99,4749.02 36.7,0 0,-4.06 -15.97,0 0,-46.37 -4.76,0 0,46.37 -15.97,0 0,4.06"
         style="fill:#000000;fill-opacity:1;fill-rule:nonzero;stroke:none"
         id="path3116" /><path
         d="m 2508.14,4698.59 4.7617,0 0,50.4297 -4.7617,0 0,-50.4297 z"
         style="fill:#000000;fill-opacity:1;fill-rule:nonzero;stroke:none"
         id="path3118" /><path
         d="m 2547.2,4750.35 c 15.76,0 23.74,-11.84 23.74,-26.62 0,-14.49 -7.98,-26.47 -23.53,-26.47 -15.55,0 -23.46,11.98 -23.46,26.47 -0.07,14.71 8.19,26.62 23.25,26.62 z m 18.98,-26.62 c 0,14.01 -7.22,22.56 -18.84,22.56 -12.96,0 -18.63,-10.86 -18.63,-22.56 0,-11.9 5.6,-22.41 18.77,-22.41 13.09,0 18.7,10.65 18.7,22.41"
         style="fill:#000000;fill-opacity:1;fill-rule:nonzero;stroke:none"
         id="path3120" /><path
         d="m 2585.12,4742.57 -0.14,0 0,-43.98 -4.77,0 0,50.43 5.4,0 29.13,-44.06 0.14,0 0,44.06 4.76,0 0,-50.43 -5.53,0 -28.99,43.98"
         style="fill:#000000;fill-opacity:1;fill-rule:nonzero;stroke:none"
         id="path3122" /><path
         d="m 2212.77,4665.35 c 15.75,0 23.74,-11.84 23.74,-26.62 0,-14.49 -7.99,-26.47 -23.53,-26.47 -15.55,0 -23.46,11.98 -23.46,26.47 -0.07,14.71 8.19,26.62 23.25,26.62 z m 18.98,-26.62 c 0,14.01 -7.22,22.56 -18.84,22.56 -12.96,0 -18.63,-10.86 -18.63,-22.56 0,-11.9 5.6,-22.41 18.77,-22.41 13.09,0 18.7,10.65 18.7,22.41"
         style="fill:#000000;fill-opacity:1;fill-rule:nonzero;stroke:none"
         id="path3124" /><path
         d="m 2245.43,4613.59 0,50.43 32.5,0 0,-4.06 -27.73,0 0,-18.21 25.21,0 0,-4.07 -25.21,0 0,-24.09 -4.77,0"
         style="fill:#000000;fill-opacity:1;fill-rule:nonzero;stroke:none"
         id="path3126" /><path
         d="m 2304.29,4613.59 0,50.43 18.21,0 c 11.83,0 16.52,-5.11 16.52,-12.68 0,-7 -3.99,-10.15 -8.05,-10.86 l 0,-0.14 c 6.93,-1.04 10.37,-5.88 10.37,-12.53 0,-10.51 -6.87,-14.22 -16.46,-14.22 l -20.59,0 z m 4.76,4.06 12.11,0 c 10.51,0 15.41,1.4 15.41,10.16 0,8.33 -5.88,9.87 -14.84,9.87 l -12.68,0 0,-20.03 z m 0,24.1 12.04,0 c 9.95,0 13.17,3.5 13.17,9.59 0,6.3 -3.78,8.62 -14.22,8.62 l -10.99,0 0,-18.21"
         style="fill:#000000;fill-opacity:1;fill-rule:nonzero;stroke:none"
         id="path3128" /><path
         d="m 2350.98,4613.59 0,50.43 4.76,0 0,-46.37 27.03,0 0,-4.06 -31.79,0"
         style="fill:#000000;fill-opacity:1;fill-rule:nonzero;stroke:none"
         id="path3130" /><path
         d="m 2385.27,4613.59 19.82,50.43 5.39,0 19.33,-50.43 -4.9,0 -5.82,15.83 -22.97,0 -5.95,-15.83 -4.9,0 z m 12.46,19.89 19.75,0 -9.87,26.48 -9.88,-26.48"
         style="fill:#000000;fill-opacity:1;fill-rule:nonzero;stroke:none"
         id="path3132" /><path
         d="m 2436.58,4613.59 0,50.43 17.23,0 c 5.6,0 10.85,-0.35 15.55,-3.79 6.65,-4.82 8.4,-14.63 8.4,-21.35 0,-6.66 -1.47,-14.08 -6.09,-19.13 -4.63,-5.18 -11.21,-6.16 -17.86,-6.16 l -17.23,0 z m 4.76,4.06 11.42,0 c 4.27,0 7.98,0.28 11.83,2.31 6.73,3.43 8.41,12.05 8.41,18.92 0,7.35 -1.61,15.41 -8.69,19.19 -3.01,1.61 -7.35,1.89 -11.55,1.89 l -11.42,0 0,-42.31"
         style="fill:#000000;fill-opacity:1;fill-rule:nonzero;stroke:none"
         id="path3134" /><path
         d="m 2487.11,4613.59 0,50.43 33.55,0 0,-4.06 -28.78,0 0,-18.21 25.98,0 0,-4.07 -25.98,0 0,-20.03 29.48,0 0,-4.06 -34.25,0"
         style="fill:#000000;fill-opacity:1;fill-rule:nonzero;stroke:none"
         id="path3136" /><path
         d="m 4103.92,4695.89 0,50.43 33.54,0 0,-4.06 -28.78,0 0,-18.21 25.98,0 0,-4.07 -25.98,0 0,-20.03 29.48,0 0,-4.06 -34.24,0"
         style="fill:#000000;fill-opacity:1;fill-rule:nonzero;stroke:none"
         id="path3138" /><path
         d="m 4182.46,4731.68 c -1.96,8.62 -7.28,11.91 -15.89,11.91 -12.19,0 -17.44,-10.44 -17.44,-22.34 0,-11.28 4.13,-22.62 17.86,-22.62 8.68,0 14.07,5.88 15.97,13.86 l 4.97,0 c -2.24,-9.73 -8.34,-17.93 -21.85,-17.93 -15.55,0 -21.72,12.26 -21.72,26.55 0,19.26 10.09,26.54 23.47,26.54 10.36,0 17.93,-5.53 19.54,-15.97 l -4.91,0"
         style="fill:#000000;fill-opacity:1;fill-rule:nonzero;stroke:none"
         id="path3140" /><path
         d="m 4233,4731.68 c -1.96,8.62 -7.29,11.91 -15.9,11.91 -12.19,0 -17.44,-10.44 -17.44,-22.34 0,-11.28 4.13,-22.62 17.86,-22.62 8.69,0 14.08,5.88 15.97,13.86 l 4.97,0 c -2.24,-9.73 -8.33,-17.93 -21.85,-17.93 -15.55,0 -21.71,12.26 -21.71,26.55 0,19.26 10.08,26.54 23.46,26.54 10.37,0 17.93,-5.53 19.54,-15.97 l -4.9,0"
         style="fill:#000000;fill-opacity:1;fill-rule:nonzero;stroke:none"
         id="path3142" /><path
         d="m 4247.75,4695.89 0,50.43 33.54,0 0,-4.06 -28.78,0 0,-18.21 25.98,0 0,-4.07 -25.98,0 0,-20.03 29.49,0 0,-4.06 -34.25,0"
         style="fill:#000000;fill-opacity:1;fill-rule:nonzero;stroke:none"
         id="path3144" /><path
         d="m 4295.27,4739.88 -0.14,0 0,-43.99 -4.77,0 0,50.43 5.4,0 29.13,-44.05 0.14,0 0,44.05 4.77,0 0,-50.43 -5.54,0 -28.99,43.99"
         style="fill:#000000;fill-opacity:1;fill-rule:nonzero;stroke:none"
         id="path3146" /><path
         d="m 4336.48,4746.32 36.71,0 0,-4.06 -15.97,0 0,-46.37 -4.76,0 0,46.37 -15.98,0 0,4.06"
         style="fill:#000000;fill-opacity:1;fill-rule:nonzero;stroke:none"
         id="path3148" /><path
         d="m 4384.64,4718.79 0,-22.9 -4.76,0 0,50.43 19.75,0 c 11.07,0 17.16,-3.92 17.16,-13.24 0,-6.37 -2.38,-9.73 -8.19,-12.33 5.95,-2.03 6.3,-8.33 6.44,-13.65 0.21,-7.64 0.84,-9.74 2.1,-10.72 l 0,-0.49 -5.25,0 c -1.96,3.43 -1.47,12.89 -2.24,16.74 -1.12,5.46 -5.26,6.16 -10.02,6.16 l -14.99,0 z m 14.85,4.07 c 7.08,0 12.54,2.94 12.54,10.01 0,7.57 -5.89,9.39 -12.26,9.39 l -15.13,0 0,-19.4 14.85,0"
         style="fill:#000000;fill-opacity:1;fill-rule:nonzero;stroke:none"
         id="path3150" /><path
         d="m 4428.32,4695.89 4.7617,0 0,50.4297 -4.7617,0 0,-50.4297 z"
         style="fill:#000000;fill-opacity:1;fill-rule:nonzero;stroke:none"
         id="path3152" /><path
         d="m 4481.88,4731.68 c -1.96,8.62 -7.29,11.91 -15.9,11.91 -12.19,0 -17.44,-10.44 -17.44,-22.34 0,-11.28 4.13,-22.62 17.86,-22.62 8.69,0 14.08,5.88 15.97,13.86 l 4.97,0 c -2.24,-9.73 -8.33,-17.93 -21.85,-17.93 -15.55,0 -21.71,12.26 -21.71,26.55 0,19.26 10.08,26.54 23.46,26.54 10.37,0 17.93,-5.53 19.54,-15.97 l -4.9,0"
         style="fill:#000000;fill-opacity:1;fill-rule:nonzero;stroke:none"
         id="path3154" /><path
         d="m 4498.3,4695.89 4.7617,0 0,50.4297 -4.7617,0 0,-50.4297 z"
         style="fill:#000000;fill-opacity:1;fill-rule:nonzero;stroke:none"
         id="path3156" /><path
         d="m 4511.52,4746.32 36.7,0 0,-4.06 -15.97,0 0,-46.37 -4.76,0 0,46.37 -15.97,0 0,4.06"
         style="fill:#000000;fill-opacity:1;fill-rule:nonzero;stroke:none"
         id="path3158" /><path
         d="m 4570.46,4722.02 15.2,24.3 5.54,0 -18.28,-28.44 0,-21.99 -4.77,0 0,21.65 -17.99,28.78 5.46,0 14.84,-24.3"
         style="fill:#000000;fill-opacity:1;fill-rule:nonzero;stroke:none"
         id="path3160" /><path
         d="m 4200.99,4662.65 c 15.76,0 23.74,-11.84 23.74,-26.61 0,-14.5 -7.98,-26.48 -23.53,-26.48 -15.54,0 -23.46,11.98 -23.46,26.48 -0.07,14.71 8.19,26.61 23.25,26.61 z m 18.98,-26.61 c 0,14 -7.21,22.55 -18.84,22.55 -12.95,0 -18.63,-10.86 -18.63,-22.55 0,-11.91 5.61,-22.41 18.77,-22.41 13.1,0 18.7,10.64 18.7,22.41"
         style="fill:#000000;fill-opacity:1;fill-rule:nonzero;stroke:none"
         id="path3162" /><path
         d="m 4233.66,4610.89 0,50.43 32.5,0 0,-4.06 -27.74,0 0,-18.21 25.22,0 0,-4.07 -25.22,0 0,-24.09 -4.76,0"
         style="fill:#000000;fill-opacity:1;fill-rule:nonzero;stroke:none"
         id="path3164" /><path
         d="m 4313.94,4632.88 0,4.07 21.58,0 0,-26.06 -4.07,0 0,8.62 c -3.5,-6.03 -8.89,-9.95 -18.84,-9.95 -12.74,0 -22.06,8.9 -22.06,26.83 0,14.77 7.43,26.26 23.33,26.26 10.57,0 18.91,-5.18 21.08,-15.97 l -4.91,0 c -1.68,7.57 -8.33,11.91 -15.83,11.91 -13.3,0 -18.91,-9.81 -18.91,-24.09 0,-11.14 6.73,-20.87 18.28,-20.87 5.46,0 11.91,2.3 15.2,8.82 1.61,3.15 2.1,6.65 2.17,10.43 l -17.02,0"
         style="fill:#000000;fill-opacity:1;fill-rule:nonzero;stroke:none"
         id="path3166" /><path
         d="m 4347.03,4661.32 4.76,0 0,-30.05 c 0,-12.47 4.48,-17.64 14.78,-17.64 10.86,0 14.78,5.74 14.78,17.64 l 0,30.05 4.76,0 0,-31.45 c 0,-13.1 -6.51,-20.31 -19.54,-20.31 -13.17,0 -19.54,7.42 -19.54,20.31 l 0,31.45"
         style="fill:#000000;fill-opacity:1;fill-rule:nonzero;stroke:none"
         id="path3168" /><path
         d="m 4392.87,4610.89 19.82,50.43 5.4,0 19.33,-50.43 -4.9,0 -5.82,15.83 -22.97,0 -5.96,-15.83 -4.9,0 z m 12.47,19.9 19.75,0 -9.88,26.47 -9.87,-26.47"
         style="fill:#000000;fill-opacity:1;fill-rule:nonzero;stroke:none"
         id="path3170" /><path
         d="m 4448.88,4633.79 0,-22.9 -4.77,0 0,50.43 19.76,0 c 11.06,0 17.15,-3.92 17.15,-13.24 0,-6.37 -2.38,-9.73 -8.19,-12.33 5.96,-2.03 6.3,-8.33 6.44,-13.65 0.21,-7.64 0.84,-9.74 2.11,-10.72 l 0,-0.49 -5.26,0 c -1.96,3.43 -1.47,12.89 -2.24,16.74 -1.12,5.46 -5.25,6.16 -10.01,6.16 l -14.99,0 z m 14.85,4.07 c 7.07,0 12.53,2.94 12.53,10.01 0,7.57 -5.88,9.39 -12.26,9.39 l -15.12,0 0,-19.4 14.85,0"
         style="fill:#000000;fill-opacity:1;fill-rule:nonzero;stroke:none"
         id="path3172" /><path
         d="m 4490.88,4610.89 0,50.43 17.22,0 c 5.61,0 10.86,-0.35 15.55,-3.78 6.65,-4.83 8.4,-14.64 8.4,-21.36 0,-6.66 -1.46,-14.08 -6.09,-19.13 -4.62,-5.17 -11.2,-6.16 -17.86,-6.16 l -17.22,0 z m 4.76,4.06 11.41,0 c 4.27,0 7.99,0.28 11.84,2.32 6.72,3.43 8.4,12.04 8.4,18.91 0,7.35 -1.61,15.41 -8.68,19.19 -3.01,1.61 -7.36,1.89 -11.56,1.89 l -11.41,0 0,-42.31"
         style="fill:#000000;fill-opacity:1;fill-rule:nonzero;stroke:none"
         id="path3174" /><path
         d="m 2229.37,3591.68 c -1.96,8.62 -7.28,11.91 -15.9,11.91 -12.18,0 -17.44,-10.44 -17.44,-22.34 0,-11.28 4.13,-22.62 17.86,-22.62 8.69,0 14.08,5.88 15.97,13.86 l 4.97,0 c -2.24,-9.73 -8.33,-17.93 -21.85,-17.93 -15.55,0 -21.71,12.26 -21.71,26.55 0,19.26 10.09,26.54 23.46,26.54 10.37,0 17.93,-5.53 19.54,-15.97 l -4.9,0"
         style="fill:#000000;fill-opacity:1;fill-rule:nonzero;stroke:none"
         id="path3176" /><path
         d="m 2244.19,3606.32 4.76,0 0,-30.05 c 0,-12.47 4.48,-17.64 14.78,-17.64 10.85,0 14.77,5.74 14.77,17.64 l 0,30.05 4.77,0 0,-31.45 c 0,-13.1 -6.52,-20.31 -19.54,-20.31 -13.17,0 -19.54,7.42 -19.54,20.31 l 0,31.45"
         style="fill:#000000;fill-opacity:1;fill-rule:nonzero;stroke:none"
         id="path3178" /><path
         d="m 2299.34,3578.79 0,-22.9 -4.76,0 0,50.43 19.75,0 c 11.07,0 17.16,-3.92 17.16,-13.24 0,-6.37 -2.38,-9.73 -8.19,-12.33 5.95,-2.03 6.3,-8.33 6.44,-13.65 0.21,-7.64 0.84,-9.74 2.1,-10.72 l 0,-0.49 -5.25,0 c -1.96,3.43 -1.47,12.89 -2.24,16.74 -1.12,5.46 -5.26,6.16 -10.02,6.16 l -14.99,0 z m 14.85,4.07 c 7.08,0 12.54,2.94 12.54,10.01 0,7.57 -5.89,9.39 -12.26,9.39 l -15.13,0 0,-19.4 14.85,0"
         style="fill:#000000;fill-opacity:1;fill-rule:nonzero;stroke:none"
         id="path3180" /><path
         d="m 2336.93,3606.32 4.97,0 15.2,-44.82 15.13,44.82 4.97,0 -17.51,-50.43 -5.25,0 -17.51,50.43"
         style="fill:#000000;fill-opacity:1;fill-rule:nonzero;stroke:none"
         id="path3182" /><path
         d="m 2379.48,3555.89 19.82,50.43 5.39,0 19.33,-50.43 -4.9,0 -5.82,15.83 -22.97,0 -5.95,-15.83 -4.9,0 z m 12.46,19.9 19.76,0 -9.88,26.47 -9.88,-26.47"
         style="fill:#000000;fill-opacity:1;fill-rule:nonzero;stroke:none"
         id="path3184" /><path
         d="m 2426.23,3606.32 36.71,0 0,-4.06 -15.97,0 0,-46.37 -4.77,0 0,46.37 -15.97,0 0,4.06"
         style="fill:#000000;fill-opacity:1;fill-rule:nonzero;stroke:none"
         id="path3186" /><path
         d="m 2469.77,3606.32 4.77,0 0,-30.05 c 0,-12.47 4.48,-17.64 14.77,-17.64 10.86,0 14.78,5.74 14.78,17.64 l 0,30.05 4.76,0 0,-31.45 c 0,-13.1 -6.51,-20.31 -19.54,-20.31 -13.17,0 -19.54,7.42 -19.54,20.31 l 0,31.45"
         style="fill:#000000;fill-opacity:1;fill-rule:nonzero;stroke:none"
         id="path3188" /><path
         d="m 2524.93,3578.79 0,-22.9 -4.76,0 0,50.43 19.75,0 c 11.06,0 17.15,-3.92 17.15,-13.24 0,-6.37 -2.37,-9.73 -8.19,-12.33 5.96,-2.03 6.3,-8.33 6.44,-13.65 0.22,-7.64 0.85,-9.74 2.11,-10.72 l 0,-0.49 -5.25,0 c -1.97,3.43 -1.48,12.89 -2.25,16.74 -1.12,5.46 -5.25,6.16 -10.01,6.16 l -14.99,0 z m 14.85,4.07 c 7.07,0 12.53,2.94 12.53,10.01 0,7.57 -5.88,9.39 -12.25,9.39 l -15.13,0 0,-19.4 14.85,0"
         style="fill:#000000;fill-opacity:1;fill-rule:nonzero;stroke:none"
         id="path3190" /><path
         d="m 2566.93,3555.89 0,50.43 33.54,0 0,-4.06 -28.78,0 0,-18.21 25.98,0 0,-4.07 -25.98,0 0,-20.03 29.49,0 0,-4.06 -34.25,0"
         style="fill:#000000;fill-opacity:1;fill-rule:nonzero;stroke:none"
         id="path3192" /><path
         d="m 2650.43,3607.65 c 15.75,0 23.74,-11.84 23.74,-26.61 0,-14.5 -7.99,-26.48 -23.53,-26.48 -15.55,0 -23.47,11.98 -23.47,26.48 -0.07,14.71 8.2,26.61 23.26,26.61 z m 18.98,-26.61 c 0,14 -7.22,22.55 -18.84,22.55 -12.96,0 -18.64,-10.86 -18.64,-22.55 0,-11.91 5.61,-22.41 18.78,-22.41 13.09,0 18.7,10.64 18.7,22.41"
         style="fill:#000000;fill-opacity:1;fill-rule:nonzero;stroke:none"
         id="path3194" /><path
         d="m 2683.09,3555.89 0,50.43 32.5,0 0,-4.06 -27.73,0 0,-18.21 25.21,0 0,-4.07 -25.21,0 0,-24.09 -4.77,0"
         style="fill:#000000;fill-opacity:1;fill-rule:nonzero;stroke:none"
         id="path3196" /><path
         d="m 2741.94,3555.89 0,50.43 18.21,0 c 11.84,0 16.53,-5.11 16.53,-12.68 0,-7 -3.99,-10.15 -8.05,-10.85 l 0,-0.15 c 6.93,-1.04 10.36,-5.88 10.36,-12.53 0,-10.5 -6.86,-14.22 -16.45,-14.22 l -20.6,0 z m 4.77,4.06 12.11,0 c 10.51,0 15.41,1.41 15.41,10.16 0,8.34 -5.88,9.87 -14.85,9.87 l -12.67,0 0,-20.03 z m 0,24.1 12.04,0 c 9.95,0 13.17,3.5 13.17,9.59 0,6.31 -3.78,8.62 -14.22,8.62 l -10.99,0 0,-18.21"
         style="fill:#000000;fill-opacity:1;fill-rule:nonzero;stroke:none"
         id="path3198" /><path
         d="m 2788.63,3555.89 0,50.43 4.76,0 0,-46.37 27.04,0 0,-4.06 -31.8,0"
         style="fill:#000000;fill-opacity:1;fill-rule:nonzero;stroke:none"
         id="path3200" /><path
         d="m 2822.93,3555.89 19.82,50.43 5.39,0 19.33,-50.43 -4.9,0 -5.82,15.83 -22.97,0 -5.96,-15.83 -4.89,0 z m 12.46,19.9 19.75,0 -9.87,26.47 -9.88,-26.47"
         style="fill:#000000;fill-opacity:1;fill-rule:nonzero;stroke:none"
         id="path3202" /><path
         d="m 2874.23,3555.89 0,50.43 17.23,0 c 5.61,0 10.86,-0.35 15.55,-3.78 6.66,-4.83 8.41,-14.64 8.41,-21.36 0,-6.66 -1.47,-14.08 -6.1,-19.13 -4.62,-5.18 -11.2,-6.16 -17.86,-6.16 l -17.23,0 z m 4.77,4.06 11.41,0 c 4.28,0 7.99,0.28 11.84,2.32 6.72,3.43 8.41,12.04 8.41,18.91 0,7.35 -1.62,15.41 -8.69,19.19 -3.01,1.61 -7.35,1.89 -11.56,1.89 l -11.41,0 0,-42.31"
         style="fill:#000000;fill-opacity:1;fill-rule:nonzero;stroke:none"
         id="path3204" /><path
         d="m 2924.77,3555.89 0,50.43 33.55,0 0,-4.06 -28.78,0 0,-18.21 25.98,0 0,-4.07 -25.98,0 0,-20.03 29.48,0 0,-4.06 -34.25,0"
         style="fill:#000000;fill-opacity:1;fill-rule:nonzero;stroke:none"
         id="path3206" /><path
         d="m 1715.43,4113.39 0,50.43 7.28,0 16.53,-44.48 0.14,0 16.25,44.48 7.21,0 0,-50.43 -4.76,0 0,44.97 -0.14,0 -16.53,-44.97 -4.48,0 -16.6,44.97 -0.14,0 0,-44.97 -4.76,0"
         style="fill:#000000;fill-opacity:1;fill-rule:nonzero;stroke:none"
         id="path3208" /><path
         d="m 1789.97,4134.54 c 1.54,0.14 4.13,0.57 5.53,1.19 1.41,0.63 1.55,2.52 1.55,3.79 0,4.27 -2.53,7.35 -9.04,7.35 -5.81,0 -9.81,-1.89 -10.58,-8.19 l -4.27,0 c 0.63,8.54 7.01,11.97 14.92,11.97 7.35,0 13.17,-2.87 13.17,-11.27 l 0,-19.75 c 0,-3.29 0.84,-4.07 4.41,-2.81 l 0,-3.29 c -0.63,-0.21 -2.1,-0.7 -3.29,-0.7 -0.7,0 -1.26,0.07 -1.89,0.21 -2.8,0.42 -3.3,2.87 -3.37,5.39 -3.5,-3.92 -8.26,-6.02 -13.51,-6.02 -6.38,0 -12.12,3.43 -12.12,10.44 0,6.09 4.2,9.8 12.68,10.92 l 5.81,0.77 z m 7.08,-2.1 c -3.58,-1.47 -7.22,-1.75 -10.86,-2.03 -6.37,-0.49 -10.23,-2.8 -10.23,-7.7 0,-4.41 3.86,-6.51 7.85,-6.51 6.65,0 13.24,3.21 13.24,10.57 l 0,5.67"
         style="fill:#000000;fill-opacity:1;fill-rule:nonzero;stroke:none"
         id="path3210" /><path
         d="m 1824.82,4129.08 -11.27,-15.69 -5.12,0 13.94,18.77 -12.82,17.51 5.19,0 10.01,-14.42 10.3,14.42 5.32,0 -13.1,-17.51 13.59,-18.77 -5.04,0 -11,15.69"
         style="fill:#000000;fill-opacity:1;fill-rule:nonzero;stroke:none"
         id="path3212" /><path
         d="m 1849.32,4113.39 5.1133,0 0,6.1641 -5.1133,0 0,-6.1641 z"
         style="fill:#000000;fill-opacity:1;fill-rule:nonzero;stroke:none"
         id="path3214" /><path
         d="m 1885.9,4146.59 c 0,9.73 6.31,16.18 16.04,16.18 9.95,0 15.2,-6.09 15.2,-13.66 0,-13.09 -14.15,-16.39 -21.5,-21.99 -3.23,-2.45 -6.24,-5.25 -6.44,-9.94 l 27.52,0 0,-3.79 -32.29,0 c 0.07,4.7 0.7,8.41 3.85,12.05 10.3,11.9 23.95,11.77 23.95,23.39 0,6.44 -4.76,10.16 -10.85,10.16 -6.44,0 -11,-5.74 -10.72,-12.4 l -4.76,0"
         style="fill:#000000;fill-opacity:1;fill-rule:nonzero;stroke:none"
         id="path3216" /><path
         d="m 1927.13,4113.39 5.1094,0 0,6.1641 -5.1094,0 0,-6.1641 z"
         style="fill:#000000;fill-opacity:1;fill-rule:nonzero;stroke:none"
         id="path3218" /><path
         d="m 1964.5,4125.58 -22.55,0 0,3.85 22.98,32.85 4.06,0 0,-32.92 6.86,0 0,-3.78 -6.86,0 0,-12.19 -4.49,0 0,12.19 z m -18.14,3.78 18.14,0 0,26.19 -18.14,-26.19"
         style="fill:#000000;fill-opacity:1;fill-rule:nonzero;stroke:none"
         id="path3220" /><path
         d="m 2028.54,4138.25 c -1.47,5.4 -5.18,8.62 -10.79,8.62 -8.61,0 -12.18,-7.84 -12.18,-15.41 0,-7.63 3.5,-15.26 12.18,-15.26 6.24,0 10.16,3.71 11.14,9.73 l 4.48,0 c -1.47,-8.05 -6.51,-13.52 -15.62,-13.52 -11.55,0 -16.66,8.34 -16.66,19.05 0,10.09 5.81,19.19 16.66,19.19 8.34,0 13.8,-3.99 15.06,-12.4 l -4.27,0"
         style="fill:#000000;fill-opacity:1;fill-rule:nonzero;stroke:none"
         id="path3222" /><path
         d="m 2045.39,4113.39 -4.2,0 0,36.28 4.2,0 0,-5.46 0.14,0 c 2.17,4.13 6.52,6.44 11.21,6.44 6.72,0 9.1,-3.15 10.64,-7 2.39,4.69 6.66,7 11.84,7 9.87,0 11.28,-7.07 11.28,-14.36 l 0,-22.9 -4.21,0 0,25.07 c 0,5.19 -1.82,8.41 -7.77,8.41 -3.08,0 -6.09,-1.33 -8.2,-4.13 -1.82,-2.38 -2.38,-6.79 -2.38,-9.81 l 0,-19.54 -4.2,0 0,25.07 c 0,5.19 -1.82,8.41 -7.77,8.41 -3.08,0 -6.09,-1.33 -8.2,-4.13 -1.82,-2.38 -2.38,-6.79 -2.38,-9.81 l 0,-19.54"
         style="fill:#000000;fill-opacity:1;fill-rule:nonzero;stroke:none"
         id="path3224" /><path
         d="m 2340.43,4113.39 0,50.43 7.28,0 16.53,-44.48 0.14,0 16.25,44.48 7.21,0 0,-50.43 -4.76,0 0,44.97 -0.14,0 -16.53,-44.97 -4.48,0 -16.6,44.97 -0.14,0 0,-44.97 -4.76,0"
         style="fill:#000000;fill-opacity:1;fill-rule:nonzero;stroke:none"
         id="path3226" /><path
         d="m 2414.97,4134.54 c 1.54,0.14 4.13,0.57 5.53,1.19 1.41,0.63 1.55,2.52 1.55,3.79 0,4.27 -2.53,7.35 -9.04,7.35 -5.81,0 -9.8,-1.89 -10.58,-8.19 l -4.27,0 c 0.63,8.54 7.01,11.97 14.92,11.97 7.35,0 13.17,-2.87 13.17,-11.27 l 0,-19.75 c 0,-3.29 0.84,-4.07 4.41,-2.81 l 0,-3.29 c -0.63,-0.21 -2.1,-0.7 -3.29,-0.7 -0.7,0 -1.26,0.07 -1.89,0.21 -2.8,0.42 -3.3,2.87 -3.37,5.39 -3.5,-3.92 -8.26,-6.02 -13.51,-6.02 -6.38,0 -12.12,3.43 -12.12,10.44 0,6.09 4.2,9.8 12.68,10.92 l 5.81,0.77 z m 7.08,-2.1 c -3.58,-1.47 -7.22,-1.75 -10.86,-2.03 -6.37,-0.49 -10.23,-2.8 -10.23,-7.7 0,-4.41 3.86,-6.51 7.85,-6.51 6.65,0 13.24,3.21 13.24,10.57 l 0,5.67"
         style="fill:#000000;fill-opacity:1;fill-rule:nonzero;stroke:none"
         id="path3228" /><path
         d="m 2449.82,4129.08 -11.27,-15.69 -5.12,0 13.94,18.77 -12.82,17.51 5.19,0 10.01,-14.42 10.3,14.42 5.32,0 -13.1,-17.51 13.59,-18.77 -5.04,0 -11,15.69"
         style="fill:#000000;fill-opacity:1;fill-rule:nonzero;stroke:none"
         id="path3230" /><path
         d="m 2474.32,4113.39 5.1133,0 0,6.1641 -5.1133,0 0,-6.1641 z"
         style="fill:#000000;fill-opacity:1;fill-rule:nonzero;stroke:none"
         id="path3232" /><path
         d="m 2510.9,4146.59 c 0,9.73 6.31,16.18 16.04,16.18 9.95,0 15.2,-6.09 15.2,-13.66 0,-13.09 -14.15,-16.39 -21.5,-21.99 -3.23,-2.45 -6.24,-5.25 -6.44,-9.94 l 27.52,0 0,-3.79 -32.29,0 c 0.07,4.7 0.7,8.41 3.85,12.05 10.3,11.9 23.95,11.77 23.95,23.39 0,6.44 -4.76,10.16 -10.85,10.16 -6.44,0 -11,-5.74 -10.72,-12.4 l -4.76,0"
         style="fill:#000000;fill-opacity:1;fill-rule:nonzero;stroke:none"
         id="path3234" /><path
         d="m 2552.13,4113.39 5.1094,0 0,6.1641 -5.1094,0 0,-6.1641 z"
         style="fill:#000000;fill-opacity:1;fill-rule:nonzero;stroke:none"
         id="path3236" /><path
         d="m 2589.5,4125.58 -22.55,0 0,3.85 22.98,32.85 4.06,0 0,-32.92 6.86,0 0,-3.78 -6.86,0 0,-12.19 -4.49,0 0,12.19 z m -18.14,3.78 18.14,0 0,26.19 -18.14,-26.19"
         style="fill:#000000;fill-opacity:1;fill-rule:nonzero;stroke:none"
         id="path3238" /><path
         d="m 2653.54,4138.25 c -1.47,5.4 -5.18,8.62 -10.79,8.62 -8.61,0 -12.18,-7.84 -12.18,-15.41 0,-7.63 3.5,-15.26 12.18,-15.26 6.24,0 10.16,3.71 11.14,9.73 l 4.48,0 c -1.47,-8.05 -6.51,-13.52 -15.62,-13.52 -11.55,0 -16.66,8.34 -16.66,19.05 0,10.09 5.81,19.19 16.66,19.19 8.34,0 13.8,-3.99 15.06,-12.4 l -4.27,0"
         style="fill:#000000;fill-opacity:1;fill-rule:nonzero;stroke:none"
         id="path3240" /><path
         d="m 2670.39,4113.39 -4.2,0 0,36.28 4.2,0 0,-5.46 0.14,0 c 2.17,4.13 6.52,6.44 11.21,6.44 6.72,0 9.1,-3.15 10.64,-7 2.39,4.69 6.66,7 11.84,7 9.87,0 11.28,-7.07 11.28,-14.36 l 0,-22.9 -4.21,0 0,25.07 c 0,5.19 -1.82,8.41 -7.77,8.41 -3.08,0 -6.09,-1.33 -8.2,-4.13 -1.82,-2.38 -2.38,-6.79 -2.38,-9.81 l 0,-19.54 -4.2,0 0,25.07 c 0,5.19 -1.82,8.41 -7.77,8.41 -3.08,0 -6.09,-1.33 -8.2,-4.13 -1.82,-2.38 -2.38,-6.79 -2.38,-9.81 l 0,-19.54"
         style="fill:#000000;fill-opacity:1;fill-rule:nonzero;stroke:none"
         id="path3242" /><path
         d="m 3278.09,4868.59 0,50.43 7.29,0 16.53,-44.48 0.14,0 16.25,44.48 7.21,0 0,-50.43 -4.76,0 0,44.96 -0.14,0 -16.53,-44.96 -4.48,0 -16.6,44.96 -0.14,0 0,-44.96 -4.77,0"
         style="fill:#000000;fill-opacity:1;fill-rule:nonzero;stroke:none"
         id="path3244" /><path
         d="m 3352.64,4889.74 c 1.54,0.14 4.13,0.56 5.53,1.19 1.4,0.63 1.54,2.52 1.54,3.78 0,4.28 -2.52,7.36 -9.03,7.36 -5.82,0 -9.81,-1.89 -10.58,-8.19 l -4.27,0 c 0.63,8.54 7,11.97 14.92,11.97 7.35,0 13.16,-2.87 13.16,-11.28 l 0,-19.75 c 0,-3.29 0.84,-4.06 4.42,-2.8 l 0,-3.29 c -0.63,-0.21 -2.1,-0.7 -3.29,-0.7 -0.7,0 -1.27,0.07 -1.9,0.21 -2.8,0.42 -3.29,2.87 -3.36,5.39 -3.5,-3.92 -8.26,-6.02 -13.51,-6.02 -6.38,0 -12.12,3.43 -12.12,10.44 0,6.09 4.2,9.8 12.67,10.92 l 5.82,0.77 z m 7.07,-2.1 c -3.57,-1.47 -7.21,-1.75 -10.85,-2.03 -6.38,-0.49 -10.23,-2.8 -10.23,-7.7 0,-4.41 3.85,-6.52 7.84,-6.52 6.66,0 13.24,3.22 13.24,10.58 l 0,5.67"
         style="fill:#000000;fill-opacity:1;fill-rule:nonzero;stroke:none"
         id="path3246" /><path
         d="m 3387.49,4884.28 -11.28,-15.69 -5.11,0 13.94,18.77 -12.82,17.51 5.18,0 10.02,-14.42 10.29,14.42 5.33,0 -13.1,-17.51 13.59,-18.77 -5.05,0 -10.99,15.69"
         style="fill:#000000;fill-opacity:1;fill-rule:nonzero;stroke:none"
         id="path3248" /><path
         d="m 3411.98,4868.59 5.1133,0 0,6.1641 -5.1133,0 0,-6.1641 z"
         style="fill:#000000;fill-opacity:1;fill-rule:nonzero;stroke:none"
         id="path3250" /><path
         d="m 3464.89,4905.29 -12.75,0 0,2.94 c 7.49,0.49 12.19,1.26 13.66,9.74 l 3.57,0 0,-49.38 -4.48,0 0,36.7"
         style="fill:#000000;fill-opacity:1;fill-rule:nonzero;stroke:none"
         id="path3252" /><path
         d="m 3498.13,4896.05 c 8.33,-0.07 14.14,1.89 14.14,9.45 0,6.09 -4.83,8.69 -10.5,8.69 -6.31,0 -10.57,-4.42 -10.57,-10.58 l -4.49,0 c 0,4.41 1.47,7.98 4.76,11.07 3.08,2.8 7.15,3.29 11.21,3.29 7.77,0 14.08,-3.92 14.08,-12.19 0,-5.11 -2.24,-8.96 -7.01,-10.99 7.15,-2.25 8.76,-7.64 8.76,-12.19 0,-8.13 -5.74,-14.71 -15.9,-14.99 -11.41,0 -16.53,3.78 -17.58,15.27 l 4.48,0 c 0,-7.49 4.97,-11.49 12.26,-11.49 7.14,0 12.53,5.32 12.26,11.14 -0.28,7.98 -7.22,10.51 -15.9,9.87 l 0,3.65"
         style="fill:#000000;fill-opacity:1;fill-rule:nonzero;stroke:none"
         id="path3254" /><path
         d="m 3528.71,4868.59 5.1133,0 0,6.1641 -5.1133,0 0,-6.1641 z"
         style="fill:#000000;fill-opacity:1;fill-rule:nonzero;stroke:none"
         id="path3256" /><path
         d="m 3547.95,4881.41 c 0.91,-6.66 5.74,-10.02 12.18,-10.02 7.35,0 11.84,5.61 11.84,12.61 0,7.35 -4.77,12.54 -12.26,12.54 -4.41,0 -7.98,-1.54 -10.71,-5.12 l -3.72,0.49 3.99,25.57 24.52,0 0,-3.78 -20.73,0 -3.08,-16.6 c 3.85,2.52 6.37,3.22 10.85,3.22 9.04,0 15.62,-6.16 15.62,-16.32 0,-10.37 -7.49,-16.39 -15.62,-16.39 -9.31,0 -16.6,3.57 -17.37,13.8 l 4.49,0"
         style="fill:#000000;fill-opacity:1;fill-rule:nonzero;stroke:none"
         id="path3258" /><path
         d="m 3630.12,4893.45 c -1.47,5.4 -5.18,8.62 -10.78,8.62 -8.62,0 -12.19,-7.84 -12.19,-15.41 0,-7.63 3.5,-15.27 12.19,-15.27 6.23,0 10.15,3.72 11.13,9.74 l 4.48,0 c -1.47,-8.06 -6.51,-13.52 -15.61,-13.52 -11.56,0 -16.68,8.34 -16.68,19.05 0,10.09 5.82,19.19 16.68,19.19 8.33,0 13.79,-3.99 15.05,-12.4 l -4.27,0"
         style="fill:#000000;fill-opacity:1;fill-rule:nonzero;stroke:none"
         id="path3260" /><path
         d="m 3646.97,4868.59 -4.2,0 0,36.28 4.2,0 0,-5.46 0.14,0 c 2.17,4.13 6.52,6.44 11.21,6.44 6.72,0 9.1,-3.15 10.64,-7 2.38,4.69 6.66,7 11.84,7 9.88,0 11.27,-7.07 11.27,-14.36 l 0,-22.9 -4.19,0 0,25.07 c 0,5.19 -1.83,8.41 -7.78,8.41 -3.08,0 -6.09,-1.33 -8.19,-4.13 -1.82,-2.39 -2.39,-6.8 -2.39,-9.81 l 0,-19.54 -4.2,0 0,25.07 c 0,5.19 -1.82,8.41 -7.77,8.41 -3.09,0 -6.1,-1.33 -8.2,-4.13 -1.82,-2.39 -2.38,-6.8 -2.38,-9.81 l 0,-19.54"
         style="fill:#000000;fill-opacity:1;fill-rule:nonzero;stroke:none"
         id="path3262" /><path
         d="m 4092.55,4100.06 0,50.43 7.29,0 16.53,-44.48 0.13,0 16.25,44.48 7.22,0 0,-50.43 -4.76,0 0,44.96 -0.14,0 -16.53,-44.96 -4.49,0 -16.6,44.96 -0.14,0 0,-44.96 -4.76,0"
         style="fill:#000000;fill-opacity:1;fill-rule:nonzero;stroke:none"
         id="path3264" /><path
         d="m 4167.09,4121.21 c 1.55,0.14 4.14,0.56 5.54,1.19 1.4,0.63 1.54,2.52 1.54,3.78 0,4.28 -2.52,7.36 -9.04,7.36 -5.81,0 -9.8,-1.9 -10.57,-8.2 l -4.27,0 c 0.62,8.55 7,11.98 14.91,11.98 7.36,0 13.17,-2.87 13.17,-11.28 l 0,-19.75 c 0,-3.29 0.84,-4.06 4.41,-2.8 l 0,-3.29 c -0.63,-0.21 -2.1,-0.7 -3.29,-0.7 -0.7,0 -1.26,0.07 -1.89,0.21 -2.8,0.42 -3.29,2.87 -3.36,5.39 -3.5,-3.92 -8.27,-6.02 -13.52,-6.02 -6.37,0 -12.11,3.43 -12.11,10.44 0,6.09 4.19,9.8 12.67,10.92 l 5.81,0.77 z m 7.08,-2.1 c -3.57,-1.47 -7.22,-1.75 -10.86,-2.03 -6.37,-0.49 -10.22,-2.8 -10.22,-7.7 0,-4.42 3.85,-6.52 7.84,-6.52 6.66,0 13.24,3.22 13.24,10.58 l 0,5.67"
         style="fill:#000000;fill-opacity:1;fill-rule:nonzero;stroke:none"
         id="path3266" /><path
         d="m 4201.95,4115.75 -11.28,-15.69 -5.11,0 13.94,18.77 -12.82,17.51 5.18,0 10.02,-14.43 10.29,14.43 5.33,0 -13.1,-17.51 13.58,-18.77 -5.04,0 -10.99,15.69"
         style="fill:#000000;fill-opacity:1;fill-rule:nonzero;stroke:none"
         id="path3268" /><path
         d="m 4226.44,4100.06 5.1133,0 0,6.1641 -5.1133,0 0,-6.1641 z"
         style="fill:#000000;fill-opacity:1;fill-rule:nonzero;stroke:none"
         id="path3270" /><path
         d="m 4273.67,4127.52 c 8.33,-0.07 14.15,1.89 14.15,9.45 0,6.09 -4.83,8.68 -10.51,8.68 -6.3,0 -10.57,-4.41 -10.57,-10.57 l -4.49,0 c 0,4.41 1.48,7.98 4.77,11.06 3.08,2.81 7.14,3.3 11.2,3.3 7.78,0 14.08,-3.92 14.08,-12.19 0,-5.11 -2.24,-8.96 -7,-11 7.14,-2.24 8.75,-7.63 8.75,-12.18 0,-8.13 -5.74,-14.71 -15.9,-14.99 -11.41,0 -16.52,3.78 -17.58,15.27 l 4.48,0 c 0,-7.5 4.98,-11.49 12.26,-11.49 7.15,0 12.54,5.32 12.26,11.14 -0.28,7.98 -7.21,10.5 -15.9,9.87 l 0,3.65"
         style="fill:#000000;fill-opacity:1;fill-rule:nonzero;stroke:none"
         id="path3272" /><path
         d="m 4304.25,4100.06 5.1133,0 0,6.1641 -5.1133,0 0,-6.1641 z"
         style="fill:#000000;fill-opacity:1;fill-rule:nonzero;stroke:none"
         id="path3274" /><path
         d="m 4323.49,4112.88 c 0.91,-6.66 5.74,-10.02 12.19,-10.02 7.35,0 11.83,5.6 11.83,12.61 0,7.35 -4.76,12.53 -12.26,12.53 -4.41,0 -7.98,-1.54 -10.71,-5.11 l -3.71,0.49 3.99,25.57 24.51,0 0,-3.79 -20.73,0 -3.08,-16.6 c 3.85,2.53 6.37,3.23 10.86,3.23 9.03,0 15.61,-6.16 15.61,-16.32 0,-10.37 -7.49,-16.39 -15.61,-16.39 -9.32,0 -16.6,3.57 -17.37,13.8 l 4.48,0"
         style="fill:#000000;fill-opacity:1;fill-rule:nonzero;stroke:none"
         id="path3276" /><path
         d="m 4405.66,4124.92 c -1.47,5.4 -5.18,8.62 -10.78,8.62 -8.62,0 -12.19,-7.85 -12.19,-15.41 0,-7.63 3.5,-15.27 12.19,-15.27 6.23,0 10.15,3.71 11.13,9.74 l 4.49,0 c -1.48,-8.06 -6.52,-13.52 -15.62,-13.52 -11.56,0 -16.67,8.33 -16.67,19.05 0,10.08 5.81,19.19 16.67,19.19 8.33,0 13.8,-3.99 15.05,-12.4 l -4.27,0"
         style="fill:#000000;fill-opacity:1;fill-rule:nonzero;stroke:none"
         id="path3278" /><path
         d="m 4422.52,4100.06 -4.21,0 0,36.28 4.21,0 0,-5.46 0.14,0 c 2.17,4.13 6.51,6.44 11.2,6.44 6.73,0 9.1,-3.15 10.65,-7 2.38,4.69 6.65,7 11.83,7 9.88,0 11.28,-7.07 11.28,-14.36 l 0,-22.9 -4.2,0 0,25.07 c 0,5.19 -1.83,8.41 -7.78,8.41 -3.08,0 -6.09,-1.33 -8.19,-4.13 -1.82,-2.39 -2.38,-6.8 -2.38,-9.81 l 0,-19.54 -4.21,0 0,25.07 c 0,5.19 -1.82,8.41 -7.77,8.41 -3.08,0 -6.09,-1.33 -8.2,-4.13 -1.82,-2.39 -2.37,-6.8 -2.37,-9.81 l 0,-19.54"
         style="fill:#000000;fill-opacity:1;fill-rule:nonzero;stroke:none"
         id="path3280" /><path
         d="m 3600.07,3520.06 0,50.42 7.28,0 16.53,-44.47 0.14,0 16.25,44.47 7.21,0 0,-50.42 -4.76,0 0,44.96 -0.14,0 -16.53,-44.96 -4.48,0 -16.6,44.96 -0.14,0 0,-44.96 -4.76,0"
         style="fill:#000000;fill-opacity:1;fill-rule:nonzero;stroke:none"
         id="path3282" /><path
         d="m 3674.61,3541.21 c 1.54,0.14 4.13,0.56 5.53,1.19 1.4,0.63 1.54,2.52 1.54,3.78 0,4.28 -2.52,7.36 -9.03,7.36 -5.81,0 -9.81,-1.9 -10.58,-8.2 l -4.27,0 c 0.63,8.55 7,11.98 14.92,11.98 7.35,0 13.16,-2.87 13.16,-11.28 l 0,-19.75 c 0,-3.29 0.85,-4.06 4.42,-2.8 l 0,-3.29 c -0.63,-0.21 -2.1,-0.7 -3.3,-0.7 -0.7,0 -1.25,0.07 -1.89,0.21 -2.8,0.42 -3.29,2.87 -3.36,5.39 -3.5,-3.92 -8.26,-6.02 -13.52,-6.02 -6.37,0 -12.11,3.43 -12.11,10.44 0,6.09 4.2,9.8 12.68,10.92 l 5.81,0.77 z m 7.07,-2.1 c -3.57,-1.47 -7.21,-1.75 -10.85,-2.03 -6.38,-0.49 -10.23,-2.8 -10.23,-7.7 0,-4.42 3.85,-6.52 7.85,-6.52 6.65,0 13.23,3.22 13.23,10.58 l 0,5.67"
         style="fill:#000000;fill-opacity:1;fill-rule:nonzero;stroke:none"
         id="path3284" /><path
         d="m 3709.46,3535.75 -11.28,-15.69 -5.11,0 13.94,18.77 -12.82,17.51 5.19,0 10.01,-14.43 10.29,14.43 5.33,0 -13.1,-17.51 13.59,-18.77 -5.04,0 -11,15.69"
         style="fill:#000000;fill-opacity:1;fill-rule:nonzero;stroke:none"
         id="path3286" /><path
         d="m 3733.95,3520.06 5.1133,0 0,6.1641 -5.1133,0 0,-6.1641 z"
         style="fill:#000000;fill-opacity:1;fill-rule:nonzero;stroke:none"
         id="path3288" /><path
         d="m 3786.86,3556.76 -12.75,0 0,2.94 c 7.5,0.49 12.19,1.26 13.66,9.74 l 3.57,0 0,-49.38 -4.48,0 0,36.7"
         style="fill:#000000;fill-opacity:1;fill-rule:nonzero;stroke:none"
         id="path3290" /><path
         d="m 3854.82,3544.92 c -1.48,5.4 -5.19,8.62 -10.79,8.62 -8.62,0 -12.19,-7.85 -12.19,-15.41 0,-7.63 3.5,-15.27 12.19,-15.27 6.23,0 10.15,3.71 11.13,9.74 l 4.49,0 c -1.47,-8.06 -6.52,-13.52 -15.62,-13.52 -11.56,0 -16.67,8.33 -16.67,19.05 0,10.08 5.81,19.19 16.67,19.19 8.33,0 13.79,-3.99 15.06,-12.4 l -4.27,0"
         style="fill:#000000;fill-opacity:1;fill-rule:nonzero;stroke:none"
         id="path3292" /><path
         d="m 3871.67,3520.06 -4.21,0 0,36.28 4.21,0 0,-5.46 0.13,0 c 2.18,4.13 6.52,6.44 11.21,6.44 6.72,0 9.11,-3.15 10.65,-7 2.38,4.69 6.65,7 11.84,7 9.87,0 11.27,-7.07 11.27,-14.36 l 0,-22.9 -4.2,0 0,25.07 c 0,5.19 -1.82,8.41 -7.78,8.41 -3.08,0 -6.09,-1.33 -8.19,-4.13 -1.82,-2.39 -2.38,-6.8 -2.38,-9.81 l 0,-19.54 -4.2,0 0,25.07 c 0,5.19 -1.82,8.41 -7.78,8.41 -3.08,0 -6.09,-1.33 -8.19,-4.13 -1.82,-2.39 -2.38,-6.8 -2.38,-9.81 l 0,-19.54"
         style="fill:#000000;fill-opacity:1;fill-rule:nonzero;stroke:none"
         id="path3294" /><g
         id="g3296"><g
           id="g3298"
           clip-path="url(#clipPath3300)"><path
             d="m 2620.71,4358.93 135.81,155.21"
             style="fill:none;stroke:#000000;stroke-width:3;stroke-linecap:butt;stroke-linejoin:miter;stroke-miterlimit:10;stroke-opacity:1;stroke-dasharray:none"
             id="path3304" /><path
             d="m 2638.29,4343.54 135.82,155.22"
             style="fill:none;stroke:#000000;stroke-width:3;stroke-linecap:butt;stroke-linejoin:miter;stroke-miterlimit:10;stroke-opacity:1;stroke-dasharray:none"
             id="path3306" /><path
             d="m 2655.88,4328.15 135.81,155.22"
             style="fill:none;stroke:#000000;stroke-width:3;stroke-linecap:butt;stroke-linejoin:miter;stroke-miterlimit:10;stroke-opacity:1;stroke-dasharray:none"
             id="path3308" /><path
             d="m 2673.46,4312.77 135.81,155.21"
             style="fill:none;stroke:#000000;stroke-width:3;stroke-linecap:butt;stroke-linejoin:miter;stroke-miterlimit:10;stroke-opacity:1;stroke-dasharray:none"
             id="path3310" /><path
             d="m 2691.05,4297.38 135.81,155.22"
             style="fill:none;stroke:#000000;stroke-width:3;stroke-linecap:butt;stroke-linejoin:miter;stroke-miterlimit:10;stroke-opacity:1;stroke-dasharray:none"
             id="path3312" /><path
             d="m 2708.63,4281.99 135.82,155.22"
             style="fill:none;stroke:#000000;stroke-width:3;stroke-linecap:butt;stroke-linejoin:miter;stroke-miterlimit:10;stroke-opacity:1;stroke-dasharray:none"
             id="path3314" /><path
             d="m 2726.22,4266.61 135.81,155.21"
             style="fill:none;stroke:#000000;stroke-width:3;stroke-linecap:butt;stroke-linejoin:miter;stroke-miterlimit:10;stroke-opacity:1;stroke-dasharray:none"
             id="path3316" /><path
             d="m 2743.8,4251.22 135.82,155.22"
             style="fill:none;stroke:#000000;stroke-width:3;stroke-linecap:butt;stroke-linejoin:miter;stroke-miterlimit:10;stroke-opacity:1;stroke-dasharray:none"
             id="path3318" /><path
             d="m 2761.39,4235.83 135.81,155.22"
             style="fill:none;stroke:#000000;stroke-width:3;stroke-linecap:butt;stroke-linejoin:miter;stroke-miterlimit:10;stroke-opacity:1;stroke-dasharray:none"
             id="path3320" /><path
             d="m 2777.58,4234.04 -155.22,135.81"
             style="fill:none;stroke:#000000;stroke-width:3;stroke-linecap:butt;stroke-linejoin:miter;stroke-miterlimit:10;stroke-opacity:1;stroke-dasharray:none"
             id="path3322" /><path
             d="m 2792.97,4251.63 -155.22,135.8"
             style="fill:none;stroke:#000000;stroke-width:3;stroke-linecap:butt;stroke-linejoin:miter;stroke-miterlimit:10;stroke-opacity:1;stroke-dasharray:none"
             id="path3324" /><path
             d="m 2808.36,4269.21 -155.22,135.81"
             style="fill:none;stroke:#000000;stroke-width:3;stroke-linecap:butt;stroke-linejoin:miter;stroke-miterlimit:10;stroke-opacity:1;stroke-dasharray:none"
             id="path3326" /><path
             d="m 2823.74,4286.79 -155.22,135.82"
             style="fill:none;stroke:#000000;stroke-width:3;stroke-linecap:butt;stroke-linejoin:miter;stroke-miterlimit:10;stroke-opacity:1;stroke-dasharray:none"
             id="path3328" /><path
             d="m 2839.13,4304.38 -155.22,135.81"
             style="fill:none;stroke:#000000;stroke-width:3;stroke-linecap:butt;stroke-linejoin:miter;stroke-miterlimit:10;stroke-opacity:1;stroke-dasharray:none"
             id="path3330" /><path
             d="M 2854.52,4321.96 2699.3,4457.78"
             style="fill:none;stroke:#000000;stroke-width:3;stroke-linecap:butt;stroke-linejoin:miter;stroke-miterlimit:10;stroke-opacity:1;stroke-dasharray:none"
             id="path3332" /><path
             d="m 2869.9,4339.55 -155.21,135.81"
             style="fill:none;stroke:#000000;stroke-width:3;stroke-linecap:butt;stroke-linejoin:miter;stroke-miterlimit:10;stroke-opacity:1;stroke-dasharray:none"
             id="path3334" /><path
             d="m 2885.29,4357.14 -155.22,135.81"
             style="fill:none;stroke:#000000;stroke-width:3;stroke-linecap:butt;stroke-linejoin:miter;stroke-miterlimit:10;stroke-opacity:1;stroke-dasharray:none"
             id="path3336" /><path
             d="m 2900.68,4374.72 -155.22,135.82"
             style="fill:none;stroke:#000000;stroke-width:3;stroke-linecap:butt;stroke-linejoin:miter;stroke-miterlimit:10;stroke-opacity:1;stroke-dasharray:none"
             id="path3338" /></g></g><path
         d="m 2732.81,4381.16 c 34.64,4.23 76.01,-4.31 107.9,-14.07 l -0.86,47.26 c -51.96,30 -148.7,17.45 -160.21,-2.49 -11.51,-19.94 25.99,-109.99 77.95,-139.99 l 41.35,22.88 c -24.39,22.74 -52.47,54.3 -66.13,86.41 z"
         style="fill:none;stroke:#000000;stroke-width:8;stroke-linecap:butt;stroke-linejoin:round;stroke-miterlimit:10;stroke-opacity:1;stroke-dasharray:none"
         id="path3340" /><path
         d="m 2757.59,4271.87 117.75,-67.99"
         style="fill:none;stroke:#000000;stroke-width:3;stroke-linecap:butt;stroke-linejoin:miter;stroke-miterlimit:10;stroke-opacity:1;stroke-dasharray:none"
         id="path3342" /><path
         d="m 2799.01,4294.87 96.65,-55.8"
         style="fill:none;stroke:#000000;stroke-width:3;stroke-linecap:butt;stroke-linejoin:miter;stroke-miterlimit:10;stroke-opacity:1;stroke-dasharray:none"
         id="path3344" /><path
         d="m 2840.71,4367.09 96.65,-55.79"
         style="fill:none;stroke:#000000;stroke-width:3;stroke-linecap:butt;stroke-linejoin:miter;stroke-miterlimit:10;stroke-opacity:1;stroke-dasharray:none"
         id="path3346" /><path
         d="m 2734.51,4123.11 94.04,-0.27 129.05,223.52 -117.75,67.99"
         style="fill:none;stroke:#000000;stroke-width:3;stroke-linecap:butt;stroke-linejoin:miter;stroke-miterlimit:10;stroke-opacity:1;stroke-dasharray:none"
         id="path3348" /><path
         d="m 2954.71,4341.36 c 2.77,-1.59 6.3,-0.65 7.9,2.11 1.59,2.76 0.64,6.3 -2.12,7.89 -2.76,1.59 -6.29,0.64 -7.89,-2.11 -1.6,-2.77 -0.65,-6.3 2.11,-7.89 l 0,0 z"
         style="fill:none;stroke:#000000;stroke-width:3;stroke-linecap:butt;stroke-linejoin:miter;stroke-miterlimit:10;stroke-opacity:1;stroke-dasharray:none"
         id="path3350" /><path
         d="m 2878.23,4208.88 c -2.76,1.6 -6.29,0.65 -7.89,-2.11 -1.59,-2.76 -0.64,-6.29 2.12,-7.89 2.76,-1.59 6.29,-0.64 7.89,2.12 1.59,2.76 0.65,6.29 -2.12,7.88 l 0,0 z"
         style="fill:none;stroke:#000000;stroke-width:3;stroke-linecap:butt;stroke-linejoin:miter;stroke-miterlimit:10;stroke-opacity:1;stroke-dasharray:none"
         id="path3352" /></g></g></svg>