<?xml version="1.0" encoding="UTF-8" standalone="no"?>
<!-- Created with Inkscape (http://www.inkscape.org/) -->

<svg
   xmlns:dc="http://purl.org/dc/elements/1.1/"
   xmlns:cc="http://creativecommons.org/ns#"
   xmlns:rdf="http://www.w3.org/1999/02/22-rdf-syntax-ns#"
   xmlns:svg="http://www.w3.org/2000/svg"
   xmlns="http://www.w3.org/2000/svg"
   xmlns:sodipodi="http://sodipodi.sourceforge.net/DTD/sodipodi-0.dtd"
   xmlns:inkscape="http://www.inkscape.org/namespaces/inkscape"
   id="svg2816"
   version="1.1"
   inkscape:version="0.47 r22583"
   width="460.88605"
   height="447.12036"
   xml:space="preserve"
   sodipodi:docname="A6UKEprouv-2010.eps"><metadata
     id="metadata2822"><rdf:RDF><cc:Work
         rdf:about=""><dc:format>image/svg+xml</dc:format><dc:type
           rdf:resource="http://purl.org/dc/dcmitype/StillImage" /><dc:title></dc:title></cc:Work></rdf:RDF></metadata><defs
     id="defs2820"><inkscape:perspective
       sodipodi:type="inkscape:persp3d"
       inkscape:vp_x="0 : 0.5 : 1"
       inkscape:vp_y="0 : 1000 : 0"
       inkscape:vp_z="1 : 0.5 : 1"
       inkscape:persp3d-origin="0.5 : 0.33333333 : 1"
       id="perspective2824" /></defs><sodipodi:namedview
     pagecolor="#ffffff"
     bordercolor="#666666"
     borderopacity="1"
     objecttolerance="10"
     gridtolerance="10"
     guidetolerance="10"
     inkscape:pageopacity="0"
     inkscape:pageshadow="2"
     inkscape:window-width="1680"
     inkscape:window-height="988"
     id="namedview2818"
     showgrid="false"
     inkscape:zoom="1.44"
     inkscape:cx="195.7375"
     inkscape:cy="251.46362"
     inkscape:window-x="-8"
     inkscape:window-y="-8"
     inkscape:window-maximized="1"
     inkscape:current-layer="g2826" /><g
     id="g2826"
     inkscape:groupmode="layer"
     inkscape:label="ink_ext_XXXXXX"
     transform="matrix(1.25,0,0,-1.25,-176.1375,721.90673)"><g
       id="g2828"
       transform="scale(0.1,0.1)"><path
         d="m 4051.55,3138.63 190.8,0"
         style="fill:none;stroke:#000000;stroke-width:3;stroke-linecap:butt;stroke-linejoin:miter;stroke-miterlimit:10;stroke-opacity:1;stroke-dasharray:none"
         id="path2830" /><path
         d="m 4051.55,2933.43 190.8,0"
         style="fill:none;stroke:#000000;stroke-width:3;stroke-linecap:butt;stroke-linejoin:miter;stroke-miterlimit:10;stroke-opacity:1;stroke-dasharray:none"
         id="path2832" /><path
         d="m 4209.95,3138.63 0,-46.81"
         style="fill:none;stroke:#000000;stroke-width:3;stroke-linecap:butt;stroke-linejoin:miter;stroke-miterlimit:10;stroke-opacity:1;stroke-dasharray:none"
         id="path2834" /><path
         d="m 4209.95,2933.43 0,46.8"
         style="fill:none;stroke:#000000;stroke-width:3;stroke-linecap:butt;stroke-linejoin:miter;stroke-miterlimit:10;stroke-opacity:1;stroke-dasharray:none"
         id="path2836" /><path
         d="m 4212.13,3132.05 c 4.44,0 8.04,3.6 8.04,8.03 0,4.44 -3.6,8.03 -8.04,8.03 -4.43,0 -8.04,-3.59 -8.04,-8.03 0,-4.43 3.61,-8.03 8.04,-8.03 l 0,0 z"
         style="fill:none;stroke:#000000;stroke-width:3;stroke-linecap:butt;stroke-linejoin:miter;stroke-miterlimit:10;stroke-opacity:1;stroke-dasharray:none"
         id="path2838" /><path
         d="m 4212.13,2942.49 c -4.43,0 -8.04,-3.6 -8.04,-8.03 0,-4.43 3.61,-8.03 8.04,-8.03 4.44,0 8.04,3.6 8.04,8.03 0,4.43 -3.6,8.03 -8.04,8.03 l 0,0 z"
         style="fill:none;stroke:#000000;stroke-width:3;stroke-linecap:butt;stroke-linejoin:miter;stroke-miterlimit:10;stroke-opacity:1;stroke-dasharray:none"
         id="path2840" /><path
         d="m 4033.55,3138.63 0,0"
         style="fill:none;stroke:#000000;stroke-width:3;stroke-linecap:butt;stroke-linejoin:miter;stroke-miterlimit:10;stroke-opacity:1;stroke-dasharray:none"
         id="path2842" /><path
         d="m 4033.55,2933.43 0,0"
         style="fill:none;stroke:#000000;stroke-width:3;stroke-linecap:butt;stroke-linejoin:miter;stroke-miterlimit:10;stroke-opacity:1;stroke-dasharray:none"
         id="path2844" /><path
         d="m 4209.95,2933.43 0,0"
         style="fill:none;stroke:#000000;stroke-width:3;stroke-linecap:butt;stroke-linejoin:miter;stroke-miterlimit:10;stroke-opacity:1;stroke-dasharray:none"
         id="path2846" /><path
         d="m 4166.75,5352.63 298.8,0"
         style="fill:none;stroke:#000000;stroke-width:3;stroke-linecap:butt;stroke-linejoin:miter;stroke-miterlimit:10;stroke-opacity:1;stroke-dasharray:none"
         id="path2848" /><path
         d="m 4166.75,5043.02 298.8,0"
         style="fill:none;stroke:#000000;stroke-width:3;stroke-linecap:butt;stroke-linejoin:miter;stroke-miterlimit:10;stroke-opacity:1;stroke-dasharray:none"
         id="path2850" /><path
         d="m 4433.15,5352.63 0,-59.3"
         style="fill:none;stroke:#000000;stroke-width:3;stroke-linecap:butt;stroke-linejoin:miter;stroke-miterlimit:10;stroke-opacity:1;stroke-dasharray:none"
         id="path2852" /><path
         d="m 4433.15,5043.02 0,50.31"
         style="fill:none;stroke:#000000;stroke-width:3;stroke-linecap:butt;stroke-linejoin:miter;stroke-miterlimit:10;stroke-opacity:1;stroke-dasharray:none"
         id="path2854" /><path
         d="m 4434.26,5345.96 c 4.44,0 8.04,3.59 8.04,8.03 0,4.44 -3.6,8.03 -8.04,8.03 -4.44,0 -8.04,-3.59 -8.04,-8.03 0,-4.44 3.6,-8.03 8.04,-8.03 l 0,0 z"
         style="fill:none;stroke:#000000;stroke-width:3;stroke-linecap:butt;stroke-linejoin:miter;stroke-miterlimit:10;stroke-opacity:1;stroke-dasharray:none"
         id="path2856" /><path
         d="m 4434.26,5053.59 c -4.44,0 -8.04,-3.6 -8.04,-8.03 0,-4.43 3.6,-8.03 8.04,-8.03 4.44,0 8.04,3.6 8.04,8.03 0,4.43 -3.6,8.03 -8.04,8.03 l 0,0 z"
         style="fill:none;stroke:#000000;stroke-width:3;stroke-linecap:butt;stroke-linejoin:miter;stroke-miterlimit:10;stroke-opacity:1;stroke-dasharray:none"
         id="path2858" /><path
         d="m 4148.75,5352.63 0,0"
         style="fill:none;stroke:#000000;stroke-width:3;stroke-linecap:butt;stroke-linejoin:miter;stroke-miterlimit:10;stroke-opacity:1;stroke-dasharray:none"
         id="path2860" /><path
         d="m 4148.75,5043.02 0,0"
         style="fill:none;stroke:#000000;stroke-width:3;stroke-linecap:butt;stroke-linejoin:miter;stroke-miterlimit:10;stroke-opacity:1;stroke-dasharray:none"
         id="path2862" /><path
         d="m 4433.15,5043.02 0,0"
         style="fill:none;stroke:#000000;stroke-width:3;stroke-linecap:butt;stroke-linejoin:miter;stroke-miterlimit:10;stroke-opacity:1;stroke-dasharray:none"
         id="path2864" /><path
         d="m 2301.95,4953.02 0,-212.39"
         style="fill:none;stroke:#000000;stroke-width:3;stroke-linecap:butt;stroke-linejoin:miter;stroke-miterlimit:10;stroke-opacity:1;stroke-dasharray:none"
         id="path2866" /><path
         d="m 3327.95,4953.02 0,-212.39"
         style="fill:none;stroke:#000000;stroke-width:3;stroke-linecap:butt;stroke-linejoin:miter;stroke-miterlimit:10;stroke-opacity:1;stroke-dasharray:none"
         id="path2868" /><path
         d="m 2301.95,4773.02 381.38,0"
         style="fill:none;stroke:#000000;stroke-width:3;stroke-linecap:butt;stroke-linejoin:miter;stroke-miterlimit:10;stroke-opacity:1;stroke-dasharray:none"
         id="path2870" /><path
         d="m 3327.95,4773.02 -387.95,0"
         style="fill:none;stroke:#000000;stroke-width:3;stroke-linecap:butt;stroke-linejoin:miter;stroke-miterlimit:10;stroke-opacity:1;stroke-dasharray:none"
         id="path2872" /><path
         d="m 2310.03,4775.3 c 0,4.43 -3.6,8.04 -8.03,8.04 -4.44,0 -8.04,-3.61 -8.04,-8.04 0,-4.43 3.6,-8.03 8.04,-8.03 4.43,0 8.03,3.6 8.03,8.03 l 0,0 z"
         style="fill:none;stroke:#000000;stroke-width:3;stroke-linecap:butt;stroke-linejoin:miter;stroke-miterlimit:10;stroke-opacity:1;stroke-dasharray:none"
         id="path2874" /><path
         d="m 3322.66,4775.3 c 0,-4.43 3.61,-8.03 8.04,-8.03 4.44,0 8.04,3.6 8.04,8.03 0,4.43 -3.6,8.04 -8.04,8.04 -4.43,0 -8.04,-3.61 -8.04,-8.04 l 0,0 z"
         style="fill:none;stroke:#000000;stroke-width:3;stroke-linecap:butt;stroke-linejoin:miter;stroke-miterlimit:10;stroke-opacity:1;stroke-dasharray:none"
         id="path2876" /><path
         d="m 2301.95,4967.43 0,0"
         style="fill:none;stroke:#000000;stroke-width:3;stroke-linecap:butt;stroke-linejoin:miter;stroke-miterlimit:10;stroke-opacity:1;stroke-dasharray:none"
         id="path2878" /><path
         d="m 3327.95,4967.43 0,0"
         style="fill:none;stroke:#000000;stroke-width:3;stroke-linecap:butt;stroke-linejoin:miter;stroke-miterlimit:10;stroke-opacity:1;stroke-dasharray:none"
         id="path2880" /><path
         d="m 3327.95,4773.02 0,0"
         style="fill:none;stroke:#000000;stroke-width:3;stroke-linecap:butt;stroke-linejoin:miter;stroke-miterlimit:10;stroke-opacity:1;stroke-dasharray:none"
         id="path2882" /><path
         d="m 2197.55,4953.02 0,-331.2"
         style="fill:none;stroke:#000000;stroke-width:3;stroke-linecap:butt;stroke-linejoin:miter;stroke-miterlimit:10;stroke-opacity:1;stroke-dasharray:none"
         id="path2884" /><path
         d="m 3432.35,4953.02 0,-331.2"
         style="fill:none;stroke:#000000;stroke-width:3;stroke-linecap:butt;stroke-linejoin:miter;stroke-miterlimit:10;stroke-opacity:1;stroke-dasharray:none"
         id="path2886" /><path
         d="m 2197.55,4654.23 489.12,0"
         style="fill:none;stroke:#000000;stroke-width:3;stroke-linecap:butt;stroke-linejoin:miter;stroke-miterlimit:10;stroke-opacity:1;stroke-dasharray:none"
         id="path2888" /><path
         d="m 3432.35,4654.23 -485.68,0"
         style="fill:none;stroke:#000000;stroke-width:3;stroke-linecap:butt;stroke-linejoin:miter;stroke-miterlimit:10;stroke-opacity:1;stroke-dasharray:none"
         id="path2890" /><path
         d="m 2207.16,4656.34 c 0,4.43 -3.6,8.04 -8.03,8.04 -4.44,0 -8.04,-3.61 -8.04,-8.04 0,-4.43 3.6,-8.03 8.04,-8.03 4.43,0 8.03,3.6 8.03,8.03 l 0,0 z"
         style="fill:none;stroke:#000000;stroke-width:3;stroke-linecap:butt;stroke-linejoin:miter;stroke-miterlimit:10;stroke-opacity:1;stroke-dasharray:none"
         id="path2892" /><path
         d="m 3425.54,4656.34 c 0,-4.43 3.6,-8.03 8.03,-8.03 4.44,0 8.04,3.6 8.04,8.03 0,4.43 -3.6,8.04 -8.04,8.04 -4.43,0 -8.03,-3.61 -8.03,-8.04 l 0,0 z"
         style="fill:none;stroke:#000000;stroke-width:3;stroke-linecap:butt;stroke-linejoin:miter;stroke-miterlimit:10;stroke-opacity:1;stroke-dasharray:none"
         id="path2894" /><path
         d="m 2197.55,4967.43 0,0"
         style="fill:none;stroke:#000000;stroke-width:3;stroke-linecap:butt;stroke-linejoin:miter;stroke-miterlimit:10;stroke-opacity:1;stroke-dasharray:none"
         id="path2896" /><path
         d="m 3432.35,4967.43 0,0"
         style="fill:none;stroke:#000000;stroke-width:3;stroke-linecap:butt;stroke-linejoin:miter;stroke-miterlimit:10;stroke-opacity:1;stroke-dasharray:none"
         id="path2898" /><path
         d="m 3432.35,4654.23 0,0"
         style="fill:none;stroke:#000000;stroke-width:3;stroke-linecap:butt;stroke-linejoin:miter;stroke-miterlimit:10;stroke-opacity:1;stroke-dasharray:none"
         id="path2900" /><path
         d="m 1787.15,4953.02 0,-450"
         style="fill:none;stroke:#000000;stroke-width:3;stroke-linecap:butt;stroke-linejoin:miter;stroke-miterlimit:10;stroke-opacity:1;stroke-dasharray:none"
         id="path2902" /><path
         d="m 3842.75,4953.02 0,-450"
         style="fill:none;stroke:#000000;stroke-width:3;stroke-linecap:butt;stroke-linejoin:miter;stroke-miterlimit:10;stroke-opacity:1;stroke-dasharray:none"
         id="path2904" /><path
         d="m 1787.15,4535.43 896.18,0"
         style="fill:none;stroke:#000000;stroke-width:3;stroke-linecap:butt;stroke-linejoin:miter;stroke-miterlimit:10;stroke-opacity:1;stroke-dasharray:none"
         id="path2906" /><path
         d="m 3842.75,4535.43 -899.42,0"
         style="fill:none;stroke:#000000;stroke-width:3;stroke-linecap:butt;stroke-linejoin:miter;stroke-miterlimit:10;stroke-opacity:1;stroke-dasharray:none"
         id="path2908" /><path
         d="m 1795.68,4537.38 c 0,4.43 -3.6,8.03 -8.04,8.03 -4.44,0 -8.03,-3.6 -8.03,-8.03 0,-4.43 3.59,-8.03 8.03,-8.03 4.44,0 8.04,3.6 8.04,8.03 l 0,0 z"
         style="fill:none;stroke:#000000;stroke-width:3;stroke-linecap:butt;stroke-linejoin:miter;stroke-miterlimit:10;stroke-opacity:1;stroke-dasharray:none"
         id="path2910" /><path
         d="m 3837.02,4537.38 c 0,-4.43 3.6,-8.03 8.03,-8.03 4.44,0 8.04,3.6 8.04,8.03 0,4.43 -3.6,8.03 -8.04,8.03 -4.43,0 -8.03,-3.6 -8.03,-8.03 l 0,0 z"
         style="fill:none;stroke:#000000;stroke-width:3;stroke-linecap:butt;stroke-linejoin:miter;stroke-miterlimit:10;stroke-opacity:1;stroke-dasharray:none"
         id="path2912" /><path
         d="m 1787.15,4967.43 0,0"
         style="fill:none;stroke:#000000;stroke-width:3;stroke-linecap:butt;stroke-linejoin:miter;stroke-miterlimit:10;stroke-opacity:1;stroke-dasharray:none"
         id="path2914" /><path
         d="m 3842.75,4967.43 0,0"
         style="fill:none;stroke:#000000;stroke-width:3;stroke-linecap:butt;stroke-linejoin:miter;stroke-miterlimit:10;stroke-opacity:1;stroke-dasharray:none"
         id="path2916" /><path
         d="m 3842.75,4535.43 0,0"
         style="fill:none;stroke:#000000;stroke-width:3;stroke-linecap:butt;stroke-linejoin:miter;stroke-miterlimit:10;stroke-opacity:1;stroke-dasharray:none"
         id="path2918" /><path
         d="m 2510.75,3203.43 230.4,554.39"
         style="fill:none;stroke:#000000;stroke-width:3;stroke-linecap:butt;stroke-linejoin:miter;stroke-miterlimit:10;stroke-opacity:1;stroke-dasharray:none"
         id="path2920" /><path
         d="m 2456.75,3203.43 -230.4,554.39"
         style="fill:none;stroke:#000000;stroke-width:3;stroke-linecap:butt;stroke-linejoin:miter;stroke-miterlimit:10;stroke-opacity:1;stroke-dasharray:none"
         id="path2922" /><path
         d="m 2730.06,3729.27 c -16.58,6.86 -33.44,13.02 -50.54,18.47"
         style="fill:none;stroke:#000000;stroke-width:3;stroke-linecap:butt;stroke-linejoin:miter;stroke-miterlimit:10;stroke-opacity:1;stroke-dasharray:none"
         id="path2924" /><path
         d="m 2292.22,3747.74 c -17.1,-5.45 -33.96,-11.61 -50.54,-18.47"
         style="fill:none;stroke:#000000;stroke-width:3;stroke-linecap:butt;stroke-linejoin:miter;stroke-miterlimit:10;stroke-opacity:1;stroke-dasharray:none"
         id="path2926" /><path
         d="m 2722.64,3732.34 c -1.7,-4.09 0.25,-8.8 4.35,-10.49 4.1,-1.7 8.8,0.25 10.5,4.35 1.69,4.09 -0.25,8.79 -4.35,10.49 -4.1,1.7 -8.8,-0.25 -10.5,-4.35 l 0,0 z"
         style="fill:none;stroke:#000000;stroke-width:3;stroke-linecap:butt;stroke-linejoin:miter;stroke-miterlimit:10;stroke-opacity:1;stroke-dasharray:none"
         id="path2928" /><path
         d="m 2249.1,3732.34 c -1.7,4.1 -6.4,6.05 -10.5,4.35 -4.1,-1.7 -6.05,-6.4 -4.35,-10.49 1.7,-4.1 6.4,-6.05 10.5,-4.35 4.1,1.69 6.05,6.4 4.35,10.49 l 0,0 z"
         style="fill:none;stroke:#000000;stroke-width:3;stroke-linecap:butt;stroke-linejoin:miter;stroke-miterlimit:10;stroke-opacity:1;stroke-dasharray:none"
         id="path2930" /><path
         d="m 2463.95,3189.02 0,0"
         style="fill:none;stroke:#000000;stroke-width:3;stroke-linecap:butt;stroke-linejoin:miter;stroke-miterlimit:10;stroke-opacity:1;stroke-dasharray:none"
         id="path2932" /><path
         d="m 2507.15,3189.02 0,0"
         style="fill:none;stroke:#000000;stroke-width:3;stroke-linecap:butt;stroke-linejoin:miter;stroke-miterlimit:10;stroke-opacity:1;stroke-dasharray:none"
         id="path2934" /><path
         d="m 2485.55,3138.63 0,0 z"
         style="fill:none;stroke:#000000;stroke-width:3;stroke-linecap:butt;stroke-linejoin:miter;stroke-miterlimit:10;stroke-opacity:1;stroke-dasharray:none"
         id="path2936" /><path
         d="m 1776.35,2854.23 0,-262.8"
         style="fill:none;stroke:#000000;stroke-width:3;stroke-linecap:butt;stroke-linejoin:miter;stroke-miterlimit:10;stroke-opacity:1;stroke-dasharray:none"
         id="path2938" /><path
         d="m 3191.15,2854.23 0,-262.8"
         style="fill:none;stroke:#000000;stroke-width:3;stroke-linecap:butt;stroke-linejoin:miter;stroke-miterlimit:10;stroke-opacity:1;stroke-dasharray:none"
         id="path2940" /><path
         d="m 1776.35,2623.82 498.65,0"
         style="fill:none;stroke:#000000;stroke-width:3;stroke-linecap:butt;stroke-linejoin:miter;stroke-miterlimit:10;stroke-opacity:1;stroke-dasharray:none"
         id="path2942" /><path
         d="m 3191.15,2623.82 -626.15,0"
         style="fill:none;stroke:#000000;stroke-width:3;stroke-linecap:butt;stroke-linejoin:miter;stroke-miterlimit:10;stroke-opacity:1;stroke-dasharray:none"
         id="path2944" /><path
         d="m 1786.67,2624.41 c 0,4.44 -3.6,8.04 -8.04,8.04 -4.43,0 -8.03,-3.6 -8.03,-8.04 0,-4.43 3.6,-8.03 8.03,-8.03 4.44,0 8.04,3.6 8.04,8.03 l 0,0 z"
         style="fill:none;stroke:#000000;stroke-width:3;stroke-linecap:butt;stroke-linejoin:miter;stroke-miterlimit:10;stroke-opacity:1;stroke-dasharray:none"
         id="path2946" /><path
         d="m 3185.07,2624.41 c 0,-4.43 3.6,-8.03 8.04,-8.03 4.43,0 8.03,3.6 8.03,8.03 0,4.44 -3.6,8.04 -8.03,8.04 -4.44,0 -8.04,-3.6 -8.04,-8.04 l 0,0 z"
         style="fill:none;stroke:#000000;stroke-width:3;stroke-linecap:butt;stroke-linejoin:miter;stroke-miterlimit:10;stroke-opacity:1;stroke-dasharray:none"
         id="path2948" /><path
         d="m 1776.35,2868.63 0,0"
         style="fill:none;stroke:#000000;stroke-width:3;stroke-linecap:butt;stroke-linejoin:miter;stroke-miterlimit:10;stroke-opacity:1;stroke-dasharray:none"
         id="path2950" /><path
         d="m 3191.15,2868.63 0,0"
         style="fill:none;stroke:#000000;stroke-width:3;stroke-linecap:butt;stroke-linejoin:miter;stroke-miterlimit:10;stroke-opacity:1;stroke-dasharray:none"
         id="path2952" /><path
         d="m 3191.15,2623.82 0,0"
         style="fill:none;stroke:#000000;stroke-width:3;stroke-linecap:butt;stroke-linejoin:miter;stroke-miterlimit:10;stroke-opacity:1;stroke-dasharray:none"
         id="path2954" /><path
         d="m 3252.35,3189.02 237.6,0"
         style="fill:none;stroke:#000000;stroke-width:3;stroke-linecap:butt;stroke-linejoin:miter;stroke-miterlimit:10;stroke-opacity:1;stroke-dasharray:none"
         id="path2956" /><path
         d="m 3252.35,2933.43 237.6,0"
         style="fill:none;stroke:#000000;stroke-width:3;stroke-linecap:butt;stroke-linejoin:miter;stroke-miterlimit:10;stroke-opacity:1;stroke-dasharray:none"
         id="path2958" /><path
         d="m 3457.55,3189.02 0,-44.02"
         style="fill:none;stroke:#000000;stroke-width:3;stroke-linecap:butt;stroke-linejoin:miter;stroke-miterlimit:10;stroke-opacity:1;stroke-dasharray:none"
         id="path2960" /><path
         d="m 3457.55,2933.43 0,31.57"
         style="fill:none;stroke:#000000;stroke-width:3;stroke-linecap:butt;stroke-linejoin:miter;stroke-miterlimit:10;stroke-opacity:1;stroke-dasharray:none"
         id="path2962" /><path
         d="m 3460.01,3183.45 c 4.44,0 8.04,3.6 8.04,8.03 0,4.44 -3.6,8.04 -8.04,8.04 -4.44,0 -8.04,-3.6 -8.04,-8.04 0,-4.43 3.6,-8.03 8.04,-8.03 l 0,0 z"
         style="fill:none;stroke:#000000;stroke-width:3;stroke-linecap:butt;stroke-linejoin:miter;stroke-miterlimit:10;stroke-opacity:1;stroke-dasharray:none"
         id="path2964" /><path
         d="m 3460.01,2942.49 c -4.44,0 -8.04,-3.6 -8.04,-8.03 0,-4.43 3.6,-8.03 8.04,-8.03 4.44,0 8.04,3.6 8.04,8.03 0,4.43 -3.6,8.03 -8.04,8.03 l 0,0 z"
         style="fill:none;stroke:#000000;stroke-width:3;stroke-linecap:butt;stroke-linejoin:miter;stroke-miterlimit:10;stroke-opacity:1;stroke-dasharray:none"
         id="path2966" /><path
         d="m 3237.95,3189.02 0,0"
         style="fill:none;stroke:#000000;stroke-width:3;stroke-linecap:butt;stroke-linejoin:miter;stroke-miterlimit:10;stroke-opacity:1;stroke-dasharray:none"
         id="path2968" /><path
         d="m 3237.95,2933.43 0,0"
         style="fill:none;stroke:#000000;stroke-width:3;stroke-linecap:butt;stroke-linejoin:miter;stroke-miterlimit:10;stroke-opacity:1;stroke-dasharray:none"
         id="path2970" /><path
         d="m 3457.55,2933.43 0,0"
         style="fill:none;stroke:#000000;stroke-width:3;stroke-linecap:butt;stroke-linejoin:miter;stroke-miterlimit:10;stroke-opacity:1;stroke-dasharray:none"
         id="path2972" /><path
         d="m 3835.55,3088.23 46.8,50.4"
         style="fill:none;stroke:#000000;stroke-width:3;stroke-linecap:butt;stroke-linejoin:miter;stroke-miterlimit:10;stroke-opacity:1;stroke-dasharray:none"
         id="path2974" /><path
         d="m 3835.55,3030.63 104.4,108"
         style="fill:none;stroke:#000000;stroke-width:3;stroke-linecap:butt;stroke-linejoin:miter;stroke-miterlimit:10;stroke-opacity:1;stroke-dasharray:none"
         id="path2976" /><path
         d="m 3835.55,2973.02 126,129.61"
         style="fill:none;stroke:#000000;stroke-width:3;stroke-linecap:butt;stroke-linejoin:miter;stroke-miterlimit:10;stroke-opacity:1;stroke-dasharray:none"
         id="path2978" /><path
         d="m 3849.95,2933.43 111.6,111.59"
         style="fill:none;stroke:#000000;stroke-width:3;stroke-linecap:butt;stroke-linejoin:miter;stroke-miterlimit:10;stroke-opacity:1;stroke-dasharray:none"
         id="path2980" /><path
         d="m 3907.55,2933.43 54,54"
         style="fill:none;stroke:#000000;stroke-width:3;stroke-linecap:butt;stroke-linejoin:miter;stroke-miterlimit:10;stroke-opacity:1;stroke-dasharray:none"
         id="path2982" /><path
         d="m 3835.55,2872.23 0,-298.8"
         style="fill:none;stroke:#000000;stroke-width:3;stroke-linecap:butt;stroke-linejoin:miter;stroke-miterlimit:10;stroke-opacity:1;stroke-dasharray:none"
         id="path2984" /><path
         d="m 3961.55,2872.23 0,-298.8"
         style="fill:none;stroke:#000000;stroke-width:3;stroke-linecap:butt;stroke-linejoin:miter;stroke-miterlimit:10;stroke-opacity:1;stroke-dasharray:none"
         id="path2986" /><path
         d="m 3835.55,2605.82 28.8,0"
         style="fill:none;stroke:#000000;stroke-width:3;stroke-linecap:butt;stroke-linejoin:miter;stroke-miterlimit:10;stroke-opacity:1;stroke-dasharray:none"
         id="path2988" /><path
         d="m 3961.55,2605.82 -28.8,0"
         style="fill:none;stroke:#000000;stroke-width:3;stroke-linecap:butt;stroke-linejoin:miter;stroke-miterlimit:10;stroke-opacity:1;stroke-dasharray:none"
         id="path2990" /><path
         d="m 3844.09,2606.41 c 0,4.43 -3.61,8.03 -8.04,8.03 -4.44,0 -8.04,-3.6 -8.04,-8.03 0,-4.44 3.6,-8.03 8.04,-8.03 4.43,0 8.04,3.59 8.04,8.03 l 0,0 z"
         style="fill:none;stroke:#000000;stroke-width:3;stroke-linecap:butt;stroke-linejoin:miter;stroke-miterlimit:10;stroke-opacity:1;stroke-dasharray:none"
         id="path2992" /><path
         d="m 3956.6,2606.41 c 0,-4.44 3.6,-8.03 8.04,-8.03 4.43,0 8.03,3.59 8.03,8.03 0,4.43 -3.6,8.03 -8.03,8.03 -4.44,0 -8.04,-3.6 -8.04,-8.03 l 0,0 z"
         style="fill:none;stroke:#000000;stroke-width:3;stroke-linecap:butt;stroke-linejoin:miter;stroke-miterlimit:10;stroke-opacity:1;stroke-dasharray:none"
         id="path2994" /><path
         d="m 3835.55,2886.63 0,0"
         style="fill:none;stroke:#000000;stroke-width:3;stroke-linecap:butt;stroke-linejoin:miter;stroke-miterlimit:10;stroke-opacity:1;stroke-dasharray:none"
         id="path2996" /><path
         d="m 3961.55,2886.63 0,0"
         style="fill:none;stroke:#000000;stroke-width:3;stroke-linecap:butt;stroke-linejoin:miter;stroke-miterlimit:10;stroke-opacity:1;stroke-dasharray:none"
         id="path2998" /><path
         d="m 3961.55,2605.82 0,0"
         style="fill:none;stroke:#000000;stroke-width:3;stroke-linecap:butt;stroke-linejoin:miter;stroke-miterlimit:10;stroke-opacity:1;stroke-dasharray:none"
         id="path3000" /><path
         d="m 3835.55,3189.02 0,-50.39"
         style="fill:none;stroke:#000000;stroke-width:3;stroke-linecap:butt;stroke-linejoin:miter;stroke-miterlimit:10;stroke-opacity:1;stroke-dasharray:none"
         id="path3002" /><path
         d="m 3961.55,3189.02 0,-50.39"
         style="fill:none;stroke:#000000;stroke-width:3;stroke-linecap:butt;stroke-linejoin:miter;stroke-miterlimit:10;stroke-opacity:1;stroke-dasharray:none"
         id="path3004" /><path
         d="m 2438.75,5205.02 93.6,93.61"
         style="fill:none;stroke:#000000;stroke-width:3;stroke-linecap:butt;stroke-linejoin:miter;stroke-miterlimit:10;stroke-opacity:1;stroke-dasharray:none"
         id="path3006" /><path
         d="m 2449.55,5158.23 140.4,140.4"
         style="fill:none;stroke:#000000;stroke-width:3;stroke-linecap:butt;stroke-linejoin:miter;stroke-miterlimit:10;stroke-opacity:1;stroke-dasharray:none"
         id="path3008" /><path
         d="m 2474.75,5125.82 162,158.41"
         style="fill:none;stroke:#000000;stroke-width:3;stroke-linecap:butt;stroke-linejoin:miter;stroke-miterlimit:10;stroke-opacity:1;stroke-dasharray:none"
         id="path3010" /><path
         d="m 2514.35,5104.23 154.8,154.8"
         style="fill:none;stroke:#000000;stroke-width:3;stroke-linecap:butt;stroke-linejoin:miter;stroke-miterlimit:10;stroke-opacity:1;stroke-dasharray:none"
         id="path3012" /><path
         d="m 2561.15,5097.03 129.6,125.99"
         style="fill:none;stroke:#000000;stroke-width:3;stroke-linecap:butt;stroke-linejoin:miter;stroke-miterlimit:10;stroke-opacity:1;stroke-dasharray:none"
         id="path3014" /><path
         d="m 2633.15,5111.43 54,50.39"
         style="fill:none;stroke:#000000;stroke-width:3;stroke-linecap:butt;stroke-linejoin:miter;stroke-miterlimit:10;stroke-opacity:1;stroke-dasharray:none"
         id="path3016" /><path
         d="m 1410.6,5199.57 2827.46,0"
         style="fill:none;stroke:#000000;stroke-width:3;stroke-linecap:butt;stroke-linejoin:miter;stroke-miterlimit:10;stroke-opacity:1;stroke-dasharray:50, 20;stroke-dashoffset:0"
         id="path3018" /><path
         d="m 2301.95,5237.43 0,-79.2"
         style="fill:none;stroke:#000000;stroke-width:3;stroke-linecap:butt;stroke-linejoin:miter;stroke-miterlimit:10;stroke-opacity:1;stroke-dasharray:none"
         id="path3020" /><path
         d="m 3183.95,5302.22 0,-28.89"
         style="fill:none;stroke:#000000;stroke-width:3;stroke-linecap:butt;stroke-linejoin:miter;stroke-miterlimit:10;stroke-opacity:1;stroke-dasharray:none"
         id="path3022" /><path
         d="m 3183.95,5093.43 0,29.9"
         style="fill:none;stroke:#000000;stroke-width:3;stroke-linecap:butt;stroke-linejoin:miter;stroke-miterlimit:10;stroke-opacity:1;stroke-dasharray:none"
         id="path3024" /><path
         d="m 3185.45,5294.55 c 4.43,0 8.03,3.6 8.03,8.04 0,4.43 -3.6,8.03 -8.03,8.03 -4.44,0 -8.04,-3.6 -8.04,-8.03 0,-4.44 3.6,-8.04 8.04,-8.04 l 0,0 z"
         style="fill:none;stroke:#000000;stroke-width:3;stroke-linecap:butt;stroke-linejoin:miter;stroke-miterlimit:10;stroke-opacity:1;stroke-dasharray:none"
         id="path3026" /><path
         d="m 3185.45,5105 c -4.44,0 -8.04,-3.6 -8.04,-8.04 0,-4.43 3.6,-8.03 8.04,-8.03 4.43,0 8.03,3.6 8.03,8.03 0,4.44 -3.6,8.04 -8.03,8.04 l 0,0 z"
         style="fill:none;stroke:#000000;stroke-width:3;stroke-linecap:butt;stroke-linejoin:miter;stroke-miterlimit:10;stroke-opacity:1;stroke-dasharray:none"
         id="path3028" /><path
         d="m 3432.35,5302.22 0,0"
         style="fill:none;stroke:#000000;stroke-width:3;stroke-linecap:butt;stroke-linejoin:miter;stroke-miterlimit:10;stroke-opacity:1;stroke-dasharray:none"
         id="path3030" /><path
         d="m 3432.35,5093.43 0,0"
         style="fill:none;stroke:#000000;stroke-width:3;stroke-linecap:butt;stroke-linejoin:miter;stroke-miterlimit:10;stroke-opacity:1;stroke-dasharray:none"
         id="path3032" /><path
         d="m 3183.95,5093.43 0,0"
         style="fill:none;stroke:#000000;stroke-width:3;stroke-linecap:butt;stroke-linejoin:miter;stroke-miterlimit:10;stroke-opacity:1;stroke-dasharray:none"
         id="path3034" /><path
         d="m 3327.95,5237.43 0,-79.2"
         style="fill:none;stroke:#000000;stroke-width:3;stroke-linecap:butt;stroke-linejoin:miter;stroke-miterlimit:10;stroke-opacity:1;stroke-dasharray:none"
         id="path3036" /><path
         d="m 2147.69,5353.99 c 0,-28.38 23.04,-51.4 51.44,-51.4"
         style="fill:none;stroke:#000000;stroke-width:8;stroke-linecap:butt;stroke-linejoin:miter;stroke-miterlimit:10;stroke-opacity:1;stroke-dasharray:none"
         id="path3038" /><path
         d="m 3433.57,5302.59 c 28.39,0 51.44,23.02 51.44,51.4"
         style="fill:none;stroke:#000000;stroke-width:8;stroke-linecap:butt;stroke-linejoin:miter;stroke-miterlimit:10;stroke-opacity:1;stroke-dasharray:none"
         id="path3040" /><path
         d="m 2199.13,5096.96 c -28.4,0 -51.44,-23.03 -51.44,-51.4"
         style="fill:none;stroke:#000000;stroke-width:8;stroke-linecap:butt;stroke-linejoin:miter;stroke-miterlimit:10;stroke-opacity:1;stroke-dasharray:none"
         id="path3042" /><path
         d="m 3485.01,5045.56 c 0,28.37 -23.05,51.4 -51.44,51.4"
         style="fill:none;stroke:#000000;stroke-width:8;stroke-linecap:butt;stroke-linejoin:miter;stroke-miterlimit:10;stroke-opacity:1;stroke-dasharray:none"
         id="path3044" /><path
         d="m 2438.75,5197.82 3.6,-18 7.2,-21.59 10.8,-14.41 14.4,-18 18,-10.8 21.6,-10.79 21.6,-7.2 50.4,0 21.6,3.6 21.6,7.19 21.6,10.81 14.4,14.39 14.4,18 7.2,18.01 7.2,18 0,21.6 -7.2,18 -7.2,18 -14.4,18 -14.4,14.39 -21.6,10.8 -21.6,7.2 -21.6,3.61 -25.2,3.59 -25.2,-3.59 -21.6,-7.2 -21.6,-10.8 -18,-10.81 -14.4,-18 -10.8,-14.39 -7.2,-21.61 -3.6,-18 z"
         style="fill:none;stroke:#000000;stroke-width:8;stroke-linecap:butt;stroke-linejoin:miter;stroke-miterlimit:10;stroke-opacity:1;stroke-dasharray:none"
         id="path3046" /><path
         d="m 2507.15,3189.02 684,0"
         style="fill:none;stroke:#000000;stroke-width:8;stroke-linecap:butt;stroke-linejoin:miter;stroke-miterlimit:10;stroke-opacity:1;stroke-dasharray:none"
         id="path3048" /><path
         d="m 1776.35,2933.43 1414.8,0"
         style="fill:none;stroke:#000000;stroke-width:8;stroke-linecap:butt;stroke-linejoin:miter;stroke-miterlimit:10;stroke-opacity:1;stroke-dasharray:none"
         id="path3050" /><path
         d="m 1776.35,3189.02 687.6,0"
         style="fill:none;stroke:#000000;stroke-width:8;stroke-linecap:butt;stroke-linejoin:miter;stroke-miterlimit:10;stroke-opacity:1;stroke-dasharray:none"
         id="path3052" /><path
         d="m 1776.35,2933.43 0,255.59"
         style="fill:none;stroke:#000000;stroke-width:8;stroke-linecap:butt;stroke-linejoin:miter;stroke-miterlimit:10;stroke-opacity:1;stroke-dasharray:none"
         id="path3054" /><path
         d="m 2507.15,3189.02 -21.6,-50.39"
         style="fill:none;stroke:#000000;stroke-width:8;stroke-linecap:butt;stroke-linejoin:miter;stroke-miterlimit:10;stroke-opacity:1;stroke-dasharray:none"
         id="path3056" /><path
         d="m 2463.95,3189.02 21.6,-50.39"
         style="fill:none;stroke:#000000;stroke-width:8;stroke-linecap:butt;stroke-linejoin:miter;stroke-miterlimit:10;stroke-opacity:1;stroke-dasharray:none"
         id="path3058" /><path
         d="m 3191.15,3189.02 0,-255.59"
         style="fill:none;stroke:#000000;stroke-width:8;stroke-linecap:butt;stroke-linejoin:miter;stroke-miterlimit:10;stroke-opacity:1;stroke-dasharray:none"
         id="path3060" /><path
         d="m 3835.55,3138.63 0,-205.2"
         style="fill:none;stroke:#000000;stroke-width:8;stroke-linecap:butt;stroke-linejoin:miter;stroke-miterlimit:10;stroke-opacity:1;stroke-dasharray:none"
         id="path3062" /><path
         d="m 3961.55,3138.63 0,-205.2"
         style="fill:none;stroke:#000000;stroke-width:8;stroke-linecap:butt;stroke-linejoin:miter;stroke-miterlimit:10;stroke-opacity:1;stroke-dasharray:none"
         id="path3064" /><path
         d="m 3961.55,2933.43 -126,0"
         style="fill:none;stroke:#000000;stroke-width:8;stroke-linecap:butt;stroke-linejoin:miter;stroke-miterlimit:10;stroke-opacity:1;stroke-dasharray:none"
         id="path3066" /><path
         d="m 3835.55,3138.63 126,0"
         style="fill:none;stroke:#000000;stroke-width:8;stroke-linecap:butt;stroke-linejoin:miter;stroke-miterlimit:10;stroke-opacity:1;stroke-dasharray:none"
         id="path3068" /><path
         d="m 3835.55,3189.02 126,0"
         style="fill:none;stroke:#000000;stroke-width:8;stroke-linecap:butt;stroke-linejoin:miter;stroke-miterlimit:10;stroke-opacity:1;stroke-dasharray:none"
         id="path3070" /><path
         d="m 2197.55,5093.43 1234.8,0"
         style="fill:none;stroke:#000000;stroke-width:8;stroke-linecap:butt;stroke-linejoin:miter;stroke-miterlimit:10;stroke-opacity:1;stroke-dasharray:none"
         id="path3072" /><path
         d="m 2197.55,5302.22 1234.8,0"
         style="fill:none;stroke:#000000;stroke-width:8;stroke-linecap:butt;stroke-linejoin:miter;stroke-miterlimit:10;stroke-opacity:1;stroke-dasharray:none"
         id="path3074" /><path
         d="m 2147.15,5043.02 0,309.61"
         style="fill:none;stroke:#000000;stroke-width:8;stroke-linecap:butt;stroke-linejoin:miter;stroke-miterlimit:10;stroke-opacity:1;stroke-dasharray:none"
         id="path3076" /><path
         d="m 1787.15,5352.63 0,-309.61"
         style="fill:none;stroke:#000000;stroke-width:8;stroke-linecap:butt;stroke-linejoin:miter;stroke-miterlimit:10;stroke-opacity:1;stroke-dasharray:none"
         id="path3078" /><path
         d="m 1787.15,5068.23 360,0"
         style="fill:none;stroke:#000000;stroke-width:8;stroke-linecap:butt;stroke-linejoin:miter;stroke-miterlimit:10;stroke-opacity:1;stroke-dasharray:none"
         id="path3080" /><path
         d="m 1787.15,5043.02 360,0"
         style="fill:none;stroke:#000000;stroke-width:8;stroke-linecap:butt;stroke-linejoin:miter;stroke-miterlimit:10;stroke-opacity:1;stroke-dasharray:none"
         id="path3082" /><path
         d="m 1787.15,5327.43 360,0"
         style="fill:none;stroke:#000000;stroke-width:8;stroke-linecap:butt;stroke-linejoin:miter;stroke-miterlimit:10;stroke-opacity:1;stroke-dasharray:none"
         id="path3084" /><path
         d="m 1787.15,5352.63 360,0"
         style="fill:none;stroke:#000000;stroke-width:8;stroke-linecap:butt;stroke-linejoin:miter;stroke-miterlimit:10;stroke-opacity:1;stroke-dasharray:none"
         id="path3086" /><path
         d="m 3414.35,5302.22 -262.8,0"
         style="fill:none;stroke:#000000;stroke-width:8;stroke-linecap:butt;stroke-linejoin:miter;stroke-miterlimit:10;stroke-opacity:1;stroke-dasharray:none"
         id="path3088" /><path
         d="m 3414.35,5093.43 -262.8,0"
         style="fill:none;stroke:#000000;stroke-width:8;stroke-linecap:butt;stroke-linejoin:miter;stroke-miterlimit:10;stroke-opacity:1;stroke-dasharray:none"
         id="path3090" /><path
         d="m 3482.75,5043.02 0,309.61"
         style="fill:none;stroke:#000000;stroke-width:8;stroke-linecap:butt;stroke-linejoin:miter;stroke-miterlimit:10;stroke-opacity:1;stroke-dasharray:none"
         id="path3092" /><path
         d="m 3842.75,5043.02 0,309.61"
         style="fill:none;stroke:#000000;stroke-width:8;stroke-linecap:butt;stroke-linejoin:miter;stroke-miterlimit:10;stroke-opacity:1;stroke-dasharray:none"
         id="path3094" /><path
         d="m 3482.75,5068.23 360,0"
         style="fill:none;stroke:#000000;stroke-width:8;stroke-linecap:butt;stroke-linejoin:miter;stroke-miterlimit:10;stroke-opacity:1;stroke-dasharray:none"
         id="path3096" /><path
         d="m 3482.75,5043.02 360,0"
         style="fill:none;stroke:#000000;stroke-width:8;stroke-linecap:butt;stroke-linejoin:miter;stroke-miterlimit:10;stroke-opacity:1;stroke-dasharray:none"
         id="path3098" /><path
         d="m 3482.75,5327.43 360,0"
         style="fill:none;stroke:#000000;stroke-width:8;stroke-linecap:butt;stroke-linejoin:miter;stroke-miterlimit:10;stroke-opacity:1;stroke-dasharray:none"
         id="path3100" /><path
         d="m 3482.75,5352.63 360,0"
         style="fill:none;stroke:#000000;stroke-width:8;stroke-linecap:butt;stroke-linejoin:miter;stroke-miterlimit:10;stroke-opacity:1;stroke-dasharray:none"
         id="path3102" /><g
         id="g3104"
         transform="scale(10,10)"><text
           transform="matrix(1,0,0,-1,203.764,567.333)"
           id="text3106"><tspan
             style="font-size:14px;font-variant:normal;font-weight:300;writing-mode:lr-tb;fill:#000000;fill-opacity:1;fill-rule:nonzero;stroke:none;font-family:Helvetica;-inkscape-font-specification:Helvetica-Light"
             x="0 8.5539999 16.337999 23.337999 27.23 31.122 38.905998 46.689999 53.689999 56.798 63.798 71.582001 75.473999 79.365997 87.150002 91.811996 95.704002 99.596001 104.258 112.042 119.042 122.934 126.042 133.826"
             y="0"
             sodipodi:role="line"
             id="tspan3108">Test device for traction</tspan><tspan
             style="font-size:14px;font-variant:normal;font-weight:300;writing-mode:lr-tb;fill:#000000;fill-opacity:1;fill-rule:nonzero;stroke:none;font-family:Helvetica;-inkscape-font-specification:Helvetica-Light"
             x="226.01199 237.674 241.56599 249.35001"
             y="52.666401"
             sodipodi:role="line"
             id="tspan3110">M 12</tspan><tspan
             style="font-size:14px;font-variant:normal;font-weight:300;writing-mode:lr-tb;fill:#000000;fill-opacity:1;fill-rule:nonzero;stroke:none;font-family:Helvetica;-inkscape-font-specification:Helvetica-Light"
             x="111.011"
             y="52.333199"
             id="tspan3112">8</tspan><tspan
             style="font-size:14px;font-variant:normal;font-weight:300;writing-mode:lr-tb;fill:#000000;fill-opacity:1;fill-rule:nonzero;stroke:none;font-family:Helvetica;-inkscape-font-specification:Helvetica-Light"
             x="69.452797 77.236801"
             y="92.333199"
             sodipodi:role="line"
             id="tspan3114">40</tspan><tspan
             style="font-size:14px;font-variant:normal;font-weight:300;writing-mode:lr-tb;fill:#000000;fill-opacity:1;fill-rule:nonzero;stroke:none;font-family:Helvetica;-inkscape-font-specification:Helvetica-Light"
             x="69.452797 77.236801"
             y="107.3332"
             sodipodi:role="line"
             id="tspan3116">48</tspan><tspan
             style="font-size:14px;font-variant:normal;font-weight:300;writing-mode:lr-tb;fill:#000000;fill-opacity:1;fill-rule:nonzero;stroke:none;font-family:Helvetica;-inkscape-font-specification:Helvetica-Light"
             x="69.452797 77.236801"
             y="123"
             sodipodi:role="line"
             id="tspan3118">80</tspan><tspan
             style="font-size:14px;font-variant:normal;font-weight:300;writing-mode:lr-tb;fill:#000000;fill-opacity:1;fill-rule:nonzero;stroke:none;font-family:Helvetica;-inkscape-font-specification:Helvetica-Light"
             x="116.1649 124.7189 132.5029 139.5029 143.3949 147.2869 155.07091 162.8549 169.8549 172.96291 179.96291 187.7469 191.6389 195.5309 203.3149 207.9769 211.8689 215.76089 223.54491 231.3289 238.3289 241.4369 244.54491 252.3289 256.22089 263.22089 267.11292 271.7749 279.5589 287.3429 295.12689 299.01889"
             y="208"
             sodipodi:role="line"
             id="tspan3120">Test device for tensile strength</tspan><tspan
             style="font-size:14px;font-variant:normal;font-weight:300;writing-mode:lr-tb;fill:#000000;fill-opacity:1;fill-rule:nonzero;stroke:none;font-family:Helvetica;-inkscape-font-specification:Helvetica-Light"
             x="19.454 27.238001"
             y="186.83321"
             sodipodi:role="line"
             id="tspan3122">45</tspan></text>
<text
           transform="matrix(1,0,0,-1,238.786,380.4998)"
           id="text3124"><tspan
             style="font-size:14px;font-variant:normal;font-weight:normal;writing-mode:lr-tb;fill:#000000;fill-opacity:1;fill-rule:nonzero;stroke:none;font-family:Symbol;-inkscape-font-specification:Symbol"
             x="0"
             y="0"
             id="tspan3126">°</tspan></text>
<text
           transform="matrix(1,0,0,-1,248.27819,380.4998)"
           id="text3128"><tspan
             style="font-size:14px;font-variant:normal;font-weight:normal;writing-mode:lr-tb;fill:#000000;fill-opacity:1;fill-rule:nonzero;stroke:none;font-family:Symbol;-inkscape-font-specification:Symbol"
             x="0"
             y="0"
             id="tspan3130">±</tspan></text>
<text
           transform="matrix(1,0,0,-1,259.85613,380.4998)"
           id="text3132"><tspan
             style="font-size:14px;font-variant:normal;font-weight:300;writing-mode:lr-tb;fill:#000000;fill-opacity:1;fill-rule:nonzero;stroke:none;font-family:Helvetica;-inkscape-font-specification:Helvetica-Light"
             x="0"
             y="0"
             id="tspan3134">2</tspan></text>
<text
           transform="matrix(1,0,0,-1,267.64033,380.4998)"
           id="text3136"><tspan
             style="font-size:14px;font-variant:normal;font-weight:normal;writing-mode:lr-tb;fill:#000000;fill-opacity:1;fill-rule:nonzero;stroke:none;font-family:Symbol;-inkscape-font-specification:Symbol"
             x="0"
             y="0"
             id="tspan3138">°</tspan></text>
<text
           transform="matrix(1,0,0,-1,234.46693,258.4598)"
           id="text3140"><tspan
             style="font-size:14px;font-variant:normal;font-weight:300;writing-mode:lr-tb;fill:#000000;fill-opacity:1;fill-rule:nonzero;stroke:none;font-family:Helvetica;-inkscape-font-specification:Helvetica-Light"
             x="0 7.7839999"
             y="0"
             sodipodi:role="line"
             id="tspan3142">55</tspan><tspan
             style="font-size:14px;font-variant:normal;font-weight:300;writing-mode:lr-tb;fill:#000000;fill-opacity:1;fill-rule:nonzero;stroke:none;font-family:Helvetica;-inkscape-font-specification:Helvetica-Light"
             x="104.75 112.534"
             y="-42.039799"
             sodipodi:role="line"
             id="tspan3144">10</tspan></text>
</g><path
         d="m 3900,2606.4 0,-251.4"
         style="fill:none;stroke:#000000;stroke-width:3;stroke-linecap:butt;stroke-linejoin:miter;stroke-miterlimit:10;stroke-opacity:1;stroke-dasharray:none"
         id="path3146" /><g
         id="g3148"
         transform="scale(10,10)"><text
           transform="matrix(1,0,0,-1,387.109,220)"
           id="text3150"><tspan
             style="font-size:14px;font-variant:normal;font-weight:300;writing-mode:lr-tb;fill:#000000;fill-opacity:1;fill-rule:nonzero;stroke:none;font-family:Helvetica;-inkscape-font-specification:Helvetica-Light"
             x="0"
             y="0"
             id="tspan3152">5</tspan></text>
</g><path
         d="m 4208.7,3040 237.6,0"
         style="fill:none;stroke:#000000;stroke-width:3;stroke-linecap:butt;stroke-linejoin:miter;stroke-miterlimit:10;stroke-opacity:1;stroke-dasharray:none"
         id="path3154" /><g
         id="g3156"
         transform="scale(10,10)"><text
           transform="matrix(1,0,0,-1,450.481,299.5)"
           id="text3158"><tspan
             style="font-size:14px;font-variant:normal;font-weight:300;writing-mode:lr-tb;fill:#000000;fill-opacity:1;fill-rule:nonzero;stroke:none;font-family:Helvetica;-inkscape-font-specification:Helvetica-Light"
             x="0 7.7839999"
             y="0"
             sodipodi:role="line"
             id="tspan3160">8 </tspan></text>
<text
           transform="matrix(1,0,0,-1,462.1572,299.5)"
           id="text3162"><tspan
             style="font-size:14px;font-variant:normal;font-weight:normal;writing-mode:lr-tb;fill:#000000;fill-opacity:1;fill-rule:nonzero;stroke:none;font-family:Symbol;-inkscape-font-specification:Symbol"
             x="0"
             y="0"
             id="tspan3164">±</tspan></text>
<text
           transform="matrix(1,0,0,-1,473.73514,299.5)"
           id="text3166"><tspan
             style="font-size:14px;font-variant:normal;font-weight:300;writing-mode:lr-tb;fill:#000000;fill-opacity:1;fill-rule:nonzero;stroke:none;font-family:Helvetica;-inkscape-font-specification:Helvetica-Light"
             x="0 7.7839999 11.676 19.459999"
             y="0"
             sodipodi:role="line"
             id="tspan3168">0.11</tspan></text>
</g></g></g></svg>